<svg width="70" height="71" viewBox="0 0 70 71" fill="none" xmlns="http://www.w3.org/2000/svg">
<g clip-path="url(#clip0_29_2750)">
<mask id="mask0_29_2750" style="mask-type:luminance" maskUnits="userSpaceOnUse" x="0" y="0" width="70" height="71">
<path d="M69.9972 0.8125H0.00320435V70.8037H69.9972V0.8125Z" fill="white"/>
</mask>
<g mask="url(#mask0_29_2750)">
<mask id="mask1_29_2750" style="mask-type:luminance" maskUnits="userSpaceOnUse" x="7" y="8" width="56" height="56">
<path d="M35.0005 63.2328C50.1466 63.2328 62.4247 50.9543 62.4247 35.8083C62.4247 20.6621 50.1466 8.38379 35.0005 8.38379C19.8544 8.38379 7.57602 20.6621 7.57602 35.8083C7.57602 50.9543 19.8544 63.2328 35.0005 63.2328Z" fill="white"/>
</mask>
<g mask="url(#mask1_29_2750)">
<path d="M35.0005 63.2328C50.1466 63.2328 62.4247 50.9543 62.4247 35.8083C62.4247 20.6621 50.1466 8.38379 35.0005 8.38379C19.8544 8.38379 7.57602 20.6621 7.57602 35.8083C7.57602 50.9543 19.8544 63.2328 35.0005 63.2328Z" fill="#E31E24"/>
<path d="M-6.1068 31.3281L-6.49081 31.7121L38.966 77.169L39.35 76.7851L-6.1068 31.3281Z" fill="#FF6F73"/>
<path d="M-4.64349 29.8789L-5.02753 30.2629L40.4293 75.72L40.8133 75.3355L-4.64349 29.8789Z" fill="#FF6F73"/>
<path d="M-3.18088 28.4297L-3.56491 28.8137L41.8919 74.2704L42.2759 73.8865L-3.18088 28.4297Z" fill="#FF6F73"/>
<path d="M-1.71698 26.9805L-2.10101 27.3645L43.3558 72.8214L43.7398 72.4375L-1.71698 26.9805Z" fill="#FF6F73"/>
<path d="M-0.254332 25.5322L-0.638367 25.9163L44.8184 71.3729L45.2025 70.989L-0.254332 25.5322Z" fill="#FF6F73"/>
<path d="M1.20984 24.084L0.825806 24.468L46.2826 69.9249L46.6666 69.541L1.20984 24.084Z" fill="#FF6F73"/>
<path d="M2.67309 22.6338L2.28906 23.0179L47.7459 68.4749L48.1299 68.0905L2.67309 22.6338Z" fill="#FF6F73"/>
<path d="M4.13638 21.1855L3.75235 21.5696L49.2092 67.0264L49.5932 66.6425L4.13638 21.1855Z" fill="#FF6F73"/>
<path d="M5.59901 19.7373L5.21497 20.1213L50.6718 65.5783L51.0558 65.1939L5.59901 19.7373Z" fill="#FF6F73"/>
<path d="M7.06315 18.2881L6.67914 18.6721L52.136 64.1288L52.52 63.7449L7.06315 18.2881Z" fill="#FF6F73"/>
<path d="M8.52641 16.8398L8.1424 17.2239L53.5992 62.6808L53.9833 62.2969L8.52641 16.8398Z" fill="#FF6F73"/>
<path d="M9.98906 15.3906L9.60504 15.7747L55.0621 61.2313L55.446 60.8474L9.98906 15.3906Z" fill="#FF6F73"/>
<path d="M11.4523 13.9414L11.0683 14.3255L56.525 59.7823L56.9089 59.3984L11.4523 13.9414Z" fill="#FF6F73"/>
<path d="M12.9156 12.4932L12.5316 12.8772L57.9884 58.3342L58.3723 57.9498L12.9156 12.4932Z" fill="#FF6F73"/>
<path d="M14.3798 11.043L13.9957 11.427L59.4524 56.8837L59.8363 56.4998L14.3798 11.043Z" fill="#FF6F73"/>
<path d="M15.8431 9.5957L15.459 9.97977L60.9158 55.4366L61.2997 55.0526L15.8431 9.5957Z" fill="#FF6F73"/>
<path d="M17.3057 8.14648L16.9216 8.53055L62.3782 53.9873L62.7627 53.6033L17.3057 8.14648Z" fill="#FF6F73"/>
<path d="M18.7683 6.69727L18.3842 7.08134L63.8411 52.5381L64.225 52.1541L18.7683 6.69727Z" fill="#FF6F73"/>
<path d="M20.2322 5.24805L19.8481 5.63208L65.305 51.0889L65.689 50.7049L20.2322 5.24805Z" fill="#FF6F73"/>
<path d="M21.6957 3.7998L21.3117 4.18384L66.7685 49.6407L67.1524 49.2566L21.6957 3.7998Z" fill="#FF6F73"/>
<path d="M23.1596 2.35059L22.7756 2.73462L68.2325 48.1915L68.6164 47.8074L23.1596 2.35059Z" fill="#FF6F73"/>
<path d="M24.6223 0.902344L24.2383 1.28638L69.6948 46.7432L70.0793 46.3592L24.6223 0.902344Z" fill="#FF6F73"/>
<path d="M26.0856 -0.545898L25.7015 -0.161866L71.1583 45.295L71.5422 44.9109L26.0856 -0.545898Z" fill="#FF6F73"/>
<path d="M27.5488 -1.99512L27.1647 -1.61109L72.6217 43.8457L73.0056 43.4617L27.5488 -1.99512Z" fill="#FF6F73"/>
<path d="M29.0124 -3.44531L28.6283 -3.06128L74.0851 42.3955L74.4691 42.0115L29.0124 -3.44531Z" fill="#FF6F73"/>
<path d="M30.476 -5.25488L30.0919 -4.87087L75.5486 40.5859L75.933 40.2019L30.476 -5.25488Z" fill="#FF6F73"/>
</g>
<path d="M35.5071 70.8037L35.4933 69.885C36.7129 69.8675 37.9307 69.7855 39.1416 69.6389L39.2519 70.5511C38.0089 70.7015 36.7589 70.7857 35.5071 70.8037ZM33.6297 70.7808C32.3784 70.7327 31.1304 70.6178 29.8914 70.4362L30.0246 69.5273C31.2311 69.7034 32.4462 69.8155 33.6646 69.8631L33.6297 70.7808ZM41.11 70.2766L40.951 69.3666C42.152 69.1555 43.3407 68.8793 44.512 68.5397L44.7674 69.4218C43.5643 69.7723 42.344 70.0578 41.11 70.2766ZM28.0406 70.1158C26.8122 69.8675 25.598 69.553 24.4033 69.1746L24.679 68.2991C25.8419 68.6682 27.0239 68.975 28.2198 69.2178L28.0406 70.1158ZM46.5576 68.8541L46.2543 67.9884C47.4054 67.5854 48.534 67.1211 49.6352 66.5972L50.0303 67.4241C48.8992 67.9627 47.74 68.4402 46.5576 68.8541ZM22.6261 68.5561C21.454 68.1126 20.3068 67.6067 19.1892 67.0402L19.6046 66.2204C20.6925 66.7722 21.8094 67.2649 22.9505 67.6959L22.6261 68.5561ZM51.7019 66.5731L51.2617 65.7665C52.3328 65.1846 53.3722 64.5459 54.3752 63.853L54.8978 64.6082C53.868 65.3197 52.8008 65.9759 51.701 66.5742L51.7019 66.5731ZM17.5351 66.1438C16.45 65.5177 15.399 64.8335 14.3867 64.0958L14.9289 63.3531C15.9145 64.0723 16.9378 64.7384 17.9946 65.3481L17.5351 66.1438ZM56.4126 63.4953L55.8499 62.7696C56.814 62.0226 57.7377 61.2252 58.6171 60.3803L59.2537 61.0426C58.3508 61.9099 57.4025 62.7291 56.4126 63.4953ZM12.8998 62.9441C11.9293 62.1522 11.0013 61.3089 10.12 60.4186L10.7734 59.7755C11.6316 60.6428 12.5353 61.4637 13.4806 62.2348L12.8998 62.9441ZM60.5727 59.7L59.9006 59.0744C60.7341 58.183 61.5188 57.2478 62.2522 56.2733L62.9877 56.8245C62.2341 57.8264 61.428 58.7873 60.5727 59.7027V59.7ZM8.83528 59.0498C8.0031 58.1135 7.22151 57.1335 6.49378 56.1147L7.24186 55.5826C7.95022 56.5752 8.71093 57.5295 9.52085 58.4411L8.83528 59.0498ZM64.0766 55.2929L63.3137 54.7801C63.994 53.7673 64.619 52.7189 65.1867 51.6391L66.001 52.0664C65.4175 53.1765 64.7755 54.2544 64.0766 55.2956V55.2929ZM5.4471 54.5577C4.7764 53.5008 4.16288 52.4088 3.60919 51.2862L4.43625 50.8801C4.97677 51.9729 5.57525 53.0361 6.22915 54.0652L5.4471 54.5577ZM66.8333 50.3783L65.9983 49.996C66.5058 48.8874 66.9542 47.7524 67.3409 46.5958L68.212 46.8863C67.8144 48.0752 67.3529 49.2418 66.8295 50.381L66.8333 50.3783ZM2.81889 49.5871C2.32662 48.4355 1.89714 47.2582 1.53235 46.0601L2.41087 45.7918C2.76776 46.9576 3.1871 48.1034 3.66709 49.2241L2.81889 49.5871ZM68.754 45.0906L67.8675 44.848C68.1896 43.6714 68.4483 42.4784 68.643 41.2742L69.5497 41.4203C69.3501 42.657 69.0848 43.8822 68.754 45.0906ZM1.02692 44.2497C0.725823 43.0338 0.490536 41.8024 0.322083 40.5611L1.23277 40.4379C1.39664 41.6465 1.62548 42.8453 1.91831 44.0292L1.02692 44.2497ZM69.798 39.5631L68.8847 39.4657C69.0132 38.2529 69.0777 37.0342 69.0777 35.8147V35.6768H69.9965V35.8147C69.9965 37.0655 69.9308 38.3155 69.799 39.5594L69.798 39.5631ZM0.119912 38.6938C0.0427195 37.7417 0.00320435 36.7713 0.00320435 35.81C0.00320435 35.5196 0.00657383 35.2302 0.0133129 34.9417L0.932268 34.9628C0.925531 35.2452 0.922162 35.5276 0.922162 35.81C0.922162 36.7465 0.960755 37.6912 1.03703 38.6193L0.119912 38.6938ZM69.0225 33.8453C68.953 32.6279 68.819 31.415 68.6211 30.2118L69.5267 30.062C69.7312 31.2977 69.869 32.5434 69.9396 33.7939L69.0225 33.8453ZM1.02508 33.1368L0.106127 33.066C0.202984 31.8173 0.366485 30.5746 0.595929 29.3434L1.49927 29.5124C1.27665 30.7113 1.11836 31.9211 1.02508 33.1368ZM68.2744 28.4161C68.0108 27.2252 67.6832 26.0494 67.2927 24.8938L68.1633 24.5997C68.5648 25.7867 68.9022 26.9944 69.174 28.2177L68.2744 28.4161ZM1.88707 27.7251L0.993841 27.5082C1.29037 26.2906 1.65236 25.09 2.07821 23.9114L2.94203 24.2238C2.52783 25.3712 2.17567 26.5399 1.88707 27.7251ZM66.6605 23.1781C66.2083 22.0455 65.6948 20.938 65.1233 19.8606L65.9354 19.4297C66.5222 20.5364 67.0494 21.6739 67.5142 22.8371L66.6605 23.1781ZM3.61195 22.5174L2.76559 22.158C3.25608 21.0047 3.80825 19.8786 4.41971 18.7846L5.22196 19.2321C4.6267 20.2975 4.08926 21.3941 3.61195 22.5174ZM64.2248 18.2727C63.5958 17.2277 62.9123 16.2173 62.1751 15.2456L62.9106 14.6943C63.6669 15.6924 64.3697 16.7301 65.0155 17.8031L64.2248 18.2727ZM6.15379 17.6579L5.37635 17.1699C6.04464 16.1103 6.76919 15.0873 7.5469 14.1052L8.26741 14.6759C7.51026 15.6316 6.80474 16.627 6.15379 17.6579ZM61.0321 13.8158C60.244 12.8837 59.4073 11.9942 58.5252 11.1508L59.159 10.4855C60.0647 11.3505 60.9238 12.263 61.7321 13.2193L61.0321 13.8158ZM9.44182 13.2699L8.7526 12.6615C9.58166 11.7228 10.4599 10.8286 11.3836 9.98277L12.0039 10.661C11.1041 11.4844 10.2488 12.3553 9.44182 13.2699ZM57.169 9.92579C56.242 9.13222 55.2735 8.3883 54.2676 7.69733L54.7879 6.94012C55.8198 7.6498 56.8135 8.41357 57.7651 9.2283L57.169 9.92579ZM13.386 9.4663L12.8024 8.7569C13.7702 7.96038 14.78 7.21652 15.8276 6.52844L16.3312 7.29669C15.3116 7.96562 14.3284 8.68865 13.386 9.46264V9.4663ZM52.7321 6.70945C51.6918 6.07392 50.6181 5.49475 49.5157 4.97446L49.9081 4.14739C51.0419 4.68184 52.1462 5.27664 53.2163 5.92925L52.7321 6.70945ZM17.8852 6.34184L17.4257 5.54788C18.5083 4.91851 19.6237 4.34734 20.7671 3.83679L21.1392 4.67212C20.0257 5.16818 18.9395 5.72341 17.8852 6.33545V6.34184ZM47.8358 4.23745C46.7058 3.77722 45.5518 3.37843 44.3787 3.04281L44.6305 2.15877C45.8356 2.50308 47.0212 2.91199 48.1823 3.38374L47.8358 4.23745ZM22.8246 3.97187L22.4965 3.10989C23.6668 2.66228 24.8605 2.27821 26.0722 1.95936L26.3056 2.84799C25.126 3.15996 23.9639 3.53513 22.8246 3.97187ZM42.6061 2.58333C41.4169 2.31274 40.2141 2.10598 39.0028 1.96395L39.1094 1.05143C40.3534 1.1972 41.5888 1.40948 42.8101 1.68735L42.6061 2.58333ZM28.0865 2.43354L27.9027 1.53388C29.1294 1.28134 30.3687 1.09483 31.6153 0.975155L31.7072 1.89411C30.4913 2.00914 29.2833 2.18921 28.0865 2.43354ZM37.1842 1.80038C36.4518 1.75443 35.7157 1.73146 34.9714 1.73146C34.4868 1.73146 34.0049 1.74187 33.5259 1.7627L33.4863 0.843745C33.9881 0.823527 34.4586 0.8125 35.0008 0.8125C35.7469 0.8125 36.5005 0.836393 37.2394 0.88326L37.1842 1.80038Z" fill="#E31E24"/>
<path d="M35.0005 66.9773C28.836 66.9773 22.8098 65.1496 17.6841 61.7251C12.5584 58.3 8.56341 53.4325 6.20419 47.7373C3.84496 42.0422 3.22753 35.7753 4.42999 29.7292C5.63243 23.6831 8.60076 18.1294 12.9596 13.7703C17.3184 9.41118 22.872 6.44252 28.918 5.23971C34.964 4.0369 41.2309 4.65395 46.9263 7.0128C52.6216 9.37169 57.4897 13.3665 60.9148 18.492C64.3393 23.6175 66.1675 29.6435 66.168 35.808C66.1588 44.0714 62.872 51.9938 57.0292 57.8373C51.1861 63.6802 43.2639 66.9674 35.0005 66.9773ZM35.0005 5.55959C29.0176 5.55941 23.1691 7.33338 18.1945 10.6571C13.2199 13.9809 9.3426 18.7052 7.053 24.2326C4.7634 29.76 4.16428 35.8421 5.33142 41.7101C6.49858 47.5779 9.37957 52.9679 13.6101 57.1986C17.8405 61.4287 23.2305 64.3102 29.0984 65.4772C34.9663 66.6442 41.0485 66.0448 46.5759 63.7556C52.1032 61.4659 56.8274 57.5885 60.1513 52.614C63.4752 47.6393 65.2493 41.7908 65.2488 35.808C65.2395 27.7884 62.0501 20.0999 56.379 14.429C50.7085 8.75821 43.0201 5.56908 35.0005 5.55959Z" fill="#E31E24"/>
</g>
<path d="M23.5156 20.5V33.1768L21.6016 34.2908V51.125H50.3125V26.2939L42.7003 31.9786V26.2364L35.0038 31.9786V26.4757L29.2578 29.8272V20.5H23.5156ZM25.4297 22.4141H27.3438V30.945L25.4297 32.059V22.4141ZM33.0898 29.8119V35.7934L40.7862 30.0512V35.7934L48.3984 30.1105V49.2109H23.5156V35.3933L33.0898 29.8119ZM25.4297 41.5451V47.2873H31.1719V41.5451H25.4297ZM33.0859 41.5451V47.2873H38.8281V41.5451H33.0859ZM40.7422 41.5451V47.2873H46.4844V41.5451H40.7422ZM27.3438 43.4592H29.2578V45.3732H27.3438V43.4592ZM35 43.4592H36.9141V45.3732H35V43.4592ZM42.6562 43.4592H44.5703V45.3732H42.6562V43.4592Z" fill="white"/>
</g>
<defs>
<clipPath id="clip0_29_2750">
<rect width="70" height="70" fill="white" transform="translate(0 0.8125)"/>
</clipPath>
</defs>
</svg>
