<svg width="30" height="28" viewBox="0 0 30 28" fill="none" xmlns="http://www.w3.org/2000/svg">
<path d="M1.5 0.5H28.5C28.8978 0.5 29.2794 0.658035 29.5607 0.93934C29.842 1.22064 30 1.60218 30 2V26C30 26.3978 29.842 26.7794 29.5607 27.0607C29.2794 27.342 28.8978 27.5 28.5 27.5H1.5C1.10218 27.5 0.720644 27.342 0.43934 27.0607C0.158035 26.7794 0 26.3978 0 26V2C0 1.60218 0.158035 1.22064 0.43934 0.93934C0.720644 0.658035 1.10218 0.5 1.5 0.5ZM27 17H21.876C21.2924 18.3382 20.3309 19.477 19.1095 20.2768C17.8882 21.0766 16.4599 21.5026 15 21.5026C13.5401 21.5026 12.1118 21.0766 10.8905 20.2768C9.66909 19.477 8.70764 18.3382 8.124 17H3V24.5H27V17ZM27 14V3.5H3V14H10.5C10.5 15.1935 10.9741 16.3381 11.818 17.182C12.6619 18.0259 13.8065 18.5 15 18.5C16.1935 18.5 17.3381 18.0259 18.182 17.182C19.0259 16.3381 19.5 15.1935 19.5 14H27Z" fill="#1A62AF"/>
</svg>
