<svg width="24" height="33" viewBox="0 0 24 33" fill="none" xmlns="http://www.w3.org/2000/svg">
<path d="M12 8.50004C15.1826 8.50004 18.2348 9.76432 20.4853 12.0148C22.7357 14.2652 24 17.3174 24 20.5C24 23.6826 22.7357 26.7349 20.4853 28.9853C18.2348 31.2358 15.1826 32.5 12 32.5C8.8174 32.5 5.76516 31.2358 3.51472 28.9853C1.26428 26.7349 0 23.6826 0 20.5C0 17.3174 1.26428 14.2652 3.51472 12.0148C5.76516 9.76432 8.8174 8.50004 12 8.50004ZM12 11.5C9.61305 11.5 7.32387 12.4482 5.63604 14.1361C3.94821 15.8239 3 18.1131 3 20.5C3 22.887 3.94821 25.1762 5.63604 26.864C7.32387 28.5518 9.61305 29.5 12 29.5C14.3869 29.5 16.6761 28.5518 18.364 26.864C20.0518 25.1762 21 22.887 21 20.5C21 18.1131 20.0518 15.8239 18.364 14.1361C16.6761 12.4482 14.3869 11.5 12 11.5ZM12 13.75L13.9845 17.77L18.42 18.415L15.21 21.5425L15.9675 25.9615L12 23.875L8.0325 25.96L8.79 21.5425L5.58 18.4135L10.0155 17.7685L12 13.75ZM21 1.00004V5.50004L18.9555 7.20704C17.2589 6.31691 15.4066 5.76228 13.5 5.57353V1.00004H21ZM10.5 0.998535V5.57353C8.59402 5.762 6.74224 6.31611 5.046 7.20553L3 5.50004V1.00004L10.5 0.998535Z" fill="#1A62AF"/>
</svg>
