<svg width="34" height="30" viewBox="0 0 34 30" fill="none" xmlns="http://www.w3.org/2000/svg">
<path d="M27.5 29.4999H6.5C6.10218 29.4999 5.72064 29.3418 5.43934 29.0605C5.15804 28.7792 5 28.3977 5 27.9999V14.4999H0.5L15.9905 0.41788C16.2667 0.166597 16.6266 0.0273438 17 0.0273438C17.3734 0.0273438 17.7333 0.166597 18.0095 0.41788L33.5 14.4999H29V27.9999C29 28.3977 28.842 28.7792 28.5607 29.0605C28.2794 29.3418 27.8978 29.4999 27.5 29.4999ZM8 26.4999H26V11.7354L17 3.55438L8 11.7354V26.4999ZM11.8865 18.7134C11.6964 17.9135 11.6964 17.0802 11.8865 16.2804L10.4 15.4224L11.9 12.8244L13.3865 13.6839C13.9833 13.1184 14.7047 12.7011 15.4925 12.4659V10.7499H18.4925V12.4659C19.2905 12.7044 20.0075 13.1259 20.5985 13.6839L22.085 12.8244L23.585 15.4209L22.0985 16.2804C22.2886 17.0802 22.2886 17.9135 22.0985 18.7134L23.585 19.5714L22.085 22.1679L20.5985 21.3099C20.0016 21.8749 19.2802 22.2916 18.4925 22.5264V24.2439H15.4925V22.5249C14.7048 22.2901 13.9834 21.8734 13.3865 21.3084L11.9 22.1664L10.4 19.5714L11.8865 18.7119V18.7134ZM16.9925 19.7454C17.2947 19.7564 17.596 19.7064 17.8784 19.5984C18.1609 19.4904 18.4186 19.3265 18.6363 19.1167C18.854 18.9068 19.0272 18.6552 19.1454 18.3769C19.2637 18.0986 19.3246 17.7993 19.3246 17.4969C19.3246 17.1945 19.2637 16.8952 19.1454 16.6169C19.0272 16.3386 18.854 16.087 18.6363 15.8771C18.4186 15.6672 18.1609 15.5034 17.8784 15.3954C17.596 15.2873 17.2947 15.2373 16.9925 15.2484C16.4104 15.2696 15.8592 15.5159 15.4549 15.9352C15.0506 16.3546 14.8246 16.9144 14.8246 17.4969C14.8246 18.0794 15.0506 18.6392 15.4549 19.0586C15.8592 19.4779 16.4104 19.7241 16.9925 19.7454Z" fill="#1A62AF"/>
</svg>
