<svg width="24" height="33" viewBox="0 0 24 33" fill="none" xmlns="http://www.w3.org/2000/svg">
<path d="M12 24.7276L18.3645 18.3646C19.623 17.1058 20.48 15.5022 20.8272 13.7564C21.1743 12.0106 20.996 10.2011 20.3148 8.55663C19.6335 6.91218 18.48 5.50666 17 4.5178C15.52 3.52893 13.78 3.00113 12 3.00113C10.22 3.00113 8.48004 3.52893 7.00003 4.5178C5.52002 5.50666 4.36647 6.91218 3.68524 8.55663C3.004 10.2011 2.82568 12.0106 3.17283 13.7564C3.51997 15.5022 4.37699 17.1058 5.63551 18.3646L12 24.7276ZM20.4855 20.4855L12 28.9711L3.51451 20.4855C1.83634 18.8073 0.693509 16.6691 0.230537 14.3413C-0.232436 12.0136 0.00524041 9.60082 0.91351 7.40814C1.82178 5.21547 3.35985 3.34136 5.33323 2.02281C7.3066 0.70426 9.62666 0.000488281 12 0.000488281C14.3734 0.000488281 16.6934 0.70426 18.6668 2.02281C20.6402 3.34136 22.1782 5.21547 23.0865 7.40814C23.9948 9.60082 24.2324 12.0136 23.7695 14.3413C23.3065 16.6691 22.1637 18.8073 20.4855 20.4855ZM1.50001 30H22.5V33H1.50001V30Z" fill="#1A62AF"/>
</svg>
