<svg width="70" height="71" viewBox="0 0 70 71" fill="none" xmlns="http://www.w3.org/2000/svg">
<g clip-path="url(#clip0_29_3606)">
<mask id="mask0_29_3606" style="mask-type:luminance" maskUnits="userSpaceOnUse" x="0" y="0" width="70" height="71">
<path d="M69.9968 0.8125H0.00286865V70.8037H69.9968V0.8125Z" fill="white"/>
</mask>
<g mask="url(#mask0_29_3606)">
<mask id="mask1_29_3606" style="mask-type:luminance" maskUnits="userSpaceOnUse" x="7" y="8" width="56" height="56">
<path d="M35.0004 63.2328C50.1465 63.2328 62.4247 50.9543 62.4247 35.8083C62.4247 20.6621 50.1465 8.38379 35.0004 8.38379C19.8543 8.38379 7.57602 20.6621 7.57602 35.8083C7.57602 50.9543 19.8543 63.2328 35.0004 63.2328Z" fill="white"/>
</mask>
<g mask="url(#mask1_29_3606)">
<path d="M35.0004 63.2328C50.1465 63.2328 62.4247 50.9543 62.4247 35.8083C62.4247 20.6621 50.1465 8.38379 35.0004 8.38379C19.8543 8.38379 7.57602 20.6621 7.57602 35.8083C7.57602 50.9543 19.8543 63.2328 35.0004 63.2328Z" fill="#E31E24"/>
<path d="M-6.1068 31.3281L-6.49081 31.7121L38.966 77.169L39.3501 76.7851L-6.1068 31.3281Z" fill="#FF6F73"/>
<path d="M-4.64353 29.8789L-5.02756 30.2629L40.4293 75.72L40.8133 75.3355L-4.64353 29.8789Z" fill="#FF6F73"/>
<path d="M-3.18088 28.4297L-3.56491 28.8137L41.8919 74.2704L42.2759 73.8865L-3.18088 28.4297Z" fill="#FF6F73"/>
<path d="M-1.71695 26.9805L-2.10098 27.3645L43.3558 72.8214L43.7399 72.4375L-1.71695 26.9805Z" fill="#FF6F73"/>
<path d="M-0.254363 25.5322L-0.638397 25.9163L44.8184 71.3729L45.2024 70.989L-0.254363 25.5322Z" fill="#FF6F73"/>
<path d="M1.20981 24.084L0.825775 24.468L46.2826 69.9249L46.6666 69.541L1.20981 24.084Z" fill="#FF6F73"/>
<path d="M2.67313 22.6338L2.28909 23.0179L47.7459 68.4749L48.13 68.0905L2.67313 22.6338Z" fill="#FF6F73"/>
<path d="M4.13638 21.1855L3.75235 21.5696L49.2092 67.0264L49.5932 66.6425L4.13638 21.1855Z" fill="#FF6F73"/>
<path d="M5.59896 19.7373L5.21494 20.1213L50.6717 65.5783L51.0558 65.1939L5.59896 19.7373Z" fill="#FF6F73"/>
<path d="M7.06315 18.2881L6.67914 18.6721L52.1359 64.1288L52.5199 63.7449L7.06315 18.2881Z" fill="#FF6F73"/>
<path d="M8.5265 16.8398L8.14243 17.2239L53.5993 62.6808L53.9833 62.2969L8.5265 16.8398Z" fill="#FF6F73"/>
<path d="M9.98906 15.3906L9.60504 15.7747L55.0621 61.2313L55.446 60.8474L9.98906 15.3906Z" fill="#FF6F73"/>
<path d="M11.4523 13.9414L11.0682 14.3255L56.525 59.7823L56.9089 59.3984L11.4523 13.9414Z" fill="#FF6F73"/>
<path d="M12.9156 12.4932L12.5316 12.8772L57.9884 58.3343L58.3723 57.9498L12.9156 12.4932Z" fill="#FF6F73"/>
<path d="M14.3798 11.043L13.9958 11.427L59.4524 56.8837L59.8369 56.4998L14.3798 11.043Z" fill="#FF6F73"/>
<path d="M15.8431 9.5957L15.459 9.97977L60.9158 55.4366L61.2997 55.0526L15.8431 9.5957Z" fill="#FF6F73"/>
<path d="M17.3056 8.14648L16.9216 8.53055L62.3782 53.9874L62.7627 53.6033L17.3056 8.14648Z" fill="#FF6F73"/>
<path d="M18.7683 6.69727L18.3842 7.08134L63.8411 52.5381L64.225 52.1541L18.7683 6.69727Z" fill="#FF6F73"/>
<path d="M20.2322 5.24805L19.8482 5.63208L65.3051 51.0889L65.689 50.7049L20.2322 5.24805Z" fill="#FF6F73"/>
<path d="M21.6957 3.7998L21.3117 4.18384L66.7685 49.6407L67.1524 49.2566L21.6957 3.7998Z" fill="#FF6F73"/>
<path d="M23.1596 2.35059L22.7756 2.73462L68.2325 48.1915L68.6164 47.8074L23.1596 2.35059Z" fill="#FF6F73"/>
<path d="M24.6223 0.902344L24.2383 1.28638L69.6948 46.7432L70.0793 46.3592L24.6223 0.902344Z" fill="#FF6F73"/>
<path d="M26.0856 -0.545898L25.7015 -0.161866L71.1583 45.295L71.5422 44.9109L26.0856 -0.545898Z" fill="#FF6F73"/>
<path d="M27.5488 -1.99512L27.1647 -1.61109L72.6217 43.8457L73.0056 43.4617L27.5488 -1.99512Z" fill="#FF6F73"/>
<path d="M29.0123 -3.44531L28.6283 -3.06128L74.0851 42.3955L74.4691 42.0115L29.0123 -3.44531Z" fill="#FF6F73"/>
<path d="M30.476 -5.25488L30.0919 -4.87087L75.5486 40.5859L75.933 40.2019L30.476 -5.25488Z" fill="#FF6F73"/>
</g>
<path d="M35.5068 70.8037L35.493 69.885C36.7126 69.8675 37.9304 69.7855 39.1413 69.6389L39.2515 70.5511C38.0086 70.7015 36.7586 70.7857 35.5068 70.8037ZM33.6294 70.7808C32.378 70.7327 31.1301 70.6178 29.891 70.4362L30.0243 69.5273C31.2308 69.7034 32.4459 69.8155 33.6643 69.8631L33.6294 70.7808ZM41.1097 70.2766L40.9507 69.3666C42.1517 69.1555 43.3404 68.8793 44.5116 68.5397L44.7671 69.4218C43.564 69.7723 42.3437 70.0578 41.1097 70.2766ZM28.0402 70.1158C26.8119 69.8675 25.5977 69.553 24.403 69.1746L24.6787 68.2991C25.8416 68.6682 27.0236 68.975 28.2195 69.2178L28.0402 70.1158ZM46.5572 68.8541L46.254 67.9884C47.4051 67.5854 48.5337 67.1211 49.6348 66.5972L50.03 67.4241C48.8989 67.9627 47.7397 68.4402 46.5572 68.8541ZM22.6257 68.5561C21.4537 68.1126 20.3065 67.6067 19.1889 67.0402L19.6042 66.2204C20.6922 66.7722 21.8091 67.2649 22.9502 67.6959L22.6257 68.5561ZM51.7016 66.5731L51.2614 65.7665C52.3325 65.1846 53.3718 64.5459 54.3748 63.853L54.8975 64.6082C53.8677 65.3197 52.8004 65.9759 51.7006 66.5742L51.7016 66.5731ZM17.5347 66.1438C16.4497 65.5177 15.3987 64.8335 14.3864 64.0958L14.9286 63.3531C15.9141 64.0723 16.9375 64.7384 17.9942 65.3481L17.5347 66.1438ZM56.4123 63.4953L55.8496 62.7696C56.8137 62.0226 57.7374 61.2252 58.6168 60.3803L59.2534 61.0426C58.3505 61.9099 57.4022 62.7291 56.4123 63.4953ZM12.8995 62.9441C11.9289 62.1522 11.001 61.3089 10.1196 60.4186L10.7731 59.7755C11.6313 60.6428 12.535 61.4637 13.4803 62.2348L12.8995 62.9441ZM60.5724 59.7L59.9003 59.0744C60.7332 58.183 61.5185 57.2478 62.2519 56.2733L62.9874 56.8245C62.2338 57.8264 61.4277 58.7873 60.5724 59.7027V59.7ZM8.83498 59.0498C8.0028 58.1135 7.22115 57.1335 6.49348 56.1147L7.2415 55.5826C7.94987 56.5752 8.71062 57.5295 9.52049 58.4411L8.83498 59.0498ZM64.0762 55.2929L63.3134 54.7801C63.9937 53.7673 64.6187 52.7189 65.1864 51.6391L66.0007 52.0664C65.4172 53.1765 64.7752 54.2544 64.0762 55.2956V55.2929ZM5.44677 54.5577C4.77607 53.5008 4.16254 52.4088 3.60886 51.2862L4.43592 50.8801C4.97643 51.9729 5.5749 53.0361 6.2288 54.0652L5.44677 54.5577ZM66.833 50.3783L65.998 49.996C66.5055 48.8874 66.9539 47.7524 67.3405 46.5958L68.2117 46.8863C67.8141 48.0752 67.3526 49.2418 66.8292 50.381L66.833 50.3783ZM2.81855 49.5871C2.32628 48.4355 1.89681 47.2582 1.53201 46.0601L2.41054 45.7918C2.76743 46.9576 3.18677 48.1034 3.66675 49.2241L2.81855 49.5871ZM68.7537 45.0906L67.8672 44.848C68.1893 43.6714 68.448 42.4784 68.6427 41.2742L69.5494 41.4203C69.3498 42.657 69.084 43.8822 68.7537 45.0906ZM1.02659 44.2497C0.725488 43.0338 0.4902 41.8024 0.321747 40.5611L1.23244 40.4379C1.3963 41.6465 1.62515 42.8453 1.91798 44.0292L1.02659 44.2497ZM69.7977 39.5631L68.8844 39.4657C69.0129 38.2529 69.0774 37.0342 69.0774 35.8147V35.6768H69.9962V35.8147C69.9962 37.0655 69.9305 38.3155 69.7988 39.5594L69.7977 39.5631ZM0.119576 38.6938C0.0423838 37.7417 0.00286865 36.7713 0.00286865 35.81C0.00286865 35.5196 0.00623816 35.2302 0.0129772 34.9417L0.931933 34.9628C0.925196 35.2452 0.921827 35.5276 0.921827 35.81C0.921827 36.7465 0.96042 37.6912 1.0367 38.6193L0.119576 38.6938ZM69.0222 33.8453C68.9527 32.6279 68.8187 31.415 68.6202 30.2118L69.5264 30.062C69.7309 31.2977 69.8682 32.5434 69.9393 33.7939L69.0222 33.8453ZM1.02475 33.1368L0.105792 33.066C0.202649 31.8173 0.366149 30.5746 0.595594 29.3434L1.49893 29.5124C1.27632 30.7113 1.11803 31.9211 1.02475 33.1368ZM68.2741 28.4161C68.0105 27.2252 67.6829 26.0494 67.2924 24.8938L68.163 24.5997C68.5645 25.7867 68.9019 26.9944 69.1737 28.2177L68.2741 28.4161ZM1.88673 27.7251L0.993506 27.5082C1.29004 26.2906 1.65202 25.09 2.07787 23.9114L2.94169 24.2238C2.52749 25.3712 2.17533 26.5399 1.88673 27.7251ZM66.6602 23.1781C66.208 22.0455 65.6945 20.938 65.123 19.8606L65.9351 19.4297C66.5219 20.5364 67.0491 21.6739 67.5139 22.8371L66.6602 23.1781ZM3.61162 22.5174L2.76525 22.158C3.25575 21.0047 3.80792 19.8786 4.41938 18.7846L5.22163 19.2321C4.62637 20.2975 4.08892 21.3941 3.61162 22.5174ZM64.2244 18.2727C63.5955 17.2277 62.912 16.2173 62.1748 15.2456L62.9103 14.6943C63.6666 15.6924 64.3694 16.7301 65.0152 17.8031L64.2244 18.2727ZM6.15344 17.6579L5.37601 17.1699C6.04433 16.1103 6.76889 15.0873 7.5466 14.1052L8.26705 14.6759C7.50996 15.6316 6.80444 16.627 6.15344 17.6579ZM61.0318 13.8158C60.2437 12.8837 59.407 11.9942 58.5249 11.1508L59.1587 10.4855C60.0644 11.3505 60.9235 12.263 61.7318 13.2193L61.0318 13.8158ZM9.44147 13.2699L8.75224 12.6615C9.5813 11.7228 10.4595 10.8286 11.3833 9.98277L12.0035 10.661C11.1037 11.4844 10.2485 12.3553 9.44147 13.2699ZM57.1687 9.92579C56.2417 9.13222 55.2732 8.3883 54.2673 7.69733L54.7876 6.94012C55.8195 7.6498 56.8132 8.41357 57.7648 9.2283L57.1687 9.92579ZM13.3856 9.4663L12.8021 8.7569C13.7699 7.96038 14.7797 7.21652 15.8273 6.52844L16.3309 7.29669C15.3112 7.96562 14.3281 8.68865 13.3856 9.46264V9.4663ZM52.7317 6.70945C51.6914 6.07392 50.6178 5.49475 49.5154 4.97446L49.9078 4.14739C51.0415 4.68184 52.1459 5.27664 53.216 5.92925L52.7317 6.70945ZM17.8848 6.34184L17.4254 5.54788C18.5079 4.91851 19.6233 4.34734 20.7667 3.83679L21.1389 4.67212C20.0254 5.16818 18.9391 5.72341 17.8848 6.33545V6.34184ZM47.8355 4.23745C46.7055 3.77722 45.5515 3.37843 44.3784 3.04281L44.6302 2.15877C45.8352 2.50308 47.0209 2.91199 48.182 3.38374L47.8355 4.23745ZM22.8243 3.97187L22.4962 3.10989C23.6665 2.66228 24.8601 2.27821 26.0718 1.95936L26.3053 2.84799C25.1256 3.15996 23.9636 3.53513 22.8243 3.97187ZM42.6057 2.58333C41.4165 2.31274 40.2137 2.10598 39.0025 1.96395L39.1091 1.05143C40.3531 1.1972 41.5884 1.40948 42.8098 1.68735L42.6057 2.58333ZM28.0862 2.43354L27.9024 1.53388C29.1291 1.28134 30.3683 1.09483 31.615 0.975155L31.7069 1.89411C30.4909 2.00914 29.2829 2.18921 28.0862 2.43354ZM37.1839 1.80038C36.4515 1.75443 35.7154 1.73146 34.971 1.73146C34.4864 1.73146 34.0046 1.74187 33.5255 1.7627L33.486 0.843745C33.9877 0.823527 34.4583 0.8125 35.0004 0.8125C35.7466 0.8125 36.5002 0.836393 37.239 0.88326L37.1839 1.80038Z" fill="#E31E24"/>
<path d="M35.0005 66.9773C28.836 66.9773 22.8098 65.1496 17.6841 61.7251C12.5584 58.3 8.56341 53.4325 6.20419 47.7373C3.84496 42.0422 3.22753 35.7753 4.42999 29.7292C5.63243 23.6831 8.60076 18.1294 12.9596 13.7703C17.3184 9.41118 22.872 6.44252 28.918 5.23971C34.964 4.0369 41.2309 4.65395 46.9263 7.0128C52.6216 9.37169 57.4897 13.3665 60.9148 18.492C64.3393 23.6175 66.1675 29.6435 66.168 35.808C66.1588 44.0714 62.872 51.9938 57.0292 57.8373C51.1861 63.6802 43.2639 66.9674 35.0005 66.9773ZM35.0005 5.55959C29.0176 5.55941 23.1691 7.33338 18.1945 10.6571C13.2199 13.9809 9.3426 18.7052 7.053 24.2326C4.7634 29.76 4.16428 35.8421 5.33142 41.7101C6.49858 47.5779 9.37957 52.9679 13.6101 57.1986C17.8405 61.4287 23.2305 64.3102 29.0984 65.4772C34.9663 66.6442 41.0485 66.0448 46.5759 63.7556C52.1032 61.4659 56.8274 57.5885 60.1513 52.614C63.4752 47.6393 65.2493 41.7908 65.2488 35.808C65.2395 27.7884 62.0501 20.0999 56.379 14.429C50.7085 8.75821 43.0201 5.56908 35.0005 5.55959Z" fill="#E31E24"/>
</g>
<mask id="mask2_29_3606" style="mask-type:luminance" maskUnits="userSpaceOnUse" x="20" y="21" width="29" height="30">
<path d="M48.125 21.5938H20.7812V50.5781H48.125V21.5938Z" fill="white"/>
</mask>
<g mask="url(#mask2_29_3606)">
<path d="M45.1953 23.526H48.125V21.5938H20.7812V23.526H23.7109V28.7568L31.1192 36.0859L23.7109 43.4151V48.6459H20.7812V50.5781H48.125V48.6459H45.1953V43.4151L37.7871 36.0859L45.1953 28.7568V23.526ZM30.9512 48.6459L34.4531 45.1812L37.9551 48.6459H30.9512ZM43.2422 27.9568L35.0254 36.0859L43.2422 44.2151V48.6459H40.7168L34.4531 42.449L28.1894 48.6459H25.6641V44.2151L33.8809 36.0859L25.6641 27.9568V23.526H43.2422V27.9568Z" fill="white"/>
</g>
</g>
<defs>
<clipPath id="clip0_29_3606">
<rect width="70" height="70" fill="white" transform="translate(0 0.8125)"/>
</clipPath>
</defs>
</svg>
