<?xml version="1.0" encoding="UTF-8"?><svg id="Layer_1" xmlns="http://www.w3.org/2000/svg" xmlns:xlink="http://www.w3.org/1999/xlink" viewBox="0 0 128.248 128.25"><defs><style>.cls-1{fill:#fff;}.cls-2{fill:#3575bb;}.cls-3{fill:#1b63af;}.cls-4{clip-path:url(#clippath-1);}.cls-5{fill:#5792cd;}.cls-6{fill:none;}</style><clipPath id="clippath-1"><circle class="cls-6" cx="64.123" cy="64.125" r="50.477"/></clipPath></defs><g class="cls-4"><circle class="cls-3" cx="64.123" cy="64.125" r="50.477"/><rect class="cls-2" x="29.441" y="38.904" width="1" height="118.323" transform="translate(-60.573 49.894) rotate(-45)"/><rect class="cls-2" x="32.135" y="36.237" width="1" height="118.322" transform="translate(-57.898 51.018) rotate(-45)"/><rect class="cls-2" x="34.828" y="33.57" width="1" height="118.322" transform="translate(-55.224 52.141) rotate(-45)"/><rect class="cls-2" x="37.521" y="30.904" width="1" height="118.323" transform="translate(-52.549 53.264) rotate(-45)"/><rect class="cls-2" x="40.215" y="28.237" width="1" height="118.322" transform="translate(-49.875 54.388) rotate(-45)"/><rect class="cls-2" x="42.908" y="25.57" width="1" height="118.323" transform="translate(-47.2 55.511) rotate(-45)"/><rect class="cls-2" x="45.601" y="22.904" width="1" height="118.322" transform="translate(-44.526 56.635) rotate(-45)"/><rect class="cls-2" x="48.295" y="20.237" width="1" height="118.322" transform="translate(-41.852 57.758) rotate(-45)"/><rect class="cls-2" x="50.988" y="17.57" width="1" height="118.323" transform="translate(-39.177 58.882) rotate(-45)"/><rect class="cls-2" x="53.682" y="14.904" width="1" height="118.322" transform="translate(-36.502 60.005) rotate(-45)"/><rect class="cls-2" x="56.375" y="12.237" width="1" height="118.323" transform="translate(-33.828 61.129) rotate(-45)"/><rect class="cls-2" x="59.068" y="9.57" width="1" height="118.323" transform="translate(-31.154 62.252) rotate(-45)"/><rect class="cls-2" x="61.761" y="6.904" width="1" height="118.323" transform="translate(-28.479 63.376) rotate(-45)"/><rect class="cls-2" x="64.455" y="4.237" width="1" height="118.323" transform="translate(-25.805 64.499) rotate(-45)"/><rect class="cls-2" x="67.148" y="1.57" width="1" height="118.323" transform="translate(-23.13 65.622) rotate(-45)"/><rect class="cls-2" x="69.841" y="-1.096" width="1" height="118.323" transform="translate(-20.456 66.746) rotate(-45)"/><rect class="cls-2" x="72.535" y="-3.763" width="1" height="118.322" transform="translate(-17.781 67.869) rotate(-45)"/><rect class="cls-2" x="75.228" y="-6.43" width="1" height="118.323" transform="translate(-15.107 68.992) rotate(-45)"/><rect class="cls-2" x="77.921" y="-9.096" width="1" height="118.322" transform="translate(-12.432 70.116) rotate(-45)"/><rect class="cls-2" x="80.615" y="-11.763" width="1" height="118.322" transform="translate(-9.758 71.239) rotate(-45)"/><rect class="cls-2" x="83.308" y="-14.43" width="1" height="118.323" transform="translate(-7.083 72.363) rotate(-45)"/><rect class="cls-2" x="86.001" y="-17.096" width="1" height="118.322" transform="translate(-4.409 73.486) rotate(-45)"/><rect class="cls-2" x="88.695" y="-19.763" width="1" height="118.322" transform="translate(-1.734 74.61) rotate(-45)"/><rect class="cls-2" x="91.388" y="-22.43" width="1" height="118.323" transform="translate(.94 75.733) rotate(-45)"/><rect class="cls-2" x="94.081" y="-25.096" width="1" height="118.322" transform="translate(3.615 76.857) rotate(-45)"/><rect class="cls-2" x="96.775" y="-28.43" width="1" height="118.323" transform="translate(6.76 77.784) rotate(-45)"/></g><path class="cls-5" d="M64.079,128.25c-.904,0-1.806-.019-2.705-.057l-.5-.021,.042-1,.5,.021c.884,.037,1.772,.056,2.665,.056l.81-.003,.005,1-.817,.003Zm2.839-.059l-.051-.999,.499-.026c.995-.051,1.994-.125,2.968-.221l.498-.049,.098,.995-.498,.049c-.99,.097-2.004,.173-3.014,.225l-.5,.025Zm-8.062-.15l-.498-.044c-1-.089-2.011-.203-3.003-.339l-.496-.068,.136-.991,.495,.068c.977,.134,1.971,.246,2.957,.333l.498,.044-.089,.996Zm14.08-.393l-.144-.99,.495-.072c.975-.142,1.962-.31,2.933-.498l.491-.095,.19,.981-.491,.095c-.986,.191-1.989,.361-2.98,.505l-.495,.072Zm-20.074-.38l-.491-.091c-.987-.183-1.982-.392-2.958-.621l-.487-.114,.229-.974,.487,.114c.961,.226,1.94,.432,2.912,.611l.492,.091-.182,.983Zm26.015-.725l-.236-.972,.486-.118c.956-.233,1.922-.493,2.873-.772l.479-.141,.282,.959-.479,.141c-.965,.284-1.948,.548-2.919,.785l-.486,.118Zm-31.909-.611l-.48-.137c-.968-.277-1.941-.58-2.893-.902l-.474-.16,.32-.947,.474,.16c.937,.317,1.895,.615,2.847,.887l.481,.138-.275,.961Zm37.72-1.051l-.328-.945,.472-.164c.933-.324,1.871-.674,2.788-1.042l.464-.186,.372,.928-.464,.186c-.932,.374-1.884,.729-2.832,1.058l-.473,.164Zm-43.473-.843l-.466-.183c-.935-.366-1.874-.76-2.792-1.171l-.457-.205,.409-.913,.456,.204c.903,.404,1.828,.792,2.749,1.153l.465,.182-.365,.931Zm49.094-1.358l-.416-.909,.455-.208c.902-.413,1.801-.85,2.671-1.298l.444-.229,.458,.889-.444,.229c-.884,.456-1.796,.9-2.713,1.319l-.455,.208Zm-54.638-1.072l-.446-.226c-.897-.454-1.795-.935-2.668-1.429l-.435-.247,.493-.87,.435,.247c.859,.487,1.743,.96,2.626,1.407l.446,.226-.451,.893Zm60.021-1.65l-.5-.866,.433-.25c.853-.492,1.707-1.012,2.538-1.545l.421-.27,.54,.842-.421,.27c-.844,.542-1.711,1.07-2.578,1.57l-.433,.25Zm-65.307-1.292l-.423-.267c-.846-.534-1.694-1.097-2.52-1.673l-.41-.286,.572-.82,.41,.286c.813,.568,1.647,1.122,2.48,1.647l.423,.267-.533,.846Zm70.413-1.929l-.579-.816,.408-.289c.803-.569,1.604-1.167,2.383-1.778l.394-.309,.617,.787-.394,.309c-.791,.62-1.605,1.228-2.421,1.806l-.408,.29Zm-75.397-1.495l-.396-.305c-.798-.615-1.589-1.255-2.351-1.901l-.381-.324,.647-.762,.381,.323c.75,.636,1.528,1.266,2.314,1.872l.396,.305-.61,.792Zm80.181-2.191l-.653-.757,.378-.327c.748-.645,1.49-1.315,2.207-1.994l.363-.344,.688,.726-.363,.344c-.728,.69-1.482,1.372-2.241,2.026l-.379,.326Zm-84.821-1.683l-.366-.341c-.735-.686-1.462-1.396-2.162-2.112l-.349-.358,.715-.699,.35,.357c.688,.705,1.404,1.405,2.128,2.08l.366,.341-.682,.731Zm89.238-2.438l-.721-.693,.347-.361c.685-.712,1.361-1.45,2.011-2.193l.329-.376,.753,.658-.329,.376c-.661,.755-1.348,1.504-2.043,2.228l-.347,.36Zm-93.494-1.852l-.332-.374c-.668-.751-1.325-1.526-1.954-2.304l-.314-.389,.778-.628,.314,.389c.619,.766,1.266,1.529,1.923,2.269l.333,.374-.748,.665Zm97.51-2.666l-.783-.622,.311-.392c.619-.778,1.224-1.577,1.798-2.373l.292-.406,.811,.585-.293,.405c-.583,.809-1.198,1.62-1.826,2.41l-.311,.392Zm-101.343-2.001l-.296-.403c-.59-.805-1.172-1.638-1.728-2.476l-.276-.417,.833-.553,.276,.417c.548,.825,1.12,1.645,1.702,2.437l.295,.403-.806,.591Zm104.917-2.875l-.837-.546,.273-.419c.537-.822,1.064-1.674,1.568-2.532l.253-.431,.862,.507-.253,.431c-.512,.871-1.048,1.736-1.593,2.572l-.273,.418Zm-108.295-2.128l-.256-.429c-.51-.854-1.011-1.737-1.487-2.625l-.236-.44,.881-.473,.236,.44c.469,.875,.962,1.745,1.464,2.585l.256,.429-.858,.513Zm111.399-3.064l-.886-.465,.232-.443c.462-.88,.907-1.778,1.323-2.67l.211-.453,.906,.423-.211,.453c-.422,.906-.875,1.818-1.344,2.712l-.232,.443Zm-114.288-2.232l-.215-.452c-.428-.9-.843-1.827-1.231-2.753l-.193-.461,.922-.387,.193,.461c.383,.912,.791,1.823,1.212,2.71l.215,.452-.903,.43Zm116.889-3.233l-.925-.379,.19-.462c.375-.917,.734-1.854,1.064-2.785l.167-.471,.942,.335-.167,.471c-.336,.946-.7,1.897-1.082,2.829l-.189,.463Zm-119.264-2.316l-.171-.47c-.342-.939-.667-1.902-.967-2.864l-.148-.478,.955-.297,.149,.477c.295,.947,.615,1.895,.952,2.819l.171,.47-.939,.343Zm121.337-3.375l-.958-.29,.145-.479c.287-.949,.554-1.914,.794-2.868l.122-.485,.97,.244-.122,.485c-.244,.969-.515,1.949-.807,2.913l-.145,.479ZM2.188,80.807l-.125-.484c-.251-.966-.483-1.956-.691-2.942l-.103-.489,.979-.206,.103,.489c.204,.971,.433,1.945,.68,2.896l.126,.484-.968,.251Zm124.701-3.468l-.98-.197,.099-.49c.195-.968,.37-1.954,.519-2.93l.075-.494,.989,.151-.076,.495c-.151,.991-.329,1.993-.526,2.976l-.099,.49ZM.9,74.902l-.08-.494c-.16-.992-.298-2-.411-2.994l-.057-.497,.994-.113,.056,.497c.111,.979,.248,1.97,.405,2.947l.08,.494-.987,.159Zm126.948-3.53l-.995-.104,.052-.497c.103-.981,.183-1.979,.239-2.966l.028-.5,.999,.057-.029,.499c-.057,1.002-.139,2.016-.243,3.013l-.052,.498ZM.173,68.903l-.033-.499c-.043-.655-.077-1.313-.101-1.973-.013-.35-.022-.698-.029-1.047l-.01-.5,1-.02,.01,.5c.007,.343,.017,.687,.028,1.031,.024,.65,.057,1.297,.1,1.942l.033,.499-.998,.066Zm126.995-7.958c-.049-.991-.123-1.99-.218-2.968l-.048-.498,.995-.097,.048,.498c.097,.993,.171,2.008,.222,3.015l-.999,.05Zm1.039,.874c.028,.786,.042,1.568,.042,2.347l-.009,1.175-1-.011,.009-1.165c0-.768-.014-1.538-.041-2.311l.999-.036ZM1.006,62.889l-1-.027,.013-.5c.027-1,.078-2.016,.151-3.018l.037-.499,.997,.073-.037,.499c-.072,.987-.122,1.986-.148,2.971l-.014,.5Zm.389-5.937l-.993-.12,.06-.497c.12-.989,.266-1.996,.434-2.991l.083-.493,.986,.167-.083,.493c-.166,.98-.31,1.971-.427,2.944l-.061,.497Zm125.27-1.433l-.071-.495c-.141-.975-.308-1.962-.495-2.934l-.095-.491,.982-.189,.094,.491c.19,.987,.359,1.99,.502,2.98l.072,.495-.99,.143ZM2.343,51.08l-.977-.214,.107-.488c.214-.979,.455-1.967,.715-2.937l.13-.483,.966,.26-.13,.483c-.256,.954-.494,1.927-.705,2.891l-.107,.488Zm123.241-1.41l-.118-.486c-.232-.958-.491-1.924-.77-2.874l-.141-.48,.96-.281,.141,.48c.283,.965,.545,1.947,.781,2.92l.118,.486-.972,.235ZM3.845,45.316l-.952-.306,.153-.476c.309-.962,.643-1.925,.994-2.861l.176-.468,.936,.351-.175,.468c-.346,.922-.675,1.869-.979,2.816l-.153,.476Zm120.112-1.368l-.164-.473c-.325-.938-.674-1.876-1.039-2.788l-.186-.464,.929-.371,.186,.464c.37,.927,.726,1.879,1.056,2.832l.164,.472-.945,.328ZM5.889,39.717l-.919-.395,.197-.459c.396-.921,.819-1.848,1.26-2.752l.219-.45,.899,.438-.219,.45c-.434,.891-.851,1.802-1.24,2.709l-.197,.459Zm115.905-1.304l-.208-.455c-.408-.895-.844-1.794-1.295-2.672l-.229-.444,.889-.458,.229,.445c.458,.892,.901,1.805,1.316,2.714l.208,.455-.91,.415ZM8.453,34.339l-.877-.48,.24-.438c.482-.883,.992-1.765,1.513-2.62l.26-.427,.854,.521-.26,.427c-.513,.842-1.014,1.709-1.49,2.579l-.24,.439Zm110.669-1.228l-.25-.433c-.493-.856-1.013-1.71-1.543-2.54l-.27-.421,.842-.539,.27,.421c.539,.842,1.066,1.71,1.567,2.58l.25,.433-.866,.499ZM11.512,29.23l-.829-.56,.28-.415c.562-.831,1.151-1.66,1.751-2.465l.299-.4,.801,.598-.299,.401c-.591,.792-1.172,1.608-1.725,2.427l-.28,.414Zm104.445-1.147l-.289-.408c-.569-.804-1.167-1.606-1.775-2.385l-.308-.394,.788-.616,.308,.394c.618,.792,1.225,1.606,1.804,2.423l.289,.408-.816,.578ZM15.035,24.433l-.772-.635,.317-.386c.635-.773,1.3-1.543,1.974-2.29l.335-.371,.742,.67-.335,.371c-.665,.735-1.318,1.493-1.944,2.253l-.318,.386Zm97.298-1.063l-.326-.379c-.643-.747-1.313-1.49-1.992-2.209l-.344-.363,.727-.687,.343,.364c.69,.73,1.371,1.485,2.023,2.244l.326,.379-.758,.652Zm-93.342-3.382l-.709-.705,.352-.355c.713-.718,1.447-1.422,2.18-2.093l.369-.338,.675,.738-.369,.337c-.721,.661-1.443,1.354-2.145,2.061l-.353,.354Zm89.291-.972l-.36-.347c-.712-.685-1.449-1.363-2.191-2.014l-.376-.33,.659-.752,.376,.33c.754,.661,1.503,1.35,2.226,2.046l.36,.347-.694,.72ZM23.344,15.934l-.641-.768,.384-.32c.765-.639,1.561-1.271,2.365-1.88l.398-.302,.604,.797-.399,.302c-.791,.6-1.574,1.222-2.328,1.851l-.384,.32Zm80.495-.877l-.391-.312c-.771-.615-1.569-1.22-2.371-1.8l-.405-.293,.586-.811,.405,.293c.815,.589,1.625,1.205,2.408,1.829l.391,.312-.623,.782ZM28.054,12.309l-.565-.825,.413-.283c.825-.565,1.676-1.12,2.529-1.648l.425-.263,.526,.851-.425,.263c-.84,.52-1.678,1.066-2.49,1.623l-.413,.283Zm70.988-.778l-.418-.273c-.829-.542-1.68-1.07-2.53-1.57l-.431-.254,.507-.862,.431,.253c.864,.508,1.729,1.045,2.571,1.596l.418,.274-.547,.836Zm-65.959-2.388l-.485-.875,.437-.242c.878-.487,1.777-.959,2.672-1.402l.448-.222,.443,.896-.448,.222c-.881,.436-1.766,.9-2.63,1.379l-.437,.243Zm60.853-.673l-.442-.233c-.884-.464-1.782-.911-2.669-1.325l-.453-.212,.423-.906,.453,.211c.901,.422,1.813,.875,2.71,1.347l.443,.232-.465,.885Zm-55.553-2.002l-.401-.917,.458-.2c.918-.402,1.86-.788,2.797-1.146l.467-.178,.357,.934-.467,.179c-.922,.352-1.849,.731-2.753,1.127l-.458,.201Zm50.175-.564l-.462-.19c-.912-.375-1.849-.735-2.783-1.067l-.471-.168,.335-.942,.471,.167c.949,.338,1.9,.704,2.828,1.085l.462,.19-.381,.925Zm-44.634-1.603l-.312-.95,.475-.156c.956-.314,1.929-.608,2.894-.875l.482-.133,.267,.964-.482,.133c-.95,.262-1.908,.552-2.848,.861l-.475,.156Zm39.036-.444l-.478-.145c-.948-.288-1.913-.556-2.867-.797l-.485-.123,.245-.97,.485,.123c.97,.245,1.95,.518,2.912,.81l.479,.146-.291,.957Zm-33.316-1.187l-.221-.976,.488-.11c.974-.22,1.971-.421,2.963-.596l.492-.087,.174,.985-.493,.087c-.976,.173-1.958,.37-2.917,.587l-.488,.11Zm27.561-.316l-.49-.099c-.967-.196-1.953-.372-2.929-.521l-.495-.076,.152-.989,.494,.076c.992,.152,1.994,.331,2.976,.529l.49,.1-.199,.98Zm-21.711-.767l-.127-.992,.496-.064c.99-.127,2-.233,3.005-.316l.499-.041,.082,.997-.498,.041c-.989,.081-1.985,.186-2.959,.311l-.496,.063Zm15.838-.184l-.498-.053c-.977-.103-1.975-.185-2.965-.243l-.499-.029,.058-.999,.5,.029c1.006,.059,2.02,.142,3.012,.247l.497,.052-.105,.995Zm-9.912-.347l-.035-1,.5-.017C62.646,.013,63.406,0,64.164,0l1.242,.01-.012,1-1.23-.01c-.746,0-1.494,.013-2.246,.039l-.5,.018Z"/><path class="cls-5" d="M64.096,119.81c-29.789,0-54.542-23.675-55.622-53.682C7.371,35.444,31.436,9.582,62.12,8.478c30.707-1.109,56.546,22.961,57.65,53.645s-22.961,56.546-53.646,57.65c-.678,.024-1.356,.037-2.029,.037Zm.052-110.369c-.663,0-1.325,.012-1.992,.036-30.133,1.084-53.767,26.482-52.683,56.615,1.085,30.133,26.491,53.766,56.615,52.682,30.133-1.084,53.767-26.482,52.683-56.615h0c-1.061-29.466-25.372-52.718-54.623-52.718Z"/><g><path class="cls-1" d="M59.128,67.31l-1.727-.574c-.568-.189-.951-.721-.951-1.32,0-.865,.701-1.567,1.567-1.567s1.567,.701,1.567,1.567h1.567c-.005-1.424-.971-2.666-2.35-3.022v-1.678h-1.567v1.678c-1.379,.356-2.345,1.598-2.35,3.022,0,1.273,.814,2.404,2.022,2.806l1.727,.574c.568,.189,.951,.721,.951,1.32,0,.865-.701,1.567-1.567,1.567s-1.567-.701-1.567-1.567h-1.567c.005,1.424,.971,2.666,2.35,3.022v1.678h1.567v-1.678c1.379-.356,2.345-1.598,2.35-3.022,0-1.273-.814-2.404-2.022-2.806Z"/><path class="cls-1" d="M86.217,55.233h-15.836c-1.655-2.04-3.736-3.694-6.097-4.846v-3.379l2.82-2.115c.197-.148,.313-.38,.313-.627v-5.483c0-.433-.351-.783-.783-.783h-3.133c-.208,0-.407,.083-.554,.23l-1.013,1.013-1.013-1.013c-.147-.147-.346-.23-.554-.23h-4.7c-.208,0-.407,.083-.554,.23l-1.013,1.013-1.013-1.013c-.147-.147-.346-.23-.554-.23h-3.133c-.433,0-.783,.351-.783,.783v5.483c0,.247,.116,.479,.313,.627l2.82,2.115v3.387c-5.93,2.869-11.75,10.577-11.75,20.461,0,8.988,6.567,14.143,18.017,14.143,1.859,.007,3.714-.158,5.542-.492,.119,.296,.405,.491,.725,.492h21.933c.433,0,.783-.351,.783-.783v-28.2c0-.433-.351-.783-.783-.783Zm-36.033-11.358v-4.308h2.026l1.337,1.337c.306,.306,.802,.306,1.108,0l1.337-1.337h4.051l1.337,1.337c.306,.306,.802,.306,1.108,0l1.337-1.337h2.026v4.308l-2.611,1.958h-10.445l-2.611-1.958Zm12.533,3.525v2.35h-9.4v-2.35h9.4Zm.783,27.004c-3.665,3.035-9.097,2.524-12.132-1.141-3.035-3.665-2.524-9.097,1.141-12.132,3.188-2.64,7.803-2.64,10.991,0v13.274h0Zm0-18.387v3.178c-4.734-3.036-11.033-1.66-14.07,3.074-3.036,4.734-1.66,11.033,3.074,14.07,3.35,2.149,7.646,2.149,10.996,0v6.588c-1.807,.346-3.643,.516-5.483,.508-4.946,0-16.45-1.225-16.45-12.576,0-7.494,4.492-16.819,12.012-19.54h8.882c2.216,.841,4.208,2.181,5.823,3.917h-4c-.433,0-.783,.351-.783,.783Zm21.933,27.417h-20.367v-20.367h20.367v20.367Zm0-21.933h-20.367v-4.7h20.367v4.7Z"/><path class="cls-1" d="M70.55,64.633h-3.133c-.433,0-.783,.351-.783,.783v3.133c0,.433,.351,.783,.783,.783h3.133c.433,0,.783-.351,.783-.783v-3.133c0-.433-.351-.783-.783-.783Zm-.783,3.133h-1.567v-1.567h1.567v1.567Z"/><path class="cls-1" d="M76.817,64.633h-3.133c-.433,0-.783,.351-.783,.783v3.133c0,.433,.351,.783,.783,.783h3.133c.433,0,.783-.351,.783-.783v-3.133c0-.433-.351-.783-.783-.783Zm-.783,3.133h-1.567v-1.567h1.567v1.567Z"/><path class="cls-1" d="M83.083,64.633h-3.133c-.433,0-.783,.351-.783,.783v3.133c0,.433,.351,.783,.783,.783h3.133c.433,0,.783-.351,.783-.783v-3.133c0-.433-.351-.783-.783-.783Zm-.783,3.133h-1.567v-1.567h1.567v1.567Z"/><path class="cls-1" d="M70.55,70.899h-3.133c-.433,0-.783,.351-.783,.783v3.133c0,.433,.351,.783,.783,.783h3.133c.433,0,.783-.351,.783-.783v-3.133c0-.433-.351-.783-.783-.783Zm-.783,3.133h-1.567v-1.567h1.567v1.567Z"/><path class="cls-1" d="M76.817,70.899h-3.133c-.433,0-.783,.351-.783,.783v3.133c0,.433,.351,.783,.783,.783h3.133c.433,0,.783-.351,.783-.783v-3.133c0-.433-.351-.783-.783-.783Zm-.783,3.133h-1.567v-1.567h1.567v1.567Z"/><path class="cls-1" d="M70.55,77.166h-3.133c-.433,0-.783,.351-.783,.783v3.133c0,.433,.351,.783,.783,.783h3.133c.433,0,.783-.351,.783-.783v-3.133c0-.433-.351-.783-.783-.783Zm-.783,3.133h-1.567v-1.567h1.567v1.567Z"/><path class="cls-1" d="M76.817,77.166h-3.133c-.433,0-.783,.351-.783,.783v3.133c0,.433,.351,.783,.783,.783h3.133c.433,0,.783-.351,.783-.783v-3.133c0-.433-.351-.783-.783-.783Zm-.783,3.133h-1.567v-1.567h1.567v1.567Z"/><path class="cls-1" d="M83.083,70.899h-3.133c-.433,0-.783,.351-.783,.783v9.4c0,.433,.351,.783,.783,.783h3.133c.433,0,.783-.351,.783-.783v-9.4c0-.433-.351-.783-.783-.783Zm-.783,9.4h-1.567v-7.833h1.567v7.833Z"/><rect class="cls-1" x="82.3" y="58.366" width="1.567" height="1.567"/><rect class="cls-1" x="79.167" y="58.366" width="1.567" height="1.567"/><rect class="cls-1" x="76.033" y="58.366" width="1.567" height="1.567"/></g></svg>