<?xml version="1.0" encoding="UTF-8"?><svg id="Layer_1" xmlns="http://www.w3.org/2000/svg" xmlns:xlink="http://www.w3.org/1999/xlink" viewBox="0 0 121 120.999"><defs><style>.cls-1{fill:#fff;}.cls-2{fill:#3575bb;}.cls-3{fill:#1b63af;}.cls-4{clip-path:url(#clippath-1);}.cls-5{fill:none;}.cls-6{fill:#82b4e1;}</style><clipPath id="clippath-1"><circle class="cls-5" cx="60.5" cy="60.499" r="44.5"/></clipPath></defs><g class="cls-4"><circle class="cls-3" cx="60.5" cy="60.499" r="44.5"/><rect class="cls-2" x="29.925" y="38.264" width=".881" height="104.312" transform="translate(-55.043 47.955) rotate(-45)"/><rect class="cls-2" x="32.3" y="35.913" width=".881" height="104.312" transform="translate(-52.685 48.946) rotate(-45)"/><rect class="cls-2" x="34.674" y="33.562" width=".881" height="104.312" transform="translate(-50.327 49.936) rotate(-45)"/><rect class="cls-2" x="37.049" y="31.211" width=".881" height="104.312" transform="translate(-47.969 50.927) rotate(-45)"/><rect class="cls-2" x="39.423" y="28.861" width=".881" height="104.312" transform="translate(-45.612 51.917) rotate(-45)"/><rect class="cls-2" x="41.798" y="26.509" width=".881" height="104.312" transform="translate(-43.254 52.907) rotate(-45)"/><rect class="cls-2" x="44.172" y="24.159" width=".881" height="104.312" transform="translate(-40.896 53.898) rotate(-45)"/><rect class="cls-2" x="46.546" y="21.808" width=".881" height="104.312" transform="translate(-38.538 54.888) rotate(-45)"/><rect class="cls-2" x="48.921" y="19.457" width=".881" height="104.312" transform="translate(-36.18 55.879) rotate(-45)"/><rect class="cls-2" x="51.295" y="17.106" width=".881" height="104.312" transform="translate(-33.822 56.869) rotate(-45)"/><rect class="cls-2" x="53.67" y="14.755" width=".881" height="104.312" transform="translate(-31.465 57.86) rotate(-45)"/><rect class="cls-2" x="56.044" y="12.404" width=".881" height="104.313" transform="translate(-29.107 58.85) rotate(-45)"/><rect class="cls-2" x="58.418" y="10.053" width=".881" height="104.312" transform="translate(-26.749 59.841) rotate(-45)"/><rect class="cls-2" x="60.793" y="7.702" width=".881" height="104.312" transform="translate(-24.391 60.831) rotate(-45)"/><rect class="cls-2" x="63.167" y="5.351" width=".881" height="104.313" transform="translate(-22.033 61.821) rotate(-45)"/><rect class="cls-2" x="65.542" y="3" width=".881" height="104.312" transform="translate(-19.676 62.812) rotate(-45)"/><rect class="cls-2" x="67.916" y=".65" width=".881" height="104.312" transform="translate(-17.318 63.802) rotate(-45)"/><rect class="cls-2" x="70.29" y="-1.702" width=".881" height="104.312" transform="translate(-14.96 64.792) rotate(-45)"/><rect class="cls-2" x="72.665" y="-4.052" width=".881" height="104.312" transform="translate(-12.602 65.783) rotate(-45)"/><rect class="cls-2" x="75.039" y="-6.403" width=".881" height="104.312" transform="translate(-10.245 66.773) rotate(-45)"/><rect class="cls-2" x="77.414" y="-8.754" width=".881" height="104.312" transform="translate(-7.887 67.763) rotate(-45)"/><rect class="cls-2" x="79.788" y="-11.105" width=".881" height="104.312" transform="translate(-5.529 68.754) rotate(-45)"/><rect class="cls-2" x="82.163" y="-13.456" width=".881" height="104.312" transform="translate(-3.171 69.744) rotate(-45)"/><rect class="cls-2" x="84.537" y="-15.807" width=".881" height="104.312" transform="translate(-.813 70.735) rotate(-45)"/><rect class="cls-2" x="86.912" y="-18.158" width=".881" height="104.312" transform="translate(1.545 71.725) rotate(-45)"/><rect class="cls-2" x="89.286" y="-21.097" width=".881" height="104.312" transform="translate(4.318 72.543) rotate(-45)"/></g><path class="cls-6" d="M60.5,120.999c-.324,0-.648-.003-.972-.008l.016-1c1.33,.021,2.683-.003,4.018-.069l.051,.998c-1.033,.053-2.08,.079-3.112,.079Zm-3.013-.073c-1.364-.066-2.733-.18-4.07-.336l.116-.994c1.315,.154,2.662,.266,4.003,.332l-.049,.998Zm8.163-.144l-.083-.996c1.323-.111,2.665-.27,3.989-.471l.15,.988c-1.346,.205-2.71,.366-4.056,.479Zm-14.257-.464c-1.345-.203-2.696-.454-4.016-.746l.216-.977c1.298,.287,2.626,.534,3.949,.734l-.149,.988Zm20.328-.359l-.185-.982c1.314-.246,2.633-.54,3.92-.874l.251,.969c-1.31,.339-2.651,.638-3.987,.888Zm-26.331-.862c-1.311-.337-2.629-.725-3.919-1.15l.313-.949c1.269,.419,2.565,.8,3.854,1.131l-.249,.969Zm32.285-.57l-.283-.959c1.281-.378,2.563-.805,3.811-1.269l.349,.938c-1.269,.472-2.573,.905-3.876,1.29Zm-38.139-1.259c-1.275-.471-2.549-.991-3.787-1.547l.41-.912c1.217,.547,2.469,1.059,3.723,1.521l-.347,.938Zm43.917-.775l-.38-.926c1.229-.504,2.46-1.059,3.659-1.647l.441,.896c-1.219,.6-2.471,1.164-3.72,1.677Zm-49.557-1.642c-1.215-.597-2.428-1.243-3.607-1.924l.5-.865c1.159,.669,2.353,1.305,3.548,1.891l-.44,.898Zm55.091-.965l-.472-.881c1.175-.629,2.344-1.306,3.474-2.012l.53,.848c-1.149,.718-2.337,1.406-3.532,2.045Zm-60.453-2.011c-1.15-.717-2.291-1.483-3.393-2.278l.585-.811c1.083,.781,2.206,1.535,3.337,2.239l-.529,.85Zm65.697-1.144l-.559-.83c1.11-.747,2.205-1.538,3.255-2.353l.612,.791c-1.067,.827-2.181,1.632-3.309,2.392Zm-70.728-2.358c-1.075-.832-2.133-1.709-3.146-2.607l.664-.748c.995,.884,2.036,1.746,3.094,2.564l-.612,.791Zm75.628-1.312l-.639-.77c1.028-.854,2.038-1.752,3.002-2.669l.689,.725c-.98,.933-2.007,1.846-3.053,2.714Zm-80.278-2.678c-.983-.933-1.948-1.912-2.866-2.91l.735-.678c.904,.981,1.852,1.945,2.819,2.863l-.688,.725Zm84.787-1.468l-.713-.701c.934-.95,1.849-1.945,2.719-2.959l.759,.652c-.885,1.03-1.815,2.042-2.765,3.008Zm-89.011-2.968c-.886-1.029-1.747-2.1-2.559-3.183l.8-.6c.798,1.064,1.645,2.118,2.517,3.13l-.758,.652Zm93.083-1.613l-.78-.625c.835-1.041,1.646-2.124,2.408-3.218l.82,.572c-.775,1.112-1.599,2.213-2.448,3.271Zm-96.839-3.222c-.779-1.116-1.527-2.268-2.224-3.424l.856-.516c.685,1.137,1.42,2.27,2.188,3.367l-.82,.572Zm100.429-1.747l-.839-.545c.727-1.12,1.423-2.279,2.071-3.444l.874,.486c-.659,1.185-1.368,2.363-2.106,3.503Zm-103.676-3.441c-.662-1.186-1.29-2.406-1.867-3.629l.904-.428c.567,1.203,1.185,2.403,1.835,3.57l-.873,.486Zm106.746-1.866l-.89-.457c.609-1.188,1.186-2.413,1.712-3.638l.919,.395c-.536,1.246-1.121,2.49-1.741,3.7Zm-109.45-3.619c-.536-1.242-1.037-2.52-1.488-3.799l.943-.332c.444,1.257,.936,2.514,1.463,3.734l-.918,.396Zm111.967-1.977l-.932-.363c.484-1.24,.933-2.518,1.333-3.796l.954,.299c-.407,1.3-.863,2.6-1.355,3.86ZM2.787,78.704c-.407-1.291-.775-2.615-1.094-3.936l.972-.234c.314,1.298,.676,2.6,1.077,3.869l-.954,.301Zm116.035-2.062l-.964-.266c.354-1.282,.67-2.596,.938-3.905l.979,.199c-.272,1.332-.593,2.669-.953,3.972ZM1.246,72.774c-.273-1.326-.505-2.681-.688-4.025l.991-.135c.18,1.322,.408,2.654,.677,3.959l-.979,.201Zm118.904-2.111l-.986-.167c.222-1.312,.403-2.651,.536-3.98l.995,.1c-.136,1.352-.319,2.714-.545,4.048ZM.316,66.72c-.138-1.35-.231-2.721-.278-4.075l.999-.035c.046,1.333,.139,2.682,.274,4.009l-.995,.102Zm120.549-2.14l-.998-.066c.088-1.331,.133-2.683,.133-4.016v-.208h.999v.201c0,1.362-.044,2.735-.134,4.089ZM1,60.604H0v-.105c0-1.323,.043-2.661,.128-3.977l.998,.064c-.084,1.295-.126,2.61-.126,3.912v.105Zm118.96-2.319c-.049-1.338-.144-2.687-.281-4.008l.995-.104c.14,1.344,.236,2.714,.286,4.074l-.999,.037ZM1.291,54.585l-.995-.098c.133-1.354,.314-2.717,.538-4.049l.986,.166c-.22,1.31-.398,2.648-.529,3.98Zm118.147-2.304c-.183-1.32-.413-2.651-.684-3.957l.979-.203c.276,1.327,.51,2.682,.695,4.023l-.99,.137ZM2.184,48.628l-.98-.199c.269-1.327,.587-2.664,.946-3.973l.965,.264c-.354,1.288-.667,2.603-.93,3.908Zm116.127-2.265c-.315-1.294-.68-2.596-1.083-3.867l.953-.303c.411,1.294,.781,2.617,1.102,3.934l-.972,.236ZM3.679,42.793l-.955-.297c.404-1.298,.858-2.598,1.349-3.862l.933,.361c-.483,1.244-.929,2.522-1.326,3.798Zm112.91-2.2c-.444-1.252-.939-2.508-1.47-3.731l.918-.398c.54,1.245,1.042,2.522,1.494,3.796l-.942,.334ZM5.765,37.128l-.92-.393c.535-1.251,1.119-2.497,1.735-3.703l.891,.455c-.606,1.186-1.18,2.411-1.706,3.641Zm108.527-2.093c-.571-1.202-1.19-2.401-1.842-3.565l.873-.488c.662,1.183,1.292,2.402,1.872,3.626l-.903,.428ZM8.416,31.711l-.875-.484c.66-1.19,1.366-2.37,2.101-3.507l.84,.543c-.722,1.117-1.417,2.277-2.065,3.448Zm103.025-1.974c-.688-1.138-1.426-2.27-2.193-3.363l.818-.574c.78,1.112,1.53,2.263,2.23,3.42l-.855,.518ZM11.601,26.59l-.821-.57c.774-1.114,1.597-2.216,2.443-3.275l.781,.625c-.833,1.042-1.642,2.126-2.403,3.221Zm96.466-1.842c-.806-1.07-1.655-2.121-2.522-3.125l.757-.654c.881,1.021,1.744,2.09,2.564,3.178l-.799,.602ZM15.286,21.82l-.76-.65c.879-1.026,1.807-2.039,2.759-3.012l.715,.699c-.937,.957-1.85,1.954-2.714,2.963Zm88.922-1.692c-.905-.98-1.855-1.941-2.825-2.858l.688-.727c.985,.933,1.951,1.91,2.872,2.905l-.734,.68Zm-84.778-2.682l-.69-.723c.98-.936,2.005-1.85,3.047-2.719l.641,.768c-1.025,.855-2.034,1.755-2.998,2.674Zm80.471-1.534c-1.002-.886-2.045-1.747-3.098-2.559l.61-.793c1.071,.826,2.131,1.701,3.15,2.604l-.662,.748ZM23.991,13.513l-.614-.789c1.066-.829,2.178-1.636,3.305-2.397l.56,.828c-1.108,.749-2.202,1.543-3.25,2.358Zm71.199-1.362c-1.089-.782-2.213-1.534-3.341-2.234l.527-.85c1.147,.713,2.29,1.477,3.397,2.271l-.583,.812ZM28.923,10.061l-.531-.848c1.149-.721,2.337-1.411,3.529-2.051l.473,.881c-1.172,.63-2.339,1.309-3.47,2.018Zm61.199-1.176c-1.162-.668-2.357-1.302-3.552-1.886l.439-.898c1.214,.594,2.429,1.238,3.61,1.917l-.498,.867Zm-55.946-1.761l-.443-.896c1.214-.6,2.465-1.166,3.717-1.683l.382,.925c-1.232,.508-2.462,1.065-3.656,1.655Zm50.571-.978c-1.22-.545-2.474-1.055-3.726-1.515l.345-.938c1.274,.468,2.549,.986,3.79,1.541l-.408,.913Zm-45.046-1.412l-.35-.937c1.269-.474,2.572-.91,3.874-1.297l.285,.958c-1.28,.381-2.562,.811-3.809,1.276Zm39.417-.765c-1.266-.417-2.563-.796-3.856-1.126l.247-.969c1.315,.335,2.635,.721,3.921,1.145l-.312,.95Zm-33.674-1.05l-.252-.968c1.307-.341,2.647-.642,3.985-.896l.187,.982c-1.316,.25-2.634,.546-3.919,.881Zm27.864-.54c-1.306-.286-2.635-.53-3.951-.727l.147-.989c1.338,.2,2.689,.448,4.017,.739l-.214,.977Zm-21.965-.681l-.152-.988c1.34-.207,2.705-.371,4.055-.487l.086,.996c-1.328,.114-2.67,.275-3.988,.479Zm16.021-.309c-1.322-.151-2.669-.26-4.004-.324l.048-.999c1.356,.064,2.726,.175,4.07,.33l-.114,.993Zm-10.029-.309l-.052-.999c1.346-.07,2.726-.095,4.083-.078l-.014,1c-1.336-.019-2.693,.008-4.018,.077Z"/><path class="cls-3" d="M61.057,109.997l-.012-1c1.33-.016,2.667-.084,3.976-.205l.092,.996c-1.335,.123-2.699,.193-4.056,.209Zm-2.032-.02c-1.343-.039-2.707-.135-4.052-.283l.11-.994c1.318,.146,2.654,.239,3.971,.277l-.029,1Zm8.106-.42l-.133-.99c1.309-.176,2.627-.407,3.919-.69l.214,.977c-1.318,.289-2.664,.526-4,.704Zm-14.172-.13c-1.333-.204-2.674-.466-3.986-.778l.231-.973c1.286,.307,2.6,.562,3.906,.763l-.151,.988Zm20.147-1.048l-.254-.967c1.28-.337,2.561-.73,3.804-1.17l.333,.943c-1.27,.448-2.576,.85-3.883,1.193Zm-26.099-.242c-1.307-.369-2.606-.796-3.861-1.268l.352-.936c1.229,.461,2.501,.879,3.781,1.24l-.271,.963Zm31.884-1.669l-.371-.928c1.22-.488,2.441-1.036,3.628-1.629l.447,.895c-1.212,.605-2.458,1.165-3.704,1.662Zm-37.636-.35c-1.242-.524-2.479-1.108-3.676-1.734l.464-.887c1.173,.614,2.384,1.186,3.601,1.699l-.389,.922Zm43.134-2.256l-.483-.875c1.155-.638,2.3-1.333,3.402-2.064l.554,.832c-1.125,.748-2.293,1.457-3.472,2.107Zm-48.594-.46c-1.169-.675-2.325-1.406-3.434-2.173l.569-.822c1.086,.752,2.218,1.468,3.364,2.13l-.5,.865Zm53.733-2.806l-.587-.811c1.07-.775,2.121-1.605,3.124-2.466l.651,.76c-1.023,.878-2.096,1.725-3.188,2.517Zm-58.814-.559c-1.072-.81-2.128-1.676-3.141-2.576l.665-.748c.992,.884,2.028,1.733,3.078,2.525l-.603,.799Zm63.515-3.312l-.681-.732c.964-.897,1.906-1.849,2.8-2.829l.739,.674c-.912,1-1.874,1.972-2.858,2.888Zm-68.145-.649c-.965-.935-1.908-1.924-2.802-2.94l.751-.66c.876,.996,1.8,1.966,2.746,2.882l-.695,.719Zm72.341-3.769l-.766-.643c.848-1.01,1.667-2.07,2.433-3.151l.816,.578c-.782,1.104-1.618,2.186-2.484,3.216Zm-76.451-.726c-.846-1.047-1.66-2.145-2.421-3.261l.826-.562c.746,1.094,1.544,2.169,2.373,3.194l-.778,.629Zm80.077-4.172l-.839-.545c.721-1.11,1.403-2.263,2.029-3.426l.881,.475c-.639,1.187-1.335,2.362-2.071,3.496Zm-83.605-.789c-.713-1.146-1.387-2.333-2.003-3.532l.89-.457c.604,1.174,1.264,2.339,1.962,3.46l-.849,.529Zm86.602-4.52l-.899-.438c.578-1.187,1.113-2.415,1.591-3.65l.933,.361c-.488,1.261-1.035,2.515-1.625,3.727Zm-89.494-.836c-.566-1.223-1.088-2.484-1.552-3.751l.939-.344c.454,1.24,.965,2.477,1.52,3.675l-.907,.42Zm91.814-4.805l-.946-.322c.426-1.251,.805-2.535,1.126-3.817l.97,.242c-.328,1.31-.714,2.62-1.149,3.897Zm-94.025-.869c-.411-1.285-.773-2.603-1.077-3.917l.975-.225c.297,1.287,.652,2.578,1.054,3.837l-.952,.305Zm95.628-5.007l-.979-.203c.268-1.296,.485-2.617,.646-3.927l.992,.121c-.164,1.337-.385,2.686-.658,4.009Zm-97.121-.898c-.25-1.328-.446-2.68-.584-4.019l.995-.104c.135,1.312,.328,2.637,.572,3.938l-.982,.184Zm97.984-5.131l-.997-.082c.107-1.312,.161-2.649,.161-3.977v-.197l1-.008v.205c0,1.354-.055,2.72-.164,4.059Zm-98.737-.912c-.065-1.038-.098-2.097-.099-3.146,0-.306,.003-.61,.008-.915l1,.018c-.005,.299-.008,.598-.008,.897,0,1.028,.033,2.066,.097,3.084l-.998,.062Zm97.854-5.335c-.06-1.324-.173-2.658-.339-3.966l.992-.125c.169,1.334,.285,2.695,.346,4.046l-.999,.045Zm-96.868-.697l-.998-.059c.079-1.347,.214-2.706,.403-4.042l.99,.141c-.185,1.308-.317,2.641-.395,3.96Zm96.239-5.236c-.22-1.306-.497-2.616-.823-3.895l.969-.246c.333,1.305,.615,2.642,.84,3.975l-.986,.166Zm-95.525-.688l-.983-.182c.243-1.324,.545-2.657,.897-3.961l.966,.26c-.345,1.278-.641,2.584-.879,3.883Zm94.17-5.123c-.379-1.267-.816-2.532-1.298-3.763l.931-.365c.493,1.256,.938,2.549,1.326,3.841l-.958,.287Zm-92.732-.669l-.954-.301c.406-1.286,.871-2.572,1.382-3.824l.926,.379c-.501,1.226-.957,2.486-1.354,3.746Zm90.671-4.927c-.534-1.212-1.124-2.414-1.752-3.572l.879-.477c.642,1.182,1.243,2.408,1.789,3.645l-.915,.404Zm-88.524-.65l-.909-.416c.562-1.228,1.183-2.446,1.844-3.622l.872,.49c-.648,1.152-1.255,2.346-1.807,3.548Zm85.789-4.647c-.678-1.135-1.411-2.256-2.179-3.33l.813-.582c.784,1.098,1.532,2.241,2.224,3.398l-.858,.514Zm-82.971-.617l-.851-.525c.711-1.152,1.477-2.285,2.275-3.367l.805,.594c-.782,1.06-1.532,2.17-2.229,3.299Zm79.603-4.308c-.813-1.045-1.678-2.067-2.57-3.04l.736-.676c.911,.991,1.793,2.035,2.623,3.101l-.789,.615Zm-76.16-.57l-.78-.625c.845-1.054,1.744-2.084,2.67-3.063l.727,.688c-.908,.959-1.788,1.969-2.616,3.001Zm72.214-3.908c-.936-.938-1.919-1.848-2.923-2.703l.648-.762c1.024,.873,2.028,1.801,2.982,2.758l-.708,.707Zm-68.201-.511l-.698-.717c.969-.943,1.986-1.856,3.023-2.713l.637,.771c-1.017,.839-2.013,1.733-2.962,2.658Zm63.736-3.453c-1.044-.817-2.131-1.6-3.232-2.326l.551-.834c1.123,.74,2.233,1.539,3.297,2.373l-.616,.787Zm-59.215-.441l-.605-.797c1.076-.817,2.197-1.6,3.332-2.323l.538,.844c-1.112,.709-2.21,1.475-3.264,2.276Zm54.297-2.947c-1.135-.683-2.311-1.325-3.493-1.911l.443-.896c1.207,.598,2.407,1.254,3.565,1.95l-.516,.857Zm-49.336-.366l-.503-.863c1.171-.682,2.379-1.32,3.591-1.896l.43,.902c-1.187,.565-2.371,1.19-3.518,1.857Zm44.037-2.392c-1.203-.536-2.448-1.029-3.702-1.467l.329-.943c1.28,.445,2.552,.949,3.78,1.496l-.407,.914Zm-38.709-.283l-.393-.92c1.238-.528,2.515-1.013,3.796-1.439l.315,.949c-1.255,.418-2.506,.892-3.719,1.41Zm33.109-1.802c-1.263-.383-2.56-.718-3.853-.995l.21-.979c1.32,.284,2.644,.626,3.933,1.017l-.29,.957Zm-27.488-.196l-.276-.961c1.294-.372,2.623-.695,3.947-.96l.196,.98c-1.298,.26-2.599,.576-3.867,.94Zm21.68-1.176c-1.295-.224-2.623-.396-3.946-.513l.088-.996c1.35,.119,2.705,.296,4.028,.522l-.17,.986Zm-15.854-.112l-.155-.988c1.333-.209,2.691-.365,4.036-.465l.073,.998c-1.317,.097-2.647,.25-3.954,.455Zm9.921-.534c-1.317-.062-2.654-.073-3.98-.027l-.033-1c1.349-.045,2.717-.038,4.062,.029l-.049,.998Z"/><g><path class="cls-1" d="M60.5,44.898c-8.603,0-15.602,6.999-15.602,15.602s6.999,15.603,15.602,15.603,15.602-6.999,15.602-15.603-6.999-15.602-15.602-15.602Zm0,29.204c-7.5,0-13.602-6.103-13.602-13.603s6.102-13.602,13.602-13.602,13.602,6.102,13.602,13.602-6.102,13.603-13.602,13.603Z"/><path class="cls-1" d="M60.5,40.309c.552,0,1-.447,1-1v-7.31c0-.553-.448-1-1-1s-1,.447-1,1v7.31c0,.553,.448,1,1,1Z"/><path class="cls-1" d="M49.039,42.648c.186,.321,.521,.5,.867,.5,.169,0,.342-.043,.499-.134,.479-.276,.642-.888,.366-1.366l-3.655-6.33c-.276-.479-.889-.643-1.366-.366-.479,.276-.642,.888-.366,1.366l3.655,6.33Z"/><path class="cls-1" d="M42.648,49.037l-6.33-3.654c-.479-.277-1.09-.111-1.366,.366-.276,.479-.112,1.09,.366,1.366l6.33,3.654c.158,.091,.33,.134,.499,.134,.346,0,.682-.18,.867-.5,.276-.479,.112-1.09-.366-1.366Z"/><path class="cls-1" d="M40.31,60.499c0-.553-.448-1-1-1h-7.31c-.552,0-1,.447-1,1s.448,1,1,1h7.31c.552,0,1-.447,1-1Z"/><path class="cls-1" d="M41.648,70.229l-6.33,3.654c-.478,.276-.642,.888-.366,1.366,.186,.32,.521,.5,.867,.5,.169,0,.341-.043,.499-.134l6.33-3.654c.478-.276,.642-.888,.366-1.366-.277-.478-.887-.643-1.366-.366Z"/><path class="cls-1" d="M50.405,77.985c-.481-.277-1.09-.112-1.366,.366l-3.655,6.33c-.276,.479-.112,1.09,.366,1.366,.158,.091,.33,.134,.499,.134,.346,0,.682-.179,.867-.5l3.655-6.33c.276-.479,.112-1.09-.366-1.366Z"/><path class="cls-1" d="M60.5,80.69c-.552,0-1,.447-1,1v7.31c0,.553,.448,1,1,1s1-.447,1-1v-7.31c0-.553-.448-1-1-1Z"/><path class="cls-1" d="M71.961,78.351c-.277-.479-.889-.644-1.366-.366-.479,.276-.642,.888-.366,1.366l3.655,6.33c.186,.321,.521,.5,.867,.5,.169,0,.342-.043,.499-.134,.479-.276,.642-.888,.366-1.366l-3.655-6.33Z"/><path class="cls-1" d="M85.682,73.883l-6.33-3.654c-.48-.276-1.09-.111-1.366,.366-.276,.479-.112,1.09,.366,1.366l6.33,3.654c.158,.091,.33,.134,.499,.134,.346,0,.682-.18,.867-.5,.276-.479,.112-1.09-.366-1.366Z"/><path class="cls-1" d="M89,59.499h-7.31c-.552,0-1,.447-1,1s.448,1,1,1h7.31c.552,0,1-.447,1-1s-.448-1-1-1Z"/><path class="cls-1" d="M78.853,50.904c.169,0,.341-.043,.499-.134l6.33-3.654c.478-.276,.642-.888,.366-1.366-.277-.478-.887-.644-1.366-.366l-6.33,3.654c-.478,.276-.642,.888-.366,1.366,.186,.32,.521,.5,.867,.5Z"/><path class="cls-1" d="M70.595,43.014c.158,.091,.33,.134,.499,.134,.346,0,.682-.179,.867-.5l3.655-6.33c.276-.479,.112-1.09-.366-1.366-.48-.276-1.09-.113-1.366,.366l-3.655,6.33c-.276,.479-.112,1.09,.366,1.366Z"/><path class="cls-1" d="M60.497,50.839c-5.325,0-9.657,4.332-9.657,9.656,0,.553,.448,1,1,1s1-.447,1-1c0-4.222,3.435-7.656,7.657-7.656,.552,0,1-.447,1-1s-.448-1-1-1Z"/></g></svg>