<svg width="70" height="71" viewBox="0 0 70 71" fill="none" xmlns="http://www.w3.org/2000/svg">
<g clip-path="url(#clip0_29_3692)">
<mask id="mask0_29_3692" style="mask-type:luminance" maskUnits="userSpaceOnUse" x="0" y="0" width="70" height="71">
<path d="M69.9969 0.8125H0.00292969V70.8037H69.9969V0.8125Z" fill="white"/>
</mask>
<g mask="url(#mask0_29_3692)">
<mask id="mask1_29_3692" style="mask-type:luminance" maskUnits="userSpaceOnUse" x="7" y="8" width="56" height="56">
<path d="M35.0004 63.2328C50.1465 63.2328 62.4247 50.9543 62.4247 35.8083C62.4247 20.6621 50.1465 8.38379 35.0004 8.38379C19.8543 8.38379 7.57602 20.6621 7.57602 35.8083C7.57602 50.9543 19.8543 63.2328 35.0004 63.2328Z" fill="white"/>
</mask>
<g mask="url(#mask1_29_3692)">
<path d="M35.0004 63.2328C50.1465 63.2328 62.4247 50.9543 62.4247 35.8083C62.4247 20.6621 50.1465 8.38379 35.0004 8.38379C19.8543 8.38379 7.57602 20.6621 7.57602 35.8083C7.57602 50.9543 19.8543 63.2328 35.0004 63.2328Z" fill="#E31E24"/>
<path d="M-6.1068 31.3281L-6.49081 31.7121L38.966 77.169L39.3501 76.7851L-6.1068 31.3281Z" fill="#FF6F73"/>
<path d="M-4.64346 29.8789L-5.0275 30.2629L40.4293 75.72L40.8134 75.3355L-4.64346 29.8789Z" fill="#FF6F73"/>
<path d="M-3.18094 28.4297L-3.56497 28.8137L41.8918 74.2704L42.2759 73.8865L-3.18094 28.4297Z" fill="#FF6F73"/>
<path d="M-1.71695 26.9805L-2.10098 27.3645L43.3558 72.8214L43.7399 72.4375L-1.71695 26.9805Z" fill="#FF6F73"/>
<path d="M-0.254301 25.5322L-0.638336 25.9163L44.8185 71.3729L45.2025 70.989L-0.254301 25.5322Z" fill="#FF6F73"/>
<path d="M1.20981 24.084L0.825775 24.468L46.2826 69.9249L46.6666 69.541L1.20981 24.084Z" fill="#FF6F73"/>
<path d="M2.67313 22.6338L2.28909 23.0179L47.7459 68.4749L48.13 68.0905L2.67313 22.6338Z" fill="#FF6F73"/>
<path d="M4.13632 21.1855L3.75229 21.5696L49.2091 67.0264L49.5931 66.6425L4.13632 21.1855Z" fill="#FF6F73"/>
<path d="M5.59896 19.7373L5.21494 20.1213L50.6717 65.5783L51.0558 65.1939L5.59896 19.7373Z" fill="#FF6F73"/>
<path d="M7.06321 18.2881L6.6792 18.6721L52.136 64.1288L52.52 63.7449L7.06321 18.2881Z" fill="#FF6F73"/>
<path d="M8.52643 16.8398L8.14236 17.2239L53.5992 62.6808L53.9832 62.2969L8.52643 16.8398Z" fill="#FF6F73"/>
<path d="M9.98906 15.3906L9.60504 15.7747L55.0621 61.2313L55.446 60.8474L9.98906 15.3906Z" fill="#FF6F73"/>
<path d="M11.4524 13.9414L11.0684 14.3255L56.525 59.7823L56.9094 59.3984L11.4524 13.9414Z" fill="#FF6F73"/>
<path d="M12.9155 12.4932L12.5315 12.8772L57.9884 58.3343L58.3723 57.9498L12.9155 12.4932Z" fill="#FF6F73"/>
<path d="M14.3798 11.043L13.9958 11.427L59.4524 56.8837L59.8369 56.4998L14.3798 11.043Z" fill="#FF6F73"/>
<path d="M15.843 9.5957L15.459 9.97977L60.9159 55.4366L61.2998 55.0526L15.843 9.5957Z" fill="#FF6F73"/>
<path d="M17.3056 8.14648L16.9216 8.53055L62.3782 53.9874L62.7627 53.6033L17.3056 8.14648Z" fill="#FF6F73"/>
<path d="M18.7683 6.69727L18.3842 7.08134L63.8411 52.5381L64.225 52.1541L18.7683 6.69727Z" fill="#FF6F73"/>
<path d="M20.2321 5.24805L19.8481 5.63208L65.3051 51.0889L65.689 50.7049L20.2321 5.24805Z" fill="#FF6F73"/>
<path d="M21.6957 3.7998L21.3117 4.18384L66.7685 49.6407L67.1524 49.2566L21.6957 3.7998Z" fill="#FF6F73"/>
<path d="M23.1597 2.35059L22.7757 2.73462L68.2325 48.1915L68.6164 47.8074L23.1597 2.35059Z" fill="#FF6F73"/>
<path d="M24.6222 0.902344L24.2382 1.28638L69.6948 46.7432L70.0793 46.3592L24.6222 0.902344Z" fill="#FF6F73"/>
<path d="M26.0856 -0.545898L25.7015 -0.161866L71.1583 45.295L71.5422 44.9109L26.0856 -0.545898Z" fill="#FF6F73"/>
<path d="M27.5489 -1.99512L27.1649 -1.61109L72.6217 43.8457L73.0056 43.4617L27.5489 -1.99512Z" fill="#FF6F73"/>
<path d="M29.0123 -3.44531L28.6283 -3.06128L74.0851 42.3955L74.4691 42.0115L29.0123 -3.44531Z" fill="#FF6F73"/>
<path d="M30.476 -5.25488L30.092 -4.87087L75.5486 40.5859L75.933 40.2019L30.476 -5.25488Z" fill="#FF6F73"/>
</g>
<path d="M35.5068 70.8037L35.4931 69.885C36.7126 69.8675 37.9304 69.7855 39.1413 69.6389L39.2516 70.5511C38.0087 70.7015 36.7587 70.7857 35.5068 70.8037ZM33.6294 70.7808C32.3781 70.7327 31.1302 70.6178 29.8911 70.4362L30.0244 69.5273C31.2309 69.7034 32.4459 69.8155 33.6644 69.8631L33.6294 70.7808ZM41.1097 70.2766L40.9508 69.3666C42.1518 69.1555 43.3404 68.8793 44.5117 68.5397L44.7672 69.4218C43.564 69.7723 42.3437 70.0578 41.1097 70.2766ZM28.0403 70.1158C26.8119 69.8675 25.5978 69.553 24.4031 69.1746L24.6788 68.2991C25.8417 68.6682 27.0237 68.975 28.2195 69.2178L28.0403 70.1158ZM46.5573 68.8541L46.254 67.9884C47.4052 67.5854 48.5338 67.1211 49.6349 66.5972L50.03 67.4241C48.899 67.9627 47.7397 68.4402 46.5573 68.8541ZM22.6258 68.5561C21.4538 68.1126 20.3065 67.6067 19.1889 67.0402L19.6043 66.2204C20.6922 66.7722 21.8091 67.2649 22.9502 67.6959L22.6258 68.5561ZM51.7016 66.5731L51.2614 65.7665C52.3326 65.1846 53.3719 64.5459 54.3749 63.853L54.8975 64.6082C53.8677 65.3197 52.8005 65.9759 51.7007 66.5742L51.7016 66.5731ZM17.5348 66.1438C16.4497 65.5177 15.3988 64.8335 14.3865 64.0958L14.9286 63.3531C15.9142 64.0723 16.9375 64.7384 17.9943 65.3481L17.5348 66.1438ZM56.4123 63.4953L55.8496 62.7696C56.8137 62.0226 57.7374 61.2252 58.6168 60.3803L59.2533 61.0426C58.3505 61.9099 57.4027 62.7291 56.4123 63.4953ZM12.8996 62.9441C11.929 62.1522 11.0011 61.3089 10.1198 60.4186L10.7731 59.7755C11.6313 60.6428 12.535 61.4637 13.4804 62.2348L12.8996 62.9441ZM60.5724 59.7L59.9003 59.0744C60.7337 58.183 61.5185 57.2478 62.2524 56.2733L62.9874 56.8245C62.2338 57.8264 61.4277 58.7873 60.5724 59.7027V59.7ZM8.83503 59.0498C8.00285 58.1135 7.2212 57.1335 6.49353 56.1147L7.24155 55.5826C7.94991 56.5752 8.71067 57.5295 9.52059 58.4411L8.83503 59.0498ZM64.0762 55.2929L63.3134 54.7801C63.9937 53.7673 64.6187 52.7189 65.1864 51.6391L66.0007 52.0664C65.4172 53.1765 64.7751 54.2544 64.0762 55.2956V55.2929ZM5.44683 54.5577C4.77612 53.5008 4.1626 52.4088 3.60892 51.2862L4.43598 50.8801C4.97649 51.9729 5.575 53.0361 6.22884 54.0652L5.44683 54.5577ZM66.833 50.3783L65.998 49.996C66.5055 48.8874 66.9539 47.7524 67.3405 46.5958L68.2117 46.8863C67.8141 48.0752 67.3526 49.2418 66.8298 50.381L66.833 50.3783ZM2.81861 49.5871C2.32634 48.4355 1.89687 47.2582 1.53207 46.0601L2.4106 45.7918C2.76749 46.9576 3.18683 48.1034 3.66681 49.2241L2.81861 49.5871ZM68.7537 45.0906L67.8672 44.848C68.1893 43.6714 68.448 42.4784 68.6426 41.2742L69.5494 41.4203C69.3498 42.657 69.0845 43.8822 68.7537 45.0906ZM1.02665 44.2497C0.725548 43.0338 0.490261 41.8024 0.321808 40.5611L1.2325 40.4379C1.39636 41.6465 1.62521 42.8453 1.91804 44.0292L1.02665 44.2497ZM69.7976 39.5631L68.8844 39.4657C69.0129 38.2529 69.0774 37.0342 69.0774 35.8147V35.6768H69.9962V35.8147C69.9967 37.0655 69.9305 38.3155 69.7987 39.5594L69.7976 39.5631ZM0.119637 38.6938C0.0424449 37.7417 0.00292969 36.7713 0.00292969 35.81C0.00292969 35.5196 0.00629921 35.2302 0.0130382 34.9417L0.931993 34.9628C0.925256 35.2452 0.921887 35.5276 0.921887 35.81C0.921887 36.7465 0.960485 37.6912 1.03676 38.6193L0.119637 38.6938ZM69.0222 33.8453C68.9533 32.6279 68.8187 31.415 68.6208 30.2118L69.5264 30.062C69.7309 31.2977 69.8687 32.5434 69.9393 33.7939L69.0222 33.8453ZM1.02481 33.1368L0.105853 33.066C0.20271 31.8173 0.366211 30.5746 0.59566 29.3434L1.49899 29.5124C1.27638 30.7113 1.11809 31.9211 1.02481 33.1368ZM68.2741 28.4161C68.0105 27.2252 67.6829 26.0494 67.2924 24.8938L68.163 24.5997C68.5644 25.7867 68.9019 26.9944 69.1737 28.2177L68.2741 28.4161ZM1.88679 27.7251L0.993566 27.5082C1.2901 26.2906 1.65208 25.09 2.07794 23.9114L2.94175 24.2238C2.52755 25.3712 2.17539 26.5399 1.88679 27.7251ZM66.6602 23.1781C66.208 22.0455 65.6944 20.938 65.123 19.8606L65.9356 19.4297C66.5224 20.5364 67.0491 21.6739 67.5139 22.8371L66.6602 23.1781ZM3.61168 22.5174L2.76532 22.158C3.25581 21.0047 3.80798 19.8786 4.41944 18.7846L5.22169 19.2321C4.62643 20.2975 4.08898 21.3941 3.61168 22.5174ZM64.2244 18.2727C63.5961 17.2277 62.9119 16.2173 62.1748 15.2456L62.9103 14.6943C63.6666 15.6924 64.3694 16.7301 65.0152 17.8031L64.2244 18.2727ZM6.15348 17.6579L5.37607 17.1699C6.04438 16.1103 6.76894 15.0873 7.54665 14.1052L8.2671 14.6759C7.51001 15.6316 6.80448 16.627 6.15348 17.6579ZM61.0318 13.8158C60.2437 12.8837 59.407 11.9942 58.5249 11.1508L59.1587 10.4855C60.0644 11.3505 60.9235 12.263 61.7318 13.2193L61.0318 13.8158ZM9.44152 13.2699L8.75234 12.6615C9.58141 11.7228 10.4596 10.8286 11.3833 9.98277L12.0036 10.661C11.1038 11.4844 10.2485 12.3553 9.44152 13.2699ZM57.1687 9.92579C56.2417 9.13222 55.2732 8.3883 54.2673 7.69733L54.7876 6.94012C55.8195 7.6498 56.8137 8.41357 57.7648 9.2283L57.1687 9.92579ZM13.3857 9.4663L12.8022 8.7569C13.7699 7.96038 14.7798 7.21652 15.8274 6.52844L16.3309 7.29669C15.3113 7.96562 14.3282 8.68865 13.3857 9.46264V9.4663ZM52.7318 6.70945C51.6915 6.07392 50.6179 5.49475 49.5154 4.97446L49.9078 4.14739C51.0416 4.68184 52.1459 5.27664 53.2161 5.92925L52.7318 6.70945ZM17.8849 6.34184L17.4255 5.54788C18.508 4.91851 19.6233 4.34734 20.7668 3.83679L21.139 4.67212C20.0254 5.16818 18.9392 5.72341 17.8849 6.33545V6.34184ZM47.8356 4.23745C46.7056 3.77722 45.5515 3.37843 44.3785 3.04281L44.6302 2.15877C45.8353 2.50308 47.0209 2.91199 48.182 3.38374L47.8356 4.23745ZM22.8243 3.97187L22.4962 3.10989C23.6666 2.66228 24.8602 2.27821 26.0719 1.95936L26.3053 2.84799C25.1257 3.15996 23.9637 3.53513 22.8243 3.97187ZM42.6058 2.58333C41.4166 2.31274 40.2138 2.10598 39.0026 1.96395L39.1092 1.05143C40.3532 1.1972 41.5885 1.40948 42.8098 1.68735L42.6058 2.58333ZM28.0862 2.43354L27.9025 1.53388C29.1291 1.28134 30.3684 1.09483 31.6151 0.975155L31.7069 1.89411C30.491 2.00914 29.283 2.18921 28.0862 2.43354ZM37.1839 1.80038C36.4515 1.75443 35.7155 1.73146 34.9711 1.73146C34.4865 1.73146 34.0047 1.74187 33.5256 1.7627L33.4861 0.843745C33.9878 0.823527 34.4583 0.8125 35.0005 0.8125C35.7467 0.8125 36.5002 0.836393 37.2391 0.88326L37.1839 1.80038Z" fill="#E31E24"/>
<path d="M35.0005 66.9773C28.836 66.9773 22.8099 65.1496 17.6842 61.7251C12.5585 58.3 8.56346 53.4325 6.20424 47.7373C3.84502 42.0422 3.2276 35.7753 4.43005 29.7292C5.63248 23.6831 8.60081 18.1294 12.9597 13.7703C17.3185 9.41118 22.8721 6.44252 28.9181 5.23971C34.9641 4.0369 41.231 4.65395 46.9264 7.0128C52.6217 9.37169 57.4897 13.3665 60.9148 18.492C64.3393 23.6175 66.1675 29.6435 66.168 35.808C66.1587 44.0714 62.872 51.9938 57.0292 57.8373C51.1861 63.6802 43.2639 66.9674 35.0005 66.9773ZM35.0005 5.55959C29.0177 5.55941 23.1692 7.33338 18.1946 10.6571C13.2199 13.9809 9.3427 18.7052 7.05305 24.2326C4.76346 29.76 4.16434 35.8421 5.33149 41.7101C6.49863 47.5779 9.37962 52.9679 13.6101 57.1986C17.8406 61.4287 23.2306 64.3102 29.0985 65.4772C34.9664 66.6442 41.0485 66.0448 46.5759 63.7556C52.1033 61.4659 56.8274 57.5885 60.1513 52.614C63.4752 47.6393 65.2493 41.7908 65.2487 35.808C65.2395 27.7884 62.0501 20.0999 56.379 14.429C50.7086 8.75821 43.0201 5.56908 35.0005 5.55959Z" fill="#E31E24"/>
</g>
<path d="M28.2561 36.5824C26.8576 36.5824 25.7133 36.1058 24.8233 35.1526C23.9515 34.1811 23.5156 32.8887 23.5156 31.2756C23.5156 29.6625 23.9515 28.3793 24.8233 27.4261C25.7133 26.4545 26.8576 25.9688 28.2561 25.9688C29.6546 25.9688 30.7898 26.4545 31.6616 27.4261C32.5334 28.3793 32.9693 29.6625 32.9693 31.2756C32.9693 32.8887 32.5334 34.1811 31.6616 35.1526C30.7898 36.1058 29.6546 36.5824 28.2561 36.5824ZM39.6169 26.1887H42.8589L29.8362 45.4363H26.5942L39.6169 26.1887ZM28.2561 34.3277C28.8736 34.3277 29.3549 34.071 29.7 33.5578C30.0633 33.0445 30.2449 32.2838 30.2449 31.2756C30.2449 30.2674 30.0633 29.5066 29.7 28.9934C29.3549 28.4801 28.8736 28.2235 28.2561 28.2235C27.6567 28.2235 27.1754 28.4892 26.8121 29.0209C26.4489 29.5342 26.2673 30.2857 26.2673 31.2756C26.2673 32.2655 26.4489 33.0262 26.8121 33.5578C27.1754 34.071 27.6567 34.3277 28.2561 34.3277ZM41.197 45.6562C40.2889 45.6562 39.4716 45.4454 38.7451 45.0238C38.0367 44.5839 37.4828 43.9606 37.0832 43.1541C36.6836 42.3475 36.4838 41.4126 36.4838 40.3494C36.4838 39.2862 36.6836 38.3514 37.0832 37.5448C37.4828 36.7382 38.0367 36.1241 38.7451 35.7025C39.4716 35.2626 40.2889 35.0426 41.197 35.0426C42.5955 35.0426 43.7307 35.5283 44.6025 36.4999C45.4925 37.4531 45.9375 38.7363 45.9375 40.3494C45.9375 41.9625 45.4925 43.2549 44.6025 44.2264C43.7307 45.1796 42.5955 45.6562 41.197 45.6562ZM41.197 43.4015C41.8146 43.4015 42.2959 43.1449 42.641 42.6316C43.0042 42.1 43.1858 41.3393 43.1858 40.3494C43.1858 39.3595 43.0042 38.608 42.641 38.0947C42.2959 37.5631 41.8146 37.2973 41.197 37.2973C40.5977 37.2973 40.1163 37.554 39.7531 38.0672C39.3898 38.5805 39.2082 39.3412 39.2082 40.3494C39.2082 41.3576 39.3898 42.1184 39.7531 42.6316C40.1163 43.1449 40.5977 43.4015 41.197 43.4015Z" fill="white"/>
</g>
<defs>
<clipPath id="clip0_29_3692">
<rect width="70" height="70" fill="white" transform="translate(0 0.8125)"/>
</clipPath>
</defs>
</svg>
