<svg width="60" height="60" viewBox="0 0 60 60" fill="none" xmlns="http://www.w3.org/2000/svg">
<mask id="mask0_70_84" style="mask-type:luminance" maskUnits="userSpaceOnUse" x="0" y="0" width="60" height="60">
<path d="M60 0H0V60H60V0Z" fill="white"/>
</mask>
<g mask="url(#mask0_70_84)">
<path d="M17.9531 1.99232C14.6133 2.44935 12.0352 4.89857 11.4141 8.21498C11.0625 10.0196 11.4258 12.0821 12.3633 13.6524C12.8672 14.4962 13.9805 15.6563 14.9297 16.3243L15.6211 16.8165L9.1875 16.8751C3.46875 16.922 2.70703 16.9571 2.32031 17.1329C1.25391 17.6134 0.445312 18.5392 0.164062 19.6173C0.046875 20.0509 0 21.0821 0 23.4376C0 26.5548 0.0117188 26.672 0.269531 27.1173C0.410156 27.3751 0.714844 27.6915 0.9375 27.8204C1.34766 28.0665 1.47656 28.0665 13.8047 28.1017L26.25 28.1251V24.3751V20.6251H30H33.75V24.3751V28.1251L46.207 28.1017C58.5234 28.0665 58.6523 28.0665 59.0625 27.8204C59.2852 27.6915 59.5898 27.3751 59.7305 27.1173C59.9883 26.672 60 26.5548 60 23.4376C60 21.0821 59.9531 20.0509 59.8359 19.6173C59.5547 18.5392 58.7461 17.6134 57.6797 17.1329C57.293 16.9571 56.5312 16.922 50.8125 16.8751L44.3789 16.8165L45.0703 16.3243C46.0195 15.6563 47.1328 14.4962 47.6367 13.6524C49.4414 10.6407 48.9492 6.64467 46.4648 4.16029C45 2.69545 43.1484 1.95717 40.957 1.95717C37.9336 1.95717 35.8828 3.21107 33.8203 6.31654C31.4766 9.87904 30.293 12.8556 30.1523 15.5509C30.1172 16.2774 30.0469 16.8751 30 16.8751C29.9531 16.8751 29.8828 16.3126 29.8594 15.6095C29.7656 13.6173 29.25 11.9415 27.8672 9.19935C26.8594 7.18373 25.3711 5.00404 24.3516 4.03138C22.6758 2.43763 20.2852 1.67591 17.9531 1.99232ZM20.4727 5.88295C21.7734 6.36342 23.2734 8.23842 24.6094 11.0509C25.7344 13.4298 26.3906 15.7735 26.1328 16.4649C25.7344 17.5079 21.3633 16.1251 17.918 13.8517C15.832 12.4571 15.0703 11.379 15.0703 9.7267C15.0586 8.63685 15.2344 8.0392 15.7734 7.31264C16.3359 6.56263 16.7461 6.23451 17.5547 5.90638C18.4453 5.5431 19.5469 5.53138 20.4727 5.88295ZM42.0117 5.7892C42.8086 6.00013 43.2188 6.22279 43.7461 6.76185C45.3633 8.36732 45.3867 10.7696 43.8164 12.4806C42.7383 13.6407 39.4453 15.5274 37.1484 16.3009C35.2969 16.9103 34.0664 16.9806 33.8672 16.4649C33.6094 15.7735 34.2656 13.4298 35.3906 11.0626C37.4648 6.69154 39.457 5.09779 42.0117 5.7892Z" fill="#E31E24"/>
<path d="M3.77344 43.5586L3.80859 55.2539L4.08984 55.875C4.42969 56.625 5.40234 57.5508 6.17578 57.8437C6.70312 58.0547 7.33594 58.0664 16.5 58.1016L26.25 58.1367V45V31.875H15H3.75L3.77344 43.5586Z" fill="#E31E24"/>
<path d="M33.75 45V58.1367L43.5117 58.1016C52.6641 58.0664 53.2969 58.0547 53.8242 57.8437C54.5977 57.5508 55.5703 56.625 55.9102 55.875L56.1914 55.2539L56.2266 43.5586L56.25 31.875H45H33.75V45Z" fill="#E31E24"/>
</g>
</svg>
