<?xml version="1.0" standalone="no"?>
<!DOCTYPE svg PUBLIC "-//W3C//DTD SVG 20010904//EN"
 "http://www.w3.org/TR/2001/REC-SVG-20010904/DTD/svg10.dtd">
<svg version="1.0" xmlns="http://www.w3.org/2000/svg"
 width="72.000000pt" height="72.000000pt" viewBox="0 0 72.000000 72.000000"
 preserveAspectRatio="xMidYMid meet">
<metadata>
Created by potrace 1.11, written by Peter Selinger 2001-2013
</metadata>
<g transform="translate(0.000000,72.000000) scale(0.100000,-0.100000)"
fill="#000000" stroke="none">
<path d="M425 500 c-7 -12 -77 -31 -135 -37 -85 -8 -189 -45 -245 -86 -19 -14
-17 -16 23 -27 36 -9 41 -14 32 -26 -7 -8 -11 -14 -9 -15 2 0 15 -2 29 -5 14
-2 39 -6 55 -9 19 -3 49 -24 80 -55 47 -48 50 -49 61 -29 11 21 11 21 38 -5
21 -22 27 -24 31 -12 3 9 7 23 10 31 2 8 0 15 -5 15 -6 0 -10 3 -10 8 0 4 18
7 39 7 21 0 37 -3 34 -8 -8 -12 28 -20 40 -8 8 8 6 11 -8 11 -14 0 -16 3 -8
11 6 6 9 18 6 27 -4 9 -2 13 4 9 7 -4 10 7 8 32 -3 37 0 40 44 64 25 14 66 30
90 37 23 6 41 13 40 15 -2 2 -29 16 -61 32 -49 26 -63 29 -107 23 -28 -3 -51
-3 -51 2 0 11 -18 10 -25 -2z m25 -41 c0 -5 -15 -9 -32 -9 l-33 1 25 13 c25
14 40 13 40 -5z m25 -39 c4 -6 -14 -10 -47 -10 -38 0 -49 -3 -38 -10 11 -7 12
-10 2 -10 -7 0 -20 6 -28 14 -12 13 -11 15 8 19 44 8 97 7 103 -3z"/>
<path d="M418 234 c6 -3 12 -12 12 -20 0 -8 6 -14 14 -14 25 0 11 35 -15 37
-13 1 -18 0 -11 -3z"/>
<path d="M410 212 c0 -15 28 -47 35 -40 4 3 -3 16 -14 27 -12 12 -21 17 -21
13z"/>
</g>
</svg>
