<svg width="25" height="26" viewBox="0 0 25 26" fill="none" xmlns="http://www.w3.org/2000/svg">
<g clip-path="url(#clip0_15_659)">
<g clip-path="url(#clip1_15_659)">
<path d="M1.25 1.70215H23.75C24.0815 1.70215 24.3995 1.83384 24.6339 2.06827C24.8683 2.30268 25 2.62063 25 2.95215V22.9521C25 23.2836 24.8683 23.6016 24.6339 23.8361C24.3995 24.0705 24.0815 24.2021 23.75 24.2021H1.25C0.918483 24.2021 0.600537 24.0705 0.366117 23.8361C0.131696 23.6016 0 23.2836 0 22.9521V2.95215C0 2.62063 0.131696 2.30268 0.366117 2.06827C0.600537 1.83384 0.918483 1.70215 1.25 1.70215ZM22.5 15.4521H18.23C17.7437 16.5673 16.9424 17.5163 15.9246 18.1828C14.9068 18.8493 13.7166 19.2043 12.5 19.2043C11.2834 19.2043 10.0932 18.8493 9.07542 18.1828C8.05758 17.5163 7.25637 16.5673 6.77 15.4521H2.5V21.7021H22.5V15.4521ZM22.5 12.9521V4.20215H2.5V12.9521H8.75C8.75 13.9467 9.14508 14.9006 9.84833 15.6038C10.5516 16.3071 11.5054 16.7021 12.5 16.7021C13.4946 16.7021 14.4484 16.3071 15.1517 15.6038C15.8549 14.9006 16.25 13.9467 16.25 12.9521H22.5Z" fill="#FF7A00"/>
</g>
</g>
<defs>
<clipPath id="clip0_15_659">
<rect width="25" height="25" fill="white" transform="translate(0 0.452148)"/>
</clipPath>
<clipPath id="clip1_15_659">
<rect width="25" height="23.3333" fill="white" transform="translate(0 1.28564)"/>
</clipPath>
</defs>
</svg>
