<svg width="129" height="129" viewBox="0 0 129 129" fill="none" xmlns="http://www.w3.org/2000/svg">
<g clip-path="url(#clip0_15_850)">
<g clip-path="url(#clip1_15_850)">
<g clip-path="url(#clip2_15_850)">
<mask id="mask0_15_850" style="mask-type:luminance" maskUnits="userSpaceOnUse" x="14" y="14" width="102" height="102">
<path d="M64.7065 115.109C92.5298 115.109 115.085 92.5535 115.085 64.7302C115.085 36.9068 92.5298 14.3516 64.7065 14.3516C36.8832 14.3516 14.3279 36.9068 14.3279 64.7302C14.3279 92.5535 36.8832 115.109 64.7065 115.109Z" fill="white"/>
</mask>
<g mask="url(#mask0_15_850)">
<path d="M64.7065 115.109C92.5298 115.109 115.085 92.5535 115.085 64.7302C115.085 36.9068 92.5298 14.3516 64.7065 14.3516C36.8832 14.3516 14.3279 36.9068 14.3279 64.7302C14.3279 92.5535 36.8832 115.109 64.7065 115.109Z" fill="white"/>
<path d="M-10.8077 56.4993L-11.5134 57.2051L71.9905 140.709L72.6962 140.003L-10.8077 56.4993Z" fill="white"/>
<path d="M-8.11886 53.8372L-8.82458 54.543L74.6786 138.046L75.3843 137.34L-8.11886 53.8372Z" fill="white"/>
<path d="M-5.43172 51.1761L-6.13745 51.8818L77.3657 135.385L78.0715 134.679L-5.43172 51.1761Z" fill="white"/>
<path d="M-2.74288 48.515L-3.44861 49.2207L80.0553 132.725L80.761 132.019L-2.74288 48.515Z" fill="white"/>
<path d="M-0.0550138 45.8529L-0.760742 46.5586L82.7425 130.062L83.4482 129.356L-0.0550138 45.8529Z" fill="white"/>
<path d="M2.6331 43.1908L1.92737 43.8965L85.4313 127.4L86.137 126.695L2.6331 43.1908Z" fill="white"/>
<path d="M5.32096 40.5306L4.61523 41.2363L88.1184 124.74L88.8242 124.034L5.32096 40.5306Z" fill="white"/>
<path d="M8.00883 37.8685L7.3031 38.5742L90.8063 122.077L91.512 121.372L8.00883 37.8685Z" fill="white"/>
<path d="M10.6969 35.2074L9.99121 35.9131L93.4951 119.417L94.2008 118.711L10.6969 35.2074Z" fill="white"/>
<path d="M13.3865 32.5452L12.6808 33.251L96.184 116.754L96.8897 116.048L13.3865 32.5452Z" fill="white"/>
<path d="M16.0736 29.8851L15.3679 30.5908L98.8718 114.095L99.5775 113.389L16.0736 29.8851Z" fill="white"/>
<path d="M18.7608 27.223L18.0551 27.9287L101.559 111.433L102.265 110.727L18.7608 27.223Z" fill="white"/>
<path d="M21.4496 24.5628L20.7439 25.2686L104.248 108.772L104.954 108.067L21.4496 24.5628Z" fill="white"/>
<path d="M24.1374 21.8997L23.4316 22.6055L106.936 106.109L107.641 105.404L24.1374 21.8997Z" fill="white"/>
<path d="M26.8256 19.2376L26.1199 19.9434L109.624 103.447L110.329 102.742L26.8256 19.2376Z" fill="white"/>
<path d="M29.5133 16.5775L28.8076 17.2832L112.312 100.787L113.017 100.081L29.5133 16.5775Z" fill="white"/>
<path d="M32.2022 13.9154L31.4965 14.6211L115 98.1243L115.705 97.4186L32.2022 13.9154Z" fill="white"/>
<path d="M34.8893 11.2533L34.1836 11.959L117.687 95.4629L118.393 94.7572L34.8893 11.2533Z" fill="white"/>
<path d="M37.5782 8.5931L36.8724 9.29883L120.376 92.802L121.081 92.0963L37.5782 8.5931Z" fill="white"/>
<path d="M40.266 5.93099L39.5603 6.63672L123.063 90.1399L123.769 89.4342L40.266 5.93099Z" fill="white"/>
<path d="M42.9541 3.26986L42.2484 3.97559L125.752 87.4795L126.458 86.7738L42.9541 3.26986Z" fill="white"/>
<path d="M45.642 0.608725L44.9363 1.31445L128.439 84.8176L129.145 84.1119L45.642 0.608725Z" fill="white"/>
<path d="M48.3309 -2.05338L47.6251 -1.34766L131.128 82.1555L131.834 81.4498L48.3309 -2.05338Z" fill="white"/>
<path d="M51.018 -4.71452L50.3123 -4.00879L133.816 79.4951L134.522 78.7894L51.018 -4.71452Z" fill="white"/>
<path d="M53.7068 -7.37565L53.0011 -6.66992L136.504 76.8333L137.21 76.1275L53.7068 -7.37565Z" fill="white"/>
<path d="M56.3941 -10.7038L55.6884 -9.99805L139.192 73.5059L139.898 72.8001L56.3941 -10.7038Z" fill="white"/>
</g>
<path d="M64.6626 128.73C63.7603 128.73 62.8621 128.712 61.9678 128.674L61.4688 128.653L61.5107 127.655L62.0098 127.676C62.892 127.712 63.7786 127.731 64.6696 127.731H65.478V128.729L64.6626 128.73ZM67.496 128.672L67.4451 127.674L67.9442 127.648C68.9422 127.597 69.9343 127.523 70.9064 127.427L71.4054 127.378L71.5052 128.376L71.0062 128.425C70.0181 128.525 69.0101 128.598 67.9981 128.65L67.496 128.672ZM59.4498 128.522L58.9507 128.478C57.9527 128.389 56.9437 128.278 55.9566 128.14L55.4576 128.072L55.6013 127.084L56.1003 127.152C57.0754 127.285 58.0675 127.397 59.0515 127.484L59.5506 127.528L59.4498 128.522ZM73.5023 128.13L73.3586 127.142L73.8576 127.07C74.8307 126.928 75.8158 126.76 76.7849 126.571L77.275 126.471L77.4646 127.45L76.9745 127.55C75.9905 127.74 74.9894 127.91 74.0003 128.054L73.5023 128.13ZM53.4675 127.75L52.9774 127.66C51.9923 127.477 50.9993 127.268 50.0252 127.04L49.5391 126.926L49.7677 125.954L50.2537 126.068C51.2129 126.293 52.1899 126.499 53.1601 126.677L53.6511 126.768L53.4675 127.75ZM79.4317 127.027L79.1962 126.057L79.6813 125.939C80.6354 125.706 81.5995 125.447 82.5487 125.168L83.0267 125.028L83.3082 125.985L82.8301 126.126C81.867 126.409 80.8859 126.672 79.9168 126.909L79.4317 127.027ZM47.5849 126.417L47.1059 126.28C46.1398 126.004 45.1687 125.701 44.2185 125.382L43.7454 125.222L44.0648 124.277L44.5379 124.437C45.4731 124.753 46.4292 125.051 47.3793 125.322L47.8594 125.46L47.5849 126.417ZM85.2314 125.368L84.9041 124.425L85.3751 124.261C86.3063 123.938 87.2425 123.589 88.1577 123.221L88.6208 123.036L88.9921 123.962L88.529 124.147C87.5988 124.521 86.6487 124.875 85.7025 125.203L85.2314 125.368ZM41.8432 124.527L41.3781 124.344C40.4449 123.979 39.5077 123.586 38.5915 123.175L38.1354 122.976L38.5436 122.064L38.9987 122.264C39.897 122.663 40.8231 123.055 41.7424 123.415L42.2064 123.596L41.8432 124.527ZM90.8425 123.171L90.4273 122.264L90.8814 122.057C91.7796 121.644 92.6779 121.208 93.5472 120.759L93.9903 120.53L94.4474 121.418L94.0043 121.646C93.122 122.101 92.2078 122.545 91.2966 122.963L90.8425 123.171ZM36.311 122.101L35.8658 121.876C34.9676 121.423 34.0743 120.943 33.203 120.45L32.7689 120.203L33.2609 119.335L33.6951 119.581C34.5524 120.067 35.4347 120.539 36.3159 120.986L36.7611 121.211L36.311 122.101ZM96.215 120.455L95.7159 119.59L96.1481 119.341C96.9994 118.85 97.8518 118.331 98.6811 117.799L99.1013 117.529L99.6403 118.37L99.2201 118.639C98.3777 119.18 97.5124 119.707 96.6471 120.206L96.215 120.455ZM31.0353 119.165L30.6131 118.899C29.7687 118.366 28.9224 117.801 28.098 117.229L27.6888 116.943L28.2597 116.125L28.6689 116.411C29.4803 116.977 30.3127 117.53 31.1441 118.054L31.5662 118.321L31.0353 119.165ZM101.311 117.24L100.733 116.425L101.14 116.137C101.939 115.569 102.737 114.972 103.519 114.363L103.912 114.054L104.528 114.84L104.134 115.148C103.345 115.767 102.533 116.374 101.718 116.95L101.311 117.24ZM26.058 115.743L25.6588 115.438C24.8603 114.825 24.0729 114.186 23.3123 113.542L22.9321 113.219L23.5778 112.458L23.9581 112.781C24.7066 113.415 25.4831 114.044 26.2676 114.649L26.6668 114.953L26.058 115.743ZM106.083 113.556L105.431 112.801L105.808 112.474C106.555 111.83 107.295 111.162 108.011 110.484L108.373 110.141L109.06 110.865L108.698 111.209C107.971 111.897 107.218 112.578 106.461 113.231L106.083 113.556ZM21.427 111.876L21.0617 111.536C20.3282 110.851 19.6026 110.139 18.904 109.428L18.5556 109.071L19.2692 108.372L19.6186 108.729C20.3052 109.432 21.0158 110.126 21.7424 110.804L22.1077 111.145L21.427 111.876ZM110.494 109.449L109.774 108.757L110.121 108.397C110.804 107.687 111.479 106.95 112.128 106.208L112.456 105.833L113.208 106.49L112.879 106.865C112.22 107.619 111.534 108.362 110.84 109.089L110.494 109.449ZM17.1823 107.601L16.851 107.227C16.1843 106.478 15.5286 105.704 14.9008 104.932L14.5874 104.544L15.3639 103.917L15.6793 104.3C16.297 105.065 16.9428 105.826 17.5985 106.565L17.9309 106.938L17.1823 107.601ZM114.502 104.94L113.721 104.319L114.031 103.928C114.649 103.151 115.253 102.354 115.828 101.56L116.119 101.154L116.929 101.738L116.636 102.142C116.054 102.95 115.438 103.759 114.814 104.548L114.502 104.94ZM13.3568 102.944L13.0574 102.545C12.4685 101.741 11.8877 100.91 11.3327 100.073L11.0573 99.6573L11.8887 99.1053L12.1641 99.5215C12.7111 100.345 13.2819 101.163 13.8608 101.954L14.1602 102.353L13.3568 102.944ZM118.069 100.073L117.234 99.5285L117.506 99.1103C118.042 98.2899 118.568 97.4396 119.071 96.5833L119.324 96.1531L120.184 96.6591L119.932 97.0893C119.421 97.9586 118.886 98.8219 118.342 99.6563L118.069 100.073ZM9.99037 97.9486L9.73487 97.5204C9.22586 96.6681 8.72584 95.7868 8.25077 94.9005L8.01523 94.4614L8.89251 93.9883L9.12805 94.4275C9.59115 95.3008 10.0902 96.1691 10.5892 97.0084L10.8427 97.4416L9.99037 97.9486ZM121.173 94.8906L120.289 94.4265L120.52 93.9843C120.982 93.106 121.426 92.2098 121.841 91.3195L122.051 90.8674L122.956 91.2896L122.745 91.7417C122.324 92.646 121.872 93.5562 121.404 94.4484L121.173 94.8906ZM7.10301 92.6629L6.88843 92.2118C6.46126 91.3136 6.04707 90.3884 5.65983 89.4642L5.4672 89.0041L6.3874 88.6178L6.58003 89.0779C6.96228 89.9881 7.36949 90.8974 7.78967 91.7826L8.00425 92.2347L7.10301 92.6629ZM123.768 89.4362L122.84 89.058L123.03 88.5969C123.404 87.6816 123.762 86.7465 124.092 85.8173L124.258 85.3472L125.198 85.6815L125.032 86.1516C124.696 87.0958 124.333 88.0479 123.952 88.9751L123.768 89.4362ZM4.73164 87.1247L4.56097 86.6556C4.21964 85.7185 3.89527 84.7593 3.59586 83.7972L3.44815 83.3202L4.40128 83.0207L4.54999 83.4968C4.84442 84.442 5.16379 85.3931 5.50014 86.3103L5.6708 86.7794L4.73164 87.1247ZM125.832 83.7563L124.876 83.4669L125.021 82.9888C125.307 82.0417 125.574 81.0785 125.813 80.1264L125.935 79.6423L126.903 79.8859L126.781 80.3699C126.538 81.337 126.267 82.3151 125.976 83.2772L125.832 83.7563ZM2.89223 81.38L2.76747 80.8969C2.51696 79.9328 2.28542 78.9447 2.07782 77.9606L1.97802 77.4726L2.95511 77.267L3.05491 77.755C3.25452 78.7241 3.48707 79.6962 3.73359 80.6494L3.85934 81.1324L2.89223 81.38ZM127.349 77.9187L126.371 77.7191L126.471 77.2301C126.665 76.2639 126.84 75.2799 126.989 74.3058L127.064 73.8127L128.051 73.9634L127.975 74.4575C127.824 75.4465 127.647 76.4466 127.45 77.4277L127.349 77.9187ZM1.60674 75.4845L1.5269 74.9914C1.36721 74.0014 1.22748 72.9953 1.1167 72.0033L1.05981 71.5042L2.05187 71.3915L2.10577 71.8915C2.21655 72.8686 2.35328 73.8576 2.50499 74.8327L2.58483 75.3258L1.60674 75.4845ZM128.307 71.9613L127.314 71.8615L127.366 71.3625C127.466 70.3834 127.549 69.3874 127.605 68.4023L127.633 67.9033L128.631 67.9602L128.602 68.4592C128.545 69.4572 128.463 70.4713 128.359 71.4663L128.307 71.9613ZM0.881159 69.4962L0.848223 68.9971C0.80564 68.3438 0.772371 67.6874 0.748418 67.028C0.735111 66.682 0.72513 66.3353 0.718477 65.988L0.708496 65.489L1.70655 65.469L1.71653 65.968C1.72318 66.3107 1.7325 66.6537 1.74447 66.997C1.76843 67.6458 1.80169 68.2918 1.84428 68.9353L1.87721 69.4343L0.881159 69.4962ZM127.629 61.5537C127.58 60.5646 127.506 59.5676 127.411 58.5915L127.363 58.0924L128.361 57.9926L128.409 58.4917C128.509 59.4827 128.58 60.4957 128.631 61.5008L127.629 61.5537ZM128.666 62.426C128.694 63.2098 128.707 63.9906 128.707 64.7684L128.699 65.9411L127.7 65.9301L127.709 64.7674C127.709 64.0016 127.696 63.2327 127.669 62.4609L128.666 62.426ZM1.71254 63.4969L0.714484 63.4699L0.727459 62.9709C0.754406 61.9729 0.805307 60.9588 0.878165 59.9588L0.915093 59.4598L1.91314 59.5326L1.87622 60.0316C1.80635 61.0127 1.75246 62.0108 1.72651 62.9979L1.71254 63.4969ZM2.10577 57.5715L1.10772 57.4517L1.1676 56.9527C1.28737 55.9656 1.43308 54.9566 1.60075 53.9675L1.68359 53.4755L2.66767 53.6421L2.58483 54.1342C2.41916 55.1123 2.27544 56.1013 2.15866 57.0724L2.10577 57.5715ZM127.132 56.1412L127.061 55.6422C126.92 54.6691 126.753 53.684 126.567 52.7139L126.463 52.2299L127.443 52.0413L127.537 52.5313C127.726 53.5164 127.895 54.5174 128.036 55.5055L128.108 55.9995L127.132 56.1412ZM3.04693 51.7109L2.07183 51.4973L2.17862 51.0103C2.39221 50.0332 2.63274 49.0471 2.89223 48.079L3.02198 47.5969L3.98609 47.8564L3.85635 48.3385C3.60085 49.2906 3.36331 50.2617 3.15771 51.2238L3.04693 51.7109ZM126.048 50.3036L125.93 49.8186C125.698 48.8625 125.44 47.8983 125.161 46.9502L125.021 46.4711L125.979 46.1907L126.12 46.6697C126.402 47.6329 126.663 48.6129 126.899 49.5841L127.017 50.0691L126.048 50.3036ZM4.546 45.9581L3.59586 45.6527L3.74856 45.1777C4.05696 44.2175 4.39031 43.2564 4.74062 42.3222L4.91528 41.8502L5.84946 42.2005L5.6748 42.6676C5.32947 43.5918 5.00011 44.5379 4.7007 45.4831L4.546 45.9581ZM124.424 44.5928L124.26 44.1207C123.936 43.1846 123.587 42.2484 123.223 41.3382L123.038 40.8751L123.965 40.5048L124.15 40.9679C124.52 41.8931 124.875 42.8432 125.204 43.7944L125.368 44.2654L124.424 44.5928ZM6.58602 40.37L5.66881 39.9768L5.86842 39.5187C6.26764 38.5995 6.68582 37.6743 7.12596 36.7721L7.34454 36.323L8.24278 36.7601L8.02421 37.2092C7.59105 38.0985 7.17487 39.0057 6.78662 39.9129L6.58602 40.37ZM122.265 39.0726L122.057 38.6185C121.65 37.7202 121.215 36.828 120.76 35.9517L120.531 35.5085L121.419 35.0514L121.647 35.4956C122.104 36.3858 122.546 37.2921 122.961 38.2043L123.169 38.6564L122.265 39.0726ZM9.14502 35.0025L8.26973 34.5235L8.50926 34.0863C8.99032 33.205 9.49933 32.3248 10.0193 31.4714L10.2788 31.0453L11.1311 31.5652L10.8716 31.9914C10.3596 32.8318 9.85962 33.6971 9.38455 34.5654L9.14502 35.0025ZM119.598 33.7769L119.349 33.3448C118.857 32.4904 118.338 31.6381 117.809 30.8097L117.539 30.3895L118.38 29.8516L118.649 30.2718C119.187 31.1121 119.713 31.9784 120.213 32.8467L120.463 33.2789L119.598 33.7769ZM12.1981 29.9035L11.3707 29.3446L11.6501 28.9304C12.211 28.101 12.7989 27.2736 13.3977 26.4702L13.6971 26.071L14.4956 26.6698L14.1962 27.069C13.6063 27.8595 13.0264 28.6739 12.4745 29.4913L12.1981 29.9035ZM116.439 28.7587L116.151 28.3515C115.583 27.5531 114.986 26.7487 114.379 25.9712L114.072 25.5779L114.859 24.9631L115.166 25.3564C115.783 26.1468 116.389 26.9592 116.962 27.7746L117.251 28.1819L116.439 28.7587ZM15.7142 25.1158L14.9437 24.4841L15.2601 24.0988C15.8938 23.3273 16.5575 22.5588 17.2302 21.8133L17.5646 21.443L18.3051 22.1117L17.9708 22.482C17.3071 23.2156 16.6554 23.9721 16.0306 24.7306L15.7142 25.1158ZM112.825 24.0549L112.499 23.6767C111.857 22.9311 111.189 22.1896 110.511 21.472L110.168 21.1097L110.893 20.424L111.236 20.7873C111.924 21.5159 112.604 22.2694 113.255 23.0269L113.58 23.4052L112.825 24.0549ZM19.6625 20.6785L18.9549 19.9799L19.3062 19.6256C20.0178 18.909 20.7504 18.2063 21.4819 17.5366L21.8502 17.1993L22.5239 17.9359L22.1556 18.2722C21.436 18.9319 20.7154 19.6236 20.0148 20.3292L19.6625 20.6785ZM108.779 19.7084L108.42 19.3621C107.71 18.6784 106.974 18.0017 106.233 17.352L105.858 17.0226L106.516 16.2721L106.891 16.6015C107.644 17.2612 108.388 17.9488 109.113 18.6435L109.472 18.9898L108.779 19.7084ZM24.007 16.6334L23.3642 15.8679L23.7475 15.5485C24.511 14.9108 25.3055 14.28 26.1079 13.6722L26.5071 13.3728L27.1059 14.1712L26.7067 14.4706C25.9173 15.0695 25.1358 15.6903 24.3833 16.318L24.007 16.6334ZM104.35 15.7581L103.96 15.4467C103.19 14.8329 102.394 14.2291 101.593 13.6502L101.189 13.3578L101.774 12.5484L102.178 12.8408C102.992 13.4287 103.8 14.0385 104.582 14.6663L104.972 14.9776L104.35 15.7581ZM28.7078 13.0155L28.1439 12.1921L28.5541 11.9086C29.3775 11.3447 30.2268 10.7908 31.0782 10.2638L31.5024 10.0014L32.0273 10.8507L31.6032 11.1132C30.7648 11.6322 29.9284 12.1771 29.118 12.733L28.7078 13.0155ZM99.5574 12.239L99.1403 11.9665C98.3129 11.4256 97.4635 10.8986 96.6152 10.3996L96.185 10.1461L96.691 9.28576L97.1202 9.53727C97.9825 10.0443 98.8458 10.5802 99.6862 11.1341L100.103 11.4076L99.5574 12.239ZM33.726 9.85565L33.2449 8.98235L33.6811 8.74082C34.5574 8.25477 35.4546 7.78369 36.3479 7.34355L36.792 7.11799L37.2371 8.01624L36.79 8.23781C35.9107 8.67296 35.0275 9.13605 34.1651 9.61412L33.726 9.85565ZM94.4604 9.18396L94.0192 8.95141C93.137 8.48832 92.2407 8.04219 91.3554 7.629L90.9023 7.41741L91.3245 6.51317L91.7776 6.71877C92.6759 7.13995 93.5871 7.59207 94.4823 8.06315L94.9245 8.29969L94.4604 9.18396ZM39.0157 7.18786L38.6165 6.27264L39.0736 6.07303C39.9898 5.67381 40.9299 5.28657 41.8681 4.92927L42.3272 4.74962L42.6865 5.6818L42.2204 5.86045C41.3002 6.21176 40.375 6.59002 39.4728 6.98525L39.0157 7.18786ZM89.0919 6.61897L88.6308 6.42934C87.7206 6.05507 86.7854 5.69577 85.8532 5.36442L85.3831 5.19974L85.7175 4.25958L86.1885 4.42326C87.1357 4.7606 88.0848 5.12189 89.011 5.50614L89.4721 5.69577L89.0919 6.61897ZM44.5449 5.02209L44.2335 4.07394L44.7076 3.91824C45.6617 3.60485 46.6328 3.31143 47.5959 3.04495L48.077 2.91221L48.3425 3.87433L47.8614 4.00707C46.9132 4.26856 45.9571 4.55799 45.019 4.86639L44.5449 5.02209ZM83.5048 4.57895L83.0277 4.43423C82.0816 4.1468 81.1184 3.87932 80.1663 3.63579L79.6823 3.51303L79.9268 2.54492L80.4108 2.66769C81.3789 2.91221 82.357 3.18468 83.3171 3.47611L83.7952 3.62482L83.5048 4.57895ZM50.2537 3.39427L50.0332 2.42017L50.5202 2.31038C51.4923 2.09081 52.4874 1.8902 53.4774 1.71155L53.9695 1.62871L54.1431 2.61179L53.6511 2.69862C52.677 2.87129 51.6969 3.0679 50.7398 3.28448L50.2537 3.39427ZM77.758 3.07988L77.269 2.98007C76.3038 2.78046 75.3198 2.6088 74.3457 2.46009L73.8516 2.38424L74.0033 1.39717L74.4964 1.47302C75.4864 1.62472 76.4865 1.80337 77.4666 2.00099L77.9556 2.10079L77.758 3.07988ZM56.0923 2.31338L55.9656 1.32331L56.4646 1.25944C57.4527 1.13268 58.4607 1.02689 59.4588 0.944052L59.9578 0.903132L60.0396 1.90118L59.5406 1.9421C58.5535 2.02294 57.5595 2.12774 56.5874 2.2525L56.0923 2.31338ZM71.8995 2.12774L71.4004 2.07484C70.4253 1.97504 69.4293 1.8902 68.4412 1.83232L67.9422 1.80337L68.0001 0.805323L68.4991 0.834266C69.5031 0.893151 70.5152 0.975989 71.5052 1.08078L72.0042 1.13268L71.8995 2.12774ZM62.0068 1.78142L61.9718 0.783365L62.4709 0.766399C63.2327 0.742445 63.9916 0.730469 64.7474 0.730469L65.987 0.740449L65.975 1.7385L64.7474 1.72852C64.0035 1.72852 63.2563 1.74149 62.5058 1.76744L62.0068 1.78142Z" fill="white"/>
<path d="M64.6835 120.307C50.0274 120.307 35.9643 114.52 25.5536 104.204C15.143 93.8879 9.22723 79.8781 9.0935 65.2227C8.95977 50.5673 14.6189 36.4519 24.8395 25.9478C35.0602 15.4436 49.0154 9.40049 63.669 9.13328C78.3226 8.86606 92.489 14.3963 103.086 24.5209C113.683 34.6455 119.853 48.5451 120.253 63.1956C120.654 77.8462 115.253 92.0623 105.225 102.751C95.1977 113.44 81.3549 119.736 66.7085 120.27C66.0279 120.297 65.3512 120.307 64.6835 120.307ZM64.7314 10.153C64.0697 10.153 63.409 10.165 62.7433 10.189C51.9559 10.5771 41.5258 14.1554 32.772 20.4713C24.0183 26.7872 17.334 35.5571 13.5644 45.6719C9.79489 55.7867 9.10939 66.7922 11.5946 77.2966C14.0799 87.801 19.6242 97.3326 27.5266 104.686C35.4289 112.039 45.3343 116.884 55.9902 118.608C66.6461 120.332 77.5738 118.857 87.3915 114.37C97.2092 109.883 105.476 102.586 111.146 93.401C116.817 84.216 119.636 73.5557 119.248 62.7683C118.723 48.6525 112.752 35.2884 102.588 25.4789C92.4245 15.6694 78.8569 10.1768 64.7314 10.153Z" fill="white"/>
<path d="M76.4964 58.8975H74.5323C74.288 58.8975 74.0537 58.9945 73.8809 59.1673C73.7081 59.34 73.6111 59.5743 73.6111 59.8187C73.6111 60.063 73.7081 60.2973 73.8809 60.4701C74.0537 60.6428 74.288 60.7399 74.5323 60.7399H76.4964C76.7408 60.7399 76.9751 60.6428 77.1478 60.4701C77.3206 60.2973 77.4177 60.063 77.4177 59.8187C77.4177 59.5743 77.3206 59.34 77.1478 59.1673C76.9751 58.9945 76.7408 58.8975 76.4964 58.8975Z" fill="black"/>
<path d="M76.739 66.5021C76.5616 66.2742 76.3345 66.0898 76.0751 65.963C75.8156 65.8363 75.5306 65.7704 75.2419 65.7705H54.183C53.8937 65.7705 53.6082 65.8364 53.3483 65.9633C53.0883 66.0902 52.8606 66.2746 52.6826 66.5027C52.5046 66.7307 52.381 66.9963 52.321 67.2793C52.261 67.5623 52.2664 67.8553 52.3366 68.1359L52.8277 70.101C52.9294 70.5135 53.1667 70.8799 53.5015 71.1414C53.8363 71.4029 54.2492 71.5444 54.674 71.5432H74.7468C75.1717 71.5444 75.5846 71.4029 75.9194 71.1414C76.2542 70.8799 76.4915 70.5135 76.5932 70.101L77.0843 68.1359C77.1552 67.8553 77.161 67.5621 77.1011 67.2789C77.0413 66.9957 76.9174 66.73 76.739 66.5021ZM75.2978 67.6888L74.8067 69.6539C74.8035 69.6674 74.7959 69.6794 74.785 69.6879C74.7741 69.6964 74.7607 69.701 74.7468 69.7008H54.6681C54.6543 69.7008 54.6409 69.6962 54.6301 69.6877C54.6192 69.6792 54.6115 69.6673 54.6082 69.6539L54.1171 67.6888C54.1148 67.6797 54.1146 67.6702 54.1166 67.6611C54.1185 67.652 54.1226 67.6434 54.1284 67.6361C54.1341 67.6287 54.1415 67.6228 54.15 67.6188C54.1584 67.6148 54.1677 67.6128 54.177 67.6129H75.2359C75.2458 67.6125 75.2556 67.6144 75.2646 67.6186C75.2736 67.6228 75.2814 67.629 75.2875 67.6368C75.2935 67.6446 75.2976 67.6538 75.2994 67.6635C75.3012 67.6733 75.3006 67.6833 75.2978 67.6928V67.6888Z" fill="black"/>
<path d="M89.2685 60.7396C90.0339 60.7396 90.7679 60.4355 91.3091 59.8943C91.8503 59.3531 92.1544 58.6191 92.1544 57.8537C92.1544 57.0883 91.8503 56.3543 91.3091 55.8131C90.7679 55.2719 90.0339 54.9678 89.2685 54.9678H88.2854C87.6001 54.9694 86.9376 55.2142 86.4158 55.6585C85.894 56.1028 85.5468 56.7178 85.436 57.3941L82.9798 50.6333C82.7071 49.8881 82.2123 49.2445 81.5624 48.7892C80.9124 48.3339 80.1385 48.0889 79.3449 48.0873H72.3396L71.8216 45.4923C71.6894 44.8388 71.3356 44.251 70.8201 43.8282C70.3046 43.4054 69.6589 43.1736 68.9921 43.1719H60.4239C59.7567 43.1746 59.1109 43.4078 58.5958 43.8319C58.0808 44.256 57.7281 44.845 57.5974 45.4993L57.0794 48.0943H50.0701C49.2774 48.0956 48.5041 48.3396 47.8543 48.7935C47.2044 49.2474 46.7092 49.8895 46.4352 50.6333L43.978 57.3901C43.8663 56.7147 43.5189 56.1007 42.9974 55.6573C42.4759 55.2138 41.8141 54.9695 41.1295 54.9678H40.1475C39.3821 54.9678 38.6481 55.2719 38.1068 55.8131C37.5656 56.3543 37.2616 57.0883 37.2616 57.8537C37.2616 58.6191 37.5656 59.3531 38.1068 59.8943C38.6481 60.4355 39.3821 60.7396 40.1475 60.7396H41.1295C41.5682 60.7402 42.0012 60.6401 42.3951 60.4471L40.2892 63.079C39.6023 63.9397 39.2276 65.0079 39.2263 66.1091V84.3794C39.2268 84.884 39.4275 85.3678 39.7843 85.7246C40.1411 86.0815 40.6249 86.2821 41.1295 86.2827H44.0768C44.5814 86.2821 45.0652 86.0815 45.422 85.7246C45.7788 85.3678 45.9795 84.884 45.9801 84.3794V80.3872H83.4349V84.3794C83.4352 84.6297 83.4847 84.8775 83.5808 85.1086C83.6769 85.3397 83.8175 85.5496 83.9947 85.7264C84.1719 85.9031 84.3822 86.0432 84.6136 86.1387C84.845 86.2341 85.0929 86.2831 85.3432 86.2827H88.2904C88.795 86.2821 89.2789 86.0815 89.6357 85.7246C89.9925 85.3678 90.1932 84.884 90.1937 84.3794V66.1091C90.1909 65.0073 89.8144 63.939 89.1258 63.079L87.0199 60.4471C87.4138 60.6401 87.8468 60.7402 88.2854 60.7396H89.2685ZM41.1295 58.8982H40.1475C39.8706 58.8982 39.605 58.7882 39.4093 58.5924C39.2135 58.3966 39.1035 58.1311 39.1035 57.8542C39.1035 57.5773 39.2135 57.3118 39.4093 57.116C39.605 56.9202 39.8706 56.8102 40.1475 56.8102H41.1295C41.4064 56.8102 41.672 56.9202 41.8677 57.116C42.0635 57.3118 42.1735 57.5773 42.1735 57.8542C42.1735 58.1311 42.0635 58.3966 41.8677 58.5924C41.672 58.7882 41.4064 58.8982 41.1295 58.8982ZM59.3999 45.8606C59.4477 45.6243 59.5756 45.4118 59.7619 45.2588C59.9483 45.1059 60.1818 45.022 60.4229 45.0213H68.9901C69.2312 45.022 69.4647 45.1059 69.6511 45.2588C69.8374 45.4118 69.9653 45.6243 70.0131 45.8606L70.4593 48.0913H58.9537L59.3999 45.8606ZM44.1377 84.3794C44.1377 84.3958 44.1311 84.4115 44.1195 84.4231C44.1079 84.4348 44.0922 84.4413 44.0758 84.4413H41.1295C41.1131 84.4413 41.0974 84.4348 41.0858 84.4231C41.0742 84.4115 41.0677 84.3958 41.0677 84.3794V79.8133C41.6763 80.1898 42.378 80.3889 43.0937 80.3882H44.1377V84.3804V84.3794ZM75.5763 78.5458H53.8397V76.5197C53.8397 76.5033 53.8462 76.4876 53.8578 76.476C53.8694 76.4644 53.8852 76.4579 53.9016 76.4579H75.5144C75.5308 76.4579 75.5465 76.4644 75.5581 76.476C75.5697 76.4876 75.5763 76.5033 75.5763 76.5197V78.5458ZM88.3513 84.3794C88.3513 84.3958 88.3448 84.4115 88.3332 84.4231C88.3216 84.4348 88.3058 84.4413 88.2894 84.4413H85.3432C85.3268 84.4413 85.311 84.4348 85.2994 84.4231C85.2878 84.4115 85.2813 84.3958 85.2813 84.3794V80.3872H86.3253C87.041 80.3879 87.7426 80.1888 88.3513 79.8123V84.3794ZM87.6926 64.2297C88.1186 64.7636 88.3512 65.4261 88.3523 66.1091V76.5197C88.3518 77.0569 88.1382 77.5719 87.7583 77.9518C87.3785 78.3316 86.8634 78.5453 86.3263 78.5458H77.4177V76.5197C77.4171 76.0151 77.2164 75.5313 76.8596 75.1745C76.5028 74.8177 76.019 74.617 75.5144 74.6165H53.9046C53.4 74.617 52.9162 74.8177 52.5594 75.1745C52.2025 75.5313 52.0018 76.0151 52.0013 76.5197V78.5458H43.0947C42.5575 78.5453 42.0425 78.3316 41.6627 77.9518C41.2828 77.5719 41.0692 77.0569 41.0687 76.5197V66.1091C41.0696 65.426 41.3022 64.7635 41.7284 64.2297L44.5229 60.7366H70.602C70.8463 60.7366 71.0806 60.6395 71.2534 60.4668C71.4261 60.294 71.5232 60.0597 71.5232 59.8154C71.5232 59.5711 71.4261 59.3367 71.2534 59.164C71.0806 58.9912 70.8463 58.8942 70.602 58.8942H45.3912L48.1658 51.2631C48.3096 50.8735 48.5693 50.5373 48.9099 50.2998C49.2506 50.0623 49.6558 49.9349 50.0711 49.9347H79.3449C79.7608 49.935 80.1666 50.0629 80.5075 50.3012C80.8484 50.5394 81.108 50.8766 81.2512 51.2671L84.0258 58.8982H80.4328C80.1885 58.8982 79.9542 58.9952 79.7814 59.168C79.6086 59.3407 79.5116 59.575 79.5116 59.8194C79.5116 60.0637 79.6086 60.298 79.7814 60.4707C79.9542 60.6435 80.1885 60.7406 80.4328 60.7406H84.9021L87.6926 64.2297ZM87.2395 57.8542C87.2397 57.5774 87.3498 57.312 87.5455 57.1163C87.7413 56.9206 88.0067 56.8105 88.2834 56.8102H89.2655C89.5424 56.8102 89.8079 56.9202 90.0037 57.116C90.1995 57.3118 90.3095 57.5773 90.3095 57.8542C90.3095 58.1311 90.1995 58.3966 90.0037 58.5924C89.8079 58.7882 89.5424 58.8982 89.2655 58.8982H88.2854C88.1482 58.8983 88.0123 58.8714 87.8855 58.819C87.7586 58.7666 87.6434 58.6897 87.5462 58.5928C87.4491 58.4959 87.372 58.3807 87.3194 58.254C87.2668 58.1273 87.2396 57.9914 87.2395 57.8542Z" fill="black"/>
<path d="M47.024 72.6514C46.6476 72.6514 46.2796 72.763 45.9666 72.9721C45.6536 73.1813 45.4097 73.4785 45.2656 73.8263C45.1216 74.1741 45.0839 74.5568 45.1573 74.926C45.2307 75.2952 45.412 75.6343 45.6782 75.9005C45.9444 76.1667 46.2835 76.3479 46.6527 76.4214C47.0219 76.4948 47.4046 76.4571 47.7524 76.3131C48.1001 76.169 48.3974 75.9251 48.6065 75.6121C48.8157 75.2991 48.9273 74.9311 48.9273 74.5547C48.9268 74.05 48.7261 73.5662 48.3693 73.2094C48.0124 72.8526 47.5286 72.6519 47.024 72.6514Z" fill="black"/>
<path d="M82.391 72.6514C82.0145 72.6514 81.6465 72.763 81.3335 72.9721C81.0206 73.1813 80.7766 73.4785 80.6326 73.8263C80.4885 74.1741 80.4508 74.5568 80.5242 74.926C80.5977 75.2952 80.779 75.6343 81.0451 75.9005C81.3113 76.1667 81.6504 76.3479 82.0196 76.4214C82.3888 76.4948 82.7715 76.4571 83.1193 76.3131C83.4671 76.169 83.7643 75.9251 83.9735 75.6121C84.1826 75.2991 84.2942 74.9311 84.2942 74.5547C84.2937 74.05 84.093 73.5662 83.7362 73.2094C83.3794 72.8526 82.8956 72.6519 82.391 72.6514Z" fill="black"/>
<path d="M46.533 64.792C45.8651 64.7924 45.2122 64.9908 44.6571 65.3622C44.1019 65.7336 43.6693 66.2613 43.414 66.8785C43.1587 67.4958 43.0922 68.1748 43.2228 68.8299C43.3534 69.4849 43.6754 70.0865 44.1479 70.5586C44.6204 71.0307 45.2223 71.3521 45.8774 71.4822C46.5326 71.6122 47.2116 71.5451 47.8286 71.2892C48.4456 71.0334 48.9729 70.6003 49.3438 70.0448C49.7147 69.4893 49.9126 68.8363 49.9124 68.1684C49.9113 67.2727 49.5549 66.4141 48.9212 65.781C48.2876 65.148 47.4287 64.7923 46.533 64.792ZM46.533 69.7044C46.2294 69.7044 45.9326 69.6144 45.6802 69.4457C45.4278 69.277 45.231 69.0373 45.1148 68.7568C44.9987 68.4763 44.9683 68.1677 45.0275 67.8699C45.0867 67.5722 45.2329 67.2987 45.4476 67.084C45.6623 66.8693 45.9358 66.7231 46.2335 66.6639C46.5313 66.6047 46.8399 66.6351 47.1204 66.7512C47.4009 66.8674 47.6406 67.0642 47.8093 67.3166C47.978 67.569 48.068 67.8658 48.068 68.1694C48.0672 68.5762 47.9052 68.966 47.6175 69.2536C47.3297 69.5411 46.9398 69.7039 46.533 69.7044Z" fill="black"/>
<path d="M82.882 64.792C82.2141 64.792 81.5611 64.9901 81.0057 65.3612C80.4502 65.7323 80.0174 66.2598 79.7617 66.8769C79.5061 67.4941 79.4392 68.1731 79.5695 68.8283C79.6999 69.4835 80.0215 70.0852 80.4939 70.5576C80.9662 71.0299 81.568 71.3516 82.2231 71.4819C82.8783 71.6122 83.5574 71.5453 84.1745 71.2897C84.7917 71.0341 85.3191 70.6012 85.6902 70.0458C86.0614 69.4904 86.2595 68.8374 86.2595 68.1694C86.2587 67.2739 85.9026 66.4153 85.2694 65.7821C84.6361 65.1489 83.7775 64.7928 82.882 64.792ZM82.882 69.7044C82.5784 69.7044 82.2817 69.6144 82.0292 69.4457C81.7768 69.277 81.5801 69.0373 81.4639 68.7568C81.3477 68.4763 81.3173 68.1677 81.3765 67.8699C81.4358 67.5722 81.582 67.2987 81.7966 67.084C82.0113 66.8693 82.2848 66.7231 82.5826 66.6639C82.8803 66.6047 83.189 66.6351 83.4695 66.7512C83.75 66.8674 83.9897 67.0642 84.1584 67.3166C84.327 67.569 84.417 67.8658 84.417 68.1694C84.4163 68.5762 84.2542 68.966 83.9665 69.2536C83.6788 69.5411 83.2888 69.7039 82.882 69.7044Z" fill="black"/>
</g>
</g>
</g>
<defs>
<clipPath id="clip0_15_850">
<rect width="128" height="128" fill="white" transform="translate(0.70752 0.730469)"/>
</clipPath>
<clipPath id="clip1_15_850">
<rect width="128" height="128" fill="white" transform="translate(0.70752 0.730469)"/>
</clipPath>
<clipPath id="clip2_15_850">
<rect width="127.998" height="128" fill="white" transform="translate(0.708496 0.730469)"/>
</clipPath>
</defs>
</svg>
