<svg width="71" height="72" viewBox="0 0 71 72" fill="none" xmlns="http://www.w3.org/2000/svg">
<g clip-path="url(#clip0_15_1376)">
<g clip-path="url(#clip1_15_1376)">
<mask id="mask0_15_1376" style="mask-type:luminance" maskUnits="userSpaceOnUse" x="0" y="1" width="71" height="71">
<path d="M70.6599 1.47559H0.659912V71.4756H70.6599V1.47559Z" fill="white"/>
</mask>
<g mask="url(#mask0_15_1376)">
<mask id="mask1_15_1376" style="mask-type:luminance" maskUnits="userSpaceOnUse" x="0" y="1" width="71" height="71">
<path d="M70.6568 1.47559H0.662842V71.4668H70.6568V1.47559Z" fill="white"/>
</mask>
<g mask="url(#mask1_15_1376)">
<mask id="mask2_15_1376" style="mask-type:luminance" maskUnits="userSpaceOnUse" x="8" y="9" width="56" height="55">
<path d="M35.6603 63.8959C50.8064 63.8959 63.0846 51.6174 63.0846 36.4714C63.0846 21.3252 50.8064 9.04688 35.6603 9.04688C20.5142 9.04688 8.23596 21.3252 8.23596 36.4714C8.23596 51.6174 20.5142 63.8959 35.6603 63.8959Z" fill="white"/>
</mask>
<g mask="url(#mask2_15_1376)">
<path d="M35.6603 63.8959C50.8064 63.8959 63.0846 51.6174 63.0846 36.4714C63.0846 21.3252 50.8064 9.04688 35.6603 9.04688C20.5142 9.04688 8.23596 21.3252 8.23596 36.4714C8.23596 51.6174 20.5142 63.8959 35.6603 63.8959Z" fill="#FF7A00"/>
<path d="M-5.4468 31.9912L-5.83081 32.3752L39.626 77.8321L40.0101 77.4482L-5.4468 31.9912Z" fill="#FF6F73"/>
<path d="M-3.98351 30.542L-4.36755 30.926L41.0892 76.3831L41.4733 75.9986L-3.98351 30.542Z" fill="#FF6F73"/>
<path d="M-2.521 29.0928L-2.90503 29.4768L42.5517 74.9335L42.9358 74.5496L-2.521 29.0928Z" fill="#FF6F73"/>
<path d="M-1.05701 27.6436L-1.44104 28.0276L44.0157 73.4845L44.3998 73.1006L-1.05701 27.6436Z" fill="#FF6F73"/>
<path d="M0.405641 26.1953L0.0216064 26.5794L45.4784 72.036L45.8624 71.6521L0.405641 26.1953Z" fill="#FF6F73"/>
<path d="M1.86975 24.7471L1.48572 25.1311L46.9425 70.588L47.3265 70.2041L1.86975 24.7471Z" fill="#FF6F73"/>
<path d="M3.33314 23.2969L2.9491 23.681L48.4059 69.138L48.79 68.7536L3.33314 23.2969Z" fill="#FF6F73"/>
<path d="M4.79626 21.8486L4.41223 22.2327L49.869 67.6895L50.253 67.3056L4.79626 21.8486Z" fill="#FF6F73"/>
<path d="M6.25902 20.4004L5.875 20.7844L51.3318 66.2414L51.7159 65.857L6.25902 20.4004Z" fill="#FF6F73"/>
<path d="M7.72324 18.9512L7.33923 19.3352L52.796 64.7919L53.18 64.408L7.72324 18.9512Z" fill="#FF6F73"/>
<path d="M9.18644 17.5029L8.80237 17.887L54.2592 63.3439L54.6432 62.96L9.18644 17.5029Z" fill="#FF6F73"/>
<path d="M10.649 16.0537L10.265 16.4378L55.7221 61.8944L56.106 61.5105L10.649 16.0537Z" fill="#FF6F73"/>
<path d="M12.1124 14.6045L11.7284 14.9886L57.185 60.4454L57.5694 60.0615L12.1124 14.6045Z" fill="#FF6F73"/>
<path d="M13.5755 13.1562L13.1915 13.5402L58.6484 58.9974L59.0323 58.6128L13.5755 13.1562Z" fill="#FF6F73"/>
<path d="M15.0398 11.7061L14.6558 12.0901L60.1124 57.5468L60.4969 57.1629L15.0398 11.7061Z" fill="#FF6F73"/>
<path d="M16.503 10.2588L16.119 10.6429L61.5759 56.0997L61.9598 55.7157L16.503 10.2588Z" fill="#FF6F73"/>
<path d="M17.9655 8.80957L17.5815 9.19364L63.0381 54.6505L63.4226 54.2664L17.9655 8.80957Z" fill="#FF6F73"/>
<path d="M19.4283 7.36035L19.0442 7.74442L64.5011 53.2012L64.885 52.8172L19.4283 7.36035Z" fill="#FF6F73"/>
<path d="M20.8921 5.91113L20.5081 6.29516L65.9651 51.752L66.349 51.368L20.8921 5.91113Z" fill="#FF6F73"/>
<path d="M22.3557 4.46289L21.9717 4.84693L67.4285 50.3038L67.8124 49.9197L22.3557 4.46289Z" fill="#FF6F73"/>
<path d="M23.8197 3.01367L23.4357 3.3977L68.8925 48.8546L69.2764 48.4705L23.8197 3.01367Z" fill="#FF6F73"/>
<path d="M25.2822 1.56543L24.8982 1.94947L70.3548 47.4063L70.7393 47.0223L25.2822 1.56543Z" fill="#FF6F73"/>
<path d="M26.7456 0.117188L26.3615 0.50122L71.8183 45.9581L72.2021 45.574L26.7456 0.117188Z" fill="#FF6F73"/>
<path d="M28.209 -1.33203L27.825 -0.948001L73.2817 44.5088L73.6656 44.1248L28.209 -1.33203Z" fill="#FF6F73"/>
<path d="M29.6723 -2.78223L29.2883 -2.3982L74.7451 43.0586L75.1291 42.6746L29.6723 -2.78223Z" fill="#FF6F73"/>
<path d="M31.136 -4.5918L30.752 -4.20779L76.2086 41.249L76.593 40.865L31.136 -4.5918Z" fill="#FF6F73"/>
</g>
<path d="M36.1667 71.4668L36.153 70.5481C37.3725 70.5306 38.5903 70.4486 39.8012 70.302L39.9115 71.2142C38.6686 71.3646 37.4186 71.4488 36.1667 71.4668ZM34.2893 71.4439C33.038 71.3958 31.7901 71.2809 30.551 71.0993L30.6843 70.1904C31.8908 70.3665 33.1058 70.4786 34.3243 70.5262L34.2893 71.4439ZM41.7696 70.9397L41.6107 70.0297C42.8117 69.8186 44.0003 69.5424 45.1716 69.2028L45.4271 70.0849C44.2239 70.4354 43.0036 70.7209 41.7696 70.9397ZM28.7002 70.7789C27.4718 70.5306 26.2577 70.2161 25.063 69.8377L25.3387 68.9622C26.5016 69.3313 27.6836 69.6381 28.8794 69.8809L28.7002 70.7789ZM47.2172 69.5172L46.9139 68.6515C48.0651 68.2485 49.1937 67.7842 50.2948 67.2603L50.6899 68.0872C49.5589 68.6258 48.3996 69.1033 47.2172 69.5172ZM23.2857 69.2192C22.1137 68.7757 20.9664 68.2698 19.8488 67.7033L20.2642 66.8835C21.3521 67.4353 22.469 67.928 23.6101 68.359L23.2857 69.2192ZM52.3615 67.2362L51.9213 66.4296C52.9925 65.8477 54.0318 65.209 55.0348 64.5161L55.5574 65.2713C54.5276 65.9828 53.4604 66.639 52.3606 67.2373L52.3615 67.2362ZM18.1947 66.8069C17.1096 66.1808 16.0587 65.4966 15.0464 64.7589L15.5885 64.0162C16.5741 64.7354 17.5974 65.4015 18.6542 66.0112L18.1947 66.8069ZM57.0722 64.1584L56.5095 63.4327C57.4736 62.6857 58.3973 61.8883 59.2767 61.0434L59.9132 61.7057C59.0104 62.573 58.0626 63.3922 57.0722 64.1584ZM13.5595 63.6072C12.5889 62.8153 11.661 61.972 10.7797 61.0817L11.433 60.4386C12.2912 61.3059 13.1949 62.1268 14.1403 62.8979L13.5595 63.6072ZM61.2323 60.3631L60.5602 59.7375C61.3936 58.8461 62.1784 57.9109 62.9123 56.9364L63.6473 57.4876C62.8937 58.4895 62.0876 59.4504 61.2323 60.3658V60.3631ZM9.49494 59.7129C8.66276 58.7766 7.88111 57.7966 7.15344 56.7778L7.90146 56.2457C8.60982 57.2383 9.37058 58.1926 10.1805 59.1042L9.49494 59.7129ZM64.7361 55.956L63.9733 55.4432C64.6536 54.4304 65.2786 53.382 65.8463 52.3022L66.6606 52.7295C66.0771 53.8396 65.435 54.9175 64.7361 55.9587V55.956ZM6.10674 55.2208C5.43603 54.1639 4.82251 53.0719 4.26883 51.9493L5.09589 51.5432C5.6364 52.636 6.23491 53.6992 6.88875 54.7283L6.10674 55.2208ZM67.4929 51.0414L66.6579 50.6591C67.1654 49.5505 67.6138 48.4155 68.0004 47.2589L68.8716 47.5494C68.474 48.7383 68.0125 49.9049 67.4897 51.0441L67.4929 51.0414ZM3.47852 50.2502C2.98625 49.0986 2.55678 47.9213 2.19198 46.7232L3.07051 46.4549C3.4274 47.6207 3.84674 48.7665 4.32672 49.8872L3.47852 50.2502ZM69.4136 45.7537L68.5271 45.5111C68.8492 44.3345 69.1079 43.1415 69.3025 41.9373L70.2093 42.0834C70.0097 43.3201 69.7444 44.5453 69.4136 45.7537ZM1.68656 44.9128C1.38546 43.6969 1.15017 42.4655 0.98172 41.2242L1.89241 41.101C2.05627 42.3096 2.28512 43.5084 2.57795 44.6923L1.68656 44.9128ZM70.4575 40.2262L69.5443 40.1288C69.6728 38.916 69.7373 37.6973 69.7373 36.4778V36.3399H70.6561V36.4778C70.6566 37.7286 70.5904 38.9786 70.4586 40.2225L70.4575 40.2262ZM0.779549 39.3569C0.702357 38.4048 0.662842 37.4344 0.662842 36.4731C0.662842 36.1827 0.666211 35.8933 0.67295 35.6048L1.59191 35.6259C1.58517 35.9083 1.5818 36.1907 1.5818 36.4731C1.5818 37.4096 1.6204 38.3543 1.69667 39.2824L0.779549 39.3569ZM69.6821 34.5084C69.6132 33.291 69.4786 32.0781 69.2807 30.8749L70.1863 30.7251C70.3908 31.9608 70.5286 33.2065 70.5992 34.457L69.6821 34.5084ZM1.68472 33.7999L0.765765 33.7291C0.862622 32.4804 1.02612 31.2377 1.25557 30.0065L2.1589 30.1755C1.93629 31.3744 1.778 32.5842 1.68472 33.7999ZM68.934 29.0792C68.6704 27.8883 68.3428 26.7125 67.9523 25.5569L68.8229 25.2628C69.2243 26.4498 69.5618 27.6575 69.8336 28.8808L68.934 29.0792ZM2.5467 28.3882L1.65348 28.1713C1.95001 26.9537 2.31199 25.7531 2.73785 24.5745L3.60166 24.8869C3.18746 26.0343 2.8353 27.203 2.5467 28.3882ZM67.3201 23.8412C66.8679 22.7086 66.3543 21.6011 65.7829 20.5237L66.5955 20.0928C67.1823 21.1995 67.709 22.337 68.1738 23.5002L67.3201 23.8412ZM4.27159 23.1805L3.42523 22.8211C3.91572 21.6678 4.46789 20.5417 5.07935 19.4477L5.8816 19.8952C5.28634 20.9606 4.74889 22.0572 4.27159 23.1805ZM64.8843 18.9358C64.256 17.8908 63.5718 16.8804 62.8347 15.9087L63.5702 15.3574C64.3265 16.3555 65.0293 17.3932 65.6751 18.4662L64.8843 18.9358ZM6.81339 18.321L6.03598 17.833C6.70429 16.7734 7.42885 15.7504 8.20656 14.7683L8.92701 15.339C8.16992 16.2947 7.46439 17.2901 6.81339 18.321ZM61.6917 14.4789C60.9036 13.5468 60.0669 12.6573 59.1848 11.8139L59.8186 11.1486C60.7243 12.0136 61.5834 12.9261 62.3917 13.8824L61.6917 14.4789ZM10.1014 13.933L9.41225 13.3246C10.2413 12.3859 11.1195 11.4917 12.0432 10.6459L12.6635 11.3241C11.7637 12.1475 10.9084 13.0184 10.1014 13.933ZM57.8286 10.5889C56.9016 9.79531 55.9331 9.05139 54.9272 8.36042L55.4475 7.60321C56.4794 8.31289 57.4736 9.07666 58.4247 9.89139L57.8286 10.5889ZM14.0456 10.1294L13.4621 9.41999C14.4298 8.62347 15.4397 7.87961 16.4873 7.19153L16.9908 7.95978C15.9712 8.62871 14.9881 9.35174 14.0456 10.1257V10.1294ZM53.3917 7.37254C52.3514 6.73701 51.2778 6.15784 50.1753 5.63755L50.5677 4.81048C51.7015 5.34493 52.8058 5.93973 53.876 6.59234L53.3917 7.37254ZM18.5448 7.00493L18.0854 6.21097C19.1679 5.5816 20.2832 5.01043 21.4267 4.49988L21.7989 5.33521C20.6853 5.83127 19.5991 6.3865 18.5448 6.99854V7.00493ZM48.4955 4.90054C47.3655 4.44031 46.2114 4.04152 45.0384 3.7059L45.2901 2.82186C46.4952 3.16617 47.6808 3.57508 48.8419 4.04683L48.4955 4.90054ZM23.4842 4.63496L23.1561 3.77298C24.3265 3.32537 25.5201 2.9413 26.7318 2.62245L26.9652 3.51108C25.7856 3.82305 24.6236 4.19822 23.4842 4.63496ZM43.2657 3.24642C42.0765 2.97583 40.8737 2.76907 39.6625 2.62704L39.7691 1.71452C41.0131 1.86029 42.2484 2.07257 43.4697 2.35044L43.2657 3.24642ZM28.7461 3.09663L28.5624 2.19697C29.789 1.94443 31.0283 1.75792 32.275 1.63824L32.3668 2.5572C31.1509 2.67223 29.9429 2.8523 28.7461 3.09663ZM37.8438 2.46347C37.1114 2.41752 36.3754 2.39455 35.631 2.39455C35.1464 2.39455 34.6646 2.40496 34.1855 2.42579L34.146 1.50683C34.6477 1.48661 35.1182 1.47559 35.6604 1.47559C36.4066 1.47559 37.1601 1.49948 37.899 1.54635L37.8438 2.46347Z" fill="#FF7A00"/>
<path d="M35.6604 67.6404C29.4959 67.6404 23.4698 65.8127 18.3441 62.3882C13.2184 58.9631 9.22334 54.0956 6.86412 48.4004C4.5049 42.7053 3.88748 36.4384 5.08993 30.3923C6.29236 24.3462 9.26069 18.7925 13.6196 14.4334C17.9784 10.0743 23.532 7.1056 29.578 5.90279C35.624 4.69998 41.8909 5.31703 47.5863 7.67588C53.2816 10.0348 58.1496 14.0296 61.5747 19.1551C64.9992 24.2806 66.8274 30.3066 66.8279 36.4711C66.8186 44.7345 63.5319 52.6569 57.6891 58.5004C51.846 64.3433 43.9238 67.6305 35.6604 67.6404ZM35.6604 6.22267C29.6776 6.22249 23.8291 7.99646 18.8545 11.3202C13.8798 14.644 10.0026 19.3683 7.71293 24.8957C5.42334 30.4231 4.82422 36.5052 5.99137 42.3732C7.15851 48.241 10.0395 53.631 14.27 57.8617C18.5005 62.0918 23.8905 64.9733 29.7584 66.1403C35.6263 67.3073 41.7084 66.7079 47.2358 64.4187C52.7632 62.129 57.4873 58.2516 60.8112 53.2771C64.1351 48.3024 65.9092 42.4539 65.9086 36.4711C65.8994 28.4515 62.71 20.763 57.0389 15.0921C51.3685 9.42129 43.68 6.23216 35.6604 6.22267Z" fill="#FF7A00"/>
</g>
<mask id="mask3_15_1376" style="mask-type:luminance" maskUnits="userSpaceOnUse" x="19" y="21" width="32" height="31">
<path d="M50.4255 21.1631H19.8005V51.7881H50.4255V21.1631Z" fill="white"/>
</mask>
<g mask="url(#mask3_15_1376)">
<path d="M31.2849 49.8731L33.199 40.3027L25.5427 37.4317L38.9411 23.0762L37.0271 32.6465L44.6833 35.5176L31.2849 49.8731Z" stroke="white" stroke-width="2" stroke-linecap="round" stroke-linejoin="round"/>
</g>
</g>
</g>
</g>
<defs>
<clipPath id="clip0_15_1376">
<rect width="70" height="71" fill="white" transform="translate(0.659912 0.663086)"/>
</clipPath>
<clipPath id="clip1_15_1376">
<rect width="70" height="71" fill="white" transform="translate(0.659912 0.663086)"/>
</clipPath>
</defs>
</svg>
