<svg width="71" height="72" viewBox="0 0 71 72" fill="none" xmlns="http://www.w3.org/2000/svg">
<g clip-path="url(#clip0_15_1188)">
<g clip-path="url(#clip1_15_1188)">
<mask id="mask0_15_1188" style="mask-type:luminance" maskUnits="userSpaceOnUse" x="0" y="1" width="71" height="71">
<path d="M70.6599 1.72559H0.659912V71.7256H70.6599V1.72559Z" fill="white"/>
</mask>
<g mask="url(#mask0_15_1188)">
<mask id="mask1_15_1188" style="mask-type:luminance" maskUnits="userSpaceOnUse" x="0" y="1" width="71" height="71">
<path d="M70.6571 1.72559H0.663086V71.7168H70.6571V1.72559Z" fill="white"/>
</mask>
<g mask="url(#mask1_15_1188)">
<mask id="mask2_15_1188" style="mask-type:luminance" maskUnits="userSpaceOnUse" x="8" y="9" width="56" height="56">
<path d="M35.6604 64.1459C50.8065 64.1459 63.0846 51.8674 63.0846 36.7214C63.0846 21.5752 50.8065 9.29688 35.6604 9.29688C20.5143 9.29688 8.23596 21.5752 8.23596 36.7214C8.23596 51.8674 20.5143 64.1459 35.6604 64.1459Z" fill="white"/>
</mask>
<g mask="url(#mask2_15_1188)">
<path d="M35.6604 64.1459C50.8065 64.1459 63.0846 51.8674 63.0846 36.7214C63.0846 21.5752 50.8065 9.29688 35.6604 9.29688C20.5143 9.29688 8.23596 21.5752 8.23596 36.7214C8.23596 51.8674 20.5143 64.1459 35.6604 64.1459Z" fill="#FF7A00"/>
<path d="M-5.4468 32.2412L-5.83081 32.6252L39.626 78.0821L40.01 77.6982L-5.4468 32.2412Z" fill="#FF6F73"/>
<path d="M-3.98351 30.792L-4.36755 31.176L41.0893 76.6331L41.4733 76.2486L-3.98351 30.792Z" fill="#FF6F73"/>
<path d="M-2.52088 29.3428L-2.90491 29.7268L42.5519 75.1835L42.9359 74.7996L-2.52088 29.3428Z" fill="#FF6F73"/>
<path d="M-1.05701 27.8936L-1.44104 28.2776L44.0158 73.7345L44.3998 73.3506L-1.05701 27.8936Z" fill="#FF6F73"/>
<path d="M0.405641 26.4453L0.0216064 26.8294L45.4784 72.286L45.8625 71.9021L0.405641 26.4453Z" fill="#FF6F73"/>
<path d="M1.86987 24.9971L1.48584 25.3811L46.9426 70.838L47.3266 70.4541L1.86987 24.9971Z" fill="#FF6F73"/>
<path d="M3.33313 23.5469L2.9491 23.931L48.4059 69.388L48.7899 69.0036L3.33313 23.5469Z" fill="#FF6F73"/>
<path d="M4.79638 22.0986L4.41235 22.4827L49.8692 67.9395L50.2532 67.5556L4.79638 22.0986Z" fill="#FF6F73"/>
<path d="M6.25904 20.6504L5.875 21.0344L51.3318 66.4914L51.7158 66.107L6.25904 20.6504Z" fill="#FF6F73"/>
<path d="M7.72312 19.2012L7.33911 19.5852L52.796 65.0419L53.18 64.658L7.72312 19.2012Z" fill="#FF6F73"/>
<path d="M9.18638 17.7529L8.80237 18.137L54.2592 63.5939L54.6433 63.21L9.18638 17.7529Z" fill="#FF6F73"/>
<path d="M10.649 16.3037L10.265 16.6878L55.7221 62.1444L56.106 61.7605L10.649 16.3037Z" fill="#FF6F73"/>
<path d="M12.1123 14.8545L11.7283 15.2386L57.185 60.6954L57.5689 60.3115L12.1123 14.8545Z" fill="#FF6F73"/>
<path d="M13.5757 13.4062L13.1917 13.7902L58.6484 59.2473L59.0323 58.8628L13.5757 13.4062Z" fill="#FF6F73"/>
<path d="M15.0397 11.9561L14.6556 12.3401L60.1123 57.7968L60.4962 57.4129L15.0397 11.9561Z" fill="#FF6F73"/>
<path d="M16.5031 10.5088L16.119 10.8929L61.5758 56.3497L61.9597 55.9657L16.5031 10.5088Z" fill="#FF6F73"/>
<path d="M17.9656 9.05957L17.5815 9.44364L63.0381 54.9004L63.4226 54.5164L17.9656 9.05957Z" fill="#FF6F73"/>
<path d="M19.4283 7.61035L19.0442 7.99442L64.5011 53.4512L64.885 53.0672L19.4283 7.61035Z" fill="#FF6F73"/>
<path d="M20.8922 6.16113L20.5081 6.54516L65.965 52.002L66.349 51.618L20.8922 6.16113Z" fill="#FF6F73"/>
<path d="M22.3557 4.71289L21.9717 5.09693L67.4285 50.5538L67.8124 50.1697L22.3557 4.71289Z" fill="#FF6F73"/>
<path d="M23.8195 3.26367L23.4355 3.6477L68.8924 49.1046L69.2763 48.7205L23.8195 3.26367Z" fill="#FF6F73"/>
<path d="M25.2823 1.81543L24.8983 2.19947L70.3548 47.6563L70.7393 47.2723L25.2823 1.81543Z" fill="#FF6F73"/>
<path d="M26.7456 0.367188L26.3615 0.75122L71.8183 46.2081L72.2021 45.824L26.7456 0.367188Z" fill="#FF6F73"/>
<path d="M28.2088 -1.08203L27.8247 -0.698001L73.2817 44.7588L73.6656 44.3748L28.2088 -1.08203Z" fill="#FF6F73"/>
<path d="M29.6724 -2.53223L29.2883 -2.1482L74.7451 43.3086L75.1291 42.9246L29.6724 -2.53223Z" fill="#FF6F73"/>
<path d="M31.1361 -4.3418L30.752 -3.95779L76.2087 41.499L76.5931 41.115L31.1361 -4.3418Z" fill="#FF6F73"/>
</g>
<path d="M36.167 71.7168L36.1532 70.7981C37.3728 70.7806 38.5906 70.6986 39.8015 70.552L39.9118 71.4642C38.6688 71.6146 37.4188 71.6988 36.167 71.7168ZM34.2896 71.6939C33.0383 71.6458 31.7903 71.5309 30.5513 71.3493L30.6845 70.4404C31.891 70.6165 33.1061 70.7286 34.3245 70.7762L34.2896 71.6939ZM41.7699 71.1897L41.6109 70.2797C42.8119 70.0686 44.0006 69.7924 45.1719 69.4528L45.4273 70.3349C44.2242 70.6854 43.0039 70.9709 41.7699 71.1897ZM28.7005 71.0289C27.4721 70.7806 26.2579 70.4661 25.0632 70.0877L25.3389 69.2122C26.5018 69.5813 27.6838 69.8881 28.8797 70.1309L28.7005 71.0289ZM47.2175 69.7672L46.9142 68.9015C48.0653 68.4985 49.1939 68.0342 50.2951 67.5103L50.6902 68.3372C49.5591 68.8758 48.3999 69.3533 47.2175 69.7672ZM23.286 69.4692C22.1139 69.0257 20.9667 68.5198 19.8491 67.9533L20.2645 67.1335C21.3524 67.6853 22.4693 68.178 23.6104 68.609L23.286 69.4692ZM52.3618 67.4862L51.9216 66.6796C52.9927 66.0977 54.0321 65.459 55.0351 64.7661L55.5577 65.5213C54.5279 66.2328 53.4607 66.889 52.3609 67.4873L52.3618 67.4862ZM18.195 67.0569C17.1099 66.4308 16.0589 65.7466 15.0466 65.0089L15.5888 64.2662C16.5744 64.9854 17.5977 65.6515 18.6545 66.2612L18.195 67.0569ZM57.0725 64.4084L56.5098 63.6827C57.4739 62.9357 58.3976 62.1383 59.277 61.2934L59.9136 61.9557C59.0107 62.823 58.0624 63.6422 57.0725 64.4084ZM13.5597 63.8572C12.5892 63.0653 11.6612 62.222 10.7799 61.3317L11.4333 60.6886C12.2915 61.5559 13.1952 62.3768 14.1405 63.1479L13.5597 63.8572ZM61.2326 60.6131L60.5605 59.9875C61.394 59.0961 62.1787 58.1609 62.9121 57.1864L63.6476 57.7376C62.894 58.7395 62.0879 59.7004 61.2326 60.6158V60.6131ZM9.49516 59.9629C8.66298 59.0266 7.88139 58.0466 7.15366 57.0278L7.90174 56.4957C8.6101 57.4883 9.37081 58.4426 10.1807 59.3542L9.49516 59.9629ZM64.7365 56.206L63.9736 55.6932C64.6539 54.6804 65.2789 53.632 65.8466 52.5522L66.6609 52.9795C66.0774 54.0896 65.4354 55.1675 64.7365 56.2087V56.206ZM6.10698 55.4708C5.43628 54.4139 4.82276 53.3219 4.26907 52.1993L5.09613 51.7932C5.63665 52.886 6.23513 53.9492 6.88903 54.9783L6.10698 55.4708ZM67.4932 51.2914L66.6582 50.9091C67.1657 49.8005 67.6141 48.6655 68.0008 47.5089L68.8719 47.7994C68.4743 48.9883 68.0128 50.1549 67.4894 51.2941L67.4932 51.2914ZM3.47877 50.5002C2.9865 49.3486 2.55702 48.1713 2.19223 46.9732L3.07075 46.7049C3.42764 47.8707 3.84698 49.0165 4.32697 50.1372L3.47877 50.5002ZM69.4139 46.0037L68.5274 45.7611C68.8495 44.5845 69.1082 43.3915 69.3029 42.1873L70.2096 42.3334C70.01 43.5701 69.7447 44.7953 69.4139 46.0037ZM1.6868 45.1628C1.3857 43.9469 1.15042 42.7155 0.981965 41.4742L1.89265 41.351C2.05652 42.5596 2.28536 43.7584 2.57819 44.9423L1.6868 45.1628ZM70.4579 40.4762L69.5446 40.3788C69.6731 39.166 69.7376 37.9473 69.7376 36.7278V36.5899H70.6564V36.7278C70.6564 37.9786 70.5907 39.2286 70.4589 40.4725L70.4579 40.4762ZM0.779794 39.6069C0.702601 38.6548 0.663086 37.6844 0.663086 36.7231C0.663086 36.4327 0.666455 36.1433 0.673194 35.8548L1.59215 35.8759C1.58541 36.1583 1.58204 36.4407 1.58204 36.7231C1.58204 37.6596 1.62064 38.6043 1.69691 39.5324L0.779794 39.6069ZM69.6824 34.7584C69.6129 33.541 69.4789 32.3281 69.281 31.1249L70.1866 30.9751C70.3911 32.2108 70.5289 33.4565 70.5995 34.707L69.6824 34.7584ZM1.68496 34.0499L0.766009 33.9791C0.862866 32.7304 1.02637 31.4877 1.25581 30.2565L2.15915 30.4255C1.93653 31.6244 1.77824 32.8342 1.68496 34.0499ZM68.9343 29.3292C68.6707 28.1383 68.3431 26.9625 67.9526 25.8069L68.8232 25.5128C69.2247 26.6998 69.5621 27.9075 69.8339 29.1308L68.9343 29.3292ZM2.54695 28.6382L1.65372 28.4213C1.95025 27.2037 2.31224 26.0031 2.73809 24.8245L3.60191 25.1369C3.18771 26.2843 2.83555 27.453 2.54695 28.6382ZM67.3204 24.0912C66.8682 22.9586 66.3547 21.8511 65.7832 20.7737L66.5953 20.3428C67.1821 21.4495 67.7093 22.587 68.1741 23.7502L67.3204 24.0912ZM4.27183 23.4305L3.42547 23.0711C3.91596 21.9178 4.46813 20.7917 5.07959 19.6977L5.88184 20.1452C5.28658 21.2106 4.74914 22.3072 4.27183 23.4305ZM64.8847 19.1858C64.2557 18.1408 63.5722 17.1304 62.835 16.1587L63.5705 15.6074C64.3268 16.6055 65.0296 17.6432 65.6754 18.7162L64.8847 19.1858ZM6.81367 18.571L6.03623 18.083C6.70452 17.0234 7.42907 16.0004 8.20678 15.0183L8.92729 15.589C8.17014 16.5447 7.46462 17.5401 6.81367 18.571ZM61.692 14.7289C60.9039 13.7968 60.0672 12.9073 59.1851 12.0639L59.8189 11.3986C60.7246 12.2636 61.5837 13.1761 62.392 14.1324L61.692 14.7289ZM10.1017 14.183L9.41248 13.5746C10.2415 12.6359 11.1198 11.7417 12.0435 10.8959L12.6638 11.5741C11.764 12.3975 10.9087 13.2684 10.1017 14.183ZM57.8289 10.8389C56.9019 10.0453 55.9334 9.30139 54.9275 8.61042L55.4478 7.85321C56.4797 8.56289 57.4734 9.32666 58.425 10.1414L57.8289 10.8389ZM14.0459 10.3794L13.4623 9.66999C14.4301 8.87347 15.4399 8.12961 16.4875 7.44153L16.9911 8.20978C15.9715 8.87871 14.9883 9.60174 14.0459 10.3757V10.3794ZM53.392 7.62254C52.3517 6.98701 51.278 6.40784 50.1756 5.88755L50.568 5.06048C51.7018 5.59493 52.8061 6.18973 53.8762 6.84234L53.392 7.62254ZM18.5451 7.25493L18.0856 6.46097C19.1682 5.8316 20.2836 5.26043 21.427 4.74988L21.7991 5.58521C20.6856 6.08127 19.5994 6.6365 18.5451 7.24854V7.25493ZM48.4957 5.15054C47.3657 4.69031 46.2117 4.29152 45.0386 3.9559L45.2904 3.07186C46.4955 3.41617 47.6811 3.82508 48.8422 4.29683L48.4957 5.15054ZM23.4845 4.88496L23.1564 4.02298C24.3267 3.57537 25.5204 3.1913 26.7321 2.87245L26.9655 3.76108C25.7859 4.07305 24.6238 4.44822 23.4845 4.88496ZM43.266 3.49642C42.0768 3.22583 40.874 3.01907 39.6627 2.87704L39.7693 1.96452C41.0133 2.11029 42.2487 2.32257 43.47 2.60044L43.266 3.49642ZM28.7464 3.34663L28.5626 2.44697C29.7893 2.19443 31.0286 2.00792 32.2752 1.88824L32.3671 2.8072C31.1512 2.92223 29.9432 3.1023 28.7464 3.34663ZM37.8441 2.71347C37.1117 2.66752 36.3756 2.64455 35.6313 2.64455C35.1467 2.64455 34.6648 2.65496 34.1858 2.67579L34.1462 1.75683C34.648 1.73661 35.1185 1.72559 35.6607 1.72559C36.4068 1.72559 37.1604 1.74948 37.8993 1.79635L37.8441 2.71347Z" fill="#FF7A00"/>
<path d="M35.6603 67.8904C29.4958 67.8904 23.4696 66.0627 18.3439 62.6382C13.2182 59.2131 9.22323 54.3456 6.86401 48.6504C4.50478 42.9553 3.88735 36.6884 5.08981 30.6423C6.29225 24.5962 9.26058 19.0425 13.6194 14.6834C17.9782 10.3243 23.5318 7.3556 29.5778 6.15279C35.6238 4.94998 41.8907 5.56703 47.5861 7.92588C53.2814 10.2848 58.1495 14.2796 61.5746 19.4051C64.9991 24.5306 66.8273 30.5566 66.8278 36.7211C66.8186 44.9845 63.5318 52.9069 57.689 58.7504C51.8459 64.5933 43.9237 67.8805 35.6603 67.8904ZM35.6603 6.47267C29.6774 6.47249 23.8289 8.24646 18.8543 11.5702C13.8797 14.894 10.0024 19.6183 7.71282 25.1457C5.42322 30.6731 4.8241 36.7552 5.99124 42.6232C7.1584 48.491 10.0394 53.881 14.2699 58.1117C18.5003 62.3418 23.8903 65.2233 29.7582 66.3903C35.6261 67.5573 41.7083 66.9579 47.2357 64.6687C52.763 62.379 57.4872 58.5016 60.8111 53.5271C64.135 48.5524 65.9091 42.7039 65.9086 36.7211C65.8993 28.7015 62.7099 21.013 57.0388 15.3421C51.3683 9.67129 43.6799 6.48216 35.6603 6.47267Z" fill="#FF7A00"/>
</g>
<path d="M24.1755 21.4131V34.0899L22.2615 35.2039V52.0381H50.9724V27.207L43.3602 32.8917V27.1495L35.6637 32.8917V27.3888L29.9177 30.7403V21.4131H24.1755ZM26.0896 23.3272H28.0037V31.8581L26.0896 32.9721V23.3272ZM33.7497 30.725V36.7065L41.4461 30.9643V36.7065L49.0583 31.0236V50.124H24.1755V36.3064L33.7497 30.725ZM26.0896 42.4582V48.2004H31.8318V42.4582H26.0896ZM33.7458 42.4582V48.2004H39.488V42.4582H33.7458ZM41.4021 42.4582V48.2004H47.1443V42.4582H41.4021ZM28.0037 44.3723H29.9177V46.2863H28.0037V44.3723ZM35.6599 44.3723H37.574V46.2863H35.6599V44.3723ZM43.3161 44.3723H45.2302V46.2863H43.3161V44.3723Z" fill="white"/>
</g>
</g>
</g>
<defs>
<clipPath id="clip0_15_1188">
<rect width="70" height="71" fill="white" transform="translate(0.659912 0.913086)"/>
</clipPath>
<clipPath id="clip1_15_1188">
<rect width="70" height="71" fill="white" transform="translate(0.659912 0.913086)"/>
</clipPath>
</defs>
</svg>
