<svg width="71" height="72" viewBox="0 0 71 72" fill="none" xmlns="http://www.w3.org/2000/svg">
<g clip-path="url(#clip0_15_1283)">
<g clip-path="url(#clip1_15_1283)">
<g clip-path="url(#clip2_15_1283)">
<mask id="mask0_15_1283" style="mask-type:luminance" maskUnits="userSpaceOnUse" x="0" y="1" width="71" height="71">
<path d="M70.6599 1.10547H0.659912V71.1055H70.6599V1.10547Z" fill="white"/>
</mask>
<g mask="url(#mask0_15_1283)">
<mask id="mask1_15_1283" style="mask-type:luminance" maskUnits="userSpaceOnUse" x="0" y="1" width="71" height="71">
<path d="M70.6567 1.10547H0.66272V71.0967H70.6567V1.10547Z" fill="white"/>
</mask>
<g mask="url(#mask1_15_1283)">
<mask id="mask2_15_1283" style="mask-type:luminance" maskUnits="userSpaceOnUse" x="8" y="8" width="56" height="56">
<path d="M35.6602 63.5258C50.8063 63.5258 63.0845 51.2473 63.0845 36.1013C63.0845 20.9551 50.8063 8.67676 35.6602 8.67676C20.5141 8.67676 8.23584 20.9551 8.23584 36.1013C8.23584 51.2473 20.5141 63.5258 35.6602 63.5258Z" fill="white"/>
</mask>
<g mask="url(#mask2_15_1283)">
<path d="M35.6602 63.5258C50.8063 63.5258 63.0845 51.2473 63.0845 36.1013C63.0845 20.9551 50.8063 8.67676 35.6602 8.67676C20.5141 8.67676 8.23584 20.9551 8.23584 36.1013C8.23584 51.2473 20.5141 63.5258 35.6602 63.5258Z" fill="#FF7A00"/>
<path d="M-5.44692 31.6211L-5.83093 32.0051L39.6259 77.462L40.01 77.0781L-5.44692 31.6211Z" fill="#FF6F73"/>
<path d="M-3.98365 30.1719L-4.36768 30.5559L41.0892 76.013L41.4732 75.6285L-3.98365 30.1719Z" fill="#FF6F73"/>
<path d="M-2.521 28.7227L-2.90503 29.1067L42.5518 74.5634L42.9358 74.1795L-2.521 28.7227Z" fill="#FF6F73"/>
<path d="M-1.05713 27.2734L-1.44116 27.6574L44.0156 73.1143L44.3997 72.7304L-1.05713 27.2734Z" fill="#FF6F73"/>
<path d="M0.405518 25.8252L0.0214844 26.2093L45.4783 71.6659L45.8623 71.282L0.405518 25.8252Z" fill="#FF6F73"/>
<path d="M1.86963 24.377L1.4856 24.761L46.9424 70.2178L47.3264 69.834L1.86963 24.377Z" fill="#FF6F73"/>
<path d="M3.33301 22.9268L2.94897 23.3109L48.4058 68.7679L48.7899 68.3835L3.33301 22.9268Z" fill="#FF6F73"/>
<path d="M4.79626 21.4785L4.41223 21.8626L49.8691 67.3194L50.2531 66.9355L4.79626 21.4785Z" fill="#FF6F73"/>
<path d="M6.25878 20.0303L5.87476 20.4143L51.3315 65.8713L51.7156 65.4869L6.25878 20.0303Z" fill="#FF6F73"/>
<path d="M7.723 18.5811L7.33899 18.9651L52.7957 64.4218L53.1797 64.0379L7.723 18.5811Z" fill="#FF6F73"/>
<path d="M9.18632 17.1328L8.80225 17.5169L54.2591 62.9738L54.6431 62.5899L9.18632 17.1328Z" fill="#FF6F73"/>
<path d="M10.6489 15.6836L10.2649 16.0677L55.722 61.5243L56.1059 61.1404L10.6489 15.6836Z" fill="#FF6F73"/>
<path d="M12.1123 14.2344L11.7283 14.6185L57.1849 60.0753L57.5693 59.6914L12.1123 14.2344Z" fill="#FF6F73"/>
<path d="M13.5754 12.7861L13.1914 13.1701L58.6483 58.6272L59.0322 58.2427L13.5754 12.7861Z" fill="#FF6F73"/>
<path d="M15.0396 11.3359L14.6556 11.7199L60.1122 57.1766L60.4967 56.7927L15.0396 11.3359Z" fill="#FF6F73"/>
<path d="M16.503 9.88867L16.1189 10.2727L61.5757 55.7296L61.9596 55.3456L16.503 9.88867Z" fill="#FF6F73"/>
<path d="M17.9654 8.43945L17.5814 8.82352L63.038 54.2804L63.4225 53.8963L17.9654 8.43945Z" fill="#FF6F73"/>
<path d="M19.4282 6.99023L19.0441 7.3743L64.501 52.8311L64.8849 52.4471L19.4282 6.99023Z" fill="#FF6F73"/>
<path d="M20.8921 5.54102L20.5081 5.92505L65.965 51.3819L66.3489 50.9979L20.8921 5.54102Z" fill="#FF6F73"/>
<path d="M22.3556 4.09277L21.9716 4.47681L67.4284 49.9337L67.8123 49.5496L22.3556 4.09277Z" fill="#FF6F73"/>
<path d="M23.8194 2.64355L23.4354 3.02758L68.8923 48.4845L69.2762 48.1004L23.8194 2.64355Z" fill="#FF6F73"/>
<path d="M25.2822 1.19531L24.8982 1.57935L70.3547 47.0362L70.7392 46.6522L25.2822 1.19531Z" fill="#FF6F73"/>
<path d="M26.7454 -0.25293L26.3613 0.131102L71.8181 45.588L72.202 45.2039L26.7454 -0.25293Z" fill="#FF6F73"/>
<path d="M28.2087 -1.70215L27.8246 -1.31812L73.2816 44.1387L73.6655 43.7547L28.2087 -1.70215Z" fill="#FF6F73"/>
<path d="M29.6722 -3.15234L29.2882 -2.76831L74.745 42.6885L75.129 42.3045L29.6722 -3.15234Z" fill="#FF6F73"/>
<path d="M31.1359 -4.96191L30.7518 -4.5779L76.2085 40.8789L76.5929 40.4949L31.1359 -4.96191Z" fill="#FF6F73"/>
</g>
<path d="M36.1667 71.0967L36.1529 70.178C37.3725 70.1605 38.5903 70.0785 39.8012 69.9319L39.9114 70.8441C38.6684 70.9945 37.4185 71.0787 36.1667 71.0967ZM34.2892 71.0738C33.0378 71.0257 31.79 70.9108 30.5509 70.7292L30.6842 69.8203C31.8907 69.9964 33.1058 70.1085 34.3242 70.1561L34.2892 71.0738ZM41.7696 70.5696L41.6105 69.6596C42.8116 69.4485 44.0003 69.1723 45.1715 68.8327L45.427 69.7148C44.2239 70.0653 43.0036 70.3508 41.7696 70.5696ZM28.7001 70.4088C27.4718 70.1605 26.2576 69.846 25.0629 69.4676L25.3386 68.5921C26.5014 68.9612 27.6835 69.268 28.8794 69.5108L28.7001 70.4088ZM47.2171 69.1471L46.9139 68.2814C48.065 67.8784 49.1936 67.4141 50.2947 66.8902L50.6898 67.7171C49.5588 68.2557 48.3996 68.7332 47.2171 69.1471ZM23.2856 68.8491C22.1136 68.4056 20.9664 67.8997 19.8488 67.3332L20.2641 66.5134C21.3521 67.0652 22.469 67.5579 23.6101 67.9889L23.2856 68.8491ZM52.3615 66.8661L51.9212 66.0595C52.9923 65.4776 54.0317 64.8389 55.0347 64.146L55.5574 64.9012C54.5275 65.6127 53.4603 66.2689 52.3605 66.8672L52.3615 66.8661ZM18.1946 66.4368C17.1096 65.8107 16.0586 65.1265 15.0463 64.3888L15.5885 63.6461C16.574 64.3653 17.5974 65.0314 18.6541 65.6411L18.1946 66.4368ZM57.0722 63.7883L56.5095 63.0626C57.4736 62.3156 58.3973 61.5182 59.2766 60.6733L59.9132 61.3356C59.0103 62.2029 58.062 63.0221 57.0722 63.7883ZM13.5594 63.2371C12.5888 62.4452 11.6609 61.6019 10.7795 60.7116L11.433 60.0685C12.2912 60.9358 13.1949 61.7567 14.1402 62.5278L13.5594 63.2371ZM61.2323 59.993L60.5602 59.3674C61.3931 58.476 62.1784 57.5408 62.9118 56.5663L63.6473 57.1175C62.8937 58.1194 62.0876 59.0803 61.2323 59.9957V59.993ZM9.49483 59.3428C8.66265 58.4065 7.881 57.4265 7.15333 56.4077L7.90135 55.8756C8.60972 56.8682 9.37047 57.8225 10.1803 58.7341L9.49483 59.3428ZM64.7361 55.5859L63.9733 55.0731C64.6536 54.0603 65.2785 53.0119 65.8463 51.9321L66.6606 52.3594C66.077 53.4695 65.4351 54.5474 64.7361 55.5886V55.5859ZM6.10662 54.8507C5.43592 53.7938 4.82239 52.7018 4.26871 51.5792L5.09577 51.1731C5.63628 52.2659 6.23475 53.3291 6.88865 54.3582L6.10662 54.8507ZM67.4929 50.6713L66.6579 50.289C67.1654 49.1804 67.6138 48.0454 68.0004 46.8888L68.8716 47.1793C68.474 48.3682 68.0125 49.5348 67.4891 50.674L67.4929 50.6713ZM3.4784 49.8801C2.98613 48.7285 2.55666 47.5512 2.19186 46.3531L3.07039 46.0848C3.42728 47.2506 3.84662 48.3964 4.3266 49.5171L3.4784 49.8801ZM69.4136 45.3836L68.5271 45.141C68.8492 43.9644 69.1078 42.7714 69.3026 41.5672L70.2093 41.7133C70.0097 42.95 69.7439 44.1752 69.4136 45.3836ZM1.68644 44.5427C1.38534 43.3268 1.15005 42.0954 0.981598 40.8541L1.89229 40.7309C2.05615 41.9395 2.285 43.1383 2.57783 44.3222L1.68644 44.5427ZM70.4576 39.8561L69.5443 39.7587C69.6728 38.5459 69.7373 37.3272 69.7373 36.1077V35.9698H70.6561V36.1077C70.6561 37.3585 70.5903 38.6085 70.4586 39.8524L70.4576 39.8561ZM0.779427 38.9868C0.702235 38.0347 0.66272 37.0643 0.66272 36.103C0.66272 35.8126 0.666089 35.5232 0.672828 35.2347L1.59178 35.2558C1.58505 35.5382 1.58168 35.8206 1.58168 36.103C1.58168 37.0395 1.62027 37.9842 1.69655 38.9123L0.779427 38.9868ZM69.6821 34.1383C69.6125 32.9209 69.4786 31.708 69.2801 30.5048L70.1862 30.355C70.3907 31.5907 70.5281 32.8364 70.5992 34.0869L69.6821 34.1383ZM1.6846 33.4298L0.765643 33.359C0.8625 32.1103 1.026 30.8676 1.25545 29.6364L2.15878 29.8054C1.93617 31.0043 1.77788 32.2141 1.6846 33.4298ZM68.934 28.7091C68.6703 27.5182 68.3428 26.3424 67.9522 25.1868L68.8229 24.8927C69.2243 26.0797 69.5618 27.2874 69.8335 28.5107L68.934 28.7091ZM2.54658 28.0181L1.65336 27.8012C1.94989 26.5836 2.31187 25.383 2.73772 24.2044L3.60154 24.5168C3.18734 25.6642 2.83518 26.8329 2.54658 28.0181ZM67.3201 23.4711C66.8679 22.3385 66.3544 21.231 65.7829 20.1536L66.5949 19.7227C67.1817 20.8294 67.709 21.9669 68.1738 23.1301L67.3201 23.4711ZM4.27147 22.8104L3.4251 22.451C3.9156 21.2977 4.46777 20.1716 5.07923 19.0776L5.88148 19.5251C5.28622 20.5905 4.74877 21.6871 4.27147 22.8104ZM64.8843 18.5657C64.2554 17.5207 63.5719 16.5103 62.8347 15.5386L63.5702 14.9873C64.3265 15.9854 65.0293 17.0231 65.675 18.0961L64.8843 18.5657ZM6.81329 17.9509L6.03586 17.4629C6.70418 16.4033 7.42874 15.3803 8.20645 14.3982L8.9269 14.9689C8.16981 15.9246 7.46429 16.92 6.81329 17.9509ZM61.6917 14.1088C60.9035 13.1767 60.0668 12.2872 59.1847 11.4438L59.8186 10.7785C60.7243 11.6435 61.5834 12.556 62.3917 13.5123L61.6917 14.1088ZM10.1013 13.5629L9.41209 12.9545C10.2412 12.0158 11.1194 11.1216 12.0432 10.2757L12.6634 10.954C11.7636 11.7774 10.9084 12.6483 10.1013 13.5629ZM57.8286 10.2188C56.9016 9.42519 55.9331 8.68127 54.9272 7.9903L55.4475 7.23309C56.4794 7.94277 57.4731 8.70654 58.4247 9.52127L57.8286 10.2188ZM14.0455 9.75927L13.462 9.04987C14.4298 8.25335 15.4396 7.50949 16.4872 6.82141L16.9908 7.58966C15.9711 8.25859 14.988 8.98162 14.0455 9.75561V9.75927ZM53.3916 7.00242C52.3513 6.36689 51.2777 5.78772 50.1753 5.26743L50.5676 4.44036C51.7014 4.97481 52.8058 5.56961 53.8759 6.22222L53.3916 7.00242ZM18.5447 6.63481L18.0853 5.84085C19.1678 5.21148 20.2832 4.64031 21.4266 4.12976L21.7988 4.96509C20.6853 5.46115 19.599 6.01638 18.5447 6.62842V6.63481ZM48.4953 4.53042C47.3653 4.07019 46.2113 3.6714 45.0382 3.33578L45.2901 2.45174C46.4951 2.79605 47.6808 3.20496 48.8419 3.67671L48.4953 4.53042ZM23.4842 4.26484L23.1561 3.40286C24.3264 2.95525 25.52 2.57118 26.7317 2.25233L26.9652 3.14096C25.7854 3.45293 24.6235 3.8281 23.4842 4.26484ZM43.2656 2.8763C42.0764 2.60571 40.8736 2.39895 39.6623 2.25692L39.769 1.3444C41.013 1.49017 42.2482 1.70245 43.4697 1.98032L43.2656 2.8763ZM28.7461 2.72651L28.5623 1.82685C29.7889 1.57431 31.0282 1.3878 32.2749 1.26812L32.3668 2.18708C31.1508 2.30211 29.9428 2.48218 28.7461 2.72651ZM37.8438 2.09335C37.1114 2.0474 36.3753 2.02443 35.6309 2.02443C35.1463 2.02443 34.6645 2.03484 34.1854 2.05567L34.1459 1.13671C34.6476 1.1165 35.1182 1.10547 35.6603 1.10547C36.4065 1.10547 37.16 1.12936 37.8988 1.17623L37.8438 2.09335Z" fill="#FF7A00"/>
<path d="M35.6603 67.2703C29.4958 67.2703 23.4697 65.4426 18.344 62.0181C13.2183 58.593 9.22324 53.7255 6.86397 48.0303C4.50478 42.3352 3.88736 36.0683 5.08981 30.0222C6.29227 23.9761 9.26059 18.4224 13.6194 14.0633C17.9783 9.70415 23.5319 6.73549 29.5778 5.53268C35.6239 4.32987 41.8908 4.94692 47.5861 7.30577C53.2814 9.66466 58.1496 13.6595 61.5741 18.785C64.9992 23.9105 66.8274 29.9365 66.8274 36.101C66.8187 44.3644 63.5319 52.2868 57.6891 58.1303C51.8459 63.9732 43.9237 67.2604 35.6603 67.2703ZM35.6603 5.85256C29.6775 5.85238 23.829 7.62635 18.8543 10.9501C13.8797 14.2739 10.0024 18.9982 7.71283 24.5256C5.42321 30.053 4.8241 36.1351 5.99124 42.0031C7.15841 47.8709 10.0394 53.2609 14.2699 57.4916C18.5004 61.7217 23.8904 64.6032 29.7583 65.7702C35.6262 66.9372 41.7083 66.3378 47.2357 64.0486C52.7631 61.7589 57.4873 57.8815 60.8112 52.907C64.1351 47.9323 65.9087 42.0838 65.9087 36.101C65.8994 28.0814 62.7094 20.3929 57.0389 14.722C51.3684 9.05118 43.6799 5.86205 35.6603 5.85256Z" fill="#FF7A00"/>
</g>
<path d="M50.9724 41.0273H50.3774C50.1437 37.978 48.9714 35.0759 47.0215 32.7199C45.0716 30.3639 42.4398 28.6697 39.488 27.87V24.621C39.488 24.331 39.3728 24.0528 39.1677 23.8476C38.9625 23.6425 38.6843 23.5273 38.3943 23.5273H32.9255C32.6355 23.5273 32.3573 23.6425 32.1521 23.8476C31.947 24.0528 31.8318 24.331 31.8318 24.621V27.87C28.88 28.6697 26.2482 30.3639 24.2983 32.7199C22.3484 35.0759 21.1761 37.978 20.9424 41.0273H20.3474C20.0573 41.0273 19.7791 41.1425 19.574 41.3476C19.3689 41.5528 19.2537 41.831 19.2537 42.121V46.496C19.2537 46.7861 19.3689 47.0643 19.574 47.2694C19.7791 47.4745 20.0573 47.5898 20.3474 47.5898H50.9724C51.2625 47.5898 51.5407 47.4745 51.7458 47.2694C51.9509 47.0643 52.0661 46.7861 52.0661 46.496V42.121C52.0661 41.831 51.9509 41.5528 51.7458 41.3476C51.5407 41.1425 51.2625 41.0273 50.9724 41.0273ZM34.0193 25.7148H37.3005V36.6523H34.0193V25.7148ZM26.9099 33.1031V35.5585C26.9099 35.8486 27.0251 36.1268 27.2303 36.3319C27.4354 36.537 27.7136 36.6523 28.0037 36.6523C28.2937 36.6523 28.5719 36.537 28.777 36.3319C28.9822 36.1268 29.0974 35.8486 29.0974 35.5585V31.3984C29.9544 30.8685 30.8726 30.4447 31.8318 30.1363V37.746C31.8318 38.0361 31.947 38.3143 32.1521 38.5194C32.3573 38.7245 32.6355 38.8398 32.9255 38.8398H38.3943C38.6843 38.8398 38.9625 38.7245 39.1677 38.5194C39.3728 38.3143 39.488 38.0361 39.488 37.746V30.1363C40.4472 30.4447 41.3654 30.8685 42.2224 31.3984V35.5585C42.2224 35.8486 42.3376 36.1268 42.5428 36.3319C42.7479 36.537 43.0261 36.6523 43.3161 36.6523C43.6062 36.6523 43.8844 36.537 44.0895 36.3319C44.2947 36.1268 44.4099 35.8486 44.4099 35.5585V33.1036C46.5785 35.2067 47.9201 38.0185 48.1904 41.0273H23.1294C23.3994 38.0182 24.741 35.2062 26.9099 33.1031ZM49.8787 45.4023H21.4411V43.2148H49.8787V45.4023Z" fill="white"/>
</g>
</g>
</g>
</g>
<defs>
<clipPath id="clip0_15_1283">
<rect width="70" height="71" fill="white" transform="translate(0.659912 0.292969)"/>
</clipPath>
<clipPath id="clip1_15_1283">
<rect width="70" height="71" fill="white" transform="translate(0.659912 0.292969)"/>
</clipPath>
<clipPath id="clip2_15_1283">
<rect width="70" height="71" fill="white" transform="translate(0.659912 0.292969)"/>
</clipPath>
</defs>
</svg>
