<svg width="71" height="72" viewBox="0 0 71 72" fill="none" xmlns="http://www.w3.org/2000/svg">
<g clip-path="url(#clip0_15_1234)">
<g clip-path="url(#clip1_15_1234)">
<mask id="mask0_15_1234" style="mask-type:luminance" maskUnits="userSpaceOnUse" x="0" y="0" width="71" height="71">
<path d="M70.6599 0.915039H0.659912V70.915H70.6599V0.915039Z" fill="white"/>
</mask>
<g mask="url(#mask0_15_1234)">
<mask id="mask1_15_1234" style="mask-type:luminance" maskUnits="userSpaceOnUse" x="0" y="0" width="71" height="71">
<path d="M70.6567 0.915039H0.66272V70.9062H70.6567V0.915039Z" fill="white"/>
</mask>
<g mask="url(#mask1_15_1234)">
<mask id="mask2_15_1234" style="mask-type:luminance" maskUnits="userSpaceOnUse" x="8" y="8" width="56" height="56">
<path d="M35.6602 63.3353C50.8063 63.3353 63.0845 51.0568 63.0845 35.9108C63.0845 20.7646 50.8063 8.48633 35.6602 8.48633C20.5141 8.48633 8.23584 20.7646 8.23584 35.9108C8.23584 51.0568 20.5141 63.3353 35.6602 63.3353Z" fill="white"/>
</mask>
<g mask="url(#mask2_15_1234)">
<path d="M35.6602 63.3353C50.8063 63.3353 63.0845 51.0568 63.0845 35.9108C63.0845 20.7646 50.8063 8.48633 35.6602 8.48633C20.5141 8.48633 8.23584 20.7646 8.23584 35.9108C8.23584 51.0568 20.5141 63.3353 35.6602 63.3353Z" fill="#FF7A00"/>
<path d="M-5.44692 31.4307L-5.83093 31.8147L39.6259 77.2716L40.01 76.8877L-5.44692 31.4307Z" fill="#FF6F73"/>
<path d="M-3.98365 29.9814L-4.36768 30.3654L41.0892 75.8225L41.4732 75.438L-3.98365 29.9814Z" fill="#FF6F73"/>
<path d="M-2.521 28.5322L-2.90503 28.9162L42.5518 74.3729L42.9358 73.989L-2.521 28.5322Z" fill="#FF6F73"/>
<path d="M-1.05713 27.083L-1.44116 27.467L44.0156 72.9239L44.3997 72.54L-1.05713 27.083Z" fill="#FF6F73"/>
<path d="M0.405518 25.6348L0.0214844 26.0189L45.4783 71.4755L45.8623 71.0916L0.405518 25.6348Z" fill="#FF6F73"/>
<path d="M1.86963 24.1865L1.4856 24.5705L46.9424 70.0274L47.3264 69.6435L1.86963 24.1865Z" fill="#FF6F73"/>
<path d="M3.33301 22.7363L2.94897 23.1204L48.4058 68.5774L48.7899 68.193L3.33301 22.7363Z" fill="#FF6F73"/>
<path d="M4.79626 21.2881L4.41223 21.6722L49.8691 67.129L50.2531 66.7451L4.79626 21.2881Z" fill="#FF6F73"/>
<path d="M6.25878 19.8398L5.87476 20.2238L51.3315 65.6808L51.7156 65.2964L6.25878 19.8398Z" fill="#FF6F73"/>
<path d="M7.723 18.3906L7.33899 18.7746L52.7957 64.2313L53.1797 63.8474L7.723 18.3906Z" fill="#FF6F73"/>
<path d="M9.18632 16.9424L8.80225 17.3265L54.2591 62.7834L54.6431 62.3995L9.18632 16.9424Z" fill="#FF6F73"/>
<path d="M10.6489 15.4932L10.2649 15.8773L55.722 61.3339L56.1059 60.95L10.6489 15.4932Z" fill="#FF6F73"/>
<path d="M12.1121 14.0439L11.728 14.428L57.1848 59.8848L57.5687 59.5009L12.1121 14.0439Z" fill="#FF6F73"/>
<path d="M13.5755 12.5957L13.1915 12.9797L58.6483 58.4368L59.0322 58.0523L13.5755 12.5957Z" fill="#FF6F73"/>
<path d="M15.0396 11.1455L14.6556 11.5295L60.1122 56.9862L60.4967 56.6023L15.0396 11.1455Z" fill="#FF6F73"/>
<path d="M16.503 9.69824L16.1189 10.0823L61.5757 55.5391L61.9596 55.1551L16.503 9.69824Z" fill="#FF6F73"/>
<path d="M17.9654 8.24902L17.5814 8.63309L63.038 54.0899L63.4225 53.7058L17.9654 8.24902Z" fill="#FF6F73"/>
<path d="M19.4282 6.7998L19.0441 7.18387L64.501 52.6406L64.8849 52.2566L19.4282 6.7998Z" fill="#FF6F73"/>
<path d="M20.8921 5.35059L20.5081 5.73462L65.965 51.1914L66.3489 50.8074L20.8921 5.35059Z" fill="#FF6F73"/>
<path d="M22.3556 3.90234L21.9716 4.28638L67.4284 49.7432L67.8123 49.3591L22.3556 3.90234Z" fill="#FF6F73"/>
<path d="M23.8194 2.45312L23.4354 2.83716L68.8923 48.294L69.2762 47.9099L23.8194 2.45312Z" fill="#FF6F73"/>
<path d="M25.2822 1.00488L24.8982 1.38892L70.3547 46.8457L70.7392 46.4617L25.2822 1.00488Z" fill="#FF6F73"/>
<path d="M26.7454 -0.443359L26.3613 -0.0593274L71.8181 45.3975L72.202 45.0134L26.7454 -0.443359Z" fill="#FF6F73"/>
<path d="M28.2087 -1.89258L27.8246 -1.50855L73.2816 43.9482L73.6655 43.5642L28.2087 -1.89258Z" fill="#FF6F73"/>
<path d="M29.6722 -3.34277L29.2882 -2.95874L74.745 42.498L75.129 42.114L29.6722 -3.34277Z" fill="#FF6F73"/>
<path d="M31.1359 -5.15234L30.7518 -4.76833L76.2085 40.6884L76.5929 40.3044L31.1359 -5.15234Z" fill="#FF6F73"/>
</g>
<path d="M36.1667 70.9062L36.1529 69.9875C37.3725 69.97 38.5903 69.888 39.8012 69.7414L39.9114 70.6536C38.6684 70.804 37.4185 70.8882 36.1667 70.9062ZM34.2892 70.8833C33.0378 70.8352 31.79 70.7203 30.5509 70.5387L30.6842 69.6298C31.8907 69.8059 33.1058 69.918 34.3242 69.9656L34.2892 70.8833ZM41.7696 70.3791L41.6105 69.4691C42.8116 69.258 44.0003 68.9818 45.1715 68.6422L45.427 69.5243C44.2239 69.8748 43.0036 70.1603 41.7696 70.3791ZM28.7001 70.2183C27.4718 69.97 26.2576 69.6555 25.0629 69.2771L25.3386 68.4016C26.5014 68.7707 27.6835 69.0775 28.8794 69.3203L28.7001 70.2183ZM47.2171 68.9566L46.9139 68.0909C48.065 67.6879 49.1936 67.2236 50.2947 66.6997L50.6898 67.5266C49.5588 68.0652 48.3996 68.5427 47.2171 68.9566ZM23.2856 68.6586C22.1136 68.2151 20.9664 67.7092 19.8488 67.1427L20.2641 66.3229C21.3521 66.8747 22.469 67.3674 23.6101 67.7984L23.2856 68.6586ZM52.3615 66.6756L51.9212 65.869C52.9923 65.2871 54.0317 64.6484 55.0347 63.9555L55.5574 64.7107C54.5275 65.4222 53.4603 66.0784 52.3605 66.6767L52.3615 66.6756ZM18.1946 66.2463C17.1096 65.6202 16.0586 64.936 15.0463 64.1983L15.5885 63.4556C16.574 64.1748 17.5974 64.8409 18.6541 65.4506L18.1946 66.2463ZM57.0722 63.5978L56.5095 62.8721C57.4736 62.1251 58.3973 61.3277 59.2766 60.4828L59.9132 61.1451C59.0103 62.0124 58.062 62.8316 57.0722 63.5978ZM13.5594 63.0466C12.5888 62.2547 11.6609 61.4114 10.7795 60.5211L11.433 59.878C12.2912 60.7453 13.1949 61.5662 14.1402 62.3373L13.5594 63.0466ZM61.2323 59.8025L60.5602 59.1769C61.3931 58.2855 62.1784 57.3503 62.9118 56.3758L63.6473 56.927C62.8937 57.9289 62.0876 58.8898 61.2323 59.8052V59.8025ZM9.49483 59.1523C8.66265 58.216 7.881 57.236 7.15333 56.2172L7.90135 55.6851C8.60972 56.6777 9.37047 57.632 10.1803 58.5436L9.49483 59.1523ZM64.7361 55.3954L63.9733 54.8826C64.6536 53.8698 65.2785 52.8214 65.8463 51.7416L66.6606 52.1689C66.077 53.279 65.4351 54.3569 64.7361 55.3981V55.3954ZM6.10662 54.6602C5.43592 53.6033 4.82239 52.5113 4.26871 51.3887L5.09577 50.9826C5.63628 52.0754 6.23475 53.1386 6.88865 54.1677L6.10662 54.6602ZM67.4929 50.4808L66.6579 50.0985C67.1654 48.9899 67.6138 47.8549 68.0004 46.6983L68.8716 46.9888C68.474 48.1777 68.0125 49.3443 67.4891 50.4835L67.4929 50.4808ZM3.4784 49.6896C2.98613 48.538 2.55666 47.3607 2.19186 46.1626L3.07039 45.8943C3.42728 47.0601 3.84662 48.2059 4.3266 49.3266L3.4784 49.6896ZM69.4136 45.1931L68.5271 44.9505C68.8492 43.7739 69.1078 42.5809 69.3026 41.3767L70.2093 41.5228C70.0097 42.7595 69.7439 43.9847 69.4136 45.1931ZM1.68644 44.3522C1.38534 43.1363 1.15005 41.9049 0.981598 40.6636L1.89229 40.5404C2.05615 41.749 2.285 42.9478 2.57783 44.1317L1.68644 44.3522ZM70.4576 39.6656L69.5443 39.5682C69.6728 38.3554 69.7373 37.1367 69.7373 35.9172V35.7793H70.6561V35.9172C70.6561 37.168 70.5903 38.418 70.4586 39.6619L70.4576 39.6656ZM0.779427 38.7963C0.702235 37.8442 0.66272 36.8738 0.66272 35.9125C0.66272 35.6221 0.666089 35.3327 0.672828 35.0442L1.59178 35.0653C1.58505 35.3477 1.58168 35.6301 1.58168 35.9125C1.58168 36.849 1.62027 37.7937 1.69655 38.7218L0.779427 38.7963ZM69.6821 33.9478C69.6125 32.7304 69.4786 31.5175 69.2801 30.3143L70.1862 30.1645C70.3907 31.4002 70.5281 32.6459 70.5992 33.8964L69.6821 33.9478ZM1.6846 33.2393L0.765643 33.1685C0.8625 31.9198 1.026 30.6771 1.25545 29.4459L2.15878 29.6149C1.93617 30.8138 1.77788 32.0236 1.6846 33.2393ZM68.934 28.5186C68.6703 27.3277 68.3428 26.1519 67.9522 24.9963L68.8229 24.7022C69.2243 25.8892 69.5618 27.0969 69.8335 28.3202L68.934 28.5186ZM2.54658 27.8276L1.65336 27.6107C1.94989 26.3931 2.31187 25.1925 2.73772 24.0139L3.60154 24.3263C3.18734 25.4737 2.83518 26.6424 2.54658 27.8276ZM67.3201 23.2806C66.8679 22.148 66.3544 21.0405 65.7829 19.9631L66.5949 19.5322C67.1817 20.6389 67.709 21.7764 68.1738 22.9396L67.3201 23.2806ZM4.27147 22.6199L3.4251 22.2605C3.9156 21.1072 4.46777 19.9811 5.07923 18.8871L5.88148 19.3346C5.28622 20.4 4.74877 21.4966 4.27147 22.6199ZM64.8843 18.3752C64.2554 17.3302 63.5719 16.3198 62.8347 15.3481L63.5702 14.7968C64.3265 15.7949 65.0293 16.8326 65.675 17.9056L64.8843 18.3752ZM6.81329 17.7604L6.03586 17.2724C6.70418 16.2128 7.42874 15.1898 8.20645 14.2077L8.9269 14.7784C8.16981 15.7341 7.46429 16.7295 6.81329 17.7604ZM61.6917 13.9183C60.9035 12.9862 60.0668 12.0967 59.1847 11.2533L59.8186 10.588C60.7243 11.453 61.5834 12.3655 62.3917 13.3218L61.6917 13.9183ZM10.1013 13.3724L9.41209 12.764C10.2412 11.8253 11.1194 10.9311 12.0432 10.0853L12.6634 10.7635C11.7636 11.5869 10.9084 12.4578 10.1013 13.3724ZM57.8286 10.0283C56.9016 9.23476 55.9331 8.49084 54.9272 7.79987L55.4475 7.04266C56.4794 7.75234 57.4731 8.51611 58.4247 9.33084L57.8286 10.0283ZM14.0455 9.56884L13.462 8.85944C14.4298 8.06292 15.4396 7.31906 16.4872 6.63098L16.9908 7.39923C15.9711 8.06816 14.988 8.79119 14.0455 9.56518V9.56884ZM53.3916 6.81199C52.3513 6.17646 51.2777 5.59729 50.1753 5.077L50.5676 4.24993C51.7014 4.78438 52.8058 5.37918 53.8759 6.03179L53.3916 6.81199ZM18.5447 6.44438L18.0853 5.65042C19.1678 5.02105 20.2832 4.44988 21.4266 3.93933L21.7988 4.77466C20.6853 5.27072 19.599 5.82595 18.5447 6.43799V6.44438ZM48.4953 4.33999C47.3653 3.87976 46.2113 3.48097 45.0382 3.14535L45.2901 2.26131C46.4951 2.60562 47.6808 3.01453 48.8419 3.48628L48.4953 4.33999ZM23.4842 4.07441L23.1561 3.21243C24.3264 2.76482 25.52 2.38075 26.7317 2.0619L26.9652 2.95053C25.7854 3.2625 24.6235 3.63767 23.4842 4.07441ZM43.2656 2.68587C42.0764 2.41528 40.8736 2.20852 39.6623 2.06649L39.769 1.15397C41.013 1.29974 42.2482 1.51202 43.4697 1.78989L43.2656 2.68587ZM28.7461 2.53608L28.5623 1.63642C29.7889 1.38388 31.0282 1.19737 32.2749 1.07769L32.3668 1.99665C31.1508 2.11168 29.9428 2.29175 28.7461 2.53608ZM37.8438 1.90292C37.1114 1.85697 36.3753 1.834 35.6309 1.834C35.1463 1.834 34.6645 1.84441 34.1854 1.86524L34.1459 0.946284C34.6476 0.926066 35.1182 0.915039 35.6603 0.915039C36.4065 0.915039 37.16 0.938932 37.8988 0.985799L37.8438 1.90292Z" fill="#FF7A00"/>
<path d="M35.6603 67.0798C29.4958 67.0798 23.4696 65.2521 18.3439 61.8276C13.2182 58.4025 9.22323 53.535 6.86401 47.8398C4.50478 42.1447 3.88735 35.8778 5.08981 29.8317C6.29225 23.7856 9.26058 18.2319 13.6194 13.8728C17.9782 9.51372 23.5318 6.54506 29.5778 5.34225C35.6238 4.13944 41.8907 4.75649 47.5861 7.11534C53.2814 9.47423 58.1495 13.469 61.5746 18.5945C64.9991 23.72 66.8273 29.746 66.8278 35.9105C66.8186 44.1739 63.5318 52.0963 57.689 57.9398C51.8459 63.7827 43.9237 67.0699 35.6603 67.0798ZM35.6603 5.66213C29.6774 5.66195 23.8289 7.43592 18.8543 10.7596C13.8797 14.0834 10.0024 18.8077 7.71282 24.3351C5.42322 29.8625 4.8241 35.9446 5.99124 41.8126C7.1584 47.6804 10.0394 53.0704 14.2699 57.3011C18.5003 61.5312 23.8903 64.4127 29.7582 65.5797C35.6261 66.7467 41.7083 66.1473 47.2357 63.8581C52.763 61.5684 57.4872 57.691 60.8111 52.7165C64.135 47.7418 65.9091 41.8933 65.9086 35.9105C65.8993 27.8909 62.7099 20.2024 57.0388 14.5315C51.3683 8.86075 43.6799 5.67162 35.6603 5.66213Z" fill="#FF7A00"/>
</g>
<mask id="mask3_15_1234" style="mask-type:luminance" maskUnits="userSpaceOnUse" x="21" y="21" width="28" height="30">
<path d="M48.7848 21.6963H21.441V50.6806H48.7848V21.6963Z" fill="white"/>
</mask>
<g mask="url(#mask3_15_1234)">
<path d="M45.8551 23.6285H48.7848V21.6963H21.441V23.6285H24.3707V28.8593L31.779 36.1884L24.3707 43.5176V48.7484H21.441V50.6806H48.7848V48.7484H45.8551V43.5176L38.4469 36.1884L45.8551 28.8593V23.6285ZM31.611 48.7484L35.1129 45.2837L38.6149 48.7484H31.611ZM43.902 28.0593L35.6852 36.1884L43.902 44.3176V48.7484H41.3766L35.1129 42.5515L28.8492 48.7484H26.3239V44.3176L34.5407 36.1884L26.3239 28.0593V23.6285H43.902V28.0593Z" fill="white"/>
</g>
</g>
</g>
</g>
<defs>
<clipPath id="clip0_15_1234">
<rect width="70" height="71" fill="white" transform="translate(0.659912 0.102539)"/>
</clipPath>
<clipPath id="clip1_15_1234">
<rect width="70" height="71" fill="white" transform="translate(0.659912 0.102539)"/>
</clipPath>
</defs>
</svg>
