<svg width="71" height="72" viewBox="0 0 71 72" fill="none" xmlns="http://www.w3.org/2000/svg">
<g clip-path="url(#clip0_15_1329)">
<g clip-path="url(#clip1_15_1329)">
<g clip-path="url(#clip2_15_1329)">
<mask id="mask0_15_1329" style="mask-type:luminance" maskUnits="userSpaceOnUse" x="0" y="1" width="71" height="71">
<path d="M70.6599 1.28516H0.659912V71.2852H70.6599V1.28516Z" fill="white"/>
</mask>
<g mask="url(#mask0_15_1329)">
<mask id="mask1_15_1329" style="mask-type:luminance" maskUnits="userSpaceOnUse" x="0" y="1" width="71" height="71">
<path d="M70.6568 1.28516H0.662842V71.2764H70.6568V1.28516Z" fill="white"/>
</mask>
<g mask="url(#mask1_15_1329)">
<mask id="mask2_15_1329" style="mask-type:luminance" maskUnits="userSpaceOnUse" x="8" y="8" width="56" height="56">
<path d="M35.6603 63.7055C50.8064 63.7055 63.0846 51.427 63.0846 36.281C63.0846 21.1348 50.8064 8.85645 35.6603 8.85645C20.5142 8.85645 8.23596 21.1348 8.23596 36.281C8.23596 51.427 20.5142 63.7055 35.6603 63.7055Z" fill="white"/>
</mask>
<g mask="url(#mask2_15_1329)">
<path d="M35.6603 63.7055C50.8064 63.7055 63.0846 51.427 63.0846 36.281C63.0846 21.1348 50.8064 8.85645 35.6603 8.85645C20.5142 8.85645 8.23596 21.1348 8.23596 36.281C8.23596 51.427 20.5142 63.7055 35.6603 63.7055Z" fill="#FF7A00"/>
<path d="M-5.4468 31.8008L-5.83081 32.1848L39.626 77.6417L40.0101 77.2578L-5.4468 31.8008Z" fill="#FF6F73"/>
<path d="M-3.98351 30.3516L-4.36755 30.7356L41.0892 76.1927L41.4733 75.8082L-3.98351 30.3516Z" fill="#FF6F73"/>
<path d="M-2.521 28.9023L-2.90503 29.2863L42.5517 74.743L42.9358 74.3591L-2.521 28.9023Z" fill="#FF6F73"/>
<path d="M-1.05701 27.4531L-1.44104 27.8371L44.0157 73.294L44.3998 72.9101L-1.05701 27.4531Z" fill="#FF6F73"/>
<path d="M0.405641 26.0049L0.0216064 26.389L45.4784 71.8456L45.8624 71.4617L0.405641 26.0049Z" fill="#FF6F73"/>
<path d="M1.86975 24.5566L1.48572 24.9406L46.9425 70.3975L47.3265 70.0136L1.86975 24.5566Z" fill="#FF6F73"/>
<path d="M3.33314 23.1064L2.9491 23.4905L48.4059 68.9475L48.79 68.5631L3.33314 23.1064Z" fill="#FF6F73"/>
<path d="M4.79626 21.6582L4.41223 22.0423L49.869 67.4991L50.253 67.1152L4.79626 21.6582Z" fill="#FF6F73"/>
<path d="M6.25902 20.21L5.875 20.594L51.3318 66.051L51.7159 65.6666L6.25902 20.21Z" fill="#FF6F73"/>
<path d="M7.72324 18.7607L7.33923 19.1447L52.796 64.6014L53.18 64.2175L7.72324 18.7607Z" fill="#FF6F73"/>
<path d="M9.18644 17.3125L8.80237 17.6966L54.2592 63.1535L54.6432 62.7696L9.18644 17.3125Z" fill="#FF6F73"/>
<path d="M10.649 15.8633L10.265 16.2474L55.7221 61.704L56.106 61.3201L10.649 15.8633Z" fill="#FF6F73"/>
<path d="M12.1124 14.4141L11.7284 14.7982L57.185 60.255L57.5694 59.8711L12.1124 14.4141Z" fill="#FF6F73"/>
<path d="M13.5755 12.9658L13.1915 13.3498L58.6484 58.8069L59.0323 58.4224L13.5755 12.9658Z" fill="#FF6F73"/>
<path d="M15.0398 11.5156L14.6558 11.8996L60.1124 57.3563L60.4969 56.9724L15.0398 11.5156Z" fill="#FF6F73"/>
<path d="M16.503 10.0684L16.119 10.4524L61.5759 55.9093L61.9598 55.5253L16.503 10.0684Z" fill="#FF6F73"/>
<path d="M17.9655 8.61914L17.5815 9.00321L63.0381 54.4601L63.4226 54.076L17.9655 8.61914Z" fill="#FF6F73"/>
<path d="M19.4283 7.16992L19.0442 7.55399L64.5011 53.0108L64.885 52.6268L19.4283 7.16992Z" fill="#FF6F73"/>
<path d="M20.8921 5.7207L20.5081 6.10473L65.9651 51.5616L66.349 51.1776L20.8921 5.7207Z" fill="#FF6F73"/>
<path d="M22.3557 4.27246L21.9717 4.6565L67.4285 50.1134L67.8124 49.7293L22.3557 4.27246Z" fill="#FF6F73"/>
<path d="M23.8197 2.82324L23.4357 3.20727L68.8925 48.6642L69.2764 48.2801L23.8197 2.82324Z" fill="#FF6F73"/>
<path d="M25.2822 1.375L24.8982 1.75904L70.3548 47.2159L70.7393 46.8319L25.2822 1.375Z" fill="#FF6F73"/>
<path d="M26.7456 -0.0732422L26.3615 0.31079L71.8183 45.7677L72.2021 45.3836L26.7456 -0.0732422Z" fill="#FF6F73"/>
<path d="M28.209 -1.52246L27.825 -1.13843L73.2817 44.3184L73.6656 43.9344L28.209 -1.52246Z" fill="#FF6F73"/>
<path d="M29.6723 -2.97266L29.2883 -2.58863L74.7451 42.8682L75.1291 42.4842L29.6723 -2.97266Z" fill="#FF6F73"/>
<path d="M31.136 -4.78223L30.752 -4.39822L76.2086 41.0586L76.593 40.6746L31.136 -4.78223Z" fill="#FF6F73"/>
</g>
<path d="M36.1667 71.2764L36.153 70.3577C37.3725 70.3402 38.5903 70.2582 39.8012 70.1116L39.9115 71.0238C38.6686 71.1742 37.4186 71.2584 36.1667 71.2764ZM34.2893 71.2535C33.038 71.2054 31.7901 71.0905 30.551 70.9089L30.6843 70C31.8908 70.1761 33.1058 70.2882 34.3243 70.3358L34.2893 71.2535ZM41.7696 70.7493L41.6107 69.8393C42.8117 69.6282 44.0003 69.352 45.1716 69.0124L45.4271 69.8945C44.2239 70.245 43.0036 70.5305 41.7696 70.7493ZM28.7002 70.5885C27.4718 70.3402 26.2577 70.0257 25.063 69.6473L25.3387 68.7718C26.5016 69.1409 27.6836 69.4477 28.8794 69.6905L28.7002 70.5885ZM47.2172 69.3268L46.9139 68.4611C48.0651 68.0581 49.1937 67.5938 50.2948 67.0699L50.6899 67.8968C49.5589 68.4354 48.3996 68.9129 47.2172 69.3268ZM23.2857 69.0288C22.1137 68.5853 20.9664 68.0794 19.8488 67.5129L20.2642 66.6931C21.3521 67.2449 22.469 67.7376 23.6101 68.1686L23.2857 69.0288ZM52.3615 67.0458L51.9213 66.2392C52.9925 65.6573 54.0318 65.0186 55.0348 64.3257L55.5574 65.0809C54.5276 65.7924 53.4604 66.4486 52.3606 67.0469L52.3615 67.0458ZM18.1947 66.6165C17.1096 65.9904 16.0587 65.3062 15.0464 64.5685L15.5885 63.8258C16.5741 64.545 17.5974 65.2111 18.6542 65.8208L18.1947 66.6165ZM57.0722 63.968L56.5095 63.2423C57.4736 62.4953 58.3973 61.6979 59.2767 60.853L59.9132 61.5153C59.0104 62.3826 58.0626 63.2018 57.0722 63.968ZM13.5595 63.4168C12.5889 62.6249 11.661 61.7816 10.7797 60.8913L11.433 60.2482C12.2912 61.1155 13.1949 61.9364 14.1403 62.7075L13.5595 63.4168ZM61.2323 60.1727L60.5602 59.5471C61.3936 58.6557 62.1784 57.7205 62.9123 56.746L63.6473 57.2972C62.8937 58.2991 62.0876 59.26 61.2323 60.1754V60.1727ZM9.49494 59.5225C8.66276 58.5862 7.88111 57.6062 7.15344 56.5874L7.90146 56.0553C8.60982 57.0479 9.37058 58.0022 10.1805 58.9138L9.49494 59.5225ZM64.7361 55.7656L63.9733 55.2528C64.6536 54.24 65.2786 53.1916 65.8463 52.1118L66.6606 52.5391C66.0771 53.6492 65.435 54.7271 64.7361 55.7683V55.7656ZM6.10674 55.0304C5.43603 53.9735 4.82251 52.8815 4.26883 51.7589L5.09589 51.3528C5.6364 52.4456 6.23491 53.5088 6.88875 54.5379L6.10674 55.0304ZM67.4929 50.851L66.6579 50.4687C67.1654 49.3601 67.6138 48.2251 68.0004 47.0685L68.8716 47.359C68.474 48.5479 68.0125 49.7145 67.4897 50.8537L67.4929 50.851ZM3.47852 50.0598C2.98625 48.9082 2.55678 47.7309 2.19198 46.5328L3.07051 46.2645C3.4274 47.4303 3.84674 48.5761 4.32672 49.6968L3.47852 50.0598ZM69.4136 45.5633L68.5271 45.3207C68.8492 44.1441 69.1079 42.9511 69.3025 41.7469L70.2093 41.893C70.0097 43.1297 69.7444 44.3549 69.4136 45.5633ZM1.68656 44.7224C1.38546 43.5065 1.15017 42.2751 0.98172 41.0338L1.89241 40.9106C2.05627 42.1192 2.28512 43.318 2.57795 44.5019L1.68656 44.7224ZM70.4575 40.0358L69.5443 39.9384C69.6728 38.7256 69.7373 37.5069 69.7373 36.2874V36.1495H70.6561V36.2874C70.6566 37.5382 70.5904 38.7882 70.4586 40.0321L70.4575 40.0358ZM0.779549 39.1665C0.702357 38.2144 0.662842 37.244 0.662842 36.2827C0.662842 35.9923 0.666211 35.7029 0.67295 35.4144L1.59191 35.4355C1.58517 35.7179 1.5818 36.0003 1.5818 36.2827C1.5818 37.2192 1.6204 38.1639 1.69667 39.092L0.779549 39.1665ZM69.6821 34.318C69.6132 33.1006 69.4786 31.8877 69.2807 30.6845L70.1863 30.5347C70.3908 31.7704 70.5286 33.0161 70.5992 34.2666L69.6821 34.318ZM1.68472 33.6095L0.765765 33.5387C0.862622 32.29 1.02612 31.0473 1.25557 29.8161L2.1589 29.9851C1.93629 31.184 1.778 32.3938 1.68472 33.6095ZM68.934 28.8888C68.6704 27.6979 68.3428 26.5221 67.9523 25.3665L68.8229 25.0724C69.2243 26.2594 69.5618 27.4671 69.8336 28.6904L68.934 28.8888ZM2.5467 28.1978L1.65348 27.9809C1.95001 26.7633 2.31199 25.5627 2.73785 24.3841L3.60166 24.6965C3.18746 25.8439 2.8353 27.0126 2.5467 28.1978ZM67.3201 23.6508C66.8679 22.5182 66.3543 21.4107 65.7829 20.3333L66.5955 19.9024C67.1823 21.0091 67.709 22.1466 68.1738 23.3098L67.3201 23.6508ZM4.27159 22.9901L3.42523 22.6307C3.91572 21.4774 4.46789 20.3513 5.07935 19.2573L5.8816 19.7048C5.28634 20.7702 4.74889 21.8668 4.27159 22.9901ZM64.8843 18.7454C64.256 17.7004 63.5718 16.69 62.8347 15.7183L63.5702 15.167C64.3265 16.1651 65.0293 17.2028 65.6751 18.2758L64.8843 18.7454ZM6.81339 18.1306L6.03598 17.6426C6.70429 16.583 7.42885 15.56 8.20656 14.5779L8.92701 15.1486C8.16992 16.1043 7.46439 17.0997 6.81339 18.1306ZM61.6917 14.2885C60.9036 13.3564 60.0669 12.4669 59.1848 11.6235L59.8186 10.9582C60.7243 11.8232 61.5834 12.7357 62.3917 13.692L61.6917 14.2885ZM10.1014 13.7426L9.41225 13.1342C10.2413 12.1955 11.1195 11.3013 12.0432 10.4554L12.6635 11.1337C11.7637 11.9571 10.9084 12.828 10.1014 13.7426ZM57.8286 10.3984C56.9016 9.60488 55.9331 8.86096 54.9272 8.16999L55.4475 7.41278C56.4794 8.12246 57.4736 8.88623 58.4247 9.70096L57.8286 10.3984ZM14.0456 9.93896L13.4621 9.22956C14.4298 8.43304 15.4397 7.68918 16.4873 7.0011L16.9908 7.76935C15.9712 8.43828 14.9881 9.16131 14.0456 9.9353V9.93896ZM53.3917 7.18211C52.3514 6.54658 51.2778 5.96741 50.1753 5.44712L50.5677 4.62005C51.7015 5.1545 52.8058 5.7493 53.876 6.40191L53.3917 7.18211ZM18.5448 6.8145L18.0854 6.02054C19.1679 5.39117 20.2832 4.82 21.4267 4.30945L21.7989 5.14478C20.6853 5.64084 19.5991 6.19607 18.5448 6.80811V6.8145ZM48.4955 4.71011C47.3655 4.24988 46.2114 3.85109 45.0384 3.51547L45.2901 2.63143C46.4952 2.97574 47.6808 3.38465 48.8419 3.8564L48.4955 4.71011ZM23.4842 4.44453L23.1561 3.58255C24.3265 3.13494 25.5201 2.75087 26.7318 2.43202L26.9652 3.32065C25.7856 3.63262 24.6236 4.00779 23.4842 4.44453ZM43.2657 3.05599C42.0765 2.7854 40.8737 2.57864 39.6625 2.43661L39.7691 1.52409C41.0131 1.66986 42.2484 1.88214 43.4697 2.16001L43.2657 3.05599ZM28.7461 2.9062L28.5624 2.00654C29.789 1.754 31.0283 1.56749 32.275 1.44781L32.3668 2.36677C31.1509 2.4818 29.9429 2.66187 28.7461 2.9062ZM37.8438 2.27304C37.1114 2.22709 36.3754 2.20412 35.631 2.20412C35.1464 2.20412 34.6646 2.21453 34.1855 2.23536L34.146 1.3164C34.6477 1.29618 35.1182 1.28516 35.6604 1.28516C36.4066 1.28516 37.1601 1.30905 37.899 1.35592L37.8438 2.27304Z" fill="#FF7A00"/>
<path d="M35.6604 67.45C29.4959 67.45 23.4698 65.6223 18.3441 62.1978C13.2184 58.7727 9.22334 53.9052 6.86412 48.21C4.5049 42.5149 3.88748 36.248 5.08993 30.2019C6.29236 24.1558 9.26069 18.6021 13.6196 14.243C17.9784 9.88383 23.532 6.91517 29.578 5.71236C35.624 4.50955 41.8909 5.1266 47.5863 7.48545C53.2816 9.84434 58.1496 13.8392 61.5747 18.9647C64.9992 24.0902 66.8274 30.1162 66.8279 36.2807C66.8186 44.5441 63.5319 52.4665 57.6891 58.31C51.846 64.1529 43.9238 67.4401 35.6604 67.45ZM35.6604 6.03224C29.6776 6.03206 23.8291 7.80603 18.8545 11.1298C13.8798 14.4536 10.0026 19.1779 7.71293 24.7053C5.42334 30.2327 4.82422 36.3148 5.99137 42.1828C7.15851 48.0506 10.0395 53.4406 14.27 57.6713C18.5005 61.9014 23.8905 64.7829 29.7584 65.9499C35.6263 67.1169 41.7084 66.5175 47.2358 64.2283C52.7632 61.9386 57.4873 58.0611 60.8112 53.0867C64.1351 48.1119 65.9092 42.2635 65.9086 36.2807C65.8994 28.2611 62.71 20.5726 57.0389 14.9017C51.3685 9.23086 43.68 6.04173 35.6604 6.03224Z" fill="#FF7A00"/>
</g>
<path d="M28.916 37.055C27.5175 37.055 26.3732 36.5784 25.4832 35.6252C24.6114 34.6537 24.1755 33.3613 24.1755 31.7482C24.1755 30.1351 24.6114 28.8519 25.4832 27.8987C26.3732 26.9271 27.5175 26.4414 28.916 26.4414C30.3145 26.4414 31.4497 26.9271 32.3215 27.8987C33.1933 28.8519 33.6292 30.1351 33.6292 31.7482C33.6292 33.3613 33.1933 34.6537 32.3215 35.6252C31.4497 36.5784 30.3145 37.055 28.916 37.055ZM40.2768 26.6613H43.5188L30.4961 45.9089H27.2541L40.2768 26.6613ZM28.916 34.8003C29.5335 34.8003 30.0148 34.5436 30.3599 34.0304C30.7232 33.5171 30.9048 32.7564 30.9048 31.7482C30.9048 30.74 30.7232 29.9792 30.3599 29.466C30.0148 28.9527 29.5335 28.6961 28.916 28.6961C28.3166 28.6961 27.8353 28.9618 27.472 29.4935C27.1088 30.0068 26.9272 30.7583 26.9272 31.7482C26.9272 32.7381 27.1088 33.4988 27.472 34.0304C27.8353 34.5436 28.3166 34.8003 28.916 34.8003ZM41.8569 46.1288C40.9488 46.1288 40.1315 45.918 39.405 45.4964C38.6966 45.0565 38.1427 44.4332 37.7431 43.6267C37.3435 42.8201 37.1437 41.8852 37.1437 40.822C37.1437 39.7588 37.3435 38.824 37.7431 38.0174C38.1427 37.2108 38.6966 36.5967 39.405 36.1751C40.1315 35.7352 40.9488 35.5152 41.8569 35.5152C43.2554 35.5152 44.3906 36.0009 45.2624 36.9725C46.1524 37.9257 46.5974 39.2089 46.5974 40.822C46.5974 42.4351 46.1524 43.7275 45.2624 44.699C44.3906 45.6522 43.2554 46.1288 41.8569 46.1288ZM41.8569 43.8741C42.4745 43.8741 42.9558 43.6175 43.3009 43.1042C43.6641 42.5726 43.8457 41.8119 43.8457 40.822C43.8457 39.8321 43.6641 39.0806 43.3009 38.5673C42.9558 38.0357 42.4745 37.7699 41.8569 37.7699C41.2576 37.7699 40.7762 38.0266 40.413 38.5398C40.0497 39.0531 39.8681 39.8138 39.8681 40.822C39.8681 41.8302 40.0497 42.591 40.413 43.1042C40.7762 43.6175 41.2576 43.8741 41.8569 43.8741Z" fill="white"/>
</g>
</g>
</g>
</g>
<defs>
<clipPath id="clip0_15_1329">
<rect width="70" height="71" fill="white" transform="translate(0.659912 0.472656)"/>
</clipPath>
<clipPath id="clip1_15_1329">
<rect width="70" height="71" fill="white" transform="translate(0.659912 0.472656)"/>
</clipPath>
<clipPath id="clip2_15_1329">
<rect width="70" height="71" fill="white" transform="translate(0.659912 0.472656)"/>
</clipPath>
</defs>
</svg>
