<svg width="102" height="102" viewBox="0 0 102 102" fill="none" xmlns="http://www.w3.org/2000/svg">
<g clip-path="url(#clip0_15_480)">
<g clip-path="url(#clip1_15_480)">
<g clip-path="url(#clip2_15_480)">
<mask id="mask0_15_480" style="mask-type:luminance" maskUnits="userSpaceOnUse" x="13" y="13" width="75" height="75">
<path d="M50.6876 87.7874C71.1982 87.7874 87.8252 71.1603 87.8252 50.6498C87.8252 30.1393 71.1982 13.5122 50.6876 13.5122C30.1771 13.5122 13.55 30.1393 13.55 50.6498C13.55 71.1603 30.1771 87.7874 50.6876 87.7874Z" fill="white"/>
</mask>
<g mask="url(#mask0_15_480)">
<path d="M50.6876 87.7874C71.1982 87.7874 87.8252 71.1603 87.8252 50.6498C87.8252 30.1393 71.1982 13.5122 50.6876 13.5122C30.1771 13.5122 13.55 30.1393 13.55 50.6498C13.55 71.1603 30.1771 87.7874 50.6876 87.7874Z" fill="#FF7A00"/>
<path d="M-4.97962 44.5826L-5.49951 45.1025L56.0568 106.659L56.5767 106.139L-4.97962 44.5826Z" fill="#FF7A00"/>
<path d="M-2.99756 42.6207L-3.51746 43.1406L58.0389 104.697L58.5588 104.177L-2.99756 42.6207Z" fill="#FF7A00"/>
<path d="M-1.01612 40.6583L-1.53601 41.1782L60.0203 102.735L60.5402 102.215L-1.01612 40.6583Z" fill="#FF7A00"/>
<path d="M0.965939 38.6964L0.446045 39.2163L62.0024 100.773L62.5223 100.253L0.965939 38.6964Z" fill="#FF7A00"/>
<path d="M2.94714 36.735L2.42725 37.2549L63.9836 98.8112L64.5035 98.2913L2.94714 36.735Z" fill="#FF7A00"/>
<path d="M4.92859 34.7721L4.40869 35.292L65.965 96.8483L66.4849 96.3284L4.92859 34.7721Z" fill="#FF7A00"/>
<path d="M6.91064 32.8112L6.39075 33.3311L67.9471 94.8874L68.467 94.3675L6.91064 32.8112Z" fill="#FF7A00"/>
<path d="M8.89208 30.8492L8.37219 31.3691L69.9285 92.9255L70.4484 92.4056L8.89208 30.8492Z" fill="#FF7A00"/>
<path d="M10.874 28.8873L10.3541 29.4072L71.9105 90.9636L72.4304 90.4437L10.874 28.8873Z" fill="#FF7A00"/>
<path d="M12.8555 26.9249L12.3356 27.4448L73.8919 89.0012L74.4118 88.4813L12.8555 26.9249Z" fill="#FF7A00"/>
<path d="M14.8367 24.9635L14.3168 25.4834L75.8731 87.0397L76.393 86.5199L14.8367 24.9635Z" fill="#FF7A00"/>
<path d="M16.8182 23.0011L16.2983 23.521L77.8553 85.0779L78.3752 84.558L16.8182 23.0011Z" fill="#FF7A00"/>
<path d="M18.7997 21.0397L18.2798 21.5596L79.8361 83.1159L80.356 82.596L18.7997 21.0397Z" fill="#FF7A00"/>
<path d="M20.7816 19.0773L20.2617 19.5972L81.8181 81.1535L82.338 80.6336L20.7816 19.0773Z" fill="#FF7A00"/>
<path d="M22.7631 17.1154L22.2432 17.6353L83.8001 79.1922L84.32 78.6723L22.7631 17.1154Z" fill="#FF7A00"/>
<path d="M24.7443 15.1534L24.2244 15.6733L85.7807 77.2297L86.3006 76.7098L24.7443 15.1534Z" fill="#FF7A00"/>
<path d="M26.7263 13.1915L26.2064 13.7114L87.7628 75.2678L88.2827 74.7479L26.7263 13.1915Z" fill="#FF7A00"/>
<path d="M28.7071 11.2291L28.1873 11.749L89.7436 73.3054L90.2635 72.7855L28.7071 11.2291Z" fill="#FF7A00"/>
<path d="M30.6898 9.26771L30.1699 9.7876L91.7263 71.3439L92.2462 70.8241L30.6898 9.26771Z" fill="#FF7A00"/>
<path d="M32.6704 7.30579L32.1505 7.82568L93.7069 69.382L94.2268 68.8621L32.6704 7.30579Z" fill="#FF7A00"/>
<path d="M34.6525 5.3429L34.1326 5.86279L95.6889 67.4191L96.2088 66.8993L34.6525 5.3429Z" fill="#FF7A00"/>
<path d="M36.6339 3.38196L36.114 3.90186L97.6704 65.4582L98.1903 64.9383L36.6339 3.38196Z" fill="#FF7A00"/>
<path d="M38.616 1.41907L38.0961 1.93896L99.6524 63.4953L100.172 62.9754L38.616 1.41907Z" fill="#FF7A00"/>
<path d="M40.5974 -0.542353L40.0775 -0.0224609L101.634 61.5339L102.154 61.014L40.5974 -0.542353Z" fill="#FF7A00"/>
<path d="M42.5795 -2.50475L42.0596 -1.98486L103.616 59.5715L104.136 59.0516L42.5795 -2.50475Z" fill="#FF7A00"/>
<path d="M44.5603 -4.95739L44.0404 -4.4375L105.597 57.1188L106.117 56.599L44.5603 -4.95739Z" fill="#FF7A00"/>
</g>
<path d="M50.6877 101.14C50.4173 101.14 50.1469 101.137 49.8765 101.133L49.8899 100.299C50.9998 100.316 52.129 100.296 53.2431 100.241L53.2856 101.074C52.4235 101.118 51.5489 101.14 50.6877 101.14ZM48.1732 101.079C47.0348 101.024 45.8923 100.929 44.7765 100.799L44.8734 99.9691C45.9708 100.098 47.0949 100.191 48.2141 100.246L48.1732 101.079ZM54.9856 100.959L54.9164 100.128C56.0205 100.035 57.1404 99.9023 58.2454 99.7346L58.3706 100.559C57.2473 100.73 56.1089 100.865 54.9856 100.959ZM43.0874 100.572C41.9649 100.402 40.8375 100.193 39.7359 99.9491L39.9161 99.1337C40.9994 99.3732 42.1077 99.5794 43.2118 99.7463L43.0874 100.572ZM60.0522 100.272L59.8978 99.4525C60.9944 99.2472 62.0952 99.0019 63.1693 98.7231L63.3787 99.5318C62.2855 99.8147 61.1663 100.064 60.0514 100.273L60.0522 100.272ZM38.0776 99.5527C36.9835 99.2714 35.8836 98.9476 34.807 98.5929L35.0682 97.8009C36.1272 98.1506 37.2088 98.4686 38.2846 98.7448L38.0768 99.5535L38.0776 99.5527ZM65.0211 99.077L64.7849 98.2766C65.854 97.9612 66.9239 97.6048 67.9654 97.2176L68.2567 98.0004C67.1976 98.3943 66.1085 98.7557 65.0211 99.077ZM33.1921 98.0263C32.1281 97.6332 31.0649 97.1992 30.0317 96.7352L30.3738 95.9741C31.3895 96.4306 32.4344 96.8579 33.4809 97.2435L33.1921 98.0263ZM69.8432 97.3795L69.526 96.6067C70.5517 96.1861 71.579 95.7229 72.5797 95.2322L72.9477 95.9799C71.9304 96.4807 70.8855 96.9514 69.8432 97.3795ZM28.4853 96.0092C27.4713 95.5109 26.459 94.9718 25.475 94.4035L25.8923 93.6816C26.8595 94.2399 27.856 94.7707 28.8533 95.2597L28.4853 96.0092ZM74.4616 95.2038L74.0677 94.4686C75.0483 93.9436 76.0239 93.3786 76.9669 92.7895L77.4092 93.4972C76.4503 94.0964 75.4589 94.6705 74.4616 95.2038ZM24.0104 93.5255C23.0506 92.9272 22.0984 92.2879 21.1787 91.6244L21.667 90.9476C22.5708 91.5994 23.508 92.2286 24.4519 92.8162L24.0104 93.5255ZM78.838 92.5708L78.3715 91.8781C79.2978 91.2547 80.2116 90.5946 81.0879 89.9144L81.5987 90.5745C80.7082 91.2647 79.7793 91.9365 78.838 92.5708ZM19.8118 90.6029C18.9146 89.9086 18.0317 89.1767 17.1862 88.4272L17.7404 87.803C18.5708 88.5407 19.4395 89.2601 20.3225 89.9428L19.8118 90.6029ZM82.9273 89.508L82.394 88.8654C83.2519 88.1527 84.0948 87.4033 84.8993 86.638L85.4743 87.243C84.6565 88.0217 83.8002 88.7836 82.9273 89.508ZM15.9311 87.2731C15.1107 86.4944 14.3054 85.6774 13.5393 84.8445L14.1526 84.2787C14.9071 85.0974 15.6982 85.9019 16.5053 86.668L15.9311 87.2731ZM86.6903 86.0479L86.0952 85.4629C86.8747 84.6701 87.6383 83.8397 88.3644 82.9935L88.9978 83.5376C88.2592 84.3972 87.4831 85.2418 86.6903 86.0479ZM12.4059 83.571C11.6665 82.7122 10.948 81.8184 10.2703 80.9146L10.938 80.4139C11.6039 81.3018 12.3108 82.1815 13.0385 83.026L12.4059 83.571ZM90.0886 82.2249L89.4376 81.7033C90.1345 80.8345 90.8113 79.9307 91.4472 79.0177L92.1316 79.495C91.4848 80.4231 90.7971 81.3419 90.0886 82.2249ZM9.27135 79.5359C8.62124 78.6046 7.99699 77.6432 7.41531 76.6784L8.12969 76.2478C8.70135 77.1967 9.31475 78.1422 9.95569 79.0577L9.27135 79.5359ZM93.0846 78.078L92.3844 77.6231C92.9911 76.6884 93.572 75.7212 94.1128 74.7489L94.8422 75.1545C94.2922 76.1435 93.7005 77.1266 93.0846 78.078ZM6.56156 75.2063C6.00909 74.2165 5.48499 73.1983 5.00345 72.1777L5.75789 71.8205C6.23108 72.8245 6.74683 73.8259 7.28929 74.7998L6.56073 75.2054L6.56156 75.2063ZM95.6467 73.649L94.9039 73.2676C95.4122 72.2762 95.8937 71.2538 96.3327 70.2315L97.0996 70.5612C96.6523 71.601 96.1641 72.6392 95.6467 73.649ZM4.30493 70.6288C3.85761 69.5922 3.4395 68.5257 3.06312 67.4583L3.8501 67.1812C4.22064 68.2302 4.63124 69.2793 5.07105 70.2974L4.30493 70.6288ZM97.7473 68.9788L96.9695 68.6759C97.3734 67.6411 97.7481 66.5745 98.0819 65.5079L98.8781 65.7575C98.5384 66.8424 98.1579 67.9273 97.7473 68.9788ZM2.52316 65.8426C2.1835 64.7652 1.87638 63.6602 1.61016 62.5578L2.42135 62.3625C2.6834 63.4458 2.98551 64.5323 3.32016 65.5914L2.524 65.8426H2.52316ZM99.3604 64.1217L98.5559 63.8998C98.8514 62.8299 99.1151 61.7333 99.3387 60.6408L100.156 60.8069C99.9288 61.9185 99.6609 63.0343 99.3604 64.1217ZM1.23712 60.8937C1.00929 59.7871 0.815669 58.6563 0.662946 57.5346L1.48999 57.422C1.64021 58.5252 1.83048 59.6369 2.05498 60.726L1.23712 60.8937ZM100.469 59.132L99.6459 58.9926C99.8311 57.8977 99.9822 56.7802 100.093 55.6711L100.924 55.7545C100.81 56.8828 100.657 58.0187 100.469 59.132ZM0.460984 55.8413C0.345816 54.7147 0.268203 53.5705 0.228979 52.4405L1.0627 52.4113C1.10109 53.5238 1.1787 54.6496 1.29136 55.757L0.460984 55.8413ZM101.065 54.0554L100.233 54.0003C100.306 52.8895 100.344 51.7612 100.344 50.6487V50.4751H101.177V50.6429C101.177 51.7796 101.141 52.9254 101.065 54.0554ZM1.03182 50.7372H0.197266V50.6496C0.197266 49.5455 0.233151 48.4288 0.304088 47.3306L1.13697 47.384C1.06687 48.4647 1.03182 49.5621 1.03182 50.6487V50.7372ZM100.31 48.8019C100.269 47.6852 100.19 46.5594 100.076 45.457L100.906 45.3702C101.023 46.4918 101.103 47.6352 101.145 48.7702L100.311 48.801L100.31 48.8019ZM1.27467 45.714L0.444293 45.6322C0.555289 44.5023 0.706343 43.3648 0.893282 42.2531L1.71615 42.3917C1.53255 43.4849 1.384 44.6024 1.27467 45.714ZM99.8745 43.7912C99.7218 42.6896 99.5299 41.5788 99.3037 40.4889L100.121 40.3195C100.351 41.4269 100.546 42.5578 100.701 43.6769L99.8745 43.7912ZM2.01993 40.7426L1.20207 40.5765C1.42656 39.4691 1.69195 38.3533 1.99155 37.2608L2.7969 37.4812C2.50146 38.5561 2.23942 39.6535 2.01993 40.7426ZM98.934 38.8523C98.6711 37.7724 98.3665 36.6858 98.0302 35.6251L98.8255 35.3723C99.1685 36.4522 99.4773 37.5563 99.7452 38.6554L98.934 38.8523ZM3.26758 35.873L2.47059 35.6251C2.80775 34.5419 3.18663 33.457 3.5964 32.4021L4.37503 32.7034C3.97195 33.7415 3.59974 34.8081 3.26842 35.873H3.26758ZM97.4969 34.037C97.1263 32.9921 96.7132 31.9439 96.2701 30.9233L97.0362 30.5911C97.4869 31.6301 97.9058 32.6958 98.283 33.7591L97.4969 34.0378V34.037ZM5.00846 31.1452L4.24067 30.8173C4.68716 29.7732 5.17454 28.7334 5.68862 27.7269L6.43221 28.1066C5.92647 29.0964 5.44743 30.1187 5.00846 31.1452ZM95.5799 29.3985C95.1034 28.3954 94.5868 27.3948 94.0427 26.4233L94.7712 26.0161C95.3237 27.0034 95.8495 28.0207 96.3335 29.0422L95.5799 29.3985ZM7.22086 26.6245L6.49062 26.2206C7.04143 25.2274 7.63062 24.2427 8.24402 23.2938L8.94504 23.7469C8.3425 24.6791 7.76165 25.6472 7.22086 26.6245ZM93.2006 24.9771C92.6264 24.0273 92.0105 23.0826 91.3704 22.1705L92.0531 21.6914C92.7041 22.6195 93.33 23.58 93.9142 24.5456L93.2006 24.9779V24.9771ZM9.87891 22.3507L9.19374 21.875C9.83968 20.9453 10.5265 20.0257 11.2326 19.1419L11.8843 19.6635C11.1892 20.5331 10.514 21.4369 9.87891 22.3507ZM90.3848 20.8135C89.7122 19.9205 89.0036 19.0434 88.2801 18.2055L88.9118 17.6597C89.6471 18.5118 90.3673 19.4039 91.0516 20.3119L90.3848 20.8143V20.8135ZM12.9542 18.3699L12.32 17.8275C13.0535 16.9712 13.828 16.1258 14.6225 15.3138L15.2192 15.8971C14.4372 16.6958 13.6753 17.5279 12.9542 18.3699ZM87.1643 16.9579C86.409 16.14 85.6162 15.338 84.8067 14.5727L85.3809 13.966C86.2029 14.7446 87.0091 15.56 87.7777 16.3904L87.1643 16.9579ZM16.4126 14.7196L15.8368 14.1162C16.6546 13.3351 17.5101 12.5723 18.3797 11.8471L18.9146 12.488C18.0592 13.2015 17.2171 13.9526 16.4126 14.7196ZM83.5699 13.4394C82.7337 12.7 81.8632 11.9814 80.9844 11.3038L81.4935 10.642C82.3873 11.3313 83.2719 12.0615 84.1224 12.8151L83.5699 13.4394ZM20.219 11.4373L19.7066 10.7788C20.5962 10.087 21.5243 9.4135 22.4648 8.77841L22.9321 9.46942C22.0075 10.0945 21.0945 10.7571 20.2198 11.4373H20.219ZM79.6383 10.3006C78.7295 9.64801 77.7914 9.02043 76.8501 8.43624L77.2899 7.72687C78.2471 8.32191 79.201 8.95951 80.1248 9.62214L79.6383 10.2998V10.3006ZM24.335 8.55642L23.8919 7.84872C24.8508 7.247 25.8422 6.67116 26.837 6.13705L27.2318 6.87229C26.2537 7.39806 25.2789 7.96472 24.335 8.55642ZM75.4088 7.57498C74.439 7.0175 73.4417 6.4884 72.4445 6.00102L72.8108 5.25159C73.824 5.74731 74.838 6.28477 75.8236 6.85143L75.4088 7.57498ZM28.7189 6.10534L28.3492 5.35758C29.3624 4.85685 30.4064 4.38449 31.4513 3.95303L31.7701 4.72499C30.7419 5.14894 29.7154 5.61295 28.7189 6.10534ZM70.9231 5.28914C69.9049 4.83431 68.8584 4.40869 67.8135 4.0248L68.1014 3.24199C69.1647 3.63256 70.2287 4.06486 71.2644 4.52803L70.9239 5.28998L70.9231 5.28914ZM33.3298 4.11076L33.0377 3.32878C34.0968 2.9332 35.1842 2.56934 36.2708 2.24637L36.5086 3.04587C35.4404 3.36383 34.3705 3.72269 33.3298 4.11076ZM66.2254 3.47232C65.1688 3.12432 64.0864 2.80802 63.0073 2.53262L63.2135 1.72394C64.3109 2.00351 65.4125 2.32565 66.4858 2.6795L66.2254 3.47232ZM38.1227 2.59604L37.9124 1.7882C39.0031 1.50362 40.1214 1.25241 41.238 1.04044L41.3941 1.85997C40.2958 2.06861 39.1959 2.31563 38.1235 2.59521L38.1227 2.59604ZM61.3766 2.14539C60.2867 1.9067 59.1776 1.70307 58.0793 1.53867L58.202 0.713294C59.3186 0.880204 60.4461 1.08717 61.5544 1.33003L61.3766 2.14539ZM43.0457 1.57706L42.9188 0.752518C44.0371 0.579766 45.1763 0.442899 46.3029 0.346091L46.3747 1.17731C45.2664 1.27244 44.1465 1.40681 43.0465 1.57706H43.0457ZM56.416 1.31918C55.3128 1.19316 54.1886 1.1022 53.0745 1.04878L53.1146 0.215066C54.2462 0.268478 55.3895 0.361113 56.5112 0.490469L56.416 1.31918ZM48.0463 1.0613L48.0029 0.227585C49.1262 0.169166 50.2779 0.148302 51.4104 0.162489L51.3987 0.997042C50.2838 0.981185 49.1521 1.00372 48.0463 1.0613Z" fill="#FF7A00"/>
<path d="M51.1526 91.9584L51.1426 91.1238C52.2525 91.1105 53.3683 91.0537 54.4608 90.9527L54.5375 91.784C53.4234 91.8866 52.2851 91.945 51.1526 91.9584ZM49.4568 91.9417C48.336 91.9091 47.1976 91.829 46.0752 91.7055L46.167 90.876C47.2669 90.9978 48.3819 91.0754 49.481 91.1071L49.4568 91.9417ZM56.2217 91.5912L56.1107 90.765C57.2031 90.6181 58.303 90.4253 59.3813 90.1891L59.5599 91.0045C58.4599 91.2457 57.3366 91.4426 56.2217 91.5912ZM44.3944 91.4827C43.2819 91.3124 42.1628 91.0938 41.0679 90.8334L41.2606 90.0214C42.3339 90.2776 43.4305 90.4904 44.5204 90.6581L44.3944 91.4827ZM61.2081 90.6081L60.9961 89.8011C62.0644 89.5198 63.1334 89.1918 64.1708 88.8246L64.4487 89.6116C63.3888 89.9855 62.2989 90.3218 61.2081 90.6081ZM39.4271 90.4061C38.3364 90.0982 37.2523 89.7418 36.2049 89.3479L36.4987 88.5667C37.5243 88.9515 38.5859 89.3003 39.6541 89.6016L39.428 90.4053L39.4271 90.4061ZM66.036 89.0132L65.7264 88.2388C66.7445 87.8315 67.7635 87.3742 68.7541 86.8793L69.1272 87.6262C68.1157 88.1311 67.0758 88.5985 66.036 89.0132ZM34.6268 88.7211C33.5903 88.2838 32.5579 87.7965 31.559 87.274L31.9462 86.5338C32.9251 87.0462 33.9358 87.5236 34.9514 87.9517L34.6268 88.7211ZM70.6244 86.8384L70.2213 86.1082C71.1852 85.5757 72.1407 84.9957 73.0604 84.3856L73.5228 85.08C72.5839 85.7042 71.6083 86.2959 70.6244 86.8384ZM30.0701 86.4545C29.0945 85.8912 28.1298 85.2811 27.2043 84.641L27.6791 83.955C28.5855 84.5826 29.5302 85.1801 30.4866 85.7326L30.0701 86.4545ZM74.9131 84.1127L74.4232 83.4359C75.3162 82.7891 76.1933 82.0965 77.0304 81.3779L77.5737 82.0122C76.7199 82.7449 75.8245 83.4518 74.9131 84.1127ZM25.8298 83.6462C24.9351 82.9702 24.0538 82.2475 23.2084 81.4964L23.7634 80.8722C24.5913 81.6099 25.4559 82.3185 26.3322 82.9794L25.8298 83.6462ZM78.8364 80.8822L78.268 80.2713C79.0725 79.5227 79.8587 78.7282 80.6048 77.9104L81.2215 78.4728C80.4604 79.3074 79.6576 80.1177 78.8364 80.8822ZM21.9658 80.3406C21.1604 79.5603 20.3735 78.7349 19.6274 77.887L20.2541 77.3362C20.9852 78.1674 21.7563 78.9769 22.5458 79.7414L21.9658 80.3414V80.3406ZM82.3381 77.1951L81.6989 76.6585C82.4066 75.8156 83.0901 74.931 83.7293 74.0288L84.4103 74.5112C83.7577 75.4326 83.0609 76.3355 82.3381 77.1951ZM18.5358 76.5893C17.8297 75.7155 17.1504 74.7991 16.5153 73.8678L17.2047 73.3988C17.8272 74.3118 18.4932 75.2089 19.1851 76.0643L18.5358 76.5893ZM85.3642 73.1075L84.664 72.6527C85.2657 71.7263 85.8349 70.7641 86.3573 69.7935L87.0926 70.1899C86.5593 71.1805 85.9785 72.1611 85.3642 73.1075ZM15.5915 72.449C14.9964 71.4926 14.434 70.502 13.9199 69.5014L14.6626 69.12C15.1667 70.0998 15.7175 71.072 16.3 72.0076L15.5915 72.449ZM87.8654 68.6769L87.1151 68.3113C87.5975 67.3207 88.044 66.2959 88.4429 65.2652L89.2215 65.5665C88.8143 66.6189 88.3578 67.6654 87.8654 68.6769ZM13.178 67.9792C12.7056 66.9585 12.27 65.9062 11.8827 64.8488L12.6664 64.5617C13.0453 65.5965 13.4717 66.6289 13.9349 67.6287L13.178 67.9792ZM89.8015 63.9692L89.0121 63.7004C89.3676 62.6564 89.6839 61.5848 89.9518 60.5149L90.7613 60.7169C90.4875 61.8102 90.1654 62.9034 89.8024 63.9692H89.8015ZM11.3328 63.2439C10.9898 62.1715 10.6876 61.0716 10.4339 59.975L11.2476 59.7872C11.4955 60.8613 11.7918 61.9387 12.1273 62.9894L11.3328 63.2439ZM91.1393 59.0653L90.3223 58.8959C90.546 57.8143 90.7271 56.7119 90.8614 55.6186L91.6893 55.7196C91.5524 56.8354 91.3672 57.9612 91.1393 59.0653ZM10.0868 58.3159C9.87813 57.2076 9.71456 56.0793 9.59939 54.9618L10.4298 54.875C10.5424 55.97 10.7035 57.0758 10.9071 58.1615L10.0876 58.3151L10.0868 58.3159ZM91.8596 54.0338L91.0275 53.9654C91.1168 52.8704 91.1619 51.7546 91.1619 50.6464V50.482L91.9964 50.4753V50.6464C91.9964 51.7763 91.9505 52.9163 91.8596 54.0338ZM9.45835 53.2727C9.40411 52.4064 9.37657 51.5226 9.37573 50.6472C9.37573 50.3918 9.37824 50.1381 9.38241 49.8836L10.217 49.8986C10.2128 50.1481 10.2103 50.3977 10.2103 50.6472C10.2103 51.5051 10.2378 52.3714 10.2912 53.221L9.45835 53.2727ZM91.1226 48.8204C91.0726 47.7154 90.9783 46.6021 90.8397 45.5105L91.6676 45.4062C91.8086 46.5195 91.9054 47.6553 91.9564 48.7828L91.1226 48.8204ZM10.2812 48.2387L9.44834 48.1894C9.51427 47.0653 9.62693 45.9311 9.78466 44.8162L10.6109 44.9339C10.4565 46.0254 10.3463 47.1379 10.2812 48.2387ZM90.5977 43.869C90.4141 42.779 90.1829 41.6858 89.9109 40.6184L90.7196 40.4131C90.9975 41.5022 91.2328 42.618 91.4206 43.7304L90.5977 43.869ZM10.8771 43.2948L10.0567 43.1429C10.2595 42.038 10.5116 40.9255 10.8053 39.8372L11.6115 40.0542C11.3236 41.1208 11.0766 42.2107 10.8779 43.2948H10.8771ZM89.4669 39.0194C89.1506 37.962 88.7859 36.9063 88.3836 35.879L89.1606 35.5743C89.572 36.6225 89.9434 37.7016 90.2672 38.7799L89.4669 39.0194ZM12.0772 38.4611L11.281 38.2099C11.6198 37.1366 12.0079 36.0634 12.4344 35.0185L13.2072 35.3348C12.7891 36.358 12.4085 37.4095 12.0772 38.4611ZM87.7469 34.3492C87.3012 33.3377 86.8088 32.3346 86.2847 31.3682L87.0183 30.9701C87.5541 31.9566 88.0557 32.9797 88.5113 34.0121L87.7469 34.3492ZM13.869 33.8068L13.1104 33.4596C13.5794 32.4348 14.0976 31.4183 14.6493 30.4368L15.377 30.8458C14.8362 31.8072 14.3296 32.8036 13.869 33.8068ZM85.4644 29.9286C84.8985 28.9814 84.2868 28.0458 83.6459 27.1495L84.3244 26.6638C84.9787 27.5802 85.6029 28.5341 86.1804 29.4996L85.4644 29.9286ZM16.2207 29.4137L15.5105 28.9755C16.1039 28.0141 16.7432 27.0686 17.4091 26.1656L18.0809 26.6613C17.4283 27.546 16.8024 28.4715 16.2207 29.4137ZM82.6536 25.8184C81.9751 24.9463 81.2532 24.0934 80.5088 23.2814L81.123 22.7172C81.8833 23.5443 82.6194 24.4155 83.3121 25.3052L82.6536 25.8184ZM19.0941 25.3427L18.4431 24.8211C19.1483 23.9415 19.8986 23.0819 20.6714 22.2649L21.2781 22.8391C20.5203 23.6394 19.7859 24.4823 19.0949 25.3436L19.0941 25.3427ZM79.3605 22.0813C78.5793 21.2985 77.7589 20.5391 76.9211 19.8255L77.4619 19.1896C78.3164 19.9181 79.1543 20.6926 79.9505 21.4913L79.3605 22.0813ZM22.4432 21.6548L21.8606 21.0565C22.6693 20.2695 23.5181 19.5075 24.3835 18.7923L24.9151 19.4358C24.0664 20.136 23.2351 20.8821 22.4432 21.654V21.6548ZM75.6342 18.7731C74.7629 18.0913 73.8558 17.4379 72.9369 16.832L73.3967 16.136C74.3339 16.7535 75.2603 17.4203 76.1483 18.1163L75.6342 18.7731ZM26.2162 18.4051L25.7113 17.74C26.6092 17.0581 27.5448 16.4047 28.492 15.8013L28.941 16.5057C28.013 17.0974 27.0958 17.7366 26.2162 18.4051ZM71.5299 15.9457C70.5826 15.3757 69.6012 14.8399 68.6148 14.3508L68.9845 13.6031C69.9918 14.1021 70.9932 14.6496 71.9596 15.2305L71.5299 15.9457ZM30.3564 15.6402L29.9366 14.92C30.9139 14.3508 31.922 13.8184 32.9335 13.3377L33.2923 14.0905C32.3017 14.562 31.3136 15.0836 30.3564 15.6402ZM67.1076 13.644C66.1036 13.1967 65.0646 12.7852 64.018 12.4197L64.2926 11.6327C65.3608 12.0041 66.4224 12.4247 67.4472 12.8812L67.1076 13.644ZM34.8029 13.4078L34.4749 12.64C35.5081 12.1994 36.5738 11.7946 37.6429 11.4391L37.9057 12.2311C36.8584 12.5799 35.8152 12.9755 34.8029 13.4078ZM62.4341 11.9039C61.38 11.5843 60.2976 11.3047 59.2185 11.0736L59.3938 10.2565C60.4954 10.4935 61.6003 10.779 62.6761 11.1053L62.4341 11.9039ZM39.4939 11.7404L39.2636 10.9384C40.3435 10.6279 41.4526 10.3583 42.5575 10.1372L42.7211 10.9551C41.6379 11.172 40.5521 11.4358 39.4939 11.7395V11.7404ZM57.587 10.7589C56.5062 10.572 55.398 10.4284 54.2938 10.3308L54.3673 9.49959C55.4939 9.5989 56.6247 9.74662 57.7289 9.93523L57.587 10.7589ZM44.356 10.6655L44.2266 9.84092C45.3391 9.6665 46.4724 9.53631 47.5949 9.45286L47.6558 10.2857C46.5567 10.3667 45.4468 10.4944 44.356 10.6655ZM52.6356 10.2198C51.5365 10.1681 50.4207 10.1589 49.3141 10.1973L49.2865 9.36273C50.4123 9.32517 51.554 9.33101 52.6765 9.38693L52.6356 10.2198Z" fill="#FF7A00"/>
<path d="M72.1624 37.6268C60.7248 33.8997 55.7092 29.8229 52.3902 27.1264C51.9904 26.8018 51.614 26.4955 51.2518 26.2101C50.898 25.9314 50.3872 25.9839 50.096 26.3294C50.03 26.4079 43.3645 34.1759 29.2789 37.5124C28.8833 37.6051 28.6129 37.9706 28.638 38.3754C29.4984 52.239 32.7573 67.4562 50.3997 75.1992C50.5066 75.2459 50.6209 75.2693 50.7352 75.2693C50.8838 75.2693 51.0315 75.2292 51.1634 75.1507C67.4121 65.4407 70.8304 56.3959 72.7332 38.5081C72.7749 38.1158 72.5362 37.7486 72.1615 37.6259L72.1624 37.6268ZM50.6777 73.4958C34.5199 66.211 31.2751 52.6571 30.3496 38.9687C42.4122 35.9485 48.9643 29.9389 50.8245 28.0044C50.9914 28.1396 51.1625 28.2781 51.3378 28.4208C54.6902 31.1448 59.7242 35.2358 71.0015 39.0013C69.1605 55.7257 65.7931 64.3583 50.6777 73.4958Z" fill="white"/>
<path d="M38.4131 39.15C38.1369 39.15 37.879 39.2861 37.7238 39.5147C37.5677 39.7426 37.5351 40.033 37.637 40.29C38.2871 41.9466 38.5566 42.6326 38.2028 46.227C38.0142 48.1382 37.9274 52.9677 41.1738 56.5171C43.6023 59.1718 47.3528 60.5338 52.3109 60.5872C52.4569 61.007 52.6022 61.4384 52.7465 61.8807C52.8617 62.2329 53.188 62.4557 53.5402 62.4557C53.6261 62.4557 53.7129 62.4424 53.7989 62.414C54.237 62.2713 54.4766 61.8006 54.3339 61.3616C54.1419 60.7724 53.9474 60.2083 53.7522 59.6566C53.8573 59.2602 54.0334 58.55 54.2103 57.632C63.0666 56.6339 62.7319 49.4584 62.6193 47.0741C62.4983 44.5362 62.4933 43.0841 63.7259 40.3251C63.8302 40.0897 63.8219 39.8202 63.7009 39.5923C63.5799 39.3653 63.3612 39.2068 63.1075 39.1617C55.8235 37.8907 49.8348 40.7674 48.5946 41.4225C45.4951 39.6065 42.1853 39.1492 38.4139 39.1492L38.4131 39.15ZM43.5256 43.7476C43.1075 43.5606 42.6217 43.7492 42.4306 44.1657C42.2404 44.5821 42.4256 45.0753 42.8396 45.269C42.8888 45.2923 47.4154 47.5398 51.6983 58.9005C47.5398 58.7512 44.4085 57.5803 42.4056 55.3904C39.6123 52.3368 39.6975 48.0789 39.8635 46.3898C40.159 43.382 40.0438 42.1552 39.6165 40.8375C43.9837 40.976 47.6691 41.9583 51.14 45.5844C53.6654 48.2224 53.2322 53.526 52.6614 56.7783C48.2692 45.9783 43.74 43.8435 43.5264 43.7484L43.5256 43.7476ZM61.7806 40.6547C60.8225 43.1542 60.84 44.8141 60.951 47.1542C61.0729 49.7071 61.299 54.9005 54.4958 55.9028C54.8179 53.5753 54.9614 50.6293 54.2746 48.0681C54.4382 47.7609 55.1509 46.5642 56.5604 46.0359C56.9919 45.874 57.2106 45.3925 57.0486 44.961C56.8867 44.5295 56.4052 44.3134 55.9737 44.4728C54.8713 44.8859 54.0893 45.5744 53.5644 46.1861C53.2397 45.5435 52.8408 44.9485 52.3443 44.4294C51.6374 43.6908 50.923 43.0582 50.2003 42.5049C52.1281 41.6462 56.5813 40.0372 61.7806 40.6547Z" fill="white"/>
</g>
</g>
</g>
<defs>
<clipPath id="clip0_15_480">
<rect width="101" height="100.98" fill="white" transform="translate(0.187622 0.160156)"/>
</clipPath>
<clipPath id="clip1_15_480">
<rect width="101" height="100.98" fill="white" transform="translate(0.187622 0.160156)"/>
</clipPath>
<clipPath id="clip2_15_480">
<rect width="100.981" height="100.98" fill="white" transform="translate(0.197266 0.160156)"/>
</clipPath>
</defs>
</svg>
