<svg width="102" height="102" viewBox="0 0 102 102" fill="none" xmlns="http://www.w3.org/2000/svg">
<g clip-path="url(#clip0_15_526)">
<g clip-path="url(#clip1_15_526)">
<g clip-path="url(#clip2_15_526)">
<mask id="mask0_15_526" style="mask-type:luminance" maskUnits="userSpaceOnUse" x="13" y="13" width="76" height="75">
<path d="M51.0176 87.7874C71.5281 87.7874 88.1552 71.1603 88.1552 50.6498C88.1552 30.1393 71.5281 13.5122 51.0176 13.5122C30.5071 13.5122 13.88 30.1393 13.88 50.6498C13.88 71.1603 30.5071 87.7874 51.0176 87.7874Z" fill="white"/>
</mask>
<g mask="url(#mask0_15_526)">
<path d="M51.0176 87.7874C71.5281 87.7874 88.1552 71.1603 88.1552 50.6498C88.1552 30.1393 71.5281 13.5122 51.0176 13.5122C30.5071 13.5122 13.88 30.1393 13.88 50.6498C13.88 71.1603 30.5071 87.7874 51.0176 87.7874Z" fill="#FF7A00"/>
<path d="M-4.64966 44.5826L-5.16956 45.1025L56.3868 106.659L56.9067 106.139L-4.64966 44.5826Z" fill="#FF7A00"/>
<path d="M-2.66761 42.6207L-3.1875 43.1406L58.3689 104.697L58.8887 104.177L-2.66761 42.6207Z" fill="#FF7A00"/>
<path d="M-0.686161 40.6583L-1.20605 41.1782L60.3503 102.735L60.8702 102.215L-0.686161 40.6583Z" fill="#FF7A00"/>
<path d="M1.29583 38.6964L0.77594 39.2163L62.3323 100.773L62.8522 100.253L1.29583 38.6964Z" fill="#FF7A00"/>
<path d="M3.27704 36.735L2.75714 37.2549L64.3135 98.8112L64.8334 98.2913L3.27704 36.735Z" fill="#FF7A00"/>
<path d="M5.25854 34.7721L4.73865 35.292L66.295 96.8483L66.8149 96.3284L5.25854 34.7721Z" fill="#FF7A00"/>
<path d="M7.24054 32.8112L6.72064 33.3311L68.277 94.8874L68.7969 94.3675L7.24054 32.8112Z" fill="#FF7A00"/>
<path d="M9.22198 30.8492L8.70209 31.3691L70.2584 92.9255L70.7783 92.4056L9.22198 30.8492Z" fill="#FF7A00"/>
<path d="M11.204 28.8873L10.6841 29.4072L72.2405 90.9636L72.7604 90.4437L11.204 28.8873Z" fill="#FF7A00"/>
<path d="M13.1855 26.9249L12.6656 27.4448L74.2219 89.0012L74.7418 88.4813L13.1855 26.9249Z" fill="#FF7A00"/>
<path d="M15.1667 24.9635L14.6468 25.4834L76.2031 87.0397L76.723 86.5199L15.1667 24.9635Z" fill="#FF7A00"/>
<path d="M17.1481 23.0011L16.6282 23.521L78.1852 85.0779L78.7051 84.558L17.1481 23.0011Z" fill="#FF7A00"/>
<path d="M19.1296 21.0397L18.6097 21.5596L80.166 83.1159L80.6859 82.596L19.1296 21.0397Z" fill="#FF7A00"/>
<path d="M21.1116 19.0773L20.5917 19.5972L82.1481 81.1535L82.668 80.6336L21.1116 19.0773Z" fill="#FF7A00"/>
<path d="M23.0931 17.1154L22.5732 17.6353L84.1301 79.1922L84.65 78.6723L23.0931 17.1154Z" fill="#FF7A00"/>
<path d="M25.0743 15.1534L24.5544 15.6733L86.1107 77.2297L86.6306 76.7098L25.0743 15.1534Z" fill="#FF7A00"/>
<path d="M27.0563 13.1915L26.5364 13.7114L88.0927 75.2678L88.6126 74.7479L27.0563 13.1915Z" fill="#FF7A00"/>
<path d="M29.0372 11.2291L28.5173 11.749L90.0736 73.3054L90.5935 72.7855L29.0372 11.2291Z" fill="#FF7A00"/>
<path d="M31.0198 9.26771L30.4999 9.7876L92.0562 71.3439L92.5761 70.8241L31.0198 9.26771Z" fill="#FF7A00"/>
<path d="M33.0004 7.30579L32.4805 7.82568L94.0369 69.382L94.5568 68.8621L33.0004 7.30579Z" fill="#FF7A00"/>
<path d="M34.9824 5.3429L34.4625 5.86279L96.0189 67.4191L96.5388 66.8993L34.9824 5.3429Z" fill="#FF7A00"/>
<path d="M36.9639 3.38196L36.444 3.90186L98.0003 65.4582L98.5202 64.9383L36.9639 3.38196Z" fill="#FF7A00"/>
<path d="M38.9459 1.41907L38.426 1.93896L99.9824 63.4953L100.502 62.9754L38.9459 1.41907Z" fill="#FF7A00"/>
<path d="M40.9274 -0.542353L40.4075 -0.0224609L101.964 61.5339L102.484 61.014L40.9274 -0.542353Z" fill="#FF7A00"/>
<path d="M42.9094 -2.50475L42.3895 -1.98486L103.946 59.5715L104.466 59.0516L42.9094 -2.50475Z" fill="#FF7A00"/>
<path d="M44.8902 -4.95739L44.3703 -4.4375L105.927 57.1188L106.447 56.599L44.8902 -4.95739Z" fill="#FF7A00"/>
</g>
<path d="M51.0176 101.14C50.7472 101.14 50.4768 101.137 50.2064 101.133L50.2197 100.299C51.3297 100.316 52.4589 100.296 53.573 100.241L53.6155 101.074C52.7534 101.118 51.8788 101.14 51.0176 101.14ZM48.5031 101.079C47.3647 101.024 46.2222 100.929 45.1064 100.799L45.2033 99.9691C46.3007 100.098 47.4248 100.191 48.544 100.246L48.5031 101.079ZM55.3155 100.959L55.2463 100.128C56.3504 100.035 57.4703 99.9023 58.5753 99.7346L58.7005 100.559C57.5772 100.73 56.4388 100.865 55.3155 100.959ZM43.4173 100.572C42.2948 100.402 41.1674 100.193 40.0657 99.9491L40.246 99.1337C41.3293 99.3732 42.4375 99.5794 43.5417 99.7463L43.4173 100.572ZM60.3821 100.272L60.2277 99.4525C61.3243 99.2472 62.4251 99.0019 63.4991 98.7231L63.7086 99.5318C62.6154 99.8147 61.4962 100.064 60.3813 100.273L60.3821 100.272ZM38.4075 99.5527C37.3134 99.2714 36.2135 98.9476 35.1369 98.5929L35.3981 97.8009C36.4571 98.1506 37.5387 98.4686 38.6145 98.7448L38.4067 99.5535L38.4075 99.5527ZM65.351 99.077L65.1148 98.2766C66.1839 97.9612 67.2538 97.6048 68.2953 97.2176L68.5866 98.0004C67.5275 98.3943 66.4384 98.7557 65.351 99.077ZM33.522 98.0263C32.458 97.6332 31.3947 97.1992 30.3616 96.7352L30.7037 95.9741C31.7194 96.4306 32.7642 96.8579 33.8108 97.2435L33.522 98.0263ZM70.1731 97.3795L69.8559 96.6067C70.8816 96.1861 71.9089 95.7229 72.9096 95.2322L73.2776 95.9799C72.2603 96.4807 71.2154 96.9514 70.1731 97.3795ZM28.8151 96.0092C27.8012 95.5109 26.7889 94.9718 25.8049 94.4035L26.2222 93.6816C27.1894 94.2399 28.1859 94.7707 29.1832 95.2597L28.8151 96.0092ZM74.7915 95.2038L74.3976 94.4686C75.3782 93.9436 76.3538 93.3786 77.2968 92.7895L77.7391 93.4972C76.7802 94.0964 75.7888 94.6705 74.7915 95.2038ZM24.3403 93.5255C23.3805 92.9272 22.4283 92.2879 21.5086 91.6244L21.9969 90.9476C22.9007 91.5994 23.8379 92.2286 24.7818 92.8162L24.3403 93.5255ZM79.1679 92.5708L78.7013 91.8781C79.6277 91.2547 80.5415 90.5946 81.4178 89.9144L81.9286 90.5745C81.0381 91.2647 80.1092 91.9365 79.1679 92.5708ZM20.1416 90.6029C19.2445 89.9086 18.3615 89.1767 17.5161 88.4272L18.0703 87.803C18.9007 88.5407 19.7694 89.2601 20.6524 89.9428L20.1416 90.6029ZM83.2572 89.508L82.7239 88.8654C83.5818 88.1527 84.4247 87.4033 85.2292 86.638L85.8042 87.243C84.9864 88.0217 84.1301 88.7836 83.2572 89.508ZM16.261 87.2731C15.4406 86.4944 14.6353 85.6774 13.8691 84.8445L14.4825 84.2787C15.237 85.0974 16.0281 85.9019 16.8351 86.668L16.261 87.2731ZM87.0202 86.0479L86.4251 85.4629C87.2046 84.6701 87.9682 83.8397 88.6943 82.9935L89.3277 83.5376C88.5891 84.3972 87.813 85.2418 87.0202 86.0479ZM12.7358 83.571C11.9964 82.7122 11.2779 81.8184 10.6002 80.9146L11.2678 80.4139C11.9338 81.3018 12.6407 82.1815 13.3684 83.026L12.7358 83.571ZM90.4185 82.2249L89.7675 81.7033C90.4644 80.8345 91.1412 79.9307 91.7771 79.0177L92.4614 79.495C91.8147 80.4231 91.127 81.3419 90.4185 82.2249ZM9.60125 79.5359C8.95113 78.6046 8.32689 77.6432 7.7452 76.6784L8.45958 76.2478C9.03125 77.1967 9.64464 78.1422 10.2856 79.0577L9.60125 79.5359ZM93.4145 78.078L92.7143 77.6231C93.321 76.6884 93.9019 75.7212 94.4427 74.7489L95.1721 75.1545C94.6221 76.1435 94.0304 77.1266 93.4145 78.078ZM6.89146 75.2063C6.33898 74.2165 5.81488 73.1983 5.33335 72.1777L6.08778 71.8205C6.56097 72.8245 7.07673 73.8259 7.61919 74.7998L6.89062 75.2054L6.89146 75.2063ZM95.9766 73.649L95.2338 73.2676C95.7421 72.2762 96.2236 71.2538 96.6626 70.2315L97.4295 70.5612C96.9822 71.601 96.494 72.6392 95.9766 73.649ZM4.63483 70.6288C4.18751 69.5922 3.7694 68.5257 3.39301 67.4583L4.18 67.1812C4.55054 68.2302 4.96114 69.2793 5.40095 70.2974L4.63483 70.6288ZM98.0771 68.9788L97.2993 68.6759C97.7033 67.6411 98.078 66.5745 98.4118 65.5079L99.208 65.7575C98.8683 66.8424 98.4877 67.9273 98.0771 68.9788ZM2.85306 65.8426C2.5134 64.7652 2.20628 63.6602 1.94006 62.5578L2.75124 62.3625C3.01329 63.4458 3.3154 64.5323 3.65006 65.5914L2.85389 65.8426H2.85306ZM99.6903 64.1217L98.8858 63.8998C99.1813 62.8299 99.445 61.7333 99.6686 60.6408L100.486 60.8069C100.259 61.9185 99.9908 63.0343 99.6903 64.1217ZM1.56701 60.8937C1.33918 59.7871 1.14556 58.6563 0.992841 57.5346L1.81988 57.422C1.9701 58.5252 2.16038 59.6369 2.38487 60.726L1.56701 60.8937ZM100.799 59.132L99.9758 58.9926C100.161 57.8977 100.312 56.7802 100.423 55.6711L101.253 55.7545C101.14 56.8828 100.987 58.0187 100.799 59.132ZM0.790879 55.8413C0.675711 54.7147 0.598098 53.5705 0.558874 52.4405L1.39259 52.4113C1.43098 53.5238 1.50859 54.6496 1.62126 55.757L0.790879 55.8413ZM101.395 54.0554L100.562 54.0003C100.636 52.8895 100.673 51.7612 100.673 50.6487V50.4751H101.507V50.6429C101.507 51.7796 101.47 52.9254 101.395 54.0554ZM1.36171 50.7372H0.527161V50.6496C0.527161 49.5455 0.563046 48.4288 0.633983 47.3306L1.46687 47.384C1.39676 48.4647 1.36171 49.5621 1.36171 50.6487V50.7372ZM100.64 48.8019C100.599 47.6852 100.52 46.5594 100.406 45.457L101.236 45.3702C101.353 46.4918 101.433 47.6352 101.475 48.7702L100.641 48.801L100.64 48.8019ZM1.60457 45.714L0.774188 45.6322C0.885184 44.5023 1.03624 43.3648 1.22318 42.2531L2.04605 42.3917C1.86244 43.4849 1.71389 44.6024 1.60457 45.714ZM100.204 43.7912C100.052 42.6896 99.8597 41.5788 99.6336 40.4889L100.451 40.3195C100.681 41.4269 100.876 42.5578 101.031 43.6769L100.204 43.7912ZM2.34982 40.7426L1.53196 40.5765C1.75646 39.4691 2.02184 38.3533 2.32145 37.2608L3.12679 37.4812C2.83136 38.5561 2.56931 39.6535 2.34982 40.7426ZM99.2639 38.8523C99.001 37.7724 98.6964 36.6858 98.3601 35.6251L99.1554 35.3723C99.4984 36.4522 99.8072 37.5563 100.075 38.6554L99.2639 38.8523ZM3.59748 35.873L2.80048 35.6251C3.13764 34.5419 3.51653 33.457 3.92629 32.4021L4.70493 32.7034C4.30184 33.7415 3.92963 34.8081 3.59831 35.873H3.59748ZM97.8268 34.037C97.4562 32.9921 97.0431 31.9439 96.6 30.9233L97.3661 30.5911C97.8168 31.6301 98.2357 32.6958 98.6129 33.7591L97.8268 34.0378V34.037ZM5.33835 31.1452L4.57057 30.8173C5.01705 29.7732 5.50443 28.7334 6.01852 27.7269L6.7621 28.1066C6.25636 29.0964 5.77733 30.1187 5.33835 31.1452ZM95.9098 29.3985C95.4333 28.3954 94.9167 27.3948 94.3726 26.4233L95.1011 26.0161C95.6536 27.0034 96.1794 28.0207 96.6634 29.0422L95.9098 29.3985ZM7.55075 26.6245L6.82052 26.2206C7.37132 25.2274 7.96052 24.2427 8.57391 23.2938L9.27494 23.7469C8.67239 24.6791 8.09154 25.6472 7.55075 26.6245ZM93.5305 24.9771C92.9563 24.0273 92.3404 23.0826 91.7003 22.1705L92.383 21.6914C93.034 22.6195 93.6599 23.58 94.244 24.5456L93.5305 24.9779V24.9771ZM10.2088 22.3507L9.52363 21.875C10.1696 20.9453 10.8564 20.0257 11.5624 19.1419L12.2142 19.6635C11.519 20.5331 10.8439 21.4369 10.2088 22.3507ZM90.7147 20.8135C90.0421 19.9205 89.3335 19.0434 88.61 18.2055L89.2417 17.6597C89.977 18.5118 90.6972 19.4039 91.3815 20.3119L90.7147 20.8143V20.8135ZM13.2841 18.3699L12.6499 17.8275C13.3834 16.9712 14.1579 16.1258 14.9524 15.3138L15.5491 15.8971C14.7671 16.6958 14.0052 17.5279 13.2841 18.3699ZM87.4942 16.9579C86.7389 16.14 85.9461 15.338 85.1366 14.5727L85.7108 13.966C86.5328 14.7446 87.339 15.56 88.1076 16.3904L87.4942 16.9579ZM16.7425 14.7196L16.1667 14.1162C16.9845 13.3351 17.8399 12.5723 18.7096 11.8471L19.2445 12.488C18.3891 13.2015 17.547 13.9526 16.7425 14.7196ZM83.8998 13.4394C83.0636 12.7 82.1931 11.9814 81.3143 11.3038L81.8234 10.642C82.7172 11.3313 83.6018 12.0615 84.4522 12.8151L83.8998 13.4394ZM20.5489 11.4373L20.0365 10.7788C20.9261 10.087 21.8541 9.4135 22.7947 8.77841L23.262 9.46942C22.3374 10.0945 21.4244 10.7571 20.5497 11.4373H20.5489ZM79.9682 10.3006C79.0594 9.64801 78.1213 9.02043 77.18 8.43624L77.6198 7.72687C78.577 8.32191 79.5309 8.95951 80.4547 9.62214L79.9682 10.2998V10.3006ZM24.6649 8.55642L24.2218 7.84872C25.1807 7.247 26.1721 6.67116 27.1669 6.13705L27.5616 6.87229C26.5836 7.39806 25.6088 7.96472 24.6649 8.55642ZM75.7387 7.57498C74.7689 7.0175 73.7716 6.4884 72.7744 6.00102L73.1407 5.25159C74.1539 5.74731 75.1679 6.28477 76.1535 6.85143L75.7387 7.57498ZM29.0488 6.10534L28.6791 5.35758C29.6923 4.85685 30.7363 4.38449 31.7811 3.95303L32.0999 4.72499C31.0718 5.14894 30.0453 5.61295 29.0488 6.10534ZM71.253 5.28914C70.2348 4.83431 69.1883 4.40869 68.1434 4.0248L68.4313 3.24199C69.4946 3.63256 70.5586 4.06486 71.5943 4.52803L71.2538 5.28998L71.253 5.28914ZM33.6597 4.11076L33.3676 3.32878C34.4267 2.9332 35.5141 2.56934 36.6007 2.24637L36.8385 3.04587C35.7703 3.36383 34.7004 3.72269 33.6597 4.11076ZM66.5553 3.47232C65.4987 3.12432 64.4163 2.80802 63.3372 2.53262L63.5434 1.72394C64.6408 2.00351 65.7424 2.32565 66.8157 2.6795L66.5553 3.47232ZM38.4526 2.59604L38.2423 1.7882C39.333 1.50362 40.4513 1.25241 41.5679 1.04044L41.724 1.85997C40.6257 2.06861 39.5258 2.31563 38.4534 2.59521L38.4526 2.59604ZM61.7065 2.14539C60.6166 1.9067 59.5075 1.70307 58.4092 1.53867L58.5319 0.713294C59.6485 0.880204 60.776 1.08717 61.8843 1.33003L61.7065 2.14539ZM43.3756 1.57706L43.2487 0.752518C44.367 0.579766 45.5062 0.442899 46.6328 0.346091L46.7046 1.17731C45.5963 1.27244 44.4764 1.40681 43.3764 1.57706H43.3756ZM56.7459 1.31918C55.6427 1.19316 54.5185 1.1022 53.4044 1.04878L53.4445 0.215066C54.5761 0.268478 55.7194 0.361113 56.8411 0.490469L56.7459 1.31918ZM48.3762 1.0613L48.3328 0.227585C49.4561 0.169166 50.6078 0.148302 51.7403 0.162489L51.7286 0.997042C50.6137 0.981185 49.482 1.00372 48.3762 1.0613Z" fill="#FF7A00"/>
<path d="M51.4824 91.9584L51.4724 91.1238C52.5824 91.1105 53.6982 91.0537 54.7906 90.9527L54.8674 91.784C53.7532 91.8866 52.6149 91.945 51.4824 91.9584ZM49.7866 91.9417C48.6658 91.9091 47.5275 91.829 46.405 91.7055L46.4968 90.876C47.5967 90.9978 48.7117 91.0754 49.8108 91.1071L49.7866 91.9417ZM56.5515 91.5912L56.4405 90.765C57.5329 90.6181 58.6329 90.4253 59.7111 90.1891L59.8897 91.0045C58.7898 91.2457 57.6665 91.4426 56.5515 91.5912ZM44.7242 91.4827C43.6118 91.3124 42.4926 91.0938 41.3977 90.8334L41.5905 90.0214C42.6637 90.2776 43.7603 90.4904 44.8502 90.6581L44.7242 91.4827ZM61.5379 90.6081L61.326 89.8011C62.3942 89.5198 63.4633 89.1918 64.5006 88.8246L64.7785 89.6116C63.7186 89.9855 62.6287 90.3218 61.5379 90.6081ZM39.757 90.4061C38.6662 90.0982 37.5821 89.7418 36.5348 89.3479L36.8285 88.5667C37.8542 88.9515 38.9157 89.3003 39.984 89.6016L39.7578 90.4053L39.757 90.4061ZM66.3658 89.0132L66.0562 88.2388C67.0744 87.8315 68.0934 87.3742 69.084 86.8793L69.457 87.6262C68.4455 88.1311 67.4057 88.5985 66.3658 89.0132ZM34.9566 88.7211C33.9201 88.2838 32.8878 87.7965 31.8888 87.274L32.276 86.5338C33.255 87.0462 34.2656 87.5236 35.2813 87.9517L34.9566 88.7211ZM70.9542 86.8384L70.5511 86.1082C71.515 85.5757 72.4706 84.9957 73.3903 84.3856L73.8526 85.08C72.9137 85.7042 71.9381 86.2959 70.9542 86.8384ZM30.4 86.4545C29.4244 85.8912 28.4596 85.2811 27.5341 84.641L28.009 83.955C28.9153 84.5826 29.86 85.1801 30.8164 85.7326L30.4 86.4545ZM75.243 84.1127L74.7531 83.4359C75.646 82.7891 76.5232 82.0965 77.3602 81.3779L77.9035 82.0122C77.0498 82.7449 76.1543 83.4518 75.243 84.1127ZM26.1596 83.6462C25.265 82.9702 24.3837 82.2475 23.5383 81.4964L24.0933 80.8722C24.9211 81.6099 25.7857 82.3185 26.662 82.9794L26.1596 83.6462ZM79.1662 80.8822L78.5979 80.2713C79.4024 79.5227 80.1885 78.7282 80.9346 77.9104L81.5513 78.4728C80.7902 79.3074 79.9874 80.1177 79.1662 80.8822ZM22.2956 80.3406C21.4903 79.5603 20.7033 78.7349 19.9572 77.887L20.584 77.3362C21.315 78.1674 22.0862 78.9769 22.8756 79.7414L22.2956 80.3414V80.3406ZM82.668 77.1951L82.0287 76.6585C82.7364 75.8156 83.4199 74.931 84.0592 74.0288L84.7402 74.5112C84.0875 75.4326 83.3907 76.3355 82.668 77.1951ZM18.8656 76.5893C18.1596 75.7155 17.4803 74.7991 16.8452 73.8678L17.5345 73.3988C18.1571 74.3118 18.8231 75.2089 19.5149 76.0643L18.8656 76.5893ZM85.6941 73.1075L84.9939 72.6527C85.5956 71.7263 86.1647 70.7641 86.6872 69.7935L87.4224 70.1899C86.8891 71.1805 86.3083 72.1611 85.6941 73.1075ZM15.9213 72.449C15.3263 71.4926 14.7638 70.502 14.2497 69.5014L14.9925 69.12C15.4965 70.0998 16.0473 71.072 16.6298 72.0076L15.9213 72.449ZM88.1952 68.6769L87.445 68.3113C87.9273 67.3207 88.3738 66.2959 88.7727 65.2652L89.5514 65.5665C89.1441 66.6189 88.6876 67.6654 88.1952 68.6769ZM13.5078 67.9792C13.0354 66.9585 12.5998 65.9062 12.2126 64.8488L12.9962 64.5617C13.3751 65.5965 13.8015 66.6289 14.2647 67.6287L13.5078 67.9792ZM90.1314 63.9692L89.3419 63.7004C89.6974 62.6564 90.0137 61.5848 90.2816 60.5149L91.0911 60.7169C90.8174 61.8102 90.4952 62.9034 90.1322 63.9692H90.1314ZM11.6626 63.2439C11.3196 62.1715 11.0175 61.0716 10.7638 59.975L11.5775 59.7872C11.8253 60.8613 12.1216 61.9387 12.4571 62.9894L11.6626 63.2439ZM91.4692 59.0653L90.6521 58.8959C90.8758 57.8143 91.0569 56.7119 91.1913 55.6186L92.0191 55.7196C91.8823 56.8354 91.697 57.9612 91.4692 59.0653ZM10.4166 58.3159C10.208 57.2076 10.0444 56.0793 9.92923 54.9618L10.7596 54.875C10.8723 55.97 11.0333 57.0758 11.237 58.1615L10.4174 58.3151L10.4166 58.3159ZM92.1894 54.0338L91.3573 53.9654C91.4466 52.8704 91.4917 51.7546 91.4917 50.6464V50.482L92.3262 50.4753V50.6464C92.3262 51.7763 92.2803 52.9163 92.1894 54.0338ZM9.78819 53.2727C9.73394 52.4064 9.7064 51.5226 9.70557 50.6472C9.70557 50.3918 9.70807 50.1381 9.71224 49.8836L10.5468 49.8986C10.5426 50.1481 10.5401 50.3977 10.5401 50.6472C10.5401 51.5051 10.5677 52.3714 10.6211 53.221L9.78819 53.2727ZM91.4525 48.8204C91.4024 47.7154 91.3081 46.6021 91.1696 45.5105L91.9974 45.4062C92.1385 46.5195 92.2353 47.6553 92.2862 48.7828L91.4525 48.8204ZM10.6111 48.2387L9.77817 48.1894C9.8441 47.0653 9.95677 45.9311 10.1145 44.8162L10.9407 44.9339C10.7863 46.0254 10.6762 47.1379 10.6111 48.2387ZM90.9275 43.869C90.7439 42.779 90.5128 41.6858 90.2407 40.6184L91.0494 40.4131C91.3273 41.5022 91.5626 42.618 91.7504 43.7304L90.9275 43.869ZM11.2069 43.2948L10.3866 43.1429C10.5894 42.038 10.8414 40.9255 11.1352 39.8372L11.9413 40.0542C11.6534 41.1208 11.4064 42.2107 11.2078 43.2948H11.2069ZM89.7967 39.0194C89.4804 37.962 89.1157 36.9063 88.7135 35.879L89.4904 35.5743C89.9019 36.6225 90.2733 37.7016 90.5971 38.7799L89.7967 39.0194ZM12.407 38.4611L11.6108 38.2099C11.9497 37.1366 12.3377 36.0634 12.7642 35.0185L13.537 35.3348C13.1189 36.358 12.7383 37.4095 12.407 38.4611ZM88.0767 34.3492C87.6311 33.3377 87.1387 32.3346 86.6146 31.3682L87.3481 30.9701C87.8839 31.9566 88.3855 32.9797 88.8412 34.0121L88.0767 34.3492ZM14.1988 33.8068L13.4402 33.4596C13.9092 32.4348 14.4275 31.4183 14.9791 30.4368L15.7068 30.8458C15.166 31.8072 14.6595 32.8036 14.1988 33.8068ZM85.7942 29.9286C85.2284 28.9814 84.6167 28.0458 83.9757 27.1495L84.6542 26.6638C85.3085 27.5802 85.9327 28.5341 86.5103 29.4996L85.7942 29.9286ZM16.5506 29.4137L15.8404 28.9755C16.4337 28.0141 17.073 27.0686 17.739 26.1656L18.4108 26.6613C17.7582 27.546 17.1322 28.4715 16.5506 29.4137ZM82.9834 25.8184C82.3049 24.9463 81.5831 24.0934 80.8386 23.2814L81.4529 22.7172C82.2131 23.5443 82.9492 24.4155 83.6419 25.3052L82.9834 25.8184ZM19.4239 25.3427L18.773 24.8211C19.4782 23.9415 20.2284 23.0819 21.0012 22.2649L21.608 22.8391C20.8502 23.6394 20.1158 24.4823 19.4248 25.3436L19.4239 25.3427ZM79.6903 22.0813C78.9091 21.2985 78.0888 20.5391 77.2509 19.8255L77.7917 19.1896C78.6463 19.9181 79.4842 20.6926 80.2803 21.4913L79.6903 22.0813ZM22.773 21.6548L22.1905 21.0565C22.9992 20.2695 23.8479 19.5075 24.7133 18.7923L25.2449 19.4358C24.3962 20.136 23.565 20.8821 22.773 21.654V21.6548ZM75.964 18.7731C75.0927 18.0913 74.1856 17.4379 73.2667 16.832L73.7266 16.136C74.6638 16.7535 75.5901 17.4203 76.4781 18.1163L75.964 18.7731ZM26.546 18.4051L26.0411 17.74C26.9391 17.0581 27.8746 16.4047 28.8218 15.8013L29.2708 16.5057C28.3428 17.0974 27.4256 17.7366 26.546 18.4051ZM71.8597 15.9457C70.9125 15.3757 69.931 14.8399 68.9446 14.3508L69.3143 13.6031C70.3216 14.1021 71.3231 14.6496 72.2895 15.2305L71.8597 15.9457ZM30.6862 15.6402L30.2664 14.92C31.2437 14.3508 32.2518 13.8184 33.2633 13.3377L33.6222 14.0905C32.6316 14.562 31.6434 15.0836 30.6862 15.6402ZM67.4374 13.644C66.4334 13.1967 65.3944 12.7852 64.3479 12.4197L64.6224 11.6327C65.6907 12.0041 66.7522 12.4247 67.7771 12.8812L67.4374 13.644ZM35.1327 13.4078L34.8047 12.64C35.8379 12.1994 36.9036 11.7946 37.9727 11.4391L38.2356 12.2311C37.1882 12.5799 36.145 12.9755 35.1327 13.4078ZM62.7639 11.9039C61.7099 11.5843 60.6274 11.3047 59.5484 11.0736L59.7236 10.2565C60.8252 10.4935 61.9302 10.779 63.0059 11.1053L62.7639 11.9039ZM39.8237 11.7404L39.5934 10.9384C40.6733 10.6279 41.7824 10.3583 42.8874 10.1372L43.0509 10.9551C41.9677 11.172 40.8819 11.4358 39.8237 11.7395V11.7404ZM57.9168 10.7589C56.8361 10.572 55.7278 10.4284 54.6237 10.3308L54.6971 9.49959C55.8238 9.5989 56.9546 9.74662 58.0587 9.93523L57.9168 10.7589ZM44.6858 10.6655L44.5565 9.84092C45.6689 9.6665 46.8022 9.53631 47.9247 9.45286L47.9856 10.2857C46.8865 10.3667 45.7766 10.4944 44.6858 10.6655ZM52.9654 10.2198C51.8663 10.1681 50.7505 10.1589 49.6439 10.1973L49.6164 9.36273C50.7422 9.32517 51.8838 9.33101 53.0063 9.38693L52.9654 10.2198Z" fill="#FF7A00"/>
<path d="M75.636 43.2295C75.5926 39.2754 73.9944 35.5917 71.1378 32.8577C65.5012 27.4632 56.458 27.5257 50.8857 32.9587C48.1417 30.4033 44.6249 29.0104 40.816 29.053C36.8619 29.0964 33.1782 30.6937 30.4433 33.5512C25.1122 39.1219 25.1197 48.0165 30.3632 53.603C29.7323 54.2982 29.3375 55.2112 29.3375 56.2218C29.3375 58.38 31.0934 60.135 33.2508 60.135C33.5545 60.135 33.8466 60.0925 34.1304 60.0266C34.097 60.231 34.067 60.4363 34.067 60.65C34.067 62.8081 35.8229 64.5632 37.9802 64.5632C38.1871 64.5632 38.3858 64.5331 38.5836 64.5023C38.531 64.7585 38.5026 65.023 38.5026 65.2942C38.5026 67.4524 40.2585 69.2075 42.4158 69.2075C42.7062 69.2075 42.9875 69.1707 43.2595 69.1107C43.2579 69.1566 43.2454 69.2 43.2454 69.2467C43.2454 71.0343 44.6992 72.4881 46.4859 72.4881C47.6785 72.4881 48.7108 71.833 49.2733 70.8707L49.4895 71.0877C50.2564 71.8547 51.2637 72.2377 52.271 72.2377C53.2783 72.2377 54.2865 71.8547 55.0534 71.0877C55.7653 70.375 56.1183 69.3443 56.1225 68.2945C56.599 68.4847 57.1114 68.5891 57.6406 68.5891C58.7347 68.5891 59.762 68.1626 60.5356 67.389C61.3293 66.5953 61.7282 65.5621 61.7349 64.524C62.1872 64.6884 62.6596 64.781 63.1352 64.781C64.1834 64.781 65.2316 64.3821 66.0295 63.5843C67.2012 62.4117 67.5233 60.6107 66.9759 59.0894C68.0165 59.0843 69.0572 58.6871 69.8492 57.8951C70.8799 56.8644 71.2371 55.4332 70.9375 54.1071L71.3623 53.6981C74.1589 50.9007 75.6752 47.1828 75.6318 43.2279L75.636 43.2295ZM31.0075 56.221C31.0075 54.9834 32.0148 53.9769 33.2516 53.9769C34.4884 53.9769 35.4957 54.9834 35.4957 56.221C35.4957 57.4586 34.4884 58.4651 33.2516 58.4651C32.0148 58.4651 31.0075 57.4586 31.0075 56.221ZM35.7377 60.65C35.7377 59.4123 36.745 58.4059 37.9818 58.4059C39.2186 58.4059 40.226 59.4123 40.226 60.65C40.226 61.8876 39.2186 62.8941 37.9818 62.8941C36.745 62.8941 35.7377 61.8876 35.7377 60.65ZM40.1734 65.2942C40.1734 64.0566 41.1807 63.0501 42.4175 63.0501C43.6543 63.0501 44.6616 64.0566 44.6616 65.2942C44.6616 66.5319 43.6543 67.5384 42.4175 67.5384C41.1807 67.5384 40.1734 66.5319 40.1734 65.2942ZM46.4884 70.819C45.6213 70.819 44.917 70.1138 44.917 69.2467C44.917 68.3796 45.6222 67.6752 46.4884 67.6752C47.3547 67.6752 48.0599 68.3804 48.0599 69.2467C48.0599 70.113 47.3547 70.819 46.4884 70.819ZM68.6733 56.7159C67.7278 57.6598 66.1889 57.6598 65.2442 56.7159C65.1874 56.6591 65.1181 56.6241 65.0505 56.5874L54.8306 46.2372C54.5068 45.9101 53.9785 45.9059 53.6506 46.2297C53.3226 46.5544 53.3192 47.0818 53.6431 47.4106L64.9187 58.8281C65.8041 59.7812 65.7733 61.4862 64.8536 62.405C63.908 63.3506 62.37 63.3506 61.4244 62.405L57.9694 58.9491L57.8267 58.8023C57.8225 58.7981 57.8166 58.7964 57.8125 58.7922L49.749 50.7263C49.4227 50.4 48.8953 50.4 48.569 50.7263C48.2427 51.0526 48.2427 51.5801 48.569 51.9064L56.7718 60.1117L59.4198 62.8423C60.3128 63.8029 60.2869 65.2817 59.3589 66.2089C58.4426 67.1253 56.8327 67.1111 55.9431 66.2231L45.285 55.071C44.9662 54.7363 44.4379 54.7255 44.1049 55.0443C43.772 55.3622 43.7594 55.8913 44.0782 56.2235L53.719 66.3107C53.7449 66.35 53.7591 66.3942 53.7924 66.4301C54.6587 67.3614 54.7004 69.0848 53.8776 69.9085C52.9946 70.7914 51.5575 70.7923 50.6754 69.9085L49.6981 68.9279C49.5354 67.293 48.1676 66.007 46.4901 66.007C46.4108 66.007 46.3365 66.0245 46.2581 66.0303C46.304 65.7916 46.3324 65.5463 46.3324 65.2942C46.3324 63.1361 44.5765 61.381 42.4192 61.381C42.2122 61.381 42.0136 61.4111 41.8158 61.442C41.8684 61.1857 41.8967 60.9212 41.8967 60.65C41.8967 58.4918 40.1408 56.7367 37.9835 56.7367C37.6797 56.7367 37.3876 56.7793 37.1039 56.8452C37.1373 56.6408 37.1673 56.4355 37.1673 56.2218C37.1673 54.0637 35.4114 52.3086 33.2541 52.3086C32.7116 52.3086 32.1951 52.4204 31.7244 52.6207C26.9324 47.6844 26.8815 39.691 31.6518 34.7054C34.0728 32.1759 37.3351 30.7605 40.836 30.7229C44.1325 30.6628 47.2512 31.8921 49.6981 34.1354L43.3305 40.503C42.5577 41.2767 42.1312 42.304 42.1312 43.3981C42.1312 44.4922 42.5569 45.5195 43.3305 46.2923C44.8969 47.8588 47.3931 47.903 49.0138 46.3958L55.8396 40.0482L68.7351 53.351C69.6281 54.3115 69.6022 55.7904 68.675 56.7176L68.6733 56.7159ZM69.9444 52.2001L59.9197 41.8584C62.7731 42.1805 65.391 40.7367 66.7422 39.5149C67.0835 39.2061 67.1102 38.6804 66.8023 38.3382C66.4943 37.996 65.9669 37.9685 65.6239 38.2756C65.4253 38.4525 60.7125 42.5777 56.4388 38.3057C56.1217 37.9869 55.6101 37.9777 55.2804 38.2848L47.8746 45.1724C46.9166 46.0662 45.4361 46.0395 44.5089 45.1114C44.0507 44.6533 43.7987 44.0449 43.7987 43.3973C43.7987 42.7497 44.0507 42.1404 44.5089 41.6823L51.9289 34.2623C56.8536 29.3376 64.9529 29.2508 69.9827 34.0645C72.5131 36.4847 73.9277 39.7469 73.9661 43.2487C74.0045 46.7505 72.6625 50.0436 70.1972 52.5089L70.1864 52.5189C70.1054 52.4129 70.0362 52.3011 69.9427 52.201L69.9444 52.2001Z" fill="white"/>
</g>
</g>
</g>
<defs>
<clipPath id="clip0_15_526">
<rect width="101" height="100.98" fill="white" transform="translate(0.517578 0.160156)"/>
</clipPath>
<clipPath id="clip1_15_526">
<rect width="101" height="100.98" fill="white" transform="translate(0.517578 0.160156)"/>
</clipPath>
<clipPath id="clip2_15_526">
<rect width="100.981" height="100.98" fill="white" transform="translate(0.527161 0.160156)"/>
</clipPath>
</defs>
</svg>
