<svg width="102" height="102" viewBox="0 0 102 102" fill="none" xmlns="http://www.w3.org/2000/svg">
<g clip-path="url(#clip0_15_2068)">
<g clip-path="url(#clip1_15_2068)">
<path d="M50.6775 101.699C78.5675 101.699 101.177 79.0892 101.177 51.1992C101.177 23.3092 78.5675 0.699219 50.6775 0.699219C22.7875 0.699219 0.17749 23.3092 0.17749 51.1992C0.17749 79.0892 22.7875 101.699 50.6775 101.699Z" fill="#FF7A00"/>
<path d="M50.6775 101.699C78.5675 101.699 101.177 79.0892 101.177 51.1992C101.177 23.3092 78.5675 0.699219 50.6775 0.699219C22.7875 0.699219 0.17749 23.3092 0.17749 51.1992C0.17749 79.0892 22.7875 101.699 50.6775 101.699Z" fill="#FF7A00"/>
<path d="M0.77749 43.2992C0.57749 44.4992 0.47749 45.5992 0.37749 46.7992L54.9775 101.399C56.1775 101.299 57.3775 101.199 58.4775 100.999L0.77749 43.2992ZM2.87749 34.7992C2.57749 35.7992 2.17749 36.7992 1.97749 37.7992L64.0775 99.8992L67.0775 98.9992L2.87749 34.7992ZM1.67749 38.8992C1.37749 39.9992 1.17749 41.0992 0.97749 42.1992L59.6775 100.899C60.7775 100.699 61.8775 100.499 62.9775 100.199L1.67749 38.8992ZM8.17749 23.8992C7.67749 24.6992 7.17749 25.4992 6.67749 26.3992L75.4775 95.1992C76.2775 94.6992 77.1775 94.1992 77.9775 93.6992L8.17749 23.8992ZM10.3775 20.7992C9.77749 21.5992 9.27749 22.2992 8.77749 23.0992L78.7775 93.0992C79.5775 92.5992 80.2775 91.9992 81.0775 91.4992L10.3775 20.7992ZM6.17749 27.2992C5.67749 28.1992 5.27749 28.9992 4.87749 29.8992L71.8775 96.8992C72.7775 96.4992 73.6775 96.0992 74.4775 95.5992L6.17749 27.2992ZM4.47749 30.8992C4.07749 31.7992 3.67749 32.7992 3.37749 33.6992L68.1775 98.4992C69.0775 98.0992 70.0775 97.7992 70.9775 97.3992L4.47749 30.8992ZM15.3775 15.0992C14.6775 15.6992 14.0775 16.3992 13.4775 17.0992L84.7775 88.3992C85.4775 87.7992 86.0775 87.0992 86.7775 86.4992L15.3775 15.0992ZM96.2775 29.4992C91.2775 18.9992 82.7775 10.4992 72.2775 5.49922L96.2775 29.4992ZM0.27749 48.1992C0.17749 49.1992 0.17749 50.1992 0.17749 51.1992V52.0992L49.7775 101.699H50.6775C51.6775 101.699 52.6775 101.699 53.6775 101.599L0.27749 48.1992ZM28.6775 96.5992C30.7775 97.5992 32.9775 98.4992 35.2775 99.1992L2.57749 66.5992C3.27749 68.7992 4.17749 70.9992 5.17749 73.0992L28.6775 96.5992ZM0.87749 59.4992C1.17749 61.1992 1.57749 62.8992 1.97749 64.5992L37.2775 99.8992C38.9775 100.399 40.5775 100.699 42.3775 100.999L0.87749 59.4992ZM0.27749 53.4992C0.37749 54.9992 0.47749 56.3992 0.67749 57.7992L44.0775 101.199C45.4775 101.399 46.9775 101.499 48.3775 101.599L0.27749 53.4992ZM44.2775 1.09922C43.1775 1.19922 41.9775 1.39922 40.8775 1.59922L100.177 60.8992C100.377 59.7992 100.577 58.5992 100.677 57.4992L44.2775 1.09922ZM54.7775 0.899219C53.4775 0.799219 52.0775 0.699219 50.6775 0.699219L101.177 51.0992C101.177 49.6992 101.077 48.2992 100.977 46.9992L54.7775 0.899219ZM61.0775 1.79922C59.5775 1.49922 57.9775 1.19922 56.3775 0.999219L100.777 45.3992C100.577 43.7992 100.377 42.1992 99.9775 40.6992L61.0775 1.79922ZM12.7775 17.7992C12.1775 18.4992 11.5775 19.1992 10.9775 19.9992L81.8775 90.8992C82.5775 90.2992 83.3775 89.6992 84.0775 89.0992L12.7775 17.7992ZM69.7775 4.49922C67.5775 3.59922 65.2775 2.79922 62.8775 2.19922L99.5775 38.8992C98.9775 36.4992 98.2775 34.1992 97.2775 31.9992L69.7775 4.49922ZM39.7775 1.89922C38.6775 2.09922 37.6775 2.39922 36.6775 2.69922L99.1775 65.1992C99.4775 64.1992 99.7775 63.0992 99.9775 62.0992L39.7775 1.89922ZM6.77749 76.0992C11.2775 83.9992 17.7775 90.4992 25.6775 94.9992L6.77749 76.0992ZM49.2775 0.699219C47.9775 0.699219 46.7775 0.799219 45.5775 0.899219L100.877 56.1992C100.977 54.9992 101.077 53.6992 101.077 52.4992L49.2775 0.699219ZM21.1775 10.1992C20.3775 10.6992 19.6775 11.2992 18.9775 11.8992L89.9775 82.8992C90.5775 82.1992 91.1775 81.3992 91.6775 80.6992L21.1775 10.1992ZM18.1775 12.4992C17.4775 13.0992 16.7775 13.6992 16.0775 14.3992L87.4775 85.6992C88.0775 84.9992 88.7775 84.2992 89.3775 83.5992L18.1775 12.4992ZM35.4775 2.99922C34.4775 3.29922 33.4775 3.69922 32.5775 3.99922L97.7775 69.1992C98.1775 68.1992 98.4775 67.2992 98.7775 66.2992L35.4775 2.99922ZM24.4775 7.99922C23.6775 8.49922 22.8775 8.99922 22.0775 9.59922L92.2775 79.7992C92.7775 78.9992 93.3775 78.1992 93.8775 77.3992L24.4775 7.99922ZM31.5775 4.39922L28.8775 5.59922L96.1775 72.9992L97.3775 70.2992L31.5775 4.39922ZM27.8775 6.09922C26.9775 6.49922 26.1775 6.99922 25.2775 7.49922L94.2775 76.4992C94.7775 75.6992 95.1775 74.7992 95.6775 73.8992L27.8775 6.09922Z" fill="#FF7A00"/>
</g>
</g>
<g clip-path="url(#clip2_15_2068)">
<g clip-path="url(#clip3_15_2068)">
<g clip-path="url(#clip4_15_2068)">
<path d="M55.6475 40.8915H45.7075C44.5315 40.8915 43.6165 39.9665 43.6165 38.7765V24.6365C43.6165 23.4465 44.5315 22.5215 45.7085 22.5215H55.6465C56.8235 22.5215 57.7395 23.4465 57.7395 24.6355V38.7765C57.7395 39.9665 56.8245 40.8915 55.6475 40.8915Z" stroke="white" stroke-width="2" stroke-miterlimit="10" stroke-linecap="round" stroke-linejoin="round"/>
<path d="M78.5315 33.8857H57.7395V38.7757C57.7395 39.9657 56.8235 40.8907 55.6465 40.8907H45.7085C44.5315 40.8907 43.6155 39.9657 43.6155 38.7757V33.8857H22.8235C20.1435 33.8857 17.9855 36.0657 17.9855 38.7757V74.9887C17.9855 77.6977 20.1425 79.8787 22.8235 79.8787H78.5315C81.2115 79.8787 83.3695 77.6977 83.3695 74.9887V38.7747C83.3695 36.0647 81.2125 33.8847 78.5315 33.8847V33.8857ZM50.6775 32.8287C52.4835 32.8287 53.9475 31.3487 53.9475 29.5247C53.9475 27.6997 52.4835 26.2207 50.6775 26.2207C48.8715 26.2207 47.4075 27.7007 47.4075 29.5247C47.4075 31.3497 48.8715 32.8287 50.6775 32.8287Z" stroke="white" stroke-width="2" stroke-miterlimit="10" stroke-linecap="round" stroke-linejoin="round"/>
<path d="M51.5925 49.02H63.3625M51.5925 55.826H77.3545M51.5925 62.698H77.3545M51.5925 68.248H77.3545M35.0505 60.451C38.8065 60.451 41.8505 57.374 41.8505 53.579C41.8505 49.783 38.8065 46.707 35.0505 46.707C31.2945 46.707 28.2505 49.783 28.2505 53.579C28.2505 57.374 31.2945 60.451 35.0505 60.451ZM36.0975 63.689H33.8735C28.5775 63.689 24.3275 67.984 24.3275 73.337H45.6425C45.6425 68.05 41.3285 63.689 36.0975 63.689Z" stroke="white" stroke-width="2" stroke-miterlimit="10" stroke-linecap="round" stroke-linejoin="round"/>
</g>
</g>
</g>
<defs>
<clipPath id="clip0_15_2068">
<rect width="101" height="101" fill="white" transform="translate(0.17749 0.699219)"/>
</clipPath>
<clipPath id="clip1_15_2068">
<rect width="101" height="101" fill="white" transform="translate(0.17749 0.699219)"/>
</clipPath>
<clipPath id="clip2_15_2068">
<rect width="68" height="60" fill="white" transform="translate(16.6775 21.1992)"/>
</clipPath>
<clipPath id="clip3_15_2068">
<rect width="68" height="60" fill="white" transform="translate(16.6775 21.1992)"/>
</clipPath>
<clipPath id="clip4_15_2068">
<rect width="68" height="60" fill="white" transform="translate(16.6775 21.1992)"/>
</clipPath>
</defs>
</svg>
