<svg width="129" height="129" viewBox="0 0 129 129" fill="none" xmlns="http://www.w3.org/2000/svg">
<g clip-path="url(#clip0_15_801)">
<g clip-path="url(#clip1_15_801)">
<g clip-path="url(#clip2_15_801)">
<mask id="mask0_15_801" style="mask-type:luminance" maskUnits="userSpaceOnUse" x="14" y="14" width="102" height="102">
<path d="M64.7065 115.109C92.5298 115.109 115.085 92.5535 115.085 64.7302C115.085 36.9068 92.5298 14.3516 64.7065 14.3516C36.8832 14.3516 14.3279 36.9068 14.3279 64.7302C14.3279 92.5535 36.8832 115.109 64.7065 115.109Z" fill="white"/>
</mask>
<g mask="url(#mask0_15_801)">
<path d="M64.7065 115.109C92.5298 115.109 115.085 92.5535 115.085 64.7302C115.085 36.9068 92.5298 14.3516 64.7065 14.3516C36.8832 14.3516 14.3279 36.9068 14.3279 64.7302C14.3279 92.5535 36.8832 115.109 64.7065 115.109Z" fill="white"/>
<path d="M-10.8077 56.4993L-11.5134 57.2051L71.9905 140.709L72.6962 140.003L-10.8077 56.4993Z" fill="white"/>
<path d="M-8.11886 53.8372L-8.82458 54.543L74.6786 138.046L75.3843 137.34L-8.11886 53.8372Z" fill="white"/>
<path d="M-5.43172 51.1761L-6.13745 51.8818L77.3657 135.385L78.0715 134.679L-5.43172 51.1761Z" fill="white"/>
<path d="M-2.74288 48.515L-3.44861 49.2207L80.0553 132.725L80.761 132.019L-2.74288 48.515Z" fill="white"/>
<path d="M-0.0550138 45.8529L-0.760742 46.5586L82.7425 130.062L83.4482 129.356L-0.0550138 45.8529Z" fill="white"/>
<path d="M2.6331 43.1908L1.92737 43.8965L85.4313 127.4L86.137 126.695L2.6331 43.1908Z" fill="white"/>
<path d="M5.32096 40.5306L4.61523 41.2363L88.1184 124.74L88.8242 124.034L5.32096 40.5306Z" fill="white"/>
<path d="M8.00883 37.8685L7.3031 38.5742L90.8063 122.077L91.512 121.372L8.00883 37.8685Z" fill="white"/>
<path d="M10.6969 35.2074L9.99121 35.9131L93.4951 119.417L94.2008 118.711L10.6969 35.2074Z" fill="white"/>
<path d="M13.3865 32.5452L12.6808 33.251L96.184 116.754L96.8897 116.048L13.3865 32.5452Z" fill="white"/>
<path d="M16.0736 29.8851L15.3679 30.5908L98.8718 114.095L99.5775 113.389L16.0736 29.8851Z" fill="white"/>
<path d="M18.7608 27.223L18.0551 27.9287L101.559 111.433L102.265 110.727L18.7608 27.223Z" fill="white"/>
<path d="M21.4496 24.5628L20.7439 25.2686L104.248 108.772L104.954 108.067L21.4496 24.5628Z" fill="white"/>
<path d="M24.1374 21.8997L23.4316 22.6055L106.936 106.109L107.641 105.404L24.1374 21.8997Z" fill="white"/>
<path d="M26.8256 19.2376L26.1199 19.9434L109.624 103.447L110.329 102.742L26.8256 19.2376Z" fill="white"/>
<path d="M29.5133 16.5775L28.8076 17.2832L112.312 100.787L113.017 100.081L29.5133 16.5775Z" fill="white"/>
<path d="M32.2022 13.9154L31.4965 14.6211L115 98.1243L115.705 97.4186L32.2022 13.9154Z" fill="white"/>
<path d="M34.8893 11.2533L34.1836 11.959L117.687 95.4629L118.393 94.7572L34.8893 11.2533Z" fill="white"/>
<path d="M37.5782 8.5931L36.8724 9.29883L120.376 92.802L121.081 92.0963L37.5782 8.5931Z" fill="white"/>
<path d="M40.266 5.93099L39.5603 6.63672L123.063 90.1399L123.769 89.4342L40.266 5.93099Z" fill="white"/>
<path d="M42.9541 3.26986L42.2484 3.97559L125.752 87.4795L126.458 86.7738L42.9541 3.26986Z" fill="white"/>
<path d="M45.642 0.608725L44.9363 1.31445L128.439 84.8176L129.145 84.1119L45.642 0.608725Z" fill="white"/>
<path d="M48.3309 -2.05338L47.6251 -1.34766L131.128 82.1555L131.834 81.4498L48.3309 -2.05338Z" fill="white"/>
<path d="M51.018 -4.71452L50.3123 -4.00879L133.816 79.4951L134.522 78.7894L51.018 -4.71452Z" fill="white"/>
<path d="M53.7068 -7.37565L53.0011 -6.66992L136.504 76.8333L137.21 76.1275L53.7068 -7.37565Z" fill="white"/>
<path d="M56.3941 -10.7038L55.6884 -9.99805L139.192 73.5059L139.898 72.8001L56.3941 -10.7038Z" fill="white"/>
</g>
<path d="M64.6626 128.73C63.7603 128.73 62.8601 128.712 61.9629 128.674L61.4638 128.653L61.5058 127.655L62.0048 127.676C62.8871 127.712 63.7733 127.731 64.6646 127.731L65.473 127.728L65.478 128.726L64.6626 128.729V128.73ZM67.496 128.672L67.4451 127.675L67.9432 127.649C68.9362 127.598 69.9333 127.524 70.9054 127.428L71.4024 127.379L71.5002 128.372L71.0032 128.421C70.0151 128.518 69.0031 128.594 67.9951 128.646L67.496 128.672ZM59.4498 128.522L58.9527 128.478C57.9547 128.389 56.9457 128.275 55.9556 128.14L55.4606 128.072L55.5963 127.083L56.0903 127.151C57.0654 127.284 58.0575 127.396 59.0416 127.483L59.5386 127.527L59.4498 128.521V128.522ZM73.5023 128.13L73.3586 127.142L73.8526 127.07C74.8257 126.928 75.8108 126.76 76.7799 126.573L77.27 126.478L77.4596 127.457L76.9696 127.552C75.9855 127.742 74.9844 127.912 73.9954 128.056L73.5013 128.128L73.5023 128.13ZM53.4675 127.75L52.9774 127.66C51.9923 127.477 50.9993 127.268 50.0252 127.04L49.5391 126.926L49.7677 125.954L50.2537 126.068C51.2129 126.293 52.1899 126.499 53.1601 126.677L53.6511 126.768L53.4694 127.749L53.4675 127.75ZM79.4317 127.027L79.1962 126.057L79.6813 125.939C80.6354 125.706 81.5995 125.447 82.5487 125.168L83.0267 125.028L83.3082 125.985L82.8301 126.126C81.867 126.409 80.8859 126.672 79.9168 126.909L79.4317 127.027ZM47.5849 126.417L47.1059 126.28C46.1398 126.004 45.1687 125.701 44.2185 125.38L43.7454 125.22L44.0648 124.275L44.5379 124.435C45.4731 124.751 46.4292 125.049 47.3793 125.32L47.8594 125.458L47.5849 126.417ZM85.2314 125.368L84.9041 124.425L85.3751 124.261C86.3063 123.938 87.2425 123.589 88.1577 123.221L88.6208 123.036L88.9921 123.962L88.529 124.147C87.5988 124.521 86.6487 124.875 85.7025 125.203L85.2304 125.367L85.2314 125.368ZM41.8432 124.527L41.3781 124.344C40.4449 123.979 39.5077 123.586 38.5915 123.175L38.1354 122.971L38.5436 122.06L38.9987 122.263C39.9 122.666 40.8231 123.054 41.7424 123.414L42.2064 123.596L41.8422 124.525L41.8432 124.527ZM90.8415 123.171L90.4263 122.264L90.8804 122.057C91.7806 121.644 92.6779 121.208 93.5462 120.761L93.9893 120.532L94.4464 121.42L94.0033 121.648C93.121 122.103 92.2108 122.547 91.2956 122.965L90.8415 123.171ZM36.31 122.101L35.8648 121.876C34.9696 121.423 34.0733 120.943 33.202 120.45L32.7679 120.203L33.2599 119.335L33.6941 119.581C34.5514 120.067 35.4337 120.539 36.315 120.986L36.7601 121.211L36.31 122.101ZM96.214 120.455L95.7149 119.59L96.1471 119.341C96.9984 118.85 97.8508 118.331 98.6801 117.799L99.1003 117.529L99.6393 118.37L99.2191 118.639C98.3767 119.18 97.5114 119.707 96.6461 120.206L96.214 120.455ZM31.0343 119.165L30.6121 118.899C29.7677 118.366 28.9214 117.804 28.097 117.229L27.6878 116.943L28.2587 116.125L28.6679 116.411C29.4793 116.977 30.3117 117.53 31.1431 118.054L31.5652 118.321L31.0343 119.165ZM101.31 117.24L100.732 116.425L101.139 116.137C101.941 115.569 102.74 114.972 103.518 114.363L103.911 114.054L104.527 114.84L104.133 115.148C103.344 115.767 102.532 116.374 101.717 116.95L101.31 117.24ZM26.06 115.748L25.6648 115.443C24.8683 114.83 24.0788 114.191 23.3183 113.546L22.9381 113.223L23.5838 112.462L23.9641 112.785C24.7126 113.419 25.4891 114.048 26.2736 114.653L26.6688 114.957L26.06 115.748ZM106.085 113.561L105.433 112.806L105.81 112.479C106.557 111.835 107.297 111.167 108.013 110.489L108.375 110.146L109.062 110.87L108.7 111.214C107.973 111.902 107.22 112.583 106.463 113.236L106.085 113.561ZM21.429 111.881L21.0637 111.541C20.3302 110.856 19.6046 110.148 18.906 109.433L18.5576 109.076L19.2712 108.378L19.6206 108.735C20.3072 109.438 21.0218 110.137 21.7444 110.81L22.1097 111.151L21.429 111.881ZM110.493 109.448L109.773 108.756L110.12 108.396C110.803 107.686 111.478 106.949 112.127 106.207L112.455 105.832L113.207 106.489L112.878 106.864C112.219 107.618 111.533 108.365 110.839 109.088L110.493 109.448ZM17.1813 107.6L16.85 107.226C16.1833 106.477 15.5276 105.703 14.8998 104.927L14.5864 104.539L15.3629 103.912L15.6763 104.3C16.2941 105.065 16.9398 105.826 17.5955 106.565L17.9279 106.938L17.1813 107.602V107.6ZM114.501 104.939L113.72 104.318L114.03 103.927C114.648 103.15 115.252 102.353 115.825 101.559L116.116 101.153L116.926 101.737L116.633 102.141C116.051 102.949 115.437 103.758 114.811 104.547L114.5 104.938L114.501 104.939ZM13.3558 102.942L13.0604 102.54C12.4715 101.736 11.8907 100.905 11.3357 100.068L11.0603 99.6523L11.8917 99.1003L12.1671 99.5165C12.714 100.34 13.2849 101.158 13.8658 101.949L14.1602 102.351L13.3558 102.942ZM118.068 100.072L117.233 99.5275L117.505 99.1093C118.041 98.2889 118.567 97.4386 119.07 96.5823L119.323 96.1521L120.183 96.6581L119.931 97.0883C119.42 97.9576 118.885 98.8209 118.341 99.6553L118.068 100.072ZM9.98438 97.9486L9.72888 97.5204C9.21987 96.6681 8.71985 95.7868 8.24478 94.9005L8.00924 94.4614L8.88852 93.9893L9.12406 94.4285C9.59215 95.3018 10.0842 96.1701 10.5852 97.0084L10.8407 97.4366L9.98438 97.9486ZM121.166 94.8906L120.282 94.4265L120.514 93.9843C120.975 93.106 121.419 92.2098 121.834 91.3195L122.045 90.8674L122.949 91.2896L122.738 91.7417C122.317 92.646 121.865 93.5562 121.397 94.4484L121.166 94.8906ZM7.10101 92.6629L6.88643 92.2118C6.45926 91.3136 6.04507 90.3884 5.65783 89.4642L5.46521 89.0041L6.38541 88.6178L6.57803 89.0779C6.96029 89.9881 7.36749 90.8974 7.78767 91.7826L8.00225 92.2337L7.10101 92.6629ZM123.762 89.4362L122.839 89.058L123.029 88.5969C123.403 87.6816 123.761 86.7465 124.091 85.8173L124.257 85.3472L125.197 85.6815L125.031 86.1516C124.695 87.0958 124.332 88.0449 123.951 88.9751L123.762 89.4362ZM4.73064 87.1247L4.55997 86.6556C4.21864 85.7185 3.89427 84.7573 3.59486 83.7972L3.44715 83.3202L4.40029 83.0237L4.549 83.4998C4.84342 84.445 5.1628 85.3911 5.49914 86.3133L5.66981 86.7824L4.73264 87.1247H4.73064ZM125.831 83.7563L124.875 83.4669L125.02 82.9888C125.306 82.0417 125.573 81.0785 125.812 80.1264L125.934 79.6423L126.902 79.8859L126.78 80.3699C126.537 81.337 126.266 82.3151 125.975 83.2772L125.83 83.7553L125.831 83.7563ZM2.89223 81.38L2.76747 80.8969C2.51696 79.9328 2.28542 78.9447 2.07782 77.9606L1.97502 77.4726L2.95211 77.267L3.05491 77.755C3.25852 78.7241 3.48707 79.6962 3.73359 80.6454L3.85934 81.1284L2.89323 81.379L2.89223 81.38ZM127.35 77.9187L126.372 77.7221L126.471 77.233C126.665 76.2669 126.84 75.2829 126.989 74.3088L127.064 73.8157L128.051 73.9664L127.975 74.4605C127.824 75.4495 127.647 76.4496 127.45 77.4307L127.351 77.9197L127.35 77.9187ZM1.60674 75.4865L1.5269 74.9934C1.36721 74.0034 1.22948 72.9973 1.1167 72.0053L1.05981 71.5092L2.05187 71.3965L2.10776 71.8925C2.21855 72.8696 2.35528 73.8586 2.51197 74.8337L2.59182 75.3268L1.60674 75.4865ZM128.307 71.9633L127.314 71.8595L127.366 71.3635C127.469 70.3844 127.549 69.3884 127.605 68.4033L127.633 67.9043L128.63 67.9612L128.601 68.4592C128.544 69.4592 128.462 70.4713 128.358 71.4663L128.307 71.9633ZM0.881159 69.4992L0.848223 69.0011C0.805307 68.3474 0.771373 67.6907 0.74742 67.032C0.734445 66.6827 0.725463 66.3353 0.718477 65.987L0.708496 65.488L1.70655 65.468L1.71653 65.967C1.72351 66.3094 1.73349 66.6527 1.74447 66.996C1.76843 67.6448 1.80136 68.2905 1.84428 68.9343L1.87721 69.4323L0.881159 69.4992ZM127.629 61.5567C127.58 60.5676 127.506 59.5705 127.411 58.5945L127.363 58.0974L128.356 58.0006L128.404 58.4976C128.501 59.4887 128.575 60.5017 128.626 61.5068L127.629 61.5567ZM128.666 62.429C128.694 63.2134 128.707 63.9939 128.707 64.7714L128.699 65.9441L127.7 65.9331L127.709 64.7704C127.709 64.0039 127.695 63.2354 127.669 62.4639L128.666 62.429ZM1.71254 63.4969L0.714484 63.4699L0.727459 62.9709C0.754406 61.9729 0.805307 60.9588 0.878165 59.9588L0.915093 59.4608L1.91015 59.5336L1.87322 60.0316C1.80136 61.0167 1.75146 62.0138 1.72551 62.9969L1.71154 63.4959L1.71254 63.4969ZM2.10078 57.5715L1.10971 57.4517L1.1696 56.9557C1.28936 55.9686 1.43508 54.9635 1.60275 53.9705L1.68559 53.4784L2.66967 53.6451L2.58683 54.1372C2.42115 55.1152 2.27743 56.1043 2.16066 57.0754L2.10078 57.5715ZM127.127 56.1412L127.056 55.6472C126.915 54.6741 126.748 53.689 126.562 52.7189L126.467 52.2289L127.447 52.0403L127.541 52.5303C127.73 53.5154 127.899 54.5164 128.042 55.5045L128.114 55.9985L127.127 56.1412ZM3.04693 51.7109L2.07183 51.4973L2.17862 51.0103C2.39221 50.0332 2.63274 49.0471 2.89223 48.079L3.02198 47.5969L3.98609 47.8564L3.85635 48.3385C3.60085 49.2906 3.36331 50.2617 3.15272 51.2238L3.04693 51.7109ZM126.048 50.3036L125.93 49.8186C125.698 48.8625 125.44 47.8983 125.161 46.9502L125.021 46.4711L125.979 46.1907L126.12 46.6697C126.402 47.6329 126.663 48.6129 126.899 49.5841L127.017 50.0691L126.048 50.3036ZM4.546 45.9581L3.59586 45.6527L3.74856 45.1777C4.05696 44.2175 4.39031 43.2564 4.74062 42.3222L4.91628 41.8551L5.85045 42.2055L5.67579 42.6726C5.33047 43.5928 5.00211 44.5379 4.6987 45.4831L4.546 45.9581ZM124.424 44.5928L124.26 44.1207C123.936 43.1846 123.587 42.2484 123.223 41.3382L123.038 40.8751L123.965 40.5048L124.15 40.9679C124.52 41.8931 124.875 42.8432 125.204 43.7944L125.368 44.2654L124.424 44.5928ZM6.58602 40.37L5.66881 39.9758L5.86542 39.5177C6.26065 38.5985 6.68283 37.6733 7.12297 36.7711L7.34154 36.322L8.23879 36.7591L8.02022 37.2082C7.58706 38.0975 7.17087 39.0067 6.78263 39.9119L6.58602 40.37ZM122.265 39.0686L122.057 38.6145C121.65 37.7212 121.215 36.824 120.765 35.9477L120.536 35.5046L121.424 35.0474L121.652 35.4916C122.109 36.3818 122.552 37.2931 122.966 38.2003L123.173 38.6544L122.265 39.0686ZM9.14502 35.0025L8.26973 34.5235L8.50926 34.0863C8.99032 33.205 9.49933 32.3248 10.0193 31.4714L10.2788 31.0453L11.1311 31.5652L10.8716 31.9914C10.3596 32.8318 9.85962 33.6971 9.38455 34.5654L9.14502 35.0025ZM119.598 33.7769L119.349 33.3448C118.857 32.4904 118.338 31.6381 117.809 30.8097L117.539 30.3895L118.38 29.8516L118.649 30.2718C119.187 31.1121 119.713 31.9784 120.213 32.8467L120.463 33.2789L119.598 33.7769ZM12.1981 29.9035L11.3707 29.3446L11.6501 28.9304C12.211 28.101 12.7989 27.2736 13.3977 26.4702L13.6961 26.071L14.4956 26.6678L14.1972 27.068C13.6073 27.8585 13.0274 28.6729 12.4755 29.4903L12.1961 29.9035H12.1981ZM116.439 28.7587L116.151 28.3515C115.583 27.5491 114.986 26.7487 114.379 25.9712L114.072 25.5779L114.859 24.9631L115.166 25.3564C115.783 26.1468 116.389 26.9592 116.966 27.7746L117.255 28.1819L116.439 28.7587ZM15.7142 25.1158L14.9437 24.4821L15.2601 24.0968C15.8938 23.3253 16.5575 22.5568 17.2302 21.8113L17.5646 21.441L18.3051 22.1097L17.9708 22.48C17.3071 23.2136 16.6554 23.9701 16.0306 24.7286L15.7132 25.1138L15.7142 25.1158ZM112.823 24.0549L112.497 23.6767C111.855 22.9311 111.187 22.1896 110.509 21.472L110.166 21.1097L110.891 20.424L111.234 20.7873C111.922 21.5159 112.602 22.2694 113.253 23.0269L113.578 23.4052L112.822 24.0559L112.823 24.0549ZM19.6625 20.6795L18.9549 19.9759L19.3062 19.6216C20.0178 18.905 20.7504 18.2023 21.4819 17.5327L21.8502 17.1953L22.5239 17.9319L22.1556 18.2682C21.436 18.9279 20.7154 19.6196 20.0148 20.3252L19.6625 20.6785V20.6795ZM108.779 19.7094L108.42 19.3631C107.71 18.6794 106.974 18.0027 106.233 17.353L105.858 17.0236L106.516 16.2731L106.891 16.6025C107.644 17.2622 108.391 17.9498 109.113 18.6445L109.472 18.9908L108.779 19.7094ZM24.007 16.6334L23.3672 15.8669L23.7505 15.5475C24.514 14.9098 25.3084 14.279 26.1109 13.6712L26.5081 13.3698L27.1109 14.1652L26.7127 14.4666C25.9232 15.0655 25.1418 15.6863 24.3892 16.314L24.007 16.6334ZM104.345 15.7581L103.955 15.4467C103.185 14.8329 102.389 14.2291 101.588 13.6502L101.184 13.3578L101.769 12.5484L102.173 12.8408C102.987 13.4287 103.795 14.0435 104.577 14.6663L104.967 14.9776L104.345 15.7581ZM28.7078 13.0155L28.1439 12.1921L28.5561 11.9096C29.3795 11.3457 30.2288 10.7918 31.0802 10.2648L31.5043 10.0024L32.0293 10.8517L31.6052 11.1142C30.7668 11.6332 29.9304 12.1781 29.12 12.734L28.7078 13.0165V13.0155ZM99.5574 12.239L99.1403 11.9665C98.3129 11.4256 97.4635 10.8986 96.6152 10.3996L96.185 10.1461L96.691 9.28576L97.1212 9.53827C97.9835 10.0453 98.8468 10.5812 99.6872 11.1312L100.104 11.4046L99.5574 12.239ZM33.727 9.85565L33.243 8.98235L33.6791 8.74082C34.5554 8.25477 35.4526 7.78369 36.3459 7.34156L36.793 7.11999L37.2352 8.01424L36.788 8.23581C35.9087 8.67096 35.0255 9.13406 34.1632 9.61212L33.727 9.85565ZM94.4614 9.18396L94.0202 8.95141C93.138 8.48832 92.2417 8.04219 91.3564 7.629L90.9043 7.41741L91.3265 6.51317L91.7786 6.72376C92.6779 7.14494 93.5881 7.59706 94.4833 8.06814L94.9255 8.29969L94.4614 9.18296V9.18396ZM39.0167 7.18586L38.6165 6.27065L39.0736 6.07104C39.9898 5.66982 40.9299 5.28457 41.8651 4.92727L42.3312 4.74962L42.6875 5.6818L42.2214 5.86045C41.3012 6.21176 40.376 6.59002 39.4738 6.98525L39.0167 7.18586ZM89.0939 6.62296L88.6328 6.43333C87.7225 6.05906 86.7874 5.69976 85.8552 5.36841L85.3851 5.20074L85.7195 4.26057L86.1895 4.42725C87.1367 4.76459 88.0858 5.12988 89.012 5.51013L89.4731 5.69976L89.0939 6.62296ZM44.5469 5.02309L44.2355 4.07494L44.7096 3.91924C45.6637 3.60585 46.6348 3.31243 47.5979 3.04595L48.079 2.91321L48.3455 3.87533L47.8644 4.00807C46.9162 4.26956 45.9601 4.55899 45.0219 4.86739L44.5469 5.02309ZM83.5068 4.57995L83.0297 4.43523C82.0836 4.14779 81.1204 3.88032 80.1683 3.63979L79.6842 3.51703L79.9288 2.54892L80.4128 2.67168C81.3809 2.9162 82.359 3.18867 83.3192 3.4801L83.7972 3.62581L83.5068 4.57995ZM50.2557 3.39526L50.0352 2.42117L50.5222 2.31138C51.4943 2.09181 52.4894 1.8912 53.4794 1.71654L53.9705 1.62971L54.1441 2.61279L53.6521 2.69962C52.678 2.87229 51.6979 3.0689 50.7408 3.28548L50.2537 3.39526H50.2557ZM77.763 3.07988L77.2739 2.98107C76.3088 2.78546 75.3248 2.6098 74.3507 2.46109L73.8566 2.38524L74.0083 1.39816L74.5014 1.47402C75.4914 1.62572 76.4915 1.80437 77.4716 2.00199L77.9606 2.10179L77.763 3.07988ZM56.0943 2.31438L55.9676 1.32431L56.4626 1.26043C57.4507 1.13368 58.4587 1.02789 59.4617 0.94505L59.9598 0.90413L60.0416 1.89919L59.5446 1.94011C58.5575 2.02095 57.5635 2.12574 56.5914 2.2505L56.0963 2.31338L56.0943 2.31438ZM71.9015 2.13073L71.4044 2.07784C70.4293 1.97504 69.4333 1.8932 68.4452 1.83531L67.9472 1.80637L68.0051 0.809315L68.5041 0.838258C69.5081 0.897143 70.5201 0.979981 71.5102 1.08478L72.0062 1.13668L71.9015 2.12974V2.13073ZM62.0088 1.78441L61.9738 0.78636L62.4729 0.769393C63.2324 0.743443 63.9909 0.730469 64.7474 0.730469L65.987 0.740449L65.975 1.7385L64.7474 1.72852C64.0029 1.72852 63.2563 1.74149 62.5058 1.76744L62.0068 1.78541L62.0088 1.78441Z" fill="white"/>
<path d="M64.6796 120.307C34.9487 120.307 10.2439 96.6782 9.16602 66.7297C8.06517 36.1055 32.0833 10.2939 62.7074 9.19204C93.3546 8.0852 119.143 32.1083 120.245 62.7325C121.347 93.3567 97.3288 119.168 66.7036 120.27C66.027 120.294 65.3513 120.307 64.6796 120.307ZM64.7315 10.1532C64.0698 10.1532 63.4091 10.1651 62.7434 10.1891C32.6691 11.271 9.08119 36.6195 10.1631 66.6937C11.246 96.768 36.6024 120.355 66.6677 119.273C96.742 118.191 120.33 92.8427 119.248 62.7684C118.189 33.3598 93.9255 10.1532 64.7315 10.1532Z" fill="white"/>
<path d="M67.8793 90.4263C67.7955 90.4263 67.7106 90.4163 67.6288 90.3953L56.4536 87.6018L56.283 87.984C55.6232 89.4672 54.1501 90.4263 52.5313 90.4263H46.1877C45.6168 90.4263 45.1517 89.9622 45.1517 89.3903V87.3563H40.0487C39.4778 87.3563 39.0127 86.8922 39.0127 86.3203V64.8323C39.0127 64.2614 39.4778 63.7963 40.0487 63.7963H55.4626L55.5274 63.7783C56.6143 63.4779 62.1814 61.905 65.0199 60.4818C67.7316 59.1234 69.9133 53.3537 69.9133 49.4832C69.9133 48.9124 70.3784 48.4473 70.9493 48.4473C72.8995 48.4473 74.7479 49.2946 76.0204 50.7717C77.2979 52.2538 77.8658 54.214 77.5764 56.1512C77.2919 58.0615 76.7729 60.8221 75.9226 63.1246L75.6741 63.7963H83.2283C85.4929 63.7963 87.3333 65.6377 87.3333 67.9013C87.3333 68.9123 86.961 69.8834 86.2864 70.6379L85.9879 70.9703L86.2864 71.3026C86.961 72.0571 87.3333 73.0283 87.3333 74.0393C87.3333 75.8857 86.0897 77.5145 84.3082 78.0005L83.7703 78.1473L83.9759 78.6662C84.1665 79.1483 84.2643 79.6573 84.2643 80.1783C84.2643 82.0247 83.0197 83.6535 81.2382 84.1396L80.7003 84.2863L80.9059 84.8053C81.0965 85.2873 81.1943 85.7963 81.1943 86.3183C81.1943 88.5819 79.3529 90.4233 77.0893 90.4233H67.8793V90.4263ZM71.8715 51.2089C71.3406 55.5284 69.1359 60.7373 65.9491 62.3341C63.3651 63.6286 58.828 64.991 56.9976 65.5169L56.6363 65.6207V85.5119L68.0071 88.3543H77.0893C78.2111 88.3543 79.1234 87.4421 79.1234 86.3203C79.1234 85.1985 78.2111 84.2863 77.0893 84.2863H74.0203C73.4494 84.2863 72.9843 83.8212 72.9843 83.2503C72.9843 82.6794 73.4494 82.2143 74.0203 82.2143H80.1593C81.2801 82.2143 82.1924 81.3021 82.1924 80.1803C82.1924 79.0585 81.2801 78.1463 80.1593 78.1463H74.0203C73.4494 78.1463 72.9843 77.6812 72.9843 77.1103C72.9843 76.5394 73.4494 76.0743 74.0203 76.0743H83.2293C84.3511 76.0743 85.2634 75.1621 85.2634 74.0403C85.2634 72.9185 84.3511 72.0063 83.2293 72.0063H74.0203C73.4494 72.0063 72.9843 71.5412 72.9843 70.9703C72.9843 70.3994 73.4494 69.9343 74.0203 69.9343H83.2293C84.3511 69.9343 85.2634 69.0221 85.2634 67.9003C85.2634 66.7785 84.3511 65.8662 83.2293 65.8662H74.0203C73.664 65.8662 73.3267 65.6776 73.138 65.3742C72.9494 65.0668 72.9314 64.6895 73.0931 64.3662C73.9315 62.6904 74.8108 60.6514 75.5264 55.8428C75.726 54.5024 75.3358 53.1461 74.4525 52.1211C73.9375 51.5253 73.2758 51.0671 72.5382 50.7977L71.9474 50.5821L71.8715 51.2059V51.2089ZM47.2227 88.3543H52.5313C53.6521 88.3543 54.5643 87.4421 54.5643 86.3203V65.8682H47.2227V88.3543ZM41.0836 85.2843H45.1517V65.8682H41.0836V85.2843Z" fill="black"/>
<path d="M72.4843 44.3807C71.9135 44.3807 71.4484 43.9166 71.4484 43.3448V40.0702C71.4484 39.4993 71.9135 39.0342 72.4843 39.0342C73.0552 39.0342 73.5203 39.4993 73.5203 40.0702V43.3448C73.5203 43.9156 73.0552 44.3807 72.4843 44.3807Z" fill="black"/>
<path d="M62.7164 48.4263C62.4399 48.4263 62.1794 48.3185 61.9838 48.1229L59.8131 45.9521C59.6174 45.7565 59.5096 45.496 59.5096 45.2196C59.5096 44.9431 59.6164 44.6826 59.8131 44.487C60.0087 44.2914 60.2692 44.1836 60.5456 44.1836C60.8221 44.1836 61.0816 44.2904 61.2772 44.486L63.4489 46.6568C63.6446 46.8524 63.7524 47.1129 63.7524 47.3893C63.7524 47.6658 63.6456 47.9263 63.4489 48.1219C63.2533 48.3175 62.9928 48.4253 62.7164 48.4253V48.4263Z" fill="black"/>
<path d="M55.6003 58.194C55.0294 58.194 54.5643 57.7289 54.5643 57.158C54.5643 56.5872 55.0294 56.1221 55.6003 56.1221H58.6703C59.2412 56.1221 59.7063 56.5862 59.7063 57.158C59.7063 57.7299 59.2412 58.194 58.6703 58.194H55.6003Z" fill="black"/>
<path d="M86.2983 58.194C85.7274 58.194 85.2623 57.7289 85.2623 57.158C85.2623 56.5872 85.7274 56.1221 86.2983 56.1221H89.3673C89.9382 56.1221 90.4033 56.5862 90.4033 57.158C90.4033 57.7299 89.9382 58.194 89.3673 58.194H86.2983Z" fill="black"/>
<path d="M82.2523 48.4263C81.9758 48.4263 81.7153 48.3185 81.5197 48.1229C81.3241 47.9273 81.2163 47.6668 81.2163 47.3903C81.2163 47.1139 81.3231 46.8534 81.5197 46.6578L83.6905 44.487C83.8861 44.2914 84.1466 44.1836 84.422 44.1836C84.6975 44.1836 84.959 44.2914 85.1546 44.487C85.3502 44.6826 85.458 44.9431 85.458 45.2196C85.458 45.496 85.3512 45.7565 85.1546 45.9521L82.9839 48.1229C82.7882 48.3185 82.5277 48.4263 82.2523 48.4263Z" fill="black"/>
</g>
</g>
</g>
<defs>
<clipPath id="clip0_15_801">
<rect width="128" height="128" fill="white" transform="translate(0.70752 0.730469)"/>
</clipPath>
<clipPath id="clip1_15_801">
<rect width="128" height="128" fill="white" transform="translate(0.70752 0.730469)"/>
</clipPath>
<clipPath id="clip2_15_801">
<rect width="127.998" height="128" fill="white" transform="translate(0.708496 0.730469)"/>
</clipPath>
</defs>
</svg>
