<svg width="25" height="26" viewBox="0 0 25 26" fill="none" xmlns="http://www.w3.org/2000/svg">
<g clip-path="url(#clip0_15_677)">
<g clip-path="url(#clip1_15_677)">
<g clip-path="url(#clip2_15_677)">
<path d="M12.5 19.1853L17.3216 14.3648C18.275 13.4112 18.9243 12.1964 19.1873 10.8738C19.4503 9.55121 19.3152 8.18037 18.7991 6.93456C18.283 5.68877 17.4091 4.62398 16.2879 3.87484C15.1667 3.1257 13.8485 2.72585 12.5 2.72585C11.1515 2.72585 9.83339 3.1257 8.71217 3.87484C7.59095 4.62398 6.71705 5.68877 6.20097 6.93456C5.68488 8.18037 5.54979 9.55121 5.81278 10.8738C6.07576 12.1964 6.72502 13.4112 7.67844 14.3648L12.5 19.1853ZM18.9284 15.9716L12.5 22.4001L6.07163 15.9716C4.80029 14.7002 3.9345 13.0804 3.58377 11.3169C3.23303 9.55348 3.41309 7.72562 4.10117 6.06449C4.78926 4.40338 5.95446 2.9836 7.44944 1.9847C8.94442 0.985797 10.702 0.452637 12.5 0.452637C14.2981 0.452637 16.0556 0.985797 17.5506 1.9847C19.0456 2.9836 20.2108 4.40338 20.8989 6.06449C21.587 7.72562 21.767 9.55348 21.4163 11.3169C21.0656 13.0804 20.1998 14.7002 18.9284 15.9716ZM4.54549 23.1795H20.4546V25.4523H4.54549V23.1795Z" fill="#FF7A00"/>
</g>
</g>
</g>
<defs>
<clipPath id="clip0_15_677">
<rect width="25" height="25" fill="white" transform="translate(0 0.452148)"/>
</clipPath>
<clipPath id="clip1_15_677">
<rect width="25" height="25" fill="white" transform="translate(0 0.452148)"/>
</clipPath>
<clipPath id="clip2_15_677">
<rect width="18.1818" height="25" fill="white" transform="translate(3.40912 0.452148)"/>
</clipPath>
</defs>
</svg>
