<svg width="25" height="26" viewBox="0 0 25 26" fill="none" xmlns="http://www.w3.org/2000/svg">
<g clip-path="url(#clip0_15_672)">
<path d="M20.2206 23.6139H4.77944C4.48693 23.6139 4.20638 23.4976 3.99954 23.2908C3.79271 23.0839 3.6765 22.8034 3.6765 22.5109V12.5845H0.367676L11.7577 2.23003C11.9608 2.04526 12.2255 1.94287 12.5 1.94287C12.7746 1.94287 13.0392 2.04526 13.2423 2.23003L24.6324 12.5845H21.3236V22.5109C21.3236 22.8034 21.2074 23.0839 21.0005 23.2908C20.7937 23.4976 20.5131 23.6139 20.2206 23.6139ZM5.88238 21.408H19.1177V10.5517L12.5 4.53628L5.88238 10.5517V21.408ZM8.7401 15.6826C8.60032 15.0945 8.60032 14.4817 8.7401 13.8936L7.64709 13.2628L8.75003 11.3525L9.84304 11.9845C10.2819 11.5686 10.8123 11.2618 11.3916 11.0889V9.8271H13.5975V11.0889C14.1842 11.2642 14.7114 11.5742 15.146 11.9845L16.239 11.3525L17.3419 13.2617L16.2489 13.8936C16.3887 14.4817 16.3887 15.0945 16.2489 15.6826L17.3419 16.3135L16.239 18.2227L15.146 17.5918C14.7071 18.0072 14.1766 18.3136 13.5975 18.4863V19.7492H11.3916V18.4852C10.8124 18.3125 10.2819 18.0061 9.84304 17.5907L8.75003 18.2216L7.64709 16.3135L8.7401 15.6815V15.6826ZM12.4945 16.4414C12.7167 16.4495 12.9383 16.4128 13.1459 16.3334C13.3536 16.2539 13.5431 16.1334 13.7032 15.9792C13.8633 15.8248 13.9906 15.6398 14.0775 15.4352C14.1645 15.2306 14.2093 15.0105 14.2093 14.7881C14.2093 14.5658 14.1645 14.3457 14.0775 14.1411C13.9906 13.9364 13.8633 13.7514 13.7032 13.5971C13.5431 13.4428 13.3536 13.3223 13.1459 13.2429C12.9383 13.1634 12.7167 13.1267 12.4945 13.1348C12.0665 13.1504 11.6612 13.3315 11.3639 13.6398C11.0666 13.9482 10.9005 14.3598 10.9005 14.7881C10.9005 15.2164 11.0666 15.6281 11.3639 15.9364C11.6612 16.2448 12.0665 16.4258 12.4945 16.4414Z" fill="#FF7A00"/>
</g>
<defs>
<clipPath id="clip0_15_672">
<rect width="25" height="22.0588" fill="white" transform="translate(0 1.92285)"/>
</clipPath>
</defs>
</svg>
