<svg width="25" height="26" viewBox="0 0 25 26" fill="none" xmlns="http://www.w3.org/2000/svg">
<g clip-path="url(#clip0_15_666)">
<g clip-path="url(#clip1_15_666)">
<path d="M12.5 6.89145C14.911 6.89145 17.2233 7.84924 18.9282 9.55415C20.6331 11.259 21.5909 13.5713 21.5909 15.9823C21.5909 18.3934 20.6331 20.7057 18.9282 22.4106C17.2233 24.1155 14.911 25.0732 12.5 25.0732C10.0889 25.0732 7.7766 24.1155 6.07172 22.4106C4.36685 20.7057 3.40906 18.3934 3.40906 15.9823C3.40906 13.5713 4.36685 11.259 6.07172 9.55415C7.7766 7.84924 10.0889 6.89145 12.5 6.89145ZM12.5 9.16415C10.6917 9.16415 8.95744 9.88248 7.67878 11.1612C6.40013 12.4398 5.68178 14.1741 5.68178 15.9823C5.68178 17.7907 6.40013 19.5249 7.67878 20.8035C8.95744 22.0822 10.6917 22.8005 12.5 22.8005C14.3082 22.8005 16.0425 22.0822 17.3212 20.8035C18.5998 19.5249 19.3181 17.7907 19.3181 15.9823C19.3181 14.1741 18.5998 12.4398 17.3212 11.1612C16.0425 9.88248 14.3082 9.16415 12.5 9.16415ZM12.5 10.8687L14.0034 13.9142L17.3636 14.4028L14.9318 16.7721L15.5056 20.1198L12.5 18.5392L9.49429 20.1187L10.0681 16.7721L7.63633 14.4017L10.9966 13.913L12.5 10.8687ZM19.3181 1.20964V4.61873L17.7693 5.91191C16.484 5.23757 15.0807 4.81739 13.6363 4.6744V1.20964H19.3181ZM11.3636 1.2085V4.6744C9.91968 4.81718 8.51682 5.23696 7.23178 5.91077L5.68178 4.61873V1.20964L11.3636 1.2085Z" fill="#FF7A00"/>
</g>
</g>
<defs>
<clipPath id="clip0_15_666">
<rect width="25" height="25" fill="white" transform="translate(0 0.452148)"/>
</clipPath>
<clipPath id="clip1_15_666">
<rect width="18.1818" height="25" fill="white" transform="translate(3.40906 0.452148)"/>
</clipPath>
</defs>
</svg>
