<svg width="122" height="122" viewBox="0 0 122 122" fill="none" xmlns="http://www.w3.org/2000/svg">
<g clip-path="url(#clip0_15_1627)">
<g clip-path="url(#clip1_15_1627)">
<g clip-path="url(#clip2_15_1627)">
<mask id="mask0_15_1627" style="mask-type:luminance" maskUnits="userSpaceOnUse" x="16" y="16" width="90" height="90">
<path d="M60.8675 105.782C85.4403 105.782 105.361 85.8617 105.361 61.2889C105.361 36.7161 85.4403 16.7959 60.8675 16.7959C36.2947 16.7959 16.3745 36.7161 16.3745 61.2889C16.3745 85.8617 36.2947 105.782 60.8675 105.782Z" fill="white"/>
</mask>
<g mask="url(#mask0_15_1627)">
<path d="M60.8675 105.782C85.4403 105.782 105.361 85.8617 105.361 61.2889C105.361 36.7161 85.4403 16.7959 60.8675 16.7959C36.2947 16.7959 16.3745 36.7161 16.3745 61.2889C16.3745 85.8617 36.2947 105.782 60.8675 105.782Z" fill="#FF7A00"/>
<path d="M-5.82513 54.0197L-6.448 54.6426L67.3001 128.391L67.923 127.768L-5.82513 54.0197Z" fill="#FF7A00"/>
<path d="M-3.4505 51.6691L-4.07336 52.292L69.6748 126.04L70.2976 125.417L-3.4505 51.6691Z" fill="#FF7A00"/>
<path d="M-1.0766 49.3185L-1.69946 49.9414L72.0487 123.69L72.6715 123.067L-1.0766 49.3185Z" fill="#FF7A00"/>
<path d="M1.29791 46.968L0.675049 47.5908L74.4232 121.339L75.046 120.716L1.29791 46.968Z" fill="#FF7A00"/>
<path d="M3.67157 44.6183L3.04871 45.2412L76.7968 118.989L77.4197 118.366L3.67157 44.6183Z" fill="#FF7A00"/>
<path d="M6.04547 42.2658L5.42261 42.8887L79.1707 116.637L79.7936 116.014L6.04547 42.2658Z" fill="#FF7A00"/>
<path d="M8.41998 39.9172L7.79712 40.54L81.5453 114.288L82.1681 113.665L8.41998 39.9172Z" fill="#FF7A00"/>
<path d="M10.7939 37.5666L10.171 38.1895L83.9192 111.938L84.542 111.315L10.7939 37.5666Z" fill="#FF7A00"/>
<path d="M13.1685 35.216L12.5457 35.8389L86.2938 109.587L86.9167 108.964L13.1685 35.216Z" fill="#FF7A00"/>
<path d="M15.5424 32.8654L14.9196 33.4883L88.6677 107.236L89.2906 106.614L15.5424 32.8654Z" fill="#FF7A00"/>
<path d="M17.916 30.5148L17.2931 31.1377L91.0412 104.886L91.6641 104.263L17.916 30.5148Z" fill="#FF7A00"/>
<path d="M20.2899 28.1642L19.667 28.7871L93.4158 102.536L94.0387 101.913L20.2899 28.1642Z" fill="#FF7A00"/>
<path d="M22.6638 25.8146L22.0409 26.4375L95.789 100.186L96.4119 99.5628L22.6638 25.8146Z" fill="#FF7A00"/>
<path d="M25.0384 23.4631L24.4155 24.0859L98.1637 97.8341L98.7865 97.2112L25.0384 23.4631Z" fill="#FF7A00"/>
<path d="M27.4123 21.1125L26.7894 21.7354L100.538 95.4842L101.161 94.8613L27.4123 21.1125Z" fill="#FF7A00"/>
<path d="M29.7858 18.7619L29.163 19.3848L102.911 93.1329L103.534 92.51L29.7858 18.7619Z" fill="#FF7A00"/>
<path d="M32.1605 16.4123L31.5376 17.0352L105.286 90.7833L105.909 90.1604L32.1605 16.4123Z" fill="#FF7A00"/>
<path d="M34.5336 14.0607L33.9108 14.6836L107.659 88.4317L108.282 87.8089L34.5336 14.0607Z" fill="#FF7A00"/>
<path d="M36.909 11.7111L36.2861 12.334L110.034 86.0821L110.657 85.4593L36.909 11.7111Z" fill="#FF7A00"/>
<path d="M39.2818 9.35956L38.6589 9.98242L112.407 83.7306L113.03 83.1077L39.2818 9.35956Z" fill="#FF7A00"/>
<path d="M41.6564 7.00898L41.0336 7.63184L114.782 81.38L115.405 80.7571L41.6564 7.00898Z" fill="#FF7A00"/>
<path d="M44.0303 4.65937L43.4075 5.28223L117.156 79.0304L117.778 78.4075L44.0303 4.65937Z" fill="#FF7A00"/>
<path d="M46.405 2.3078L45.7821 2.93066L119.53 76.6788L120.153 76.0559L46.405 2.3078Z" fill="#FF7A00"/>
<path d="M48.7789 -0.0418062L48.156 0.581055L121.904 74.3292L122.527 73.7063L48.7789 -0.0418062Z" fill="#FF7A00"/>
<path d="M51.1534 -2.39337L50.5305 -1.77051L124.279 71.9776L124.902 71.3548L51.1534 -2.39337Z" fill="#FF7A00"/>
<path d="M53.5265 -5.33185L52.9037 -4.70898L126.652 69.0392L127.275 68.4163L53.5265 -5.33185Z" fill="#FF7A00"/>
</g>
<path d="M58.9742 69.6692C59.1026 69.5407 59.1901 69.3769 59.2255 69.1987C59.2609 69.0204 59.2427 68.8357 59.1732 68.6678C59.1036 68.4999 58.9858 68.3564 58.8347 68.2554C58.6836 68.1545 58.5059 68.1006 58.3242 68.1006C58.1424 68.1006 57.9648 68.1545 57.8136 68.2554C57.6625 68.3564 57.5447 68.4999 57.4752 68.6678C57.4056 68.8357 57.3874 69.0204 57.4228 69.1987C57.4582 69.3769 57.5457 69.5407 57.6742 69.6692C57.7595 69.7546 57.8608 69.8224 57.9724 69.8686C58.0839 69.9148 58.2034 69.9386 58.3242 69.9386C58.4449 69.9386 58.5644 69.9148 58.6759 69.8686C58.7875 69.8224 58.8888 69.7546 58.9742 69.6692Z" fill="white"/>
<path d="M54.6266 47.8826C54.6266 49.8799 55.2188 51.8323 56.3285 53.493C57.4381 55.1536 59.0153 56.448 60.8605 57.2123C62.7057 57.9766 64.7362 58.1766 66.6951 57.787C68.654 57.3973 70.4534 56.4355 71.8657 55.0232C73.2779 53.611 74.2397 51.8116 74.6294 49.8527C75.019 47.8938 74.819 45.8633 74.0547 44.0181C73.2904 42.1729 71.9961 40.5957 70.3354 39.4861C68.6747 38.3764 66.7223 37.7842 64.725 37.7842C62.0475 37.7868 59.4805 38.8516 57.5873 40.7449C55.694 42.6381 54.6292 45.2051 54.6266 47.8826ZM72.9837 47.8826C72.9837 49.5164 72.4992 51.1135 71.5915 52.472C70.6838 53.8305 69.3937 54.8893 67.8842 55.5145C66.3748 56.1397 64.7138 56.3033 63.1114 55.9846C61.509 55.6658 60.0371 54.8791 58.8818 53.7238C57.7265 52.5685 56.9398 51.0966 56.621 49.4942C56.3023 47.8918 56.4659 46.2308 57.0911 44.7214C57.7163 43.2119 58.7751 41.9218 60.1336 41.0141C61.4921 40.1064 63.0892 39.6219 64.723 39.6219C66.9133 39.624 69.0133 40.495 70.5622 42.0437C72.1111 43.5924 72.9823 45.6923 72.9847 47.8826H72.9837Z" fill="white"/>
<path d="M47.9436 84.5216C48.0283 84.6077 48.1292 84.6761 48.2405 84.7231C48.3517 84.7701 48.4711 84.7946 48.5919 84.7953C48.7126 84.7961 48.8323 84.773 48.9441 84.7274C49.0559 84.6818 49.1576 84.6146 49.2434 84.5296L53.6937 80.1453C54.0571 79.7784 54.3108 79.3174 54.4263 78.8142C54.5418 78.3109 54.5146 77.7854 54.3476 77.2968L55.3045 76.3739C55.8165 75.8776 56.502 75.6006 57.2152 75.602H69.4132C71.5664 75.6068 73.6354 74.7664 75.1753 73.2614C75.2393 73.1994 74.6904 73.8453 83.5 63.317C84.1319 62.5761 84.4437 61.6145 84.3666 60.6438C84.2895 59.673 83.83 58.7727 83.0891 58.1408C82.3482 57.5089 81.3866 57.1972 80.4159 57.2742C79.4452 57.3513 78.5448 57.8108 77.9129 58.5517L72.4958 64.1178C72.1513 63.6926 71.7165 63.3493 71.223 63.1129C70.7294 62.8765 70.1895 62.7529 69.6422 62.7511H59.4068C57.9503 62.1415 56.3865 61.8294 54.8075 61.8332C52.7082 61.7584 50.6294 62.2674 48.8021 63.3035C46.9748 64.3396 45.4707 65.8624 44.4572 67.7023C44.017 67.6189 43.5631 67.6447 43.1352 67.7773C42.7073 67.9099 42.3184 68.1454 42.0025 68.4632L37.6362 72.8425C37.4651 73.0145 37.369 73.2472 37.369 73.4899C37.369 73.7325 37.4651 73.9653 37.6362 74.1373L47.9436 84.5216ZM54.8105 63.6699C56.2011 63.6668 57.5771 63.9532 58.8509 64.5108C58.9669 64.5616 59.0922 64.5878 59.2188 64.5878H69.6422C70.1291 64.5878 70.596 64.7812 70.9403 65.1254C71.2845 65.4697 71.4779 65.9366 71.4779 66.4235C71.4779 66.9103 71.2845 67.3773 70.9403 67.7215C70.596 68.0658 70.1291 68.2592 69.6422 68.2592H62.1534C61.91 68.2592 61.6765 68.3559 61.5044 68.528C61.3322 68.7002 61.2355 68.9336 61.2355 69.177C61.2355 69.4205 61.3322 69.6539 61.5044 69.8261C61.6765 69.9982 61.91 70.0949 62.1534 70.0949H69.6422C70.1651 70.0958 70.6822 69.9848 71.1587 69.7694C71.6352 69.5539 72.06 69.239 72.4048 68.8458C72.7495 68.4526 73.0061 67.9902 73.1573 67.4896C73.3086 66.989 73.351 66.4619 73.2816 65.9436C78.5208 60.5574 79.2597 59.8015 79.2917 59.7635C79.4443 59.5698 79.6343 59.4088 79.8504 59.2901C80.0666 59.1715 80.3045 59.0976 80.5498 59.0728C80.7951 59.0481 81.043 59.0731 81.2785 59.1462C81.5139 59.2194 81.7323 59.3392 81.9204 59.4986C82.1086 59.658 82.2627 59.8537 82.3736 60.0739C82.4844 60.2942 82.5498 60.5345 82.5657 60.7806C82.5817 61.0267 82.5479 61.2735 82.4664 61.5062C82.3848 61.7389 82.2573 61.9528 82.0912 62.1352L73.8655 71.9766C72.671 73.1281 71.0754 73.7699 69.4162 73.7663H57.2182C56.0289 73.7636 54.8856 74.2253 54.0317 75.0531L53.2518 75.806L46.0609 68.6161C46.9088 67.0542 48.1788 65.7621 49.726 64.8875C51.2731 64.0129 53.035 63.5909 54.8105 63.6699ZM43.3043 69.761C43.451 69.6136 43.6435 69.5205 43.8501 69.4971C44.0567 69.4737 44.2652 69.5212 44.4412 69.632C44.6001 69.732 44.1412 69.313 52.3909 77.5497C52.5619 77.7213 52.6584 77.9534 52.6593 78.1956C52.6603 78.4378 52.5656 78.6707 52.3959 78.8435L48.6025 82.5809L39.5839 73.4884L43.3043 69.761Z" fill="white"/>
<path d="M63.6221 42.3749V43.4507C63.0101 43.6675 62.4943 44.0936 62.1659 44.6537C61.8376 45.2139 61.7177 45.872 61.8275 46.512C61.9373 47.1519 62.2697 47.7325 62.7661 48.1511C63.2624 48.5698 63.8907 48.7995 64.54 48.7999C64.7834 48.7999 65.0169 48.8966 65.189 49.0687C65.3611 49.2408 65.4579 49.4743 65.4579 49.7177C65.4579 49.9612 65.3611 50.1946 65.189 50.3668C65.0169 50.5389 64.7834 50.6356 64.54 50.6356C64.3032 50.6121 64.0742 50.538 63.8686 50.4183C63.663 50.2986 63.4855 50.136 63.3482 49.9417C63.2706 49.8495 63.1756 49.7734 63.0686 49.7179C62.9616 49.6624 62.8447 49.6285 62.7246 49.6181C62.6045 49.6078 62.4836 49.6212 62.3687 49.6576C62.2537 49.6939 62.1471 49.7526 62.0549 49.8302C61.9626 49.9078 61.8866 50.0028 61.8311 50.1098C61.7756 50.2168 61.7416 50.3337 61.7313 50.4538C61.7209 50.5739 61.7343 50.6948 61.7707 50.8097C61.8071 50.9247 61.8658 51.0313 61.9434 51.1235C62.3819 51.6703 62.9628 52.0855 63.6221 52.3233V53.3912C63.6221 53.6346 63.7188 53.868 63.891 54.0402C64.0631 54.2123 64.2966 54.309 64.54 54.309C64.7834 54.309 65.0169 54.2123 65.189 54.0402C65.3611 53.868 65.4579 53.6346 65.4579 53.3912V52.3133C66.0699 52.0966 66.5857 51.6705 66.9141 51.1103C67.2424 50.5502 67.3623 49.892 67.2525 49.2521C67.1427 48.6121 66.8103 48.0315 66.3139 47.6129C65.8176 47.1943 65.1893 46.9645 64.54 46.9642C64.2966 46.9642 64.0631 46.8675 63.891 46.6953C63.7188 46.5232 63.6221 46.2897 63.6221 46.0463C63.6221 45.8029 63.7188 45.5694 63.891 45.3973C64.0631 45.2252 64.2966 45.1285 64.54 45.1285C64.9206 45.1539 65.2765 45.326 65.5328 45.6084C65.7098 45.7638 65.9398 45.8453 66.1751 45.8359C66.4105 45.8265 66.6332 45.727 66.7972 45.5579C66.9613 45.3889 67.054 45.1633 67.0563 44.9277C67.0587 44.6922 66.9703 44.4648 66.8096 44.2926C66.429 43.912 65.9667 43.6231 65.4579 43.4477V42.3749C65.4579 42.2544 65.4341 42.135 65.388 42.0236C65.3419 41.9123 65.2742 41.8111 65.189 41.7259C65.1038 41.6406 65.0026 41.573 64.8912 41.5269C64.7799 41.4808 64.6605 41.457 64.54 41.457C64.4195 41.457 64.3001 41.4808 64.1888 41.5269C64.0774 41.573 63.9762 41.6406 63.891 41.7259C63.8057 41.8111 63.7381 41.9123 63.692 42.0236C63.6459 42.135 63.6221 42.2544 63.6221 42.3749Z" fill="white"/>
<path d="M60.8676 121.781C60.5436 121.781 60.2197 121.778 59.8957 121.773L59.9117 120.773C61.2415 120.794 62.5943 120.773 63.9291 120.704L63.9801 121.704C62.9473 121.753 61.9004 121.781 60.8676 121.781ZM57.855 121.708C56.4913 121.642 55.1225 121.528 53.7857 121.372L53.9017 120.378C55.2165 120.532 56.5633 120.644 57.901 120.71L57.855 121.708ZM66.0168 121.564L65.9338 120.564C67.2566 120.453 68.5984 120.294 69.9222 120.093L70.0721 121.081C68.7263 121.289 67.3666 121.451 66.0158 121.563L66.0168 121.564ZM51.762 121.1C50.4172 120.9 49.0624 120.646 47.7466 120.354L47.9626 119.377C49.2624 119.664 50.5882 119.911 51.911 120.111L51.762 121.1ZM72.0868 120.741L71.9018 119.759C73.2156 119.513 74.5344 119.219 75.8212 118.885L76.0722 119.854C74.7654 120.191 73.4216 120.49 72.0858 120.74L72.0868 120.741ZM45.7599 119.881C44.4492 119.544 43.1314 119.156 41.8416 118.731L42.1545 117.781C43.4233 118.2 44.7191 118.581 46.0079 118.912L45.7599 119.881ZM78.0399 119.311L77.7569 118.352C79.0377 117.974 80.3195 117.552 81.5673 117.084L81.9163 118.021C80.6465 118.489 79.3427 118.922 78.0399 119.307V119.311ZM39.9069 118.052C38.6321 117.581 37.3583 117.062 36.1205 116.506L36.5304 115.594C37.7472 116.141 38.999 116.653 40.2528 117.115L39.9069 118.052ZM83.817 117.277L83.437 116.352C84.6658 115.852 85.8967 115.293 87.0955 114.705L87.5364 115.605C86.3186 116.197 85.0638 116.761 83.818 117.273L83.817 117.277ZM34.2718 115.632C33.0569 115.032 31.8441 114.389 30.6653 113.708L31.1652 112.843C32.3241 113.512 33.5179 114.143 34.7127 114.734L34.2718 115.632ZM89.3541 114.667L88.8792 113.782C90.054 113.153 91.2228 112.476 92.3526 111.77L92.8825 112.618C91.7327 113.34 90.5449 114.029 89.3501 114.667H89.3541ZM28.9106 112.656C27.7608 111.939 26.62 111.173 25.5181 110.379L26.103 109.568C27.1859 110.349 28.3087 111.102 29.4395 111.806L28.9106 112.656ZM94.6003 111.512L94.0414 110.683C95.1512 109.936 96.241 109.145 97.2959 108.33L97.9078 109.121C96.8349 109.95 95.7211 110.754 94.5933 111.513L94.6003 111.512ZM23.8734 109.156C22.7986 108.324 21.7407 107.447 20.7279 106.549L21.3918 105.801C22.3916 106.685 23.4275 107.547 24.4853 108.365L23.8734 109.156ZM99.4895 107.844L98.8506 107.074C99.8784 106.22 100.888 105.322 101.85 104.406L102.539 105.13C101.561 106.063 100.538 106.976 99.4935 107.844H99.4895ZM19.2241 105.166C18.2413 104.234 17.2764 103.255 16.3586 102.257L17.0935 101.579C17.9933 102.56 18.9452 103.524 19.912 104.441L19.2241 105.166ZM103.998 103.699L103.285 102.999C104.219 102.049 105.134 101.054 106.003 100.04L106.762 100.692C105.882 101.722 104.951 102.734 104.002 103.7L103.998 103.699ZM15.0038 100.732C14.1179 99.7032 13.2571 98.6324 12.4452 97.5496L13.2451 96.9497C14.0449 98.0135 14.8898 99.0673 15.7617 100.079L15.0038 100.732ZM108.072 99.1193L107.292 98.4944C108.127 97.4536 108.938 96.3708 109.7 95.2769L110.52 95.8488C109.745 96.9607 108.922 98.0615 108.072 99.1193ZM11.2484 95.8978C10.4695 94.785 9.72161 93.6302 9.02472 92.4744L9.88058 91.9585C10.5655 93.0953 11.3004 94.2281 12.0682 95.3249L11.2484 95.8978ZM111.66 94.1511L110.821 93.6062C111.548 92.4864 112.244 91.3276 112.891 90.1627L113.765 90.6487C113.109 91.8325 112.4 93.0113 111.66 94.1511ZM8.00188 90.7096C7.33998 89.5238 6.71208 88.304 6.13517 87.0812L7.03503 86.6533C7.60194 87.8531 8.21984 89.0529 8.86974 90.2227L8.00188 90.7096ZM114.731 88.8439L113.841 88.387C114.45 87.1992 115.027 85.9744 115.553 84.7496L116.472 85.1445C115.937 86.3863 115.351 87.6341 114.731 88.8439ZM5.2983 85.2255C4.76239 83.9837 4.26147 82.7059 3.81054 81.4261L4.75339 81.0942C5.19732 82.351 5.68924 83.6078 6.21616 84.8276L5.2983 85.2255ZM117.248 83.2488L116.316 82.8859C116.8 81.6461 117.249 80.3683 117.649 79.0865L118.603 79.3864C118.196 80.6872 117.74 81.987 117.248 83.2488ZM3.16364 79.4874C2.7567 78.1966 2.38876 76.8728 2.06981 75.552L3.04166 75.3181C3.35561 76.6179 3.71755 77.9177 4.11849 79.1865L3.16364 79.4874ZM119.18 77.4257L118.217 77.1598C118.571 75.878 118.886 74.5602 119.154 73.2554L120.133 73.4554C119.858 74.7881 119.54 76.1269 119.18 77.4297V77.4257ZM1.62288 73.5623C1.34992 72.2365 1.12296 70.8818 0.934988 69.538L1.92583 69.403C2.1058 70.7248 2.33377 72.0566 2.60273 73.3614L1.62288 73.5623ZM120.504 71.4517L119.518 71.2847C119.74 69.9729 119.918 68.6341 120.054 67.3053L121.054 67.4053C120.917 68.7551 120.733 70.1179 120.508 71.4517H120.504ZM0.693026 67.5093C0.555047 66.1605 0.461062 64.7897 0.415069 63.4349L1.41491 63.3999C1.4609 64.7327 1.55389 66.0815 1.68887 67.4083L0.693026 67.5093ZM121.223 65.3696L120.223 65.3036C120.311 63.9728 120.356 62.6211 120.356 61.2883V61.0813H121.356V61.2813C121.358 62.6441 121.313 64.0158 121.223 65.3696ZM1.37692 61.3903H0.377075V61.2903C0.377075 59.9675 0.420068 58.6297 0.505055 57.3139L1.5049 57.3779C1.41891 58.6717 1.37692 59.9905 1.37692 61.2903V61.3903ZM120.318 59.0716C120.269 57.7338 120.174 56.385 120.037 55.0642L121.032 54.9643C121.172 56.3081 121.268 57.6778 121.318 59.0376L120.318 59.0716ZM1.66787 55.3762L0.66803 55.2762C0.801009 53.9224 0.98198 52.5596 1.20595 51.2278L2.19679 51.3918C1.97682 52.7056 1.79885 54.0444 1.66787 55.3762ZM119.796 53.0766C119.613 51.7568 119.383 50.426 119.112 49.1202L120.091 48.9202C120.367 50.247 120.601 51.6018 120.786 52.9426L119.796 53.0766ZM2.56073 49.4201L1.58089 49.2202C1.84984 47.8934 2.16779 46.5566 2.52674 45.2478L3.49059 45.5127C3.13764 46.8005 2.82469 48.1153 2.56073 49.4201ZM118.669 47.1555C118.355 45.8617 117.99 44.5559 117.587 43.2891L118.54 42.9891C118.95 44.2829 119.32 45.6057 119.639 46.9225L118.669 47.1555ZM4.0555 43.586L3.10065 43.2861C3.50058 41.9863 3.95851 40.6865 4.44944 39.4247L5.37629 39.7886C4.89837 41.0324 4.45244 42.3102 4.0555 43.586ZM116.948 41.3864C116.504 40.1346 116.009 38.8788 115.478 37.656L116.396 37.256C116.936 38.5008 117.438 39.7776 117.89 41.0554L116.948 41.3864ZM6.14117 37.9219L5.22131 37.529C5.75623 36.2782 6.34014 35.0294 6.95604 33.8296L7.8469 34.2845C7.241 35.4663 6.66709 36.6941 6.14117 37.9219ZM114.651 35.8293C114.08 34.6295 113.461 33.4296 112.809 32.2648L113.682 31.7769C114.344 32.9597 114.974 34.1765 115.554 35.4023L114.651 35.8293ZM8.79175 32.5058L7.91689 32.0219C8.57679 30.832 9.28268 29.6522 10.0166 28.5154L10.8564 29.0583C10.1345 30.1742 9.43965 31.335 8.79175 32.5058ZM111.801 30.5321C111.113 29.3943 110.375 28.2625 109.608 27.1696L110.426 26.5957C111.206 27.7075 111.956 28.8584 112.655 30.0152L111.801 30.5321ZM11.9753 27.3856L11.1544 26.8157C11.9283 25.7019 12.7541 24.6 13.597 23.5412L14.3749 24.1661C13.546 25.2079 12.7381 26.2958 11.9753 27.3856ZM108.426 25.5439C107.62 24.474 106.771 23.4232 105.905 22.4194L106.661 21.7655C107.542 22.7863 108.405 23.8551 109.225 24.943L108.426 25.5439ZM15.6607 22.6163L14.9008 21.9664C15.7797 20.9406 16.7075 19.9278 17.6594 18.9549L18.3742 19.6538C17.4374 20.6107 16.5245 21.6075 15.6607 22.6163ZM104.569 20.9246C103.664 19.9448 102.714 18.9839 101.744 18.0671L102.432 17.3402C103.417 18.273 104.383 19.2499 105.304 20.2447L104.569 20.9246ZM19.804 18.243L19.1141 17.5201C20.094 16.5843 21.1188 15.6704 22.1607 14.8016L22.8016 15.5694C21.7737 16.4253 20.7679 17.3242 19.804 18.243ZM100.261 16.7093C99.2616 15.8234 98.2167 14.9625 97.1619 14.1507L97.7718 13.3578C98.8426 14.1837 99.9024 15.0575 100.921 15.9574L100.261 16.7093ZM24.3643 14.3096L23.7504 13.5208C24.8162 12.6919 25.9281 11.885 27.0499 11.1211L27.6098 11.949C26.506 12.6979 25.4131 13.4968 24.3643 14.3096ZM95.5531 12.9479C94.4643 12.166 93.3405 11.4141 92.2127 10.7142L92.7396 9.86434C93.8864 10.5772 95.0292 11.3411 96.139 12.135L95.5531 12.9479ZM29.2965 10.8582L28.7656 10.0103C29.9144 9.28943 31.1023 8.59954 32.2941 7.95964L32.767 8.8405C31.5932 9.4714 30.4264 10.1503 29.2955 10.8592L29.2965 10.8582ZM90.4869 9.68237C89.3221 9.01547 88.1283 8.38257 86.9335 7.79867L87.3724 6.89881C88.5862 7.49271 89.801 8.13661 90.9818 8.81551L90.4869 9.68237ZM34.5467 7.92365L34.1038 7.02379C35.3176 6.42388 36.5684 5.85797 37.8202 5.34105L38.2021 6.26891C36.9713 6.77683 35.7405 7.33374 34.5467 7.92365ZM85.1098 6.9458C83.89 6.40088 82.6362 5.89096 81.3844 5.43104L81.7293 4.49318C83.0031 4.96111 84.2779 5.47903 85.5187 6.03394L85.1098 6.9458ZM40.0708 5.53402L39.7219 4.59917C40.9907 4.12524 42.2935 3.68931 43.5953 3.29937L43.8792 4.25922C42.5994 4.64016 41.3186 5.06909 40.0708 5.53402ZM79.4827 4.76914C78.2169 4.35221 76.9201 3.96927 75.6273 3.64332L75.8742 2.67447C77.189 3.00942 78.5088 3.39536 79.7946 3.81929L79.4827 4.76914ZM45.8139 3.71931L45.562 2.75146C46.8688 2.41051 48.2086 2.10956 49.5464 1.8516L49.7333 2.83344C48.4165 3.0884 47.0987 3.38436 45.8139 3.71931ZM73.6736 3.17939C72.3658 2.89344 71.039 2.64947 69.7232 2.4535L69.8662 1.46466C71.204 1.66463 72.5547 1.91259 73.8825 2.20354L73.6736 3.17939ZM51.712 2.4995L51.559 1.51065C52.8998 1.29969 54.2686 1.13971 55.6134 1.02373L55.6994 2.02357C54.3686 2.13455 53.0298 2.29953 51.712 2.4995ZM67.7305 2.19055C66.4087 2.03957 65.0619 1.93059 63.7311 1.8666L63.7791 0.866754C65.1349 0.930744 66.5047 1.04173 67.8485 1.1967L67.7305 2.19055ZM57.7031 1.88159L57.6511 0.881751C58.9969 0.812762 60.3767 0.787766 61.7344 0.799764L61.7204 1.79961C60.3847 1.78561 59.0279 1.81261 57.7031 1.88159Z" fill="#FF7A00"/>
<path d="M61.4245 110.783L61.4125 109.783C62.7423 109.767 64.0791 109.699 65.3879 109.578L65.4799 110.578C64.1441 110.694 62.7803 110.764 61.4245 110.783ZM59.3928 110.763C58.05 110.724 56.6862 110.628 55.3415 110.48L55.4514 109.486C56.7692 109.632 58.105 109.725 59.4218 109.763L59.3928 110.763ZM67.4975 110.343L67.3666 109.35C68.6754 109.174 69.9932 108.943 71.285 108.66L71.4989 109.637C70.1791 109.925 68.8333 110.162 67.4975 110.34V110.343ZM53.3278 110.213C51.995 110.013 50.6542 109.747 49.3424 109.435L49.5734 108.462C50.8592 108.769 52.173 109.025 53.4788 109.225L53.3278 110.213ZM73.4716 109.165L73.2176 108.198C74.4974 107.861 75.7783 107.468 77.0171 107.029L77.35 107.971C76.0852 108.417 74.7794 108.819 73.4716 109.162V109.165ZM47.3757 108.923C46.0689 108.554 44.7701 108.123 43.5153 107.655L43.8673 106.72C45.0961 107.18 46.3669 107.598 47.6477 107.959L47.3757 108.923ZM79.2547 107.254L78.8838 106.327C80.1036 105.839 81.3244 105.291 82.5112 104.698L82.9581 105.593C81.7473 106.196 80.5015 106.755 79.2557 107.251L79.2547 107.254ZM41.6246 106.905C40.3828 106.381 39.146 105.797 37.9492 105.171L38.4131 104.284C39.5859 104.898 40.7967 105.47 42.0126 105.984L41.6246 106.905ZM84.7518 104.649L84.2689 103.774C85.4237 103.136 86.5686 102.441 87.6684 101.71L88.2223 102.542C87.0995 103.284 85.9317 103.996 84.7528 104.647L84.7518 104.649ZM36.1715 104.184C35.0027 103.509 33.8468 102.778 32.738 102.011L33.3069 101.189C34.3928 101.941 35.5246 102.657 36.6704 103.319L36.1715 104.184ZM89.891 101.384L89.3041 100.574C90.374 99.7986 91.4248 98.9688 92.4276 98.1079L93.0785 98.8678C92.0557 99.7436 90.9839 100.59 89.891 101.384ZM31.0863 100.825C30.0144 100.016 28.9586 99.1497 27.9458 98.2499L28.6107 97.502C29.6025 98.3859 30.6383 99.2347 31.6882 100.027L31.0863 100.825ZM94.5913 97.514L93.9104 96.7821C94.8742 95.8823 95.8161 94.9334 96.71 93.9536L97.4488 94.6275C96.538 95.6243 95.5761 96.5961 94.5913 97.512V97.514ZM26.457 96.8651C25.4921 95.9302 24.5493 94.9414 23.6574 93.9256L24.4083 93.2657C25.2842 94.2655 26.208 95.2314 27.1539 96.1472L26.457 96.8651ZM98.7866 93.0967L98.0208 92.4538C98.8686 91.4439 99.6875 90.3841 100.453 89.3033L101.269 89.8812C100.488 90.986 99.6535 92.0648 98.7876 93.0947L98.7866 93.0967ZM22.3476 92.3708C21.5018 91.324 20.6879 90.2261 19.927 89.1103L20.7529 88.5484C21.4988 89.6422 22.2967 90.7171 23.1255 91.7419L22.3476 92.3708ZM102.412 88.1995L101.573 87.6545C102.294 86.5447 102.973 85.3919 103.602 84.2291L104.483 84.704C103.844 85.8868 103.148 87.0656 102.412 88.1995ZM18.8252 87.4106C18.1123 86.2648 17.4384 85.078 16.8255 83.8791L17.7154 83.4222C18.3153 84.596 18.9792 85.7608 19.6771 86.8817L18.8252 87.4106ZM105.412 82.8913L104.512 82.4544C105.09 81.2675 105.625 80.0397 106.102 78.8049L107.035 79.1659C106.545 80.4247 105.998 81.6785 105.409 82.8873L105.412 82.8913ZM15.9317 82.0554C15.3657 80.8326 14.8438 79.5718 14.3799 78.305L15.3187 77.9611C15.7727 79.2009 16.2836 80.4377 16.8385 81.6355L15.9317 82.0554ZM107.731 77.2562L106.785 76.9342C107.211 75.6834 107.585 74.3996 107.911 73.1178L108.881 73.3598C108.551 74.6636 108.16 75.9734 107.729 77.2502L107.731 77.2562ZM13.721 76.3873C13.3101 75.1025 12.9481 73.7877 12.6442 72.4709L13.619 72.246C13.919 73.5328 14.2709 74.8236 14.6728 76.0824L13.721 76.3873ZM109.334 71.3811L108.355 71.1811C108.623 69.8813 108.84 68.5645 109.001 67.2547L109.993 67.3757C109.827 68.7045 109.605 70.0523 109.332 71.3751L109.334 71.3811ZM12.2282 70.4812C11.9783 69.1535 11.7823 67.8017 11.6443 66.4629L12.6442 66.3629C12.7791 67.6747 12.9721 68.9995 13.2161 70.3003L12.2282 70.4812ZM110.197 65.3511L109.197 65.2691C109.304 63.9573 109.358 62.6205 109.358 61.2927V61.0907L110.358 61.0827V61.2907C110.36 62.6435 110.305 64.0083 110.196 65.3471L110.197 65.3511ZM11.4754 64.4352C11.4104 63.3974 11.3754 62.3355 11.3754 61.2897C11.3754 60.9844 11.378 60.6795 11.3834 60.3748L12.3832 60.3928C12.3779 60.6908 12.3752 60.9901 12.3752 61.2907C12.3752 62.3185 12.4082 63.3564 12.4752 64.3742L11.4754 64.4352ZM109.314 59.101C109.254 57.7772 109.141 56.4435 108.975 55.1357L109.967 55.0107C110.136 56.3445 110.252 57.7103 110.313 59.056L109.314 59.101ZM12.4612 58.4011L11.4614 58.3422C11.5403 56.9954 11.6753 55.6366 11.8613 54.3008L12.8511 54.4418C12.6692 55.7526 12.5372 57.0854 12.4592 58.4041L12.4612 58.4011ZM108.685 53.166C108.465 51.8602 108.185 50.5504 107.862 49.2716L108.831 49.0256C109.164 50.3254 109.446 51.6672 109.671 53L108.685 53.166ZM13.1751 52.4801L12.1922 52.2981C12.4352 50.9743 12.7372 49.6415 13.0921 48.3377L14.0579 48.5977C13.708 49.8765 13.412 51.1813 13.1751 52.4801ZM107.33 47.3579C106.951 46.0911 106.514 44.8263 106.03 43.5955L106.961 43.2305C107.454 44.4863 107.899 45.7791 108.287 47.0709L107.33 47.3579ZM14.6119 46.693L13.658 46.393C14.0639 45.1072 14.5289 43.8214 15.0398 42.5696L15.9656 42.9486C15.4637 44.1694 15.0088 45.4292 14.6119 46.693ZM105.269 41.7668C104.735 40.5549 104.145 39.3531 103.517 38.1953L104.396 37.7184C105.038 38.9002 105.639 40.126 106.184 41.3628L105.269 41.7668ZM16.7585 41.1169L15.8497 40.6939C16.4126 39.4661 17.0325 38.2483 17.6934 37.0725L18.5652 37.5624C17.9163 38.7172 17.3094 39.911 16.7585 41.1129V41.1169ZM102.534 36.4706C101.856 35.3358 101.123 34.2149 100.355 33.1411L101.168 32.5592C101.952 33.659 102.7 34.7999 103.392 35.9587L102.534 36.4706ZM19.5741 35.8487L18.7232 35.3238C19.4341 34.1719 20.2 33.0391 20.9979 31.9573L21.7977 32.5512C21.0229 33.61 20.274 34.7199 19.5741 35.8487ZM99.1616 31.5414C98.3487 30.4965 97.4838 29.4747 96.592 28.5018L97.3279 27.8259C98.2387 28.8168 99.1206 29.8606 99.9504 30.9255L99.1616 31.5414ZM23.0135 30.9715L22.2337 30.3465C23.0785 29.2927 23.9774 28.2629 24.9032 27.284L25.6301 27.9719C24.7273 28.9298 23.8474 29.9396 23.0195 30.9715H23.0135ZM95.2162 27.0641C94.2803 26.1262 93.2975 25.2164 92.2937 24.3645L92.9416 23.6026C93.9654 24.4755 94.9692 25.4023 95.9231 26.3602L95.2162 27.0641ZM27.0269 26.5531L26.327 25.8363C27.2959 24.8934 28.3127 23.9805 29.3495 23.1237L29.9934 23.8966C28.9726 24.7344 27.9798 25.6293 27.0319 26.5531H27.0269ZM90.7579 23.0967C89.7141 22.2798 88.6272 21.4969 87.5264 20.7711L88.0773 19.9372C89.2001 20.6771 90.31 21.4759 91.3768 22.3098L90.7579 23.0967ZM31.5522 22.6598L30.9473 21.8599C32.0231 21.043 33.1469 20.2601 34.2788 19.5372L34.8167 20.3811C33.7039 21.097 32.605 21.8579 31.5522 22.6598ZM85.8437 19.7132C84.7088 19.0303 83.533 18.3884 82.3512 17.8025L82.7942 16.9027C84.001 17.5026 85.2008 18.1565 86.3586 18.8524L85.8437 19.7132ZM36.5154 19.3473L36.0155 18.4844C37.1863 17.8025 38.3941 17.1646 39.6059 16.5847L40.0359 17.4846C38.8431 18.0545 37.6592 18.6794 36.5124 19.3463L36.5154 19.3473ZM80.5455 16.9557C79.3457 16.4197 78.0979 15.9268 76.8461 15.4889L77.175 14.546C78.4548 14.991 79.7266 15.4949 80.9544 16.0458L80.5455 16.9557ZM41.8426 16.6727L41.4496 15.7528C42.6874 15.2249 43.9642 14.74 45.249 14.3141L45.564 15.2629C44.3022 15.6799 43.0514 16.1538 41.8386 16.6727H41.8426ZM74.9464 14.873C73.6836 14.49 72.3868 14.1551 71.094 13.8731L71.304 12.8943C72.6237 13.1782 73.9475 13.5202 75.2363 13.9111L74.9464 14.873ZM47.4627 14.673L47.1867 13.7122C48.4805 13.3402 49.8093 13.0123 51.1331 12.7523L51.3331 13.7322C50.0273 13.9981 48.7265 14.3101 47.4587 14.675L47.4627 14.673ZM69.1353 13.4982C67.8355 13.2742 66.5127 13.0983 65.1899 12.9853L65.2779 11.9854C66.6277 12.1044 67.9825 12.2854 69.3053 12.5074L69.1353 13.4982ZM53.2838 13.3862L53.1288 12.3984C54.4616 12.1894 55.8194 12.0334 57.1642 11.9334L57.2372 12.9333C55.9204 13.0283 54.5906 13.1812 53.2838 13.3862ZM63.2032 12.8523C61.8864 12.7903 60.5496 12.7793 59.2239 12.8253L59.1909 11.8255C60.5396 11.7805 61.9074 11.7875 63.2522 11.8545L63.2032 12.8523Z" fill="#FF7A00"/>
</g>
</g>
</g>
<defs>
<clipPath id="clip0_15_1627">
<rect width="121" height="120.98" fill="white" transform="translate(0.367554 0.799805)"/>
</clipPath>
<clipPath id="clip1_15_1627">
<rect width="121" height="120.98" fill="white" transform="translate(0.367554 0.799805)"/>
</clipPath>
<clipPath id="clip2_15_1627">
<rect width="120.981" height="120.98" fill="white" transform="translate(0.377075 0.799805)"/>
</clipPath>
</defs>
</svg>
