<svg width="129" height="129" viewBox="0 0 129 129" fill="none" xmlns="http://www.w3.org/2000/svg">
<g clip-path="url(#clip0_15_756)">
<g clip-path="url(#clip1_15_756)">
<g clip-path="url(#clip2_15_756)">
<mask id="mask0_15_756" style="mask-type:luminance" maskUnits="userSpaceOnUse" x="14" y="14" width="102" height="102">
<path d="M64.7065 115.109C92.5298 115.109 115.085 92.5535 115.085 64.7302C115.085 36.9068 92.5298 14.3516 64.7065 14.3516C36.8832 14.3516 14.3279 36.9068 14.3279 64.7302C14.3279 92.5535 36.8832 115.109 64.7065 115.109Z" fill="white"/>
</mask>
<g mask="url(#mask0_15_756)">
<path d="M64.7065 115.109C92.5298 115.109 115.085 92.5535 115.085 64.7302C115.085 36.9068 92.5298 14.3516 64.7065 14.3516C36.8832 14.3516 14.3279 36.9068 14.3279 64.7302C14.3279 92.5535 36.8832 115.109 64.7065 115.109Z" fill="white"/>
<path d="M-10.8077 56.4993L-11.5134 57.2051L71.9905 140.709L72.6962 140.003L-10.8077 56.4993Z" fill="white"/>
<path d="M-8.11886 53.8372L-8.82458 54.543L74.6786 138.046L75.3843 137.34L-8.11886 53.8372Z" fill="white"/>
<path d="M-5.43172 51.1761L-6.13745 51.8818L77.3657 135.385L78.0715 134.679L-5.43172 51.1761Z" fill="white"/>
<path d="M-2.74288 48.515L-3.44861 49.2207L80.0553 132.725L80.761 132.019L-2.74288 48.515Z" fill="white"/>
<path d="M-0.0550138 45.8529L-0.760742 46.5586L82.7425 130.062L83.4482 129.356L-0.0550138 45.8529Z" fill="white"/>
<path d="M2.6331 43.1908L1.92737 43.8965L85.4313 127.4L86.137 126.695L2.6331 43.1908Z" fill="white"/>
<path d="M5.32096 40.5306L4.61523 41.2363L88.1184 124.74L88.8242 124.034L5.32096 40.5306Z" fill="white"/>
<path d="M8.00883 37.8685L7.3031 38.5742L90.8063 122.077L91.512 121.372L8.00883 37.8685Z" fill="white"/>
<path d="M10.6969 35.2074L9.99121 35.9131L93.4951 119.417L94.2008 118.711L10.6969 35.2074Z" fill="white"/>
<path d="M13.3865 32.5452L12.6808 33.251L96.184 116.754L96.8897 116.048L13.3865 32.5452Z" fill="white"/>
<path d="M16.0736 29.8851L15.3679 30.5908L98.8718 114.095L99.5775 113.389L16.0736 29.8851Z" fill="white"/>
<path d="M18.7608 27.223L18.0551 27.9287L101.559 111.433L102.265 110.727L18.7608 27.223Z" fill="white"/>
<path d="M21.4496 24.5628L20.7439 25.2686L104.248 108.772L104.954 108.067L21.4496 24.5628Z" fill="white"/>
<path d="M24.1374 21.8997L23.4316 22.6055L106.936 106.109L107.641 105.404L24.1374 21.8997Z" fill="white"/>
<path d="M26.8256 19.2376L26.1199 19.9434L109.624 103.447L110.329 102.742L26.8256 19.2376Z" fill="white"/>
<path d="M29.5133 16.5775L28.8076 17.2832L112.312 100.787L113.017 100.081L29.5133 16.5775Z" fill="white"/>
<path d="M32.2022 13.9154L31.4965 14.6211L115 98.1243L115.705 97.4186L32.2022 13.9154Z" fill="white"/>
<path d="M34.8893 11.2533L34.1836 11.959L117.687 95.4629L118.393 94.7572L34.8893 11.2533Z" fill="white"/>
<path d="M37.5782 8.5931L36.8724 9.29883L120.376 92.802L121.081 92.0963L37.5782 8.5931Z" fill="white"/>
<path d="M40.266 5.93099L39.5603 6.63672L123.063 90.1399L123.769 89.4342L40.266 5.93099Z" fill="white"/>
<path d="M42.9541 3.26986L42.2484 3.97559L125.752 87.4795L126.458 86.7738L42.9541 3.26986Z" fill="white"/>
<path d="M45.642 0.608725L44.9363 1.31445L128.439 84.8176L129.145 84.1119L45.642 0.608725Z" fill="white"/>
<path d="M48.3309 -2.05338L47.6251 -1.34766L131.128 82.1555L131.834 81.4498L48.3309 -2.05338Z" fill="white"/>
<path d="M51.018 -4.71452L50.3123 -4.00879L133.816 79.4951L134.522 78.7894L51.018 -4.71452Z" fill="white"/>
<path d="M53.7068 -7.37565L53.0011 -6.66992L136.504 76.8333L137.21 76.1275L53.7068 -7.37565Z" fill="white"/>
<path d="M56.3941 -10.7038L55.6884 -9.99805L139.192 73.5059L139.898 72.8001L56.3941 -10.7038Z" fill="white"/>
</g>
<path d="M64.6626 128.73C63.7603 128.73 62.8621 128.712 61.9678 128.674L61.4688 128.653L61.5107 127.655L62.0098 127.676C62.892 127.712 63.7786 127.731 64.6696 127.731H65.478V128.729L64.6626 128.73ZM67.496 128.672L67.4451 127.674L67.9442 127.648C68.9422 127.597 69.9343 127.523 70.9064 127.427L71.4054 127.378L71.5052 128.376L71.0062 128.425C70.0181 128.525 69.0101 128.598 67.9981 128.65L67.496 128.672ZM59.4498 128.522L58.9507 128.478C57.9527 128.389 56.9437 128.278 55.9566 128.14L55.4576 128.072L55.6013 127.084L56.1003 127.152C57.0754 127.285 58.0675 127.397 59.0515 127.484L59.5506 127.528L59.4498 128.522ZM73.5023 128.13L73.3586 127.142L73.8576 127.07C74.8307 126.928 75.8158 126.76 76.7849 126.571L77.275 126.471L77.4646 127.45L76.9745 127.55C75.9905 127.74 74.9894 127.91 74.0003 128.054L73.5023 128.13ZM53.4675 127.75L52.9774 127.66C51.9923 127.477 50.9993 127.268 50.0252 127.04L49.5391 126.926L49.7677 125.954L50.2537 126.068C51.2129 126.293 52.1899 126.499 53.1601 126.677L53.6511 126.768L53.4675 127.75ZM79.4317 127.027L79.1962 126.057L79.6813 125.939C80.6354 125.706 81.5995 125.447 82.5487 125.168L83.0267 125.028L83.3082 125.985L82.8301 126.126C81.867 126.409 80.8859 126.672 79.9168 126.909L79.4317 127.027ZM47.5849 126.417L47.1059 126.28C46.1398 126.004 45.1687 125.701 44.2185 125.382L43.7454 125.222L44.0648 124.277L44.5379 124.437C45.4731 124.753 46.4292 125.051 47.3793 125.322L47.8594 125.46L47.5849 126.417ZM85.2314 125.368L84.9041 124.425L85.3751 124.261C86.3063 123.938 87.2425 123.589 88.1577 123.221L88.6208 123.036L88.9921 123.962L88.529 124.147C87.5988 124.521 86.6487 124.875 85.7025 125.203L85.2314 125.368ZM41.8432 124.527L41.3781 124.344C40.4449 123.979 39.5077 123.586 38.5915 123.175L38.1354 122.976L38.5436 122.064L38.9987 122.264C39.897 122.663 40.8231 123.055 41.7424 123.415L42.2064 123.596L41.8432 124.527ZM90.8425 123.171L90.4273 122.264L90.8814 122.057C91.7796 121.644 92.6779 121.208 93.5472 120.759L93.9903 120.53L94.4474 121.418L94.0043 121.646C93.122 122.101 92.2078 122.545 91.2966 122.963L90.8425 123.171ZM36.311 122.101L35.8658 121.876C34.9676 121.423 34.0743 120.943 33.203 120.45L32.7689 120.203L33.2609 119.335L33.6951 119.581C34.5524 120.067 35.4347 120.539 36.3159 120.986L36.7611 121.211L36.311 122.101ZM96.215 120.455L95.7159 119.59L96.1481 119.341C96.9994 118.85 97.8518 118.331 98.6811 117.799L99.1013 117.529L99.6403 118.37L99.2201 118.639C98.3777 119.18 97.5124 119.707 96.6471 120.206L96.215 120.455ZM31.0353 119.165L30.6131 118.899C29.7687 118.366 28.9224 117.801 28.098 117.229L27.6888 116.943L28.2597 116.125L28.6689 116.411C29.4803 116.977 30.3127 117.53 31.1441 118.054L31.5662 118.321L31.0353 119.165ZM101.311 117.24L100.733 116.425L101.14 116.137C101.939 115.569 102.737 114.972 103.519 114.363L103.912 114.054L104.528 114.84L104.134 115.148C103.345 115.767 102.533 116.374 101.718 116.95L101.311 117.24ZM26.058 115.743L25.6588 115.438C24.8603 114.825 24.0729 114.186 23.3123 113.542L22.9321 113.219L23.5778 112.458L23.9581 112.781C24.7066 113.415 25.4831 114.044 26.2676 114.649L26.6668 114.953L26.058 115.743ZM106.083 113.556L105.431 112.801L105.808 112.474C106.555 111.83 107.295 111.162 108.011 110.484L108.373 110.141L109.06 110.865L108.698 111.209C107.971 111.897 107.218 112.578 106.461 113.231L106.083 113.556ZM21.427 111.876L21.0617 111.536C20.3282 110.851 19.6026 110.139 18.904 109.428L18.5556 109.071L19.2692 108.372L19.6186 108.729C20.3052 109.432 21.0158 110.126 21.7424 110.804L22.1077 111.145L21.427 111.876ZM110.494 109.449L109.774 108.757L110.121 108.397C110.804 107.687 111.479 106.95 112.128 106.208L112.456 105.833L113.208 106.49L112.879 106.865C112.22 107.619 111.534 108.362 110.84 109.089L110.494 109.449ZM17.1823 107.601L16.851 107.227C16.1843 106.478 15.5286 105.704 14.9008 104.932L14.5874 104.544L15.3639 103.917L15.6793 104.3C16.297 105.065 16.9428 105.826 17.5985 106.565L17.9309 106.938L17.1823 107.601ZM114.502 104.94L113.721 104.319L114.031 103.928C114.649 103.151 115.253 102.354 115.828 101.56L116.119 101.154L116.929 101.738L116.636 102.142C116.054 102.95 115.438 103.759 114.814 104.548L114.502 104.94ZM13.3568 102.944L13.0574 102.545C12.4685 101.741 11.8877 100.91 11.3327 100.073L11.0573 99.6573L11.8887 99.1053L12.1641 99.5215C12.7111 100.345 13.2819 101.163 13.8608 101.954L14.1602 102.353L13.3568 102.944ZM118.069 100.073L117.234 99.5285L117.506 99.1103C118.042 98.2899 118.568 97.4396 119.071 96.5833L119.324 96.1531L120.184 96.6591L119.932 97.0893C119.421 97.9586 118.886 98.8219 118.342 99.6563L118.069 100.073ZM9.99037 97.9486L9.73487 97.5204C9.22586 96.6681 8.72584 95.7868 8.25077 94.9005L8.01523 94.4614L8.89251 93.9883L9.12805 94.4275C9.59115 95.3008 10.0902 96.1691 10.5892 97.0084L10.8427 97.4416L9.99037 97.9486ZM121.173 94.8906L120.289 94.4265L120.52 93.9843C120.982 93.106 121.426 92.2098 121.841 91.3195L122.051 90.8674L122.956 91.2896L122.745 91.7417C122.324 92.646 121.872 93.5562 121.404 94.4484L121.173 94.8906ZM7.10301 92.6629L6.88843 92.2118C6.46126 91.3136 6.04707 90.3884 5.65983 89.4642L5.4672 89.0041L6.3874 88.6178L6.58003 89.0779C6.96228 89.9881 7.36949 90.8974 7.78967 91.7826L8.00425 92.2347L7.10301 92.6629ZM123.768 89.4362L122.84 89.058L123.03 88.5969C123.404 87.6816 123.762 86.7465 124.092 85.8173L124.258 85.3472L125.198 85.6815L125.032 86.1516C124.696 87.0958 124.333 88.0479 123.952 88.9751L123.768 89.4362ZM4.73164 87.1247L4.56097 86.6556C4.21964 85.7185 3.89527 84.7593 3.59586 83.7972L3.44815 83.3202L4.40128 83.0207L4.54999 83.4968C4.84442 84.442 5.16379 85.3931 5.50014 86.3103L5.6708 86.7794L4.73164 87.1247ZM125.832 83.7563L124.876 83.4669L125.021 82.9888C125.307 82.0417 125.574 81.0785 125.813 80.1264L125.935 79.6423L126.903 79.8859L126.781 80.3699C126.538 81.337 126.267 82.3151 125.976 83.2772L125.832 83.7563ZM2.89223 81.38L2.76747 80.8969C2.51696 79.9328 2.28542 78.9447 2.07782 77.9606L1.97802 77.4726L2.95511 77.267L3.05491 77.755C3.25452 78.7241 3.48707 79.6962 3.73359 80.6494L3.85934 81.1324L2.89223 81.38ZM127.349 77.9187L126.371 77.7191L126.471 77.2301C126.665 76.2639 126.84 75.2799 126.989 74.3058L127.064 73.8127L128.051 73.9634L127.975 74.4575C127.824 75.4465 127.647 76.4466 127.45 77.4277L127.349 77.9187ZM1.60674 75.4845L1.5269 74.9914C1.36721 74.0014 1.22748 72.9953 1.1167 72.0033L1.05981 71.5042L2.05187 71.3915L2.10577 71.8915C2.21655 72.8686 2.35328 73.8576 2.50499 74.8327L2.58483 75.3258L1.60674 75.4845ZM128.307 71.9613L127.314 71.8615L127.366 71.3625C127.466 70.3834 127.549 69.3874 127.605 68.4023L127.633 67.9033L128.631 67.9602L128.602 68.4592C128.545 69.4572 128.463 70.4713 128.359 71.4663L128.307 71.9613ZM0.881159 69.4962L0.848223 68.9971C0.80564 68.3438 0.772371 67.6874 0.748418 67.028C0.735111 66.682 0.72513 66.3353 0.718477 65.988L0.708496 65.489L1.70655 65.469L1.71653 65.968C1.72318 66.3107 1.7325 66.6537 1.74447 66.997C1.76843 67.6458 1.80169 68.2918 1.84428 68.9353L1.87721 69.4343L0.881159 69.4962ZM127.629 61.5537C127.58 60.5646 127.506 59.5676 127.411 58.5915L127.363 58.0924L128.361 57.9926L128.409 58.4917C128.509 59.4827 128.58 60.4957 128.631 61.5008L127.629 61.5537ZM128.666 62.426C128.694 63.2098 128.707 63.9906 128.707 64.7684L128.699 65.9411L127.7 65.9301L127.709 64.7674C127.709 64.0016 127.696 63.2327 127.669 62.4609L128.666 62.426ZM1.71254 63.4969L0.714484 63.4699L0.727459 62.9709C0.754406 61.9729 0.805307 60.9588 0.878165 59.9588L0.915093 59.4598L1.91314 59.5326L1.87622 60.0316C1.80635 61.0127 1.75246 62.0108 1.72651 62.9979L1.71254 63.4969ZM2.10577 57.5715L1.10772 57.4517L1.1676 56.9527C1.28737 55.9656 1.43308 54.9566 1.60075 53.9675L1.68359 53.4755L2.66767 53.6421L2.58483 54.1342C2.41916 55.1123 2.27544 56.1013 2.15866 57.0724L2.10577 57.5715ZM127.132 56.1412L127.061 55.6422C126.92 54.6691 126.753 53.684 126.567 52.7139L126.463 52.2299L127.443 52.0413L127.537 52.5313C127.726 53.5164 127.895 54.5174 128.036 55.5055L128.108 55.9995L127.132 56.1412ZM3.04693 51.7109L2.07183 51.4973L2.17862 51.0103C2.39221 50.0332 2.63274 49.0471 2.89223 48.079L3.02198 47.5969L3.98609 47.8564L3.85635 48.3385C3.60085 49.2906 3.36331 50.2617 3.15771 51.2238L3.04693 51.7109ZM126.048 50.3036L125.93 49.8186C125.698 48.8625 125.44 47.8983 125.161 46.9502L125.021 46.4711L125.979 46.1907L126.12 46.6697C126.402 47.6329 126.663 48.6129 126.899 49.5841L127.017 50.0691L126.048 50.3036ZM4.546 45.9581L3.59586 45.6527L3.74856 45.1777C4.05696 44.2175 4.39031 43.2564 4.74062 42.3222L4.91528 41.8502L5.84946 42.2005L5.6748 42.6676C5.32947 43.5918 5.00011 44.5379 4.7007 45.4831L4.546 45.9581ZM124.424 44.5928L124.26 44.1207C123.936 43.1846 123.587 42.2484 123.223 41.3382L123.038 40.8751L123.965 40.5048L124.15 40.9679C124.52 41.8931 124.875 42.8432 125.204 43.7944L125.368 44.2654L124.424 44.5928ZM6.58602 40.37L5.66881 39.9768L5.86842 39.5187C6.26764 38.5995 6.68582 37.6743 7.12596 36.7721L7.34454 36.323L8.24278 36.7601L8.02421 37.2092C7.59105 38.0985 7.17487 39.0057 6.78662 39.9129L6.58602 40.37ZM122.265 39.0726L122.057 38.6185C121.65 37.7202 121.215 36.828 120.76 35.9517L120.531 35.5085L121.419 35.0514L121.647 35.4956C122.104 36.3858 122.546 37.2921 122.961 38.2043L123.169 38.6564L122.265 39.0726ZM9.14502 35.0025L8.26973 34.5235L8.50926 34.0863C8.99032 33.205 9.49933 32.3248 10.0193 31.4714L10.2788 31.0453L11.1311 31.5652L10.8716 31.9914C10.3596 32.8318 9.85962 33.6971 9.38455 34.5654L9.14502 35.0025ZM119.598 33.7769L119.349 33.3448C118.857 32.4904 118.338 31.6381 117.809 30.8097L117.539 30.3895L118.38 29.8516L118.649 30.2718C119.187 31.1121 119.713 31.9784 120.213 32.8467L120.463 33.2789L119.598 33.7769ZM12.1981 29.9035L11.3707 29.3446L11.6501 28.9304C12.211 28.101 12.7989 27.2736 13.3977 26.4702L13.6971 26.071L14.4956 26.6698L14.1962 27.069C13.6063 27.8595 13.0264 28.6739 12.4745 29.4913L12.1981 29.9035ZM116.439 28.7587L116.151 28.3515C115.583 27.5531 114.986 26.7487 114.379 25.9712L114.072 25.5779L114.859 24.9631L115.166 25.3564C115.783 26.1468 116.389 26.9592 116.962 27.7746L117.251 28.1819L116.439 28.7587ZM15.7142 25.1158L14.9437 24.4841L15.2601 24.0988C15.8938 23.3273 16.5575 22.5588 17.2302 21.8133L17.5646 21.443L18.3051 22.1117L17.9708 22.482C17.3071 23.2156 16.6554 23.9721 16.0306 24.7306L15.7142 25.1158ZM112.825 24.0549L112.499 23.6767C111.857 22.9311 111.189 22.1896 110.511 21.472L110.168 21.1097L110.893 20.424L111.236 20.7873C111.924 21.5159 112.604 22.2694 113.255 23.0269L113.58 23.4052L112.825 24.0549ZM19.6625 20.6785L18.9549 19.9799L19.3062 19.6256C20.0178 18.909 20.7504 18.2063 21.4819 17.5366L21.8502 17.1993L22.5239 17.9359L22.1556 18.2722C21.436 18.9319 20.7154 19.6236 20.0148 20.3292L19.6625 20.6785ZM108.779 19.7084L108.42 19.3621C107.71 18.6784 106.974 18.0017 106.233 17.352L105.858 17.0226L106.516 16.2721L106.891 16.6015C107.644 17.2612 108.388 17.9488 109.113 18.6435L109.472 18.9898L108.779 19.7084ZM24.007 16.6334L23.3642 15.8679L23.7475 15.5485C24.511 14.9108 25.3055 14.28 26.1079 13.6722L26.5071 13.3728L27.1059 14.1712L26.7067 14.4706C25.9173 15.0695 25.1358 15.6903 24.3833 16.318L24.007 16.6334ZM104.35 15.7581L103.96 15.4467C103.19 14.8329 102.394 14.2291 101.593 13.6502L101.189 13.3578L101.774 12.5484L102.178 12.8408C102.992 13.4287 103.8 14.0385 104.582 14.6663L104.972 14.9776L104.35 15.7581ZM28.7078 13.0155L28.1439 12.1921L28.5541 11.9086C29.3775 11.3447 30.2268 10.7908 31.0782 10.2638L31.5024 10.0014L32.0273 10.8507L31.6032 11.1132C30.7648 11.6322 29.9284 12.1771 29.118 12.733L28.7078 13.0155ZM99.5574 12.239L99.1403 11.9665C98.3129 11.4256 97.4635 10.8986 96.6152 10.3996L96.185 10.1461L96.691 9.28576L97.1202 9.53727C97.9825 10.0443 98.8458 10.5802 99.6862 11.1341L100.103 11.4076L99.5574 12.239ZM33.726 9.85565L33.2449 8.98235L33.6811 8.74082C34.5574 8.25477 35.4546 7.78369 36.3479 7.34355L36.792 7.11799L37.2371 8.01624L36.79 8.23781C35.9107 8.67296 35.0275 9.13605 34.1651 9.61412L33.726 9.85565ZM94.4604 9.18396L94.0192 8.95141C93.137 8.48832 92.2407 8.04219 91.3554 7.629L90.9023 7.41741L91.3245 6.51317L91.7776 6.71877C92.6759 7.13995 93.5871 7.59207 94.4823 8.06315L94.9245 8.29969L94.4604 9.18396ZM39.0157 7.18786L38.6165 6.27264L39.0736 6.07303C39.9898 5.67381 40.9299 5.28657 41.8681 4.92927L42.3272 4.74962L42.6865 5.6818L42.2204 5.86045C41.3002 6.21176 40.375 6.59002 39.4728 6.98525L39.0157 7.18786ZM89.0919 6.61897L88.6308 6.42934C87.7206 6.05507 86.7854 5.69577 85.8532 5.36442L85.3831 5.19974L85.7175 4.25958L86.1885 4.42326C87.1357 4.7606 88.0848 5.12189 89.011 5.50614L89.4721 5.69577L89.0919 6.61897ZM44.5449 5.02209L44.2335 4.07394L44.7076 3.91824C45.6617 3.60485 46.6328 3.31143 47.5959 3.04495L48.077 2.91221L48.3425 3.87433L47.8614 4.00707C46.9132 4.26856 45.9571 4.55799 45.019 4.86639L44.5449 5.02209ZM83.5048 4.57895L83.0277 4.43423C82.0816 4.1468 81.1184 3.87932 80.1663 3.63579L79.6823 3.51303L79.9268 2.54492L80.4108 2.66769C81.3789 2.91221 82.357 3.18468 83.3171 3.47611L83.7952 3.62482L83.5048 4.57895ZM50.2537 3.39427L50.0332 2.42017L50.5202 2.31038C51.4923 2.09081 52.4874 1.8902 53.4774 1.71155L53.9695 1.62871L54.1431 2.61179L53.6511 2.69862C52.677 2.87129 51.6969 3.0679 50.7398 3.28448L50.2537 3.39427ZM77.758 3.07988L77.269 2.98007C76.3038 2.78046 75.3198 2.6088 74.3457 2.46009L73.8516 2.38424L74.0033 1.39717L74.4964 1.47302C75.4864 1.62472 76.4865 1.80337 77.4666 2.00099L77.9556 2.10079L77.758 3.07988ZM56.0923 2.31338L55.9656 1.32331L56.4646 1.25944C57.4527 1.13268 58.4607 1.02689 59.4588 0.944052L59.9578 0.903132L60.0396 1.90118L59.5406 1.9421C58.5535 2.02294 57.5595 2.12774 56.5874 2.2525L56.0923 2.31338ZM71.8995 2.12774L71.4004 2.07484C70.4253 1.97504 69.4293 1.8902 68.4412 1.83232L67.9422 1.80337L68.0001 0.805323L68.4991 0.834266C69.5031 0.893151 70.5152 0.975989 71.5052 1.08078L72.0042 1.13268L71.8995 2.12774ZM62.0068 1.78142L61.9718 0.783365L62.4709 0.766399C63.2327 0.742445 63.9916 0.730469 64.7474 0.730469L65.987 0.740449L65.975 1.7385L64.7474 1.72852C64.0035 1.72852 63.2563 1.74149 62.5058 1.76744L62.0068 1.78142Z" fill="white"/>
<path d="M64.6835 120.307C50.0274 120.307 35.9643 114.52 25.5536 104.204C15.143 93.8879 9.22723 79.8781 9.0935 65.2227C8.95977 50.5673 14.6189 36.4519 24.8395 25.9478C35.0602 15.4436 49.0154 9.40049 63.669 9.13328C78.3226 8.86606 92.489 14.3963 103.086 24.5209C113.683 34.6455 119.853 48.5451 120.253 63.1956C120.654 77.8462 115.253 92.0623 105.225 102.751C95.1977 113.44 81.3549 119.736 66.7085 120.27C66.0279 120.297 65.3512 120.307 64.6835 120.307ZM64.7314 10.153C64.0697 10.153 63.409 10.165 62.7433 10.189C51.9559 10.5771 41.5258 14.1554 32.772 20.4713C24.0183 26.7872 17.334 35.5571 13.5644 45.6719C9.79489 55.7867 9.10939 66.7922 11.5946 77.2966C14.0799 87.801 19.6242 97.3326 27.5266 104.686C35.4289 112.039 45.3343 116.884 55.9902 118.608C66.6461 120.332 77.5738 118.857 87.3915 114.37C97.2092 109.883 105.476 102.586 111.146 93.401C116.817 84.216 119.636 73.5557 119.248 62.7683C118.723 48.6525 112.752 35.2884 102.588 25.4789C92.4245 15.6694 78.8569 10.1768 64.7314 10.153Z" fill="white"/>
<path d="M89.5351 69.4363H88.7157V62.0377C88.7152 61.4808 88.5809 60.9321 88.324 60.4379C88.0671 59.9438 87.6952 59.5186 87.2395 59.1983V58.1912C87.2388 57.4887 86.9593 56.8152 86.4626 56.3184C85.9658 55.8216 85.2923 55.5422 84.5897 55.5414H83.9789L86.3253 52.0981C86.703 51.5427 86.8449 50.8601 86.7199 50.2002C86.5949 49.5403 86.2133 48.9569 85.6586 48.578L69.7337 37.7252C69.4588 37.5378 69.1497 37.4064 68.824 37.3385C68.4983 37.2706 68.1625 37.2675 67.8356 37.3294C67.5087 37.3913 67.1972 37.517 66.9189 37.6993C66.6406 37.8816 66.4009 38.117 66.2136 38.3919L52.4695 58.5615H48.6439L49.5671 49.2198C49.5719 49.1686 49.5907 49.1198 49.6215 49.0788C49.6524 49.0377 49.694 49.006 49.7418 48.9872C50.9372 48.5338 51.9546 47.7071 52.6431 46.6298C52.671 46.5877 52.71 46.554 52.7558 46.5325C52.8015 46.5111 52.8524 46.5026 52.9026 46.5081L58.9019 47.1009C59.0054 47.1135 59.1104 47.1054 59.2107 47.0768C59.311 47.0483 59.4046 47.0001 59.486 46.9349C59.5673 46.8697 59.6349 46.7888 59.6846 46.6972C59.7343 46.6055 59.7651 46.5048 59.7754 46.4011C59.7856 46.2973 59.775 46.1925 59.7442 46.0929C59.7134 45.9933 59.663 45.9008 59.5959 45.821C59.5289 45.7411 59.4465 45.6755 59.3537 45.6279C59.2609 45.5803 59.1596 45.5518 59.0556 45.5439L53.0563 44.9511C52.7179 44.9161 52.3764 44.9761 52.0702 45.1243C51.7639 45.2726 51.5051 45.5033 51.3227 45.7905C50.8165 46.5822 50.0686 47.1898 49.1899 47.5231C48.8683 47.6434 48.5871 47.8519 48.3784 48.1246C48.1698 48.3973 48.0422 48.7232 48.0102 49.0651L47.072 58.5605H46.0739L47.5331 43.7894C47.5456 43.6627 47.5829 43.5397 47.6429 43.4274C47.703 43.3152 47.7845 43.2159 47.883 43.1351C47.9814 43.0544 48.0948 42.9939 48.2166 42.957C48.3384 42.9201 48.4663 42.9075 48.593 42.9201L60.7163 44.1177C60.8199 44.1304 60.9248 44.1222 61.0251 44.0937C61.1254 44.0652 61.219 44.0169 61.3004 43.9517C61.3818 43.8865 61.4493 43.8057 61.499 43.714C61.5487 43.6223 61.5796 43.5217 61.5898 43.4179C61.6001 43.3141 61.5895 43.2094 61.5587 43.1097C61.5278 43.0101 61.4774 42.9177 61.4104 42.8378C61.3433 42.758 61.261 42.6923 61.1682 42.6447C61.0754 42.5972 60.974 42.5686 60.87 42.5608L48.7467 41.3631C48.0783 41.2979 47.4113 41.5004 46.8919 41.9263C46.3726 42.3521 46.0432 42.9664 45.9761 43.6347L44.8014 55.5404H42.7983C42.0958 55.5412 41.4223 55.8206 40.9255 56.3174C40.4287 56.8142 40.1493 57.4877 40.1485 58.1902V58.8779C39.5439 59.1555 39.0315 59.6006 38.6721 60.1604C38.3127 60.7203 38.1212 61.3714 38.1205 62.0367V88.7007C38.1215 89.6223 38.4881 90.5059 39.1398 91.1575C39.7915 91.8092 40.6751 92.1758 41.5967 92.1769H85.2434C86.1651 92.1758 87.0486 91.8092 87.7003 91.1575C88.352 90.5059 88.7186 89.6223 88.7197 88.7007V81.3011H89.5351C90.0013 81.3006 90.4483 81.1151 90.778 80.7854C91.1077 80.4558 91.2931 80.0088 91.2936 79.5425V71.1928C91.2926 70.727 91.1069 70.2805 90.7773 69.9512C90.4476 69.622 90.001 69.4368 89.5351 69.4363ZM84.5917 57.1054C84.8796 57.1056 85.1557 57.2201 85.3593 57.4237C85.5628 57.6273 85.6773 57.9033 85.6776 58.1912V58.5905C85.532 58.5716 85.3853 58.5619 85.2385 58.5615H81.9199L82.912 57.1054H84.5917ZM67.5071 39.2732C67.5786 39.1678 67.6702 39.0776 67.7768 39.0079C67.8834 38.9382 68.0027 38.8903 68.1279 38.867C68.1881 38.8557 68.2492 38.85 68.3105 38.85C68.5047 38.8501 68.6943 38.9089 68.8545 39.0187L84.7774 49.8695C84.9895 50.0143 85.1356 50.2374 85.1835 50.4898C85.2314 50.7423 85.1772 51.0034 85.0329 51.2159L80.0276 58.5605H78.83L81.2842 54.9596C81.4791 54.677 81.5905 54.3452 81.6057 54.0023C81.6209 53.6593 81.5392 53.319 81.37 53.0203C80.9105 52.2017 80.7268 51.2568 80.846 50.3256C80.8904 49.9883 80.8398 49.6454 80.7 49.3353C80.5602 49.0251 80.3367 48.7601 80.0546 48.57L71.7997 42.944C71.5194 42.7502 71.1906 42.6386 70.8502 42.6217C70.5099 42.6047 70.1716 42.6832 69.8735 42.8482C69.0496 43.3007 68.1019 43.4757 67.1707 43.3472C66.831 43.3015 66.4851 43.3509 66.1718 43.4902C65.8585 43.6294 65.59 43.8529 65.3962 44.1357L55.5654 58.5625H54.3677L67.5071 39.2732ZM67.8514 52.5562C66.2188 52.5583 64.6476 53.1791 63.4544 54.2934C62.2612 55.4077 61.5346 56.9328 61.421 58.5615H57.4567L66.6877 45.016C66.713 44.9786 66.747 44.9478 66.7869 44.9265C66.8267 44.9051 66.8711 44.8937 66.9162 44.8932H66.9522C68.2185 45.0679 69.5075 44.8299 70.628 44.2145C70.6728 44.191 70.7232 44.1803 70.7737 44.1834C70.8242 44.1866 70.8729 44.2036 70.9144 44.2325L79.1693 49.8585C79.2114 49.8867 79.2449 49.9259 79.2662 49.9719C79.2874 50.0178 79.2957 50.0687 79.2901 50.119C79.1268 51.3871 79.3767 52.674 80.0027 53.7888C80.0273 53.8339 80.0389 53.8849 80.0363 53.9362C80.0337 53.9875 80.0168 54.037 79.9877 54.0793L76.9337 58.5615H74.2819C74.1685 56.9327 73.442 55.4073 72.2488 54.2928C71.0555 53.1782 69.4842 52.5584 67.8514 52.5562ZM72.7129 58.5615H62.9869C63.093 57.3449 63.6513 56.2123 64.5516 55.3871C65.4518 54.562 66.6287 54.1042 67.8499 54.1042C69.0711 54.1042 70.248 54.562 71.1483 55.3871C72.0485 56.2123 72.6068 57.3449 72.7129 58.5615ZM41.7125 58.1912C41.7127 57.9033 41.8272 57.6273 42.0308 57.4237C42.2344 57.2201 42.5104 57.1056 42.7983 57.1054H44.6467L44.503 58.5605H41.7085V58.1912H41.7125ZM39.6844 62.0377C39.685 61.5307 39.8866 61.0446 40.2451 60.6861C40.6036 60.3276 41.0897 60.126 41.5967 60.1255H85.2434C85.7504 60.126 86.2365 60.3276 86.595 60.6861C86.9535 61.0446 87.1552 61.5307 87.1557 62.0377V64.2065H39.6844V62.0377ZM87.1517 88.7007C87.1512 89.207 86.9501 89.6924 86.5925 90.0508C86.2348 90.4092 85.7497 90.6113 85.2434 90.6129H41.5967C41.0897 90.6124 40.6036 90.4107 40.2451 90.0522C39.8866 89.6937 39.685 89.2077 39.6844 88.7007V86.5299H43.9022C44.1047 86.5227 44.2966 86.4371 44.4373 86.2912C44.5781 86.1454 44.6567 85.9506 44.6567 85.7479C44.6567 85.5452 44.5781 85.3505 44.4373 85.2046C44.2966 85.0587 44.1047 84.9732 43.9022 84.966H39.6844V65.7724H87.1517V69.4363H79.7142C78.6007 69.4373 77.51 69.7513 76.5664 70.3425C75.6228 70.9337 74.8643 71.7782 74.3777 72.7798L74.3677 72.7997C74.3597 72.8167 74.3527 72.8336 74.3447 72.8506C74.2276 73.0956 74.1276 73.3484 74.0453 73.6071C73.7698 74.495 73.7068 75.4353 73.8613 76.352C74.0158 77.2688 74.3836 78.1364 74.9349 78.8849C75.4862 79.6335 76.2057 80.2421 77.0353 80.6616C77.865 81.0811 78.7816 81.2998 79.7112 81.3001H87.1487V84.966H48.9144C48.7118 84.9732 48.52 85.0587 48.3793 85.2046C48.2385 85.3505 48.1599 85.5452 48.1599 85.7479C48.1599 85.9506 48.2385 86.1454 48.3793 86.2912C48.52 86.4371 48.7118 86.5227 48.9144 86.5299H87.1507L87.1517 88.7007ZM89.7347 79.5435C89.7332 79.5946 89.7121 79.6431 89.6759 79.6791C89.6397 79.7151 89.5911 79.7359 89.54 79.7372H79.7142C78.9275 79.7368 78.1554 79.524 77.4795 79.1214C76.8036 78.7188 76.2488 78.1412 75.8737 77.4496C75.8398 77.3878 75.8065 77.3249 75.7739 77.261C75.7127 77.1339 75.6575 77.0032 75.6083 76.8688C75.2542 75.8997 75.2542 74.8367 75.6083 73.8676C75.6575 73.7346 75.7127 73.6038 75.7739 73.4754C75.8045 73.4089 75.8378 73.346 75.8737 73.2868C76.2488 72.5952 76.8036 72.0176 77.4795 71.615C78.1554 71.2124 78.9275 70.9996 79.7142 70.9992H89.5351C89.5861 71.0005 89.6347 71.0213 89.6709 71.0573C89.7071 71.0933 89.7282 71.1418 89.7297 71.1928V79.5405L89.7347 79.5435Z" fill="black"/>
<path d="M79.8978 72.1904C79.2701 72.1904 78.6565 72.3766 78.1345 72.7253C77.6126 73.0741 77.2058 73.5697 76.9656 74.1497C76.7254 74.7296 76.6625 75.3678 76.785 75.9834C76.9074 76.5991 77.2097 77.1646 77.6536 77.6085C78.0974 78.0523 78.663 78.3546 79.2786 78.477C79.8943 78.5995 80.5324 78.5367 81.1124 78.2964C81.6923 78.0562 82.188 77.6494 82.5367 77.1275C82.8855 76.6056 83.0716 75.9919 83.0716 75.3642C83.0708 74.5227 82.7362 73.7159 82.1411 73.1209C81.5461 72.5259 80.7393 72.1912 79.8978 72.1904ZM79.8978 76.9731C79.5796 76.9731 79.2685 76.8787 79.004 76.702C78.7394 76.5252 78.5332 76.2739 78.4114 75.9799C78.2896 75.6859 78.2578 75.3624 78.3199 75.0504C78.3819 74.7383 78.5352 74.4516 78.7602 74.2266C78.9852 74.0016 79.2718 73.8484 79.5839 73.7863C79.896 73.7242 80.2195 73.7561 80.5135 73.8778C80.8075 73.9996 81.0587 74.2058 81.2355 74.4704C81.4123 74.735 81.5067 75.046 81.5067 75.3642C81.5074 75.5761 81.4664 75.7861 81.386 75.9821C81.3055 76.1781 81.1871 76.3563 81.0377 76.5064C80.8882 76.6566 80.7106 76.7759 80.515 76.8573C80.3194 76.9388 80.1097 76.9808 79.8978 76.9811V76.9731Z" fill="black"/>
</g>
</g>
</g>
<defs>
<clipPath id="clip0_15_756">
<rect width="128" height="128" fill="white" transform="translate(0.70752 0.730469)"/>
</clipPath>
<clipPath id="clip1_15_756">
<rect width="128" height="128" fill="white" transform="translate(0.70752 0.730469)"/>
</clipPath>
<clipPath id="clip2_15_756">
<rect width="127.998" height="128" fill="white" transform="translate(0.708496 0.730469)"/>
</clipPath>
</defs>
</svg>
