<svg width="77" height="77" viewBox="0 0 77 77" fill="none" xmlns="http://www.w3.org/2000/svg">
<g clip-path="url(#clip0_15_1430)">
<g clip-path="url(#clip1_15_1430)">
<g clip-path="url(#clip2_15_1430)">
<mask id="mask0_15_1430" style="mask-type:luminance" maskUnits="userSpaceOnUse" x="8" y="8" width="60" height="60">
<path d="M38.0856 67.9212C54.5665 67.9212 67.927 54.5607 67.927 38.0797C67.927 21.5987 54.5665 8.23828 38.0856 8.23828C21.6046 8.23828 8.24414 21.5987 8.24414 38.0797C8.24414 54.5607 21.6046 67.9212 38.0856 67.9212Z" fill="white"/>
</mask>
<g mask="url(#mask0_15_1430)">
<path d="M38.0856 67.9212C54.5665 67.9212 67.927 54.5607 67.927 38.0797C67.927 21.5987 54.5665 8.23828 38.0856 8.23828C21.6046 8.23828 8.24414 21.5987 8.24414 38.0797C8.24414 54.5607 21.6046 67.9212 38.0856 67.9212Z" fill="white"/>
<path d="M-6.64462 33.2052L-7.0625 33.623L42.4006 83.0861L42.8184 82.6682L-6.64462 33.2052Z" fill="white"/>
<path d="M-5.05234 31.627L-5.47021 32.0449L43.9928 81.508L44.4107 81.0901L-5.05234 31.627Z" fill="white"/>
<path d="M-3.46091 30.0509L-3.87878 30.4688L45.5843 79.9318L46.0021 79.5139L-3.46091 30.0509Z" fill="white"/>
<path d="M-1.86789 28.4737L-2.28577 28.8916L47.1773 78.3547L47.5952 77.9368L-1.86789 28.4737Z" fill="white"/>
<path d="M-0.276457 26.8985L-0.694336 27.3164L48.7687 76.7795L49.1866 76.3616L-0.276457 26.8985Z" fill="white"/>
<path d="M1.3168 25.3224L0.898926 25.7402L50.362 75.2033L50.7799 74.7854L1.3168 25.3224Z" fill="white"/>
<path d="M2.90909 23.7442L2.49121 24.1621L51.9543 73.6252L52.3721 73.2073L2.90909 23.7442Z" fill="white"/>
<path d="M4.50125 22.169L4.08337 22.5869L53.5464 72.05L53.9643 71.6321L4.50125 22.169Z" fill="white"/>
<path d="M6.0928 20.5919L5.67493 21.0098L55.138 70.4728L55.5559 70.0549L6.0928 20.5919Z" fill="white"/>
<path d="M7.68607 19.0157L7.26819 19.4336L56.7312 68.8966L57.1491 68.4788L7.68607 19.0157Z" fill="white"/>
<path d="M9.27823 17.4395L8.86035 17.8574L58.3234 67.3205L58.7413 66.9026L9.27823 17.4395Z" fill="white"/>
<path d="M10.8698 15.8624L10.4519 16.2803L59.915 65.7433L60.3328 65.3254L10.8698 15.8624Z" fill="white"/>
<path d="M12.4621 14.2852L12.0442 14.7031L61.5072 64.1662L61.9251 63.7483L12.4621 14.2852Z" fill="white"/>
<path d="M14.0542 12.7091L13.6364 13.127L63.0994 62.59L63.5173 62.1721L14.0542 12.7091Z" fill="white"/>
<path d="M15.6475 11.1319L15.2296 11.5498L64.6927 61.0129L65.1105 60.595L15.6475 11.1319Z" fill="white"/>
<path d="M17.2397 9.55673L16.8218 9.97461L66.2848 59.4377L66.7027 59.0198L17.2397 9.55673Z" fill="white"/>
<path d="M18.8312 7.97958L18.4133 8.39746L67.8764 57.8605L68.2943 57.4426L18.8312 7.97958Z" fill="white"/>
<path d="M20.4228 6.40341L20.0049 6.82129L69.4679 56.2843L69.8858 55.8665L20.4228 6.40341Z" fill="white"/>
<path d="M22.0157 4.82626L21.5978 5.24414L71.0608 54.7072L71.4787 54.2893L22.0157 4.82626Z" fill="white"/>
<path d="M23.6082 3.25009L23.1903 3.66797L72.6534 53.131L73.0712 52.7131L23.6082 3.25009Z" fill="white"/>
<path d="M25.2012 1.67294L24.7833 2.09082L74.2464 51.5539L74.6643 51.136L25.2012 1.67294Z" fill="white"/>
<path d="M26.7926 0.0977471L26.3748 0.515625L75.8378 49.9787L76.2557 49.5608L26.7926 0.0977471Z" fill="white"/>
<path d="M28.3849 -1.47842L27.967 -1.06055L77.4301 48.4025L77.848 47.9846L28.3849 -1.47842Z" fill="white"/>
<path d="M29.9771 -3.05655L29.5592 -2.63867L79.0223 46.8244L79.4401 46.4065L29.9771 -3.05655Z" fill="white"/>
<path d="M31.5696 -4.63272L31.1517 -4.21484L80.6148 45.2482L81.0327 44.8303L31.5696 -4.63272Z" fill="white"/>
<path d="M33.1623 -6.60245L32.7444 -6.18457L82.2074 43.2785L82.6253 42.8606L33.1623 -6.60245Z" fill="white"/>
</g>
<path d="M52.0059 30.5863V30.5603C51.9919 30.2453 51.9819 29.9123 51.9759 29.5423C51.959 28.6679 51.6127 27.832 51.0064 27.2017C50.4 26.5715 49.5782 26.1932 48.705 26.1425C45.2658 26.0715 41.9838 24.6881 39.5315 22.2757L39.5105 22.2557C39.1226 21.8973 38.6138 21.6982 38.0856 21.6982C37.5574 21.6982 37.0486 21.8973 36.6607 22.2557L36.6397 22.2757C34.1873 24.688 30.9054 26.0713 27.4662 26.1425C26.593 26.1932 25.7712 26.5715 25.1648 27.2017C24.5585 27.832 24.2122 28.6679 24.1953 29.5423C24.1893 29.9103 24.1803 30.2423 24.1653 30.5603V30.6193C24.0913 34.4621 24.0023 39.2438 25.6023 43.5836C26.4429 45.9099 27.7959 48.0174 29.561 49.7502C31.7764 51.8274 34.4214 53.3919 37.3086 54.333C37.4125 54.3693 37.5188 54.3983 37.6266 54.42C37.9309 54.481 38.2443 54.481 38.5486 54.42C38.6568 54.3984 38.7634 54.3693 38.8676 54.333C41.7499 53.3888 44.3899 51.8234 46.6011 49.7472C48.3658 48.0132 49.7187 45.9052 50.5599 43.5786C52.1699 39.2258 52.0789 34.4351 52.0059 30.5863ZM48.76 42.9136C47.0731 47.4884 43.6283 50.6292 38.2306 52.5131C38.2106 52.5201 38.1903 52.5257 38.1696 52.5301C38.1138 52.5412 38.0564 52.5412 38.0006 52.5301C37.9799 52.5261 37.9596 52.5207 37.9396 52.5141C32.5399 50.6302 29.0901 47.4904 27.4042 42.9146C25.9302 38.9148 26.0132 34.524 26.0872 30.6522V30.6353C26.1022 30.3023 26.1122 29.9543 26.1182 29.5713C26.1259 29.1825 26.28 28.811 26.5497 28.5308C26.8194 28.2507 27.1849 28.0827 27.5731 28.0604C29.5417 27.9775 31.4806 27.5504 33.3018 26.7985C35.0413 26.0573 36.6248 24.9937 37.9686 23.6636C38.0012 23.634 38.0436 23.6176 38.0876 23.6176C38.1316 23.6176 38.174 23.634 38.2066 23.6636C39.5499 24.9934 41.1327 26.057 42.8713 26.7985C44.6921 27.5495 46.6302 27.9759 48.598 28.0584C48.9863 28.0805 49.352 28.2484 49.6217 28.5286C49.8915 28.8087 50.0455 29.1804 50.053 29.5693C50.059 29.9543 50.069 30.3033 50.084 30.6333C50.157 34.512 50.239 38.9048 48.76 42.9136Z" fill="black"/>
<path d="M38.086 29.9131C36.4705 29.9131 34.8913 30.3921 33.5481 31.2896C32.2049 32.1872 31.1579 33.4628 30.5397 34.9553C29.9215 36.4478 29.7598 38.0901 30.0749 39.6746C30.3901 41.259 31.168 42.7144 32.3103 43.8567C33.4526 44.999 34.908 45.777 36.4925 46.0921C38.0769 46.4073 39.7192 46.2456 41.2117 45.6273C42.7042 45.0091 43.9799 43.9622 44.8774 42.619C45.7749 41.2758 46.254 39.6966 46.254 38.0811C46.2516 35.9155 45.3903 33.8393 43.859 32.3081C42.3277 30.7768 40.2515 29.9155 38.086 29.9131ZM38.086 44.3251C36.851 44.3251 35.6438 43.9589 34.617 43.2728C33.5902 42.5867 32.7899 41.6115 32.3173 40.4706C31.8447 39.3296 31.721 38.0742 31.9619 36.8629C32.2029 35.6517 32.7976 34.5391 33.6708 33.6659C34.544 32.7927 35.6566 32.198 36.8678 31.9571C38.079 31.7161 39.3345 31.8398 40.4754 32.3124C41.6164 32.785 42.5916 33.5853 43.2777 34.6121C43.9638 35.6389 44.33 36.8461 44.33 38.0811C44.3281 39.7365 43.6697 41.3236 42.4991 42.4942C41.3285 43.6648 39.7414 44.3232 38.086 44.3251Z" fill="black"/>
<path d="M40.4328 35.5453L36.6388 39.3393L35.6088 38.3093C35.4269 38.1367 35.1848 38.042 34.9341 38.0453C34.6833 38.0486 34.4438 38.1497 34.2665 38.327C34.0892 38.5043 33.9881 38.7438 33.9848 38.9946C33.9815 39.2453 34.0762 39.4874 34.2488 39.6693L35.9588 41.3793C36.1392 41.5596 36.3838 41.6608 36.6388 41.6608C36.8938 41.6608 37.1384 41.5596 37.3188 41.3793L41.7928 36.9053C41.9654 36.7234 42.0601 36.4813 42.0568 36.2306C42.0535 35.9798 41.9524 35.7403 41.7751 35.563C41.5978 35.3857 41.3583 35.2846 41.1075 35.2813C40.8568 35.278 40.6147 35.3727 40.4328 35.5453Z" fill="black"/>
<path d="M38.6365 76.16L38.6215 75.1601C39.9486 75.141 41.2737 75.0516 42.5913 74.8921L42.7113 75.885C41.3588 76.0486 39.9987 76.1403 38.6365 76.16ZM36.5936 76.135C35.232 76.0825 33.8741 75.9573 32.5258 75.76L32.6708 74.7711C33.9837 74.9627 35.3058 75.0846 36.6316 75.1361L36.5936 76.135ZM44.7332 75.586L44.5602 74.5961C45.867 74.366 47.1605 74.0656 48.435 73.6961L48.713 74.6561C47.4038 75.0376 46.0759 75.348 44.7332 75.586ZM30.5119 75.411C29.1753 75.1408 27.8541 74.799 26.5541 74.3871L26.8541 73.4342C28.1196 73.8362 29.4057 74.17 30.7069 74.4341L30.5119 75.411ZM50.6609 74.0381L50.3309 73.0962C51.5835 72.6581 52.8116 72.1527 54.0097 71.5822L54.4397 72.4822C53.2089 73.0683 51.9475 73.5877 50.6609 74.0381ZM24.6202 73.7141C23.3449 73.2317 22.0965 72.6809 20.8804 72.0642L21.3324 71.1723C22.5162 71.7727 23.7316 72.3088 24.9732 72.7782L24.6202 73.7141ZM56.2586 71.5562L55.7796 70.6783C56.9452 70.0452 58.076 69.3502 59.1674 68.5964L59.7364 69.4184C58.6156 70.1926 57.4543 70.9065 56.2576 71.5572L56.2586 71.5562ZM19.0805 71.0893C17.8998 70.4077 16.7563 69.6637 15.6547 68.8604L16.2447 68.0524C17.3171 68.835 18.4307 69.5597 19.5805 70.2233L19.0805 71.0893ZM61.3843 68.2074L60.7723 67.4175C61.8212 66.6047 62.8262 65.7368 63.7832 64.8176L64.4762 65.5386C63.4933 66.4824 62.4618 67.3733 61.3843 68.2074ZM14.0368 67.6075C12.9807 66.7456 11.971 65.8283 11.012 64.8596L11.7229 64.1596C12.6568 65.1031 13.6401 65.9963 14.6688 66.8355L14.0368 67.6075ZM65.9111 64.0776L65.1801 63.3967C66.0865 62.4268 66.9406 61.4094 67.739 60.3488L68.5389 60.9488C67.7193 62.0387 66.8421 63.0842 65.9111 64.0806V64.0776ZM9.61404 63.3697C8.70851 62.3512 7.85801 61.285 7.06617 60.1758L7.88013 59.5969C8.65093 60.6771 9.47872 61.7155 10.36 62.7077L9.61404 63.3697ZM69.7239 59.2819L68.8939 58.7239C69.6339 57.6219 70.3141 56.481 70.9318 55.3061L71.8178 55.7711C71.1832 56.979 70.4842 58.1519 69.7239 59.2849V59.2819ZM5.92723 58.4819C5.19741 57.3319 4.52982 56.1436 3.92733 54.9221L4.82729 54.4801C5.41544 55.6693 6.06667 56.8262 6.77818 57.946L5.92723 58.4819ZM72.7237 53.9342L71.8148 53.5182C72.3673 52.3118 72.855 51.0768 73.2757 49.8184L74.2236 50.1344C73.791 51.4281 73.289 52.6975 72.7197 53.9372L72.7237 53.9342ZM3.06738 53.0732C2.53173 51.8202 2.0644 50.539 1.66745 49.2354L2.6234 48.9434C3.01174 50.212 3.46805 51.4587 3.99033 52.6782L3.06738 53.0732ZM74.8136 48.1805L73.8487 47.9165C74.1992 46.6362 74.4809 45.3381 74.6926 44.0277L75.6796 44.1867C75.4623 45.5324 75.1732 46.8656 74.8136 48.1805ZM1.11748 47.2655C0.789847 45.9424 0.533822 44.6025 0.350522 43.2517L1.34147 43.1177C1.51978 44.4328 1.7688 45.7373 2.08743 47.0255L1.11748 47.2655ZM75.9495 42.1658L74.9556 42.0598C75.0956 40.7402 75.1657 39.414 75.1656 38.087V37.937H76.1655V38.087C76.1658 39.4481 76.094 40.8083 75.9505 42.1618L75.9495 42.1658ZM0.130533 41.2198C0.0465378 40.1839 0.00354004 39.1279 0.00354004 38.082C0.00354004 37.766 0.00720651 37.451 0.0145395 37.1371L1.01449 37.16C1.00715 37.4674 1.00349 37.7747 1.00349 38.082C1.00349 39.1009 1.04549 40.1289 1.12848 41.1388L0.130533 41.2198ZM75.1056 35.9441C75.0304 34.6193 74.8845 33.2995 74.6686 31.9903L75.6546 31.8273C75.8767 33.1719 76.0266 34.5275 76.1035 35.8881L75.1056 35.9441ZM1.11548 35.1732L0.115534 35.0962C0.220927 33.7374 0.398838 32.3852 0.648506 31.0454L1.63145 31.2294C1.38922 32.5338 1.21698 33.8503 1.11548 35.1732ZM74.2916 30.0364C74.0049 28.7405 73.6483 27.4611 73.2237 26.2036L74.1706 25.8836C74.6077 27.1752 74.9748 28.4894 75.2706 29.8204L74.2916 30.0364ZM2.05343 29.2845L1.08148 29.0485C1.40415 27.7236 1.79803 26.4171 2.26142 25.1347L3.20137 25.4747C2.75066 26.7231 2.36746 27.9949 2.05343 29.2845ZM72.5357 24.3367C72.0433 23.1043 71.4848 21.8993 70.8628 20.7269L71.7468 20.2579C72.3853 21.4623 72.9587 22.7 73.4647 23.9657L72.5357 24.3367ZM3.93033 23.6178L3.00938 23.2268C3.5431 21.9718 4.14394 20.7464 4.80929 19.556L5.68224 20.0429C5.03452 21.2022 4.44971 22.3956 3.93033 23.6178ZM69.8849 18.999C69.2011 17.8619 68.4567 16.7624 67.655 15.7052L68.4549 15.1052C69.2782 16.1913 70.0429 17.3205 70.7458 18.488L69.8849 18.999ZM6.69619 18.33L5.85023 17.7991C6.57743 16.6461 7.36585 15.5329 8.21211 14.4642L8.99607 15.0852C8.17224 16.1251 7.40452 17.2083 6.69619 18.33ZM66.4111 14.1493C65.5536 13.1351 64.6431 12.1671 63.6832 11.2494L64.3732 10.5254C65.3586 11.4667 66.2932 12.4597 67.173 13.5003L66.4111 14.1493ZM10.274 13.5553L9.52404 12.8933C10.4262 11.8718 11.3818 10.8989 12.3869 9.97848L13.0619 10.7164C12.0827 11.6125 11.1521 12.5601 10.274 13.5553ZM62.2073 9.91648C61.1986 9.05293 60.1449 8.24351 59.0504 7.49161L59.6164 6.66765C60.7395 7.43987 61.821 8.27099 62.8562 9.15752L62.2073 9.91648ZM14.5658 9.4165L13.9308 8.64455C14.9838 7.77786 16.0827 6.9684 17.2226 6.21967L17.7706 7.05563C16.6611 7.78357 15.5913 8.57032 14.5658 9.41251V9.4165ZM57.3795 6.41666C56.2476 5.72512 55.0793 5.09491 53.8797 4.52876L54.3067 3.62881C55.5404 4.21035 56.7421 4.85758 57.9065 5.56771L57.3795 6.41666ZM19.4615 6.01668L18.9615 5.15273C20.1395 4.46789 21.3532 3.84637 22.5974 3.29083L23.0023 4.19978C21.7907 4.73956 20.6087 5.34372 19.4615 6.00968V6.01668ZM52.0518 3.7268C50.8222 3.22601 49.5665 2.79207 48.29 2.42687L48.564 1.46492C49.8752 1.83957 51.1654 2.28453 52.4288 2.79785L52.0518 3.7268ZM24.8362 3.43782L24.4793 2.49987C25.7527 2.01281 27.0515 1.59489 28.3701 1.24793L28.624 2.21488C27.3404 2.55435 26.076 2.96258 24.8362 3.43782ZM46.3611 1.9269C45.0671 1.63246 43.7583 1.40748 42.4403 1.25293L42.5563 0.259986C43.91 0.418607 45.2541 0.649592 46.5831 0.95195L46.3611 1.9269ZM30.5619 1.76391L30.3619 0.784959C31.6967 0.510162 33.0452 0.307214 34.4017 0.176991L34.5017 1.17694C33.1786 1.30211 31.8641 1.49804 30.5619 1.76391ZM40.4614 1.07494C39.6645 1.02495 38.8635 0.999947 38.0535 0.999947C37.5262 0.999947 37.0019 1.01128 36.4806 1.03395L36.4376 0.0339982C36.9836 0.0119994 37.4956 0 38.0855 0C38.8975 0 39.7175 0.0259986 40.5214 0.076996L40.4614 1.07494Z" fill="white"/>
<path d="M38.0858 71.9965C31.378 71.9967 24.8208 70.0078 19.2433 66.2813C13.6659 62.5548 9.31874 57.2581 6.7516 51.061C4.18445 44.8638 3.51262 38.0446 4.82105 31.4657C6.12948 24.8868 9.35941 18.8435 14.1024 14.1003C18.8454 9.35701 24.8884 6.12672 31.4673 4.8179C38.0461 3.50908 44.8654 4.18051 51.0627 6.74729C57.2599 9.31407 62.5569 13.6609 66.2837 19.2381C70.0105 24.8154 71.9998 31.3725 72 38.0802C71.99 47.072 68.4137 55.6925 62.0558 62.0508C55.6979 68.4091 47.0775 71.9859 38.0858 71.9965ZM38.0858 5.16598C31.5757 5.16578 25.2117 7.09609 19.7987 10.7128C14.3856 14.3295 10.1666 19.4701 7.67524 25.4847C5.18383 31.4992 4.53192 38.1174 5.80193 44.5025C7.07194 50.8875 10.2068 56.7525 14.8102 61.3559C19.4135 65.9592 25.2786 69.0941 31.6636 70.3641C38.0486 71.6341 44.6669 70.9822 50.6814 68.4908C56.6959 65.9994 61.8366 61.7804 65.4533 56.3674C69.07 50.9543 71.0003 44.5904 71.0001 38.0802C70.99 29.3538 67.5191 20.9877 61.3486 14.8171C55.1782 8.6465 46.8122 5.1763 38.0858 5.16598Z" fill="white"/>
</g>
</g>
</g>
<defs>
<clipPath id="clip0_15_1430">
<rect width="76.17" height="76.16" fill="white"/>
</clipPath>
<clipPath id="clip1_15_1430">
<rect width="76.17" height="76.16" fill="white"/>
</clipPath>
<clipPath id="clip2_15_1430">
<rect width="76.163" height="76.16" fill="white" transform="translate(0.00354004)"/>
</clipPath>
</defs>
</svg>
