<svg width="77" height="77" viewBox="0 0 77 77" fill="none" xmlns="http://www.w3.org/2000/svg">
<g clip-path="url(#clip0_15_1471)">
<g clip-path="url(#clip1_15_1471)">
<g clip-path="url(#clip2_15_1471)">
<mask id="mask0_15_1471" style="mask-type:luminance" maskUnits="userSpaceOnUse" x="8" y="8" width="60" height="61">
<path d="M38.0856 68.0813C54.5665 68.0813 67.927 54.7208 67.927 38.2399C67.927 21.7589 54.5665 8.39844 38.0856 8.39844C21.6046 8.39844 8.24414 21.7589 8.24414 38.2399C8.24414 54.7208 21.6046 68.0813 38.0856 68.0813Z" fill="white"/>
</mask>
<g mask="url(#mask0_15_1471)">
<path d="M38.0856 68.0813C54.5665 68.0813 67.927 54.7208 67.927 38.2399C67.927 21.7589 54.5665 8.39844 38.0856 8.39844C21.6046 8.39844 8.24414 21.7589 8.24414 38.2399C8.24414 54.7208 21.6046 68.0813 38.0856 68.0813Z" fill="white"/>
<path d="M-6.64462 33.3653L-7.0625 33.7832L42.4006 83.2463L42.8184 82.8284L-6.64462 33.3653Z" fill="white"/>
<path d="M-5.05234 31.7872L-5.47021 32.2051L43.9928 81.6681L44.4107 81.2503L-5.05234 31.7872Z" fill="white"/>
<path d="M-3.46091 30.211L-3.87878 30.6289L45.5843 80.092L46.0021 79.6741L-3.46091 30.211Z" fill="white"/>
<path d="M-1.86789 28.6339L-2.28577 29.0518L47.1773 78.5148L47.5952 78.0969L-1.86789 28.6339Z" fill="white"/>
<path d="M-0.276457 27.0587L-0.694336 27.4766L48.7687 76.9396L49.1866 76.5217L-0.276457 27.0587Z" fill="white"/>
<path d="M1.3168 25.4825L0.898926 25.9004L50.362 75.3634L50.7799 74.9456L1.3168 25.4825Z" fill="white"/>
<path d="M2.90909 23.9044L2.49121 24.3223L51.9543 73.7853L52.3721 73.3674L2.90909 23.9044Z" fill="white"/>
<path d="M4.50125 22.3292L4.08337 22.7471L53.5464 72.2101L53.9643 71.7922L4.50125 22.3292Z" fill="white"/>
<path d="M6.0928 20.752L5.67493 21.1699L55.138 70.633L55.5559 70.2151L6.0928 20.752Z" fill="white"/>
<path d="M7.68607 19.1759L7.26819 19.5938L56.7312 69.0568L57.1491 68.6389L7.68607 19.1759Z" fill="white"/>
<path d="M9.27823 17.5997L8.86035 18.0176L58.3234 67.4806L58.7413 67.0628L9.27823 17.5997Z" fill="white"/>
<path d="M10.8698 16.0226L10.4519 16.4404L59.915 65.9035L60.3328 65.4856L10.8698 16.0226Z" fill="white"/>
<path d="M12.4621 14.4454L12.0442 14.8633L61.5072 64.3263L61.9251 63.9085L12.4621 14.4454Z" fill="white"/>
<path d="M14.0542 12.8692L13.6364 13.2871L63.0994 62.7502L63.5173 62.3323L14.0542 12.8692Z" fill="white"/>
<path d="M15.6475 11.2921L15.2296 11.71L64.6927 61.173L65.1105 60.7551L15.6475 11.2921Z" fill="white"/>
<path d="M17.2397 9.71689L16.8218 10.1348L66.2848 59.5978L66.7027 59.1799L17.2397 9.71689Z" fill="white"/>
<path d="M18.8312 8.13974L18.4133 8.55762L67.8764 58.0207L68.2943 57.6028L18.8312 8.13974Z" fill="white"/>
<path d="M20.4228 6.56356L20.0049 6.98145L69.4679 56.4445L69.8858 56.0266L20.4228 6.56356Z" fill="white"/>
<path d="M22.0157 4.98642L21.5978 5.4043L71.0608 54.8674L71.4787 54.4495L22.0157 4.98642Z" fill="white"/>
<path d="M23.6082 3.41025L23.1903 3.82812L72.6534 53.2912L73.0712 52.8733L23.6082 3.41025Z" fill="white"/>
<path d="M25.2012 1.8331L24.7833 2.25098L74.2464 51.714L74.6643 51.2962L25.2012 1.8331Z" fill="white"/>
<path d="M26.7926 0.257903L26.3748 0.675781L75.8378 50.1388L76.2557 49.721L26.7926 0.257903Z" fill="white"/>
<path d="M28.3849 -1.31827L27.967 -0.900391L77.4301 48.5627L77.848 48.1448L28.3849 -1.31827Z" fill="white"/>
<path d="M29.9771 -2.89639L29.5592 -2.47852L79.0223 46.9845L79.4401 46.5667L29.9771 -2.89639Z" fill="white"/>
<path d="M31.5696 -4.47257L31.1517 -4.05469L80.6148 45.4084L81.0327 44.9905L31.5696 -4.47257Z" fill="white"/>
<path d="M33.1623 -6.44229L32.7444 -6.02441L82.2074 43.4386L82.6253 43.0208L33.1623 -6.44229Z" fill="white"/>
</g>
<path d="M38.6365 76.3202L38.6215 75.3202C39.9486 75.3012 41.2737 75.2117 42.5913 75.0522L42.7113 76.0452C41.3588 76.2087 39.9987 76.3005 38.6365 76.3202ZM36.5936 76.2952C35.232 76.2426 33.8741 76.1174 32.5258 75.9202L32.6708 74.9312C33.9837 75.1229 35.3058 75.2447 36.6316 75.2962L36.5936 76.2952ZM44.7332 75.7462L44.5602 74.7562C45.867 74.5261 47.1605 74.2257 48.435 73.8563L48.713 74.8162C47.4038 75.1978 46.0759 75.5082 44.7332 75.7462ZM30.5119 75.5712C29.1753 75.301 27.8541 74.9592 26.5541 74.5472L26.8541 73.5943C28.1196 73.9964 29.4057 74.3302 30.7069 74.5943L30.5119 75.5712ZM50.6609 74.1983L50.3309 73.2563C51.5835 72.8182 52.8116 72.3128 54.0097 71.7424L54.4397 72.6423C53.2089 73.2285 51.9475 73.7479 50.6609 74.1983ZM24.6202 73.8743C23.3449 73.3919 22.0965 72.8411 20.8804 72.2244L21.3324 71.3324C22.5162 71.9329 23.7316 72.469 24.9732 72.9383L24.6202 73.8743ZM56.2586 71.7164L55.7796 70.8384C56.9452 70.2053 58.076 69.5104 59.1674 68.7566L59.7364 69.5785C58.6156 70.3527 57.4543 71.0667 56.2576 71.7174L56.2586 71.7164ZM19.0805 71.2494C17.8998 70.5678 16.7563 69.8238 15.6547 69.0205L16.2447 68.2126C17.3171 68.9952 18.4307 69.7198 19.5805 70.3835L19.0805 71.2494ZM61.3843 68.3676L60.7723 67.5776C61.8212 66.7648 62.8262 65.897 63.7832 64.9778L64.4762 65.6987C63.4933 66.6425 62.4618 67.5334 61.3843 68.3676ZM14.0368 67.7676C12.9807 66.9057 11.971 65.9885 11.012 65.0198L11.7229 64.3198C12.6568 65.2633 13.6401 66.1565 14.6688 66.9956L14.0368 67.7676ZM65.9111 64.2378L65.1801 63.5568C66.0865 62.5869 66.9406 61.5696 67.739 60.509L68.5389 61.109C67.7193 62.1989 66.8421 63.2443 65.9111 64.2408V64.2378ZM9.61404 63.5298C8.70851 62.5113 7.85801 61.4452 7.06617 60.336L7.88013 59.757C8.65093 60.8373 9.47872 61.8757 10.36 62.8679L9.61404 63.5298ZM69.7239 59.442L68.8939 58.8841C69.6339 57.7821 70.3141 56.6412 70.9318 55.4663L71.8178 55.9312C71.1832 57.1391 70.4842 58.3121 69.7239 59.445V59.442ZM5.92723 58.6421C5.19741 57.4921 4.52982 56.3038 3.92733 55.0823L4.82729 54.6403C5.41544 55.8295 6.06667 56.9864 6.77818 58.1061L5.92723 58.6421ZM72.7237 54.0943L71.8148 53.6783C72.3673 52.472 72.855 51.237 73.2757 49.9785L74.2236 50.2945C73.791 51.5882 73.289 52.8577 72.7197 54.0973L72.7237 54.0943ZM3.06738 53.2334C2.53173 51.9803 2.0644 50.6992 1.66745 49.3956L2.6234 49.1036C3.01174 50.3721 3.46805 51.6189 3.99033 52.8384L3.06738 53.2334ZM74.8136 48.3406L73.8487 48.0766C74.1992 46.7964 74.4809 45.4982 74.6926 44.1878L75.6796 44.3468C75.4623 45.6926 75.1732 47.0257 74.8136 48.3406ZM1.11748 47.4257C0.789847 46.1025 0.533822 44.7626 0.350522 43.4119L1.34147 43.2779C1.51978 44.5929 1.7688 45.8974 2.08743 47.1857L1.11748 47.4257ZM75.9495 42.3259L74.9556 42.2199C75.0956 40.9003 75.1657 39.5742 75.1656 38.2472V38.0972H76.1655V38.2472C76.1658 39.6083 76.094 40.9684 75.9505 42.3219L75.9495 42.3259ZM0.130533 41.38C0.0465378 40.344 0.00354004 39.2881 0.00354004 38.2422C0.00354004 37.9262 0.00720651 37.6112 0.0145395 37.2972L1.01449 37.3202C1.00715 37.6275 1.00349 37.9348 1.00349 38.2422C1.00349 39.2611 1.04549 40.289 1.12848 41.299L0.130533 41.38ZM75.1056 36.1043C75.0304 34.7795 74.8845 33.4597 74.6686 32.1505L75.6546 31.9875C75.8767 33.3321 76.0266 34.6876 76.1035 36.0483L75.1056 36.1043ZM1.11548 35.3333L0.115534 35.2563C0.220927 33.8975 0.398838 32.5453 0.648506 31.2055L1.63145 31.3895C1.38922 32.694 1.21698 34.0104 1.11548 35.3333ZM74.2916 30.1966C74.0049 28.9007 73.6483 27.6212 73.2237 26.3638L74.1706 26.0438C74.6077 27.3354 74.9748 28.6495 75.2706 29.9806L74.2916 30.1966ZM2.05343 29.4446L1.08148 29.2086C1.40415 27.8838 1.79803 26.5773 2.26142 25.2948L3.20137 25.6348C2.75066 26.8832 2.36746 28.155 2.05343 29.4446ZM72.5357 24.4969C72.0433 23.2645 71.4848 22.0594 70.8628 20.8871L71.7468 20.4181C72.3853 21.6224 72.9587 22.8601 73.4647 24.1259L72.5357 24.4969ZM3.93033 23.7779L3.00938 23.3869C3.5431 22.1319 4.14394 20.9066 4.80929 19.7161L5.68224 20.2031C5.03452 21.3624 4.44971 22.5557 3.93033 23.7779ZM69.8849 19.1592C69.2011 18.0221 68.4567 16.9226 67.655 15.8653L68.4549 15.2654C69.2782 16.3514 70.0429 17.4806 70.7458 18.6482L69.8849 19.1592ZM6.69619 18.4902L5.85023 17.9592C6.57743 16.8062 7.36585 15.693 8.21211 14.6244L8.99607 15.2454C8.17224 16.2853 7.40452 17.3684 6.69619 18.4902ZM66.4111 14.3094C65.5536 13.2953 64.6431 12.3273 63.6832 11.4096L64.3732 10.6856C65.3586 11.6268 66.2932 12.6199 67.173 13.6604L66.4111 14.3094ZM10.274 13.7154L9.52404 13.0535C10.4262 12.032 11.3818 11.059 12.3869 10.1386L13.0619 10.8766C12.0827 11.7726 11.1521 12.7202 10.274 13.7154ZM62.2073 10.0766C61.1986 9.21309 60.1449 8.40366 59.0504 7.65176L59.6164 6.82781C60.7395 7.60002 61.821 8.43114 62.8562 9.31768L62.2073 10.0766ZM14.5658 9.57666L13.9308 8.8047C14.9838 7.93802 16.0827 7.12856 17.2226 6.37983L17.7706 7.21579C16.6611 7.94373 15.5913 8.73047 14.5658 9.57266V9.57666ZM57.3795 6.57682C56.2476 5.88528 55.0793 5.25507 53.8797 4.68892L54.3067 3.78897C55.5404 4.37051 56.7421 5.01774 57.9065 5.72786L57.3795 6.57682ZM19.4615 6.17684L18.9615 5.31289C20.1395 4.62805 21.3532 4.00653 22.5974 3.45098L23.0023 4.35994C21.7907 4.89972 20.6087 5.50388 19.4615 6.16984V6.17684ZM52.0518 3.88696C50.8222 3.38617 49.5665 2.95222 48.29 2.58703L48.564 1.62508C49.8752 1.99973 51.1654 2.44468 52.4288 2.95801L52.0518 3.88696ZM24.8362 3.59798L24.4793 2.66002C25.7527 2.17297 27.0515 1.75505 28.3701 1.40809L28.624 2.37504C27.3404 2.7145 26.076 3.12274 24.8362 3.59798ZM46.3611 2.08706C45.0671 1.79261 43.7583 1.56764 42.4403 1.41309L42.5563 0.420143C43.91 0.578763 45.2541 0.809749 46.5831 1.11211L46.3611 2.08706ZM30.5619 1.92406L30.3619 0.945115C31.6967 0.670319 33.0452 0.467371 34.4017 0.337147L34.5017 1.33709C33.1786 1.46226 31.8641 1.6582 30.5619 1.92406ZM40.4614 1.2351C39.6645 1.1851 38.8635 1.1601 38.0535 1.1601C37.5262 1.1601 37.0019 1.17144 36.4806 1.1941L36.4376 0.194154C36.9836 0.172156 37.4956 0.160156 38.0855 0.160156C38.8975 0.160156 39.7175 0.186155 40.5214 0.237152L40.4614 1.2351Z" fill="white"/>
<path d="M38.0858 72.1566C31.378 72.1568 24.8208 70.1679 19.2433 66.4414C13.6659 62.7149 9.31874 57.4182 6.7516 51.2211C4.18445 45.024 3.51262 38.2048 4.82105 31.6259C6.12948 25.0469 9.35941 19.0037 14.1024 14.2604C18.8454 9.51716 24.8884 6.28687 31.4673 4.97805C38.0461 3.66923 44.8654 4.34067 51.0627 6.90745C57.2599 9.47423 62.5569 13.8211 66.2837 19.3983C70.0105 24.9755 71.9998 31.5326 72 38.2404C71.99 47.2321 68.4137 55.8527 62.0558 62.211C55.6979 68.5693 47.0775 72.146 38.0858 72.1566ZM38.0858 5.32613C31.5757 5.32594 25.2117 7.25624 19.7987 10.8729C14.3856 14.4896 10.1666 19.6303 7.67524 25.6448C5.18383 31.6593 4.53192 38.2776 5.80193 44.6626C7.07194 51.0476 10.2068 56.9127 14.8102 61.516C19.4135 66.1194 25.2786 69.2543 31.6636 70.5243C38.0486 71.7943 44.6669 71.1424 50.6814 68.651C56.6959 66.1596 61.8366 61.9406 65.4533 56.5275C69.07 51.1145 71.0003 44.7505 71.0001 38.2404C70.99 29.514 67.5191 21.1479 61.3486 14.9773C55.1782 8.80665 46.8122 5.33646 38.0858 5.32613Z" fill="white"/>
<path d="M54.3457 50.8049H53.6067V20.5065C53.6062 20.3107 53.5282 20.1231 53.3897 19.9846C53.2512 19.8461 53.0636 19.7681 52.8678 19.7676H23.3023C23.1065 19.7681 22.9188 19.8461 22.7804 19.9846C22.6419 20.1231 22.5639 20.3107 22.5633 20.5065V50.8049H21.8254C21.6296 50.8055 21.4419 50.8835 21.3034 51.022C21.165 51.1604 21.087 51.3481 21.0864 51.5439V54.5008C21.087 54.6966 21.165 54.8842 21.3034 55.0227C21.4419 55.1612 21.6296 55.2392 21.8254 55.2397H54.3457C54.5415 55.2392 54.7292 55.1612 54.8676 55.0227C55.0061 54.8842 55.0841 54.6966 55.0846 54.5008V51.5439C55.0841 51.3481 55.0061 51.1604 54.8676 51.022C54.7292 50.8835 54.5415 50.8055 54.3457 50.8049ZM24.0423 21.2415H52.1278V50.8049H50.6499V23.4594C50.6493 23.2636 50.5713 23.0759 50.4329 22.9374C50.2944 22.799 50.1067 22.721 49.9109 22.7204H26.2602C26.0643 22.721 25.8767 22.799 25.7382 22.9374C25.5997 23.0759 25.5217 23.2636 25.5212 23.4594V50.8049H24.0423V21.2415ZM38.8245 36.7587V24.1983H49.172V36.7587H38.8245ZM49.172 38.2366V50.8049H38.8245V38.2406H49.172V38.2366ZM27.0021 36.7587V24.1983H37.3466V36.7587H27.0021ZM37.3496 38.2366V50.8049H27.0021V38.2406H37.3466L37.3496 38.2366ZM53.6067 53.7578H22.5643V52.2829H53.6067V53.7578Z" fill="black"/>
</g>
</g>
</g>
<defs>
<clipPath id="clip0_15_1471">
<rect width="76.17" height="76.16" fill="white" transform="translate(0 0.160156)"/>
</clipPath>
<clipPath id="clip1_15_1471">
<rect width="76.17" height="76.16" fill="white" transform="translate(0 0.160156)"/>
</clipPath>
<clipPath id="clip2_15_1471">
<rect width="76.163" height="76.16" fill="white" transform="translate(0.00354004 0.160156)"/>
</clipPath>
</defs>
</svg>
