<svg width="77" height="77" viewBox="0 0 77 77" fill="none" xmlns="http://www.w3.org/2000/svg">
<g clip-path="url(#clip0_15_1510)">
<g clip-path="url(#clip1_15_1510)">
<mask id="mask0_15_1510" style="mask-type:luminance" maskUnits="userSpaceOnUse" x="8" y="8" width="60" height="61">
<path d="M38.0856 68.2307C54.5665 68.2307 67.927 54.8703 67.927 38.3893C67.927 21.9083 54.5665 8.54785 38.0856 8.54785C21.6046 8.54785 8.24414 21.9083 8.24414 38.3893C8.24414 54.8703 21.6046 68.2307 38.0856 68.2307Z" fill="white"/>
</mask>
<g mask="url(#mask0_15_1510)">
<path d="M38.0856 68.2307C54.5665 68.2307 67.927 54.8703 67.927 38.3893C67.927 21.9083 54.5665 8.54785 38.0856 8.54785C21.6046 8.54785 8.24414 21.9083 8.24414 38.3893C8.24414 54.8703 21.6046 68.2307 38.0856 68.2307Z" fill="white"/>
<path d="M-6.64462 33.5147L-7.0625 33.9326L42.4006 83.3957L42.8184 82.9778L-6.64462 33.5147Z" fill="white"/>
<path d="M-5.05234 31.9366L-5.47021 32.3545L43.9928 81.8175L44.4107 81.3997L-5.05234 31.9366Z" fill="white"/>
<path d="M-3.46091 30.3604L-3.87878 30.7783L45.5843 80.2414L46.0021 79.8235L-3.46091 30.3604Z" fill="white"/>
<path d="M-1.86789 28.7833L-2.28577 29.2012L47.1773 78.6642L47.5952 78.2463L-1.86789 28.7833Z" fill="white"/>
<path d="M-0.276457 27.2081L-0.694336 27.626L48.7687 77.089L49.1866 76.6712L-0.276457 27.2081Z" fill="white"/>
<path d="M1.3168 25.6319L0.898926 26.0498L50.362 75.5129L50.7799 75.095L1.3168 25.6319Z" fill="white"/>
<path d="M2.90909 24.0538L2.49121 24.4717L51.9543 73.9347L52.3721 73.5169L2.90909 24.0538Z" fill="white"/>
<path d="M4.50125 22.4786L4.08337 22.8965L53.5464 72.3595L53.9643 71.9417L4.50125 22.4786Z" fill="white"/>
<path d="M6.0928 20.9015L5.67493 21.3193L55.138 70.7824L55.5559 70.3645L6.0928 20.9015Z" fill="white"/>
<path d="M7.68607 19.3253L7.26819 19.7432L56.7312 69.2062L57.1491 68.7883L7.68607 19.3253Z" fill="white"/>
<path d="M9.27823 17.7491L8.86035 18.167L58.3234 67.63L58.7413 67.2122L9.27823 17.7491Z" fill="white"/>
<path d="M10.8698 16.172L10.4519 16.5898L59.915 66.0529L60.3328 65.635L10.8698 16.172Z" fill="white"/>
<path d="M12.4621 14.5948L12.0442 15.0127L61.5072 64.4758L61.9251 64.0579L12.4621 14.5948Z" fill="white"/>
<path d="M14.0542 13.0186L13.6364 13.4365L63.0994 62.8996L63.5173 62.4817L14.0542 13.0186Z" fill="white"/>
<path d="M15.6475 11.4415L15.2296 11.8594L64.6927 61.3224L65.1105 60.9046L15.6475 11.4415Z" fill="white"/>
<path d="M17.2397 9.8663L16.8218 10.2842L66.2848 59.7472L66.7027 59.3294L17.2397 9.8663Z" fill="white"/>
<path d="M18.8312 8.28915L18.4133 8.70703L67.8764 58.1701L68.2943 57.7522L18.8312 8.28915Z" fill="white"/>
<path d="M20.4228 6.71298L20.0049 7.13086L69.4679 56.5939L69.8858 56.176L20.4228 6.71298Z" fill="white"/>
<path d="M22.0157 5.13583L21.5978 5.55371L71.0608 55.0168L71.4787 54.5989L22.0157 5.13583Z" fill="white"/>
<path d="M23.6082 3.55966L23.1903 3.97754L72.6534 53.4406L73.0712 53.0227L23.6082 3.55966Z" fill="white"/>
<path d="M25.2012 1.98251L24.7833 2.40039L74.2464 51.8634L74.6643 51.4456L25.2012 1.98251Z" fill="white"/>
<path d="M26.7926 0.407317L26.3748 0.825195L75.8378 50.2883L76.2557 49.8704L26.7926 0.407317Z" fill="white"/>
<path d="M28.3849 -1.16885L27.967 -0.750977L77.4301 48.7121L77.848 48.2942L28.3849 -1.16885Z" fill="white"/>
<path d="M29.9771 -2.74698L29.5592 -2.3291L79.0223 47.134L79.4401 46.7161L29.9771 -2.74698Z" fill="white"/>
<path d="M31.5696 -4.32315L31.1517 -3.90527L80.6148 45.5578L81.0327 45.1399L31.5696 -4.32315Z" fill="white"/>
<path d="M33.1623 -6.29288L32.7444 -5.875L82.2074 43.5881L82.6253 43.1702L33.1623 -6.29288Z" fill="white"/>
</g>
<path d="M38.6365 76.4696L38.6215 75.4696C39.9486 75.4506 41.2737 75.3612 42.5913 75.2016L42.7113 76.1946C41.3588 76.3581 39.9987 76.4499 38.6365 76.4696ZM36.5936 76.4446C35.232 76.392 33.8741 76.2669 32.5258 76.0696L32.6708 75.0806C33.9837 75.2723 35.3058 75.3941 36.6316 75.4456L36.5936 76.4446ZM44.7332 75.8956L44.5602 74.9057C45.867 74.6756 47.1605 74.3751 48.435 74.0057L48.713 74.9657C47.4038 75.3472 46.0759 75.6576 44.7332 75.8956ZM30.5119 75.7206C29.1753 75.4504 27.8541 75.1086 26.5541 74.6967L26.8541 73.7437C28.1196 74.1458 29.4057 74.4796 30.7069 74.7437L30.5119 75.7206ZM50.6609 74.3477L50.3309 73.4057C51.5835 72.9676 52.8116 72.4622 54.0097 71.8918L54.4397 72.7918C53.2089 73.3779 51.9475 73.8973 50.6609 74.3477ZM24.6202 74.0237C23.3449 73.5413 22.0965 72.9905 20.8804 72.3738L21.3324 71.4818C22.5162 72.0823 23.7316 72.6184 24.9732 73.0877L24.6202 74.0237ZM56.2586 71.8658L55.7796 70.9879C56.9452 70.3547 58.076 69.6598 59.1674 68.906L59.7364 69.7279C58.6156 70.5021 57.4543 71.2161 56.2576 71.8668L56.2586 71.8658ZM19.0805 71.3988C17.8998 70.7173 16.7563 69.9732 15.6547 69.17L16.2447 68.362C17.3171 69.1446 18.4307 69.8693 19.5805 70.5329L19.0805 71.3988ZM61.3843 68.517L60.7723 67.727C61.8212 66.9142 62.8262 66.0464 63.7832 65.1272L64.4762 65.8481C63.4933 66.792 62.4618 67.6828 61.3843 68.517ZM14.0368 67.917C12.9807 67.0552 11.971 66.1379 11.012 65.1692L11.7229 64.4692C12.6568 65.4127 13.6401 66.3059 14.6688 67.1451L14.0368 67.917ZM65.9111 64.3872L65.1801 63.7062C66.0865 62.7364 66.9406 61.719 67.739 60.6584L68.5389 61.2584C67.7193 62.3483 66.8421 63.3937 65.9111 64.3902V64.3872ZM9.61404 63.6792C8.70851 62.6607 7.85801 61.5946 7.06617 60.4854L7.88013 59.9064C8.65093 60.9867 9.47872 62.0251 10.36 63.0173L9.61404 63.6792ZM69.7239 59.5915L68.8939 59.0335C69.6339 57.9315 70.3141 56.7906 70.9318 55.6157L71.8178 56.0806C71.1832 57.2885 70.4842 58.4615 69.7239 59.5945V59.5915ZM5.92723 58.7915C5.19741 57.6415 4.52982 56.4532 3.92733 55.2317L4.82729 54.7897C5.41544 55.9789 6.06667 57.1358 6.77818 58.2555L5.92723 58.7915ZM72.7237 54.2437L71.8148 53.8278C72.3673 52.6214 72.855 51.3864 73.2757 50.128L74.2236 50.4439C73.791 51.7376 73.289 53.0071 72.7197 54.2467L72.7237 54.2437ZM3.06738 53.3828C2.53173 52.1298 2.0644 50.8486 1.66745 49.545L2.6234 49.253C3.01174 50.5215 3.46805 51.7683 3.99033 52.9878L3.06738 53.3828ZM74.8136 48.49L73.8487 48.2261C74.1992 46.9458 74.4809 45.6477 74.6926 44.3373L75.6796 44.4963C75.4623 45.842 75.1732 47.1752 74.8136 48.49ZM1.11748 47.5751C0.789847 46.2519 0.533822 44.912 0.350522 43.5613L1.34147 43.4273C1.51978 44.7424 1.7688 46.0468 2.08743 47.3351L1.11748 47.5751ZM75.9495 42.4754L74.9556 42.3694C75.0956 41.0497 75.1657 39.7236 75.1656 38.3966V38.2466H76.1655V38.3966C76.1658 39.7577 76.094 41.1178 75.9505 42.4714L75.9495 42.4754ZM0.130533 41.5294C0.0465378 40.4935 0.00354004 39.4375 0.00354004 38.3916C0.00354004 38.0756 0.00720651 37.7606 0.0145395 37.4466L1.01449 37.4696C1.00715 37.7769 1.00349 38.0843 1.00349 38.3916C1.00349 39.4105 1.04549 40.4385 1.12848 41.4484L0.130533 41.5294ZM75.1056 36.2537C75.0304 34.9289 74.8845 33.6091 74.6686 32.2999L75.6546 32.1369C75.8767 33.4815 76.0266 34.837 76.1035 36.1977L75.1056 36.2537ZM1.11548 35.4827L0.115534 35.4057C0.220927 34.0469 0.398838 32.6947 0.648506 31.3549L1.63145 31.5389C1.38922 32.8434 1.21698 34.1599 1.11548 35.4827ZM74.2916 30.346C74.0049 29.0501 73.6483 27.7707 73.2237 26.5132L74.1706 26.1932C74.6077 27.4848 74.9748 28.799 75.2706 30.13L74.2916 30.346ZM2.05343 29.594L1.08148 29.358C1.40415 28.0332 1.79803 26.7267 2.26142 25.4443L3.20137 25.7842C2.75066 27.0327 2.36746 28.3044 2.05343 29.594ZM72.5357 24.6463C72.0433 23.4139 71.4848 22.2089 70.8628 21.0365L71.7468 20.5675C72.3853 21.7718 72.9587 23.0095 73.4647 24.2753L72.5357 24.6463ZM3.93033 23.9273L3.00938 23.5364C3.5431 22.2814 4.14394 21.056 4.80929 19.8655L5.68224 20.3525C5.03452 21.5118 4.44971 22.7051 3.93033 23.9273ZM69.8849 19.3086C69.2011 18.1715 68.4567 17.072 67.655 16.0147L68.4549 15.4148C69.2782 16.5009 70.0429 17.6301 70.7458 18.7976L69.8849 19.3086ZM6.69619 18.6396L5.85023 18.1086C6.57743 16.9557 7.36585 15.8425 8.21211 14.7738L8.99607 15.3948C8.17224 16.4347 7.40452 17.5178 6.69619 18.6396ZM66.4111 14.4588C65.5536 13.4447 64.6431 12.4767 63.6832 11.559L64.3732 10.835C65.3586 11.7763 66.2932 12.7693 67.173 13.8099L66.4111 14.4588ZM10.274 13.8649L9.52404 13.2029C10.4262 12.1814 11.3818 11.2084 12.3869 10.288L13.0619 11.026C12.0827 11.922 11.1521 12.8697 10.274 13.8649ZM62.2073 10.226C61.1986 9.3625 60.1449 8.55308 59.0504 7.80118L59.6164 6.97722C60.7395 7.74944 61.821 8.58056 62.8562 9.46709L62.2073 10.226ZM14.5658 9.72608L13.9308 8.95412C14.9838 8.08743 16.0827 7.27797 17.2226 6.52924L17.7706 7.3652C16.6611 8.09314 15.5913 8.87989 14.5658 9.72208V9.72608ZM57.3795 6.72623C56.2476 6.03469 55.0793 5.40448 53.8797 4.83833L54.3067 3.93838C55.5404 4.51992 56.7421 5.16715 57.9065 5.87728L57.3795 6.72623ZM19.4615 6.32625L18.9615 5.4623C20.1395 4.77746 21.3532 4.15594 22.5974 3.6004L23.0023 4.50935C21.7907 5.04913 20.6087 5.65329 19.4615 6.31925V6.32625ZM52.0518 4.03637C50.8222 3.53558 49.5665 3.10164 48.29 2.73644L48.564 1.77449C49.8752 2.14914 51.1654 2.5941 52.4288 3.10742L52.0518 4.03637ZM24.8362 3.74739L24.4793 2.80944C25.7527 2.32238 27.0515 1.90446 28.3701 1.5575L28.624 2.52445C27.3404 2.86392 26.076 3.27215 24.8362 3.74739ZM46.3611 2.23647C45.0671 1.94203 43.7583 1.71705 42.4403 1.5625L42.5563 0.569557C43.91 0.728177 45.2541 0.959163 46.5831 1.26152L46.3611 2.23647ZM30.5619 2.07348L30.3619 1.09453C31.6967 0.819733 33.0452 0.616785 34.4017 0.486561L34.5017 1.48651C33.1786 1.61168 31.8641 1.80761 30.5619 2.07348ZM40.4614 1.38451C39.6645 1.33452 38.8635 1.30952 38.0535 1.30952C37.5262 1.30952 37.0019 1.32085 36.4806 1.34352L36.4376 0.343569C36.9836 0.32157 37.4956 0.30957 38.0855 0.30957C38.8975 0.30957 39.7175 0.335569 40.5214 0.386566L40.4614 1.38451Z" fill="white"/>
<path d="M38.0858 72.306C31.378 72.3062 24.8208 70.3173 19.2433 66.5908C13.6659 62.8644 9.31874 57.5677 6.7516 51.3705C4.18445 45.1734 3.51262 38.3542 4.82105 31.7753C6.12948 25.1963 9.35941 19.1531 14.1024 14.4098C18.8454 9.66658 24.8884 6.43629 31.4673 5.12747C38.0461 3.81865 44.8654 4.49008 51.0627 7.05686C57.2599 9.62364 62.5569 13.9705 66.2837 19.5477C70.0105 25.1249 71.9998 31.682 72 38.3898C71.99 47.3815 68.4137 56.0021 62.0558 62.3604C55.6979 68.7187 47.0775 72.2955 38.0858 72.306ZM38.0858 5.47555C31.5757 5.47535 25.2117 7.40566 19.7987 11.0224C14.3856 14.6391 10.1666 19.7797 7.67524 25.7942C5.18383 31.8088 4.53192 38.427 5.80193 44.812C7.07194 51.1971 10.2068 57.0621 14.8102 61.6654C19.4135 66.2688 25.2786 69.4037 31.6636 70.6737C38.0486 71.9437 44.6669 71.2918 50.6814 68.8004C56.6959 66.309 61.8366 62.09 65.4533 56.6769C69.07 51.2639 71.0003 44.8999 71.0001 38.3898C70.99 29.6634 67.5191 21.2973 61.3486 15.1267C55.1782 8.95607 46.8122 5.48587 38.0858 5.47555Z" fill="white"/>
<path d="M47.0851 44.2321C45.8099 44.2118 44.5684 44.642 43.5793 45.4471C42.8766 46.0254 41.9949 46.3417 41.0849 46.3417C40.1749 46.3417 39.2931 46.0254 38.5905 45.4471C37.5915 44.6603 36.3568 44.2325 35.0852 44.2325C33.8136 44.2325 32.5789 44.6603 31.5799 45.4471C30.8774 46.0256 29.9956 46.342 29.0855 46.342C28.1754 46.342 27.2937 46.0256 26.5911 45.4471C25.602 44.6421 24.3605 44.2119 23.0853 44.2321V45.99C23.9981 45.9734 24.8853 46.2918 25.5792 46.885C26.5782 47.6717 27.8129 48.0995 29.0845 48.0995C30.3561 48.0995 31.5908 47.6717 32.5898 46.885C33.2923 46.3065 34.1741 45.9901 35.0842 45.9901C35.9943 45.9901 36.876 46.3065 37.5786 46.885C38.5777 47.6716 39.8123 48.0993 41.0839 48.0993C42.3555 48.0993 43.5901 47.6716 44.5892 46.885C45.2917 46.3065 46.1735 45.9901 47.0836 45.9901C47.9936 45.9901 48.8754 46.3065 49.5779 46.885C50.5672 47.6897 51.8087 48.1196 53.0838 48.0989V46.342C52.1707 46.3588 51.2831 46.0404 50.5889 45.4471C49.6002 44.6425 48.3596 44.2123 47.0851 44.2321Z" fill="black"/>
<path d="M47.0851 33.864C45.81 33.8433 44.5685 34.2732 43.5793 35.0779C42.8767 35.6565 41.995 35.9728 41.0849 35.9728C40.1748 35.9728 39.293 35.6565 38.5905 35.0779C37.5915 34.2912 36.3568 33.8634 35.0852 33.8634C33.8136 33.8634 32.5789 34.2912 31.5799 35.0779C30.8774 35.6565 29.9956 35.9728 29.0855 35.9728C28.1754 35.9728 27.2937 35.6565 26.5911 35.0779C25.6018 34.2733 24.3604 33.8434 23.0853 33.864V35.6219C23.9981 35.6053 24.8853 35.9237 25.5792 36.5169C26.5782 37.3036 27.8129 37.7314 29.0845 37.7314C30.3561 37.7314 31.5908 37.3036 32.5898 36.5169C33.2924 35.9385 34.1742 35.6223 35.0842 35.6223C35.9942 35.6223 36.876 35.9385 37.5786 36.5169C38.5776 37.3036 39.8123 37.7314 41.0839 37.7314C42.3555 37.7314 43.5902 37.3036 44.5892 36.5169C45.2918 35.9385 46.1735 35.6223 47.0836 35.6223C47.9936 35.6223 48.8753 35.9385 49.5779 36.5169C50.567 37.322 51.8085 37.7522 53.0838 37.7318V35.9739C52.1707 35.9906 51.2831 35.6722 50.5889 35.0789C49.6002 34.2744 48.3596 33.8442 47.0851 33.864Z" fill="black"/>
<path d="M47.0851 39.0486C45.81 39.0279 44.5685 39.4578 43.5793 40.2625C42.8767 40.841 41.995 41.1574 41.0849 41.1574C40.1748 41.1574 39.293 40.841 38.5905 40.2625C37.5915 39.4758 36.3568 39.048 35.0852 39.048C33.8136 39.048 32.5789 39.4758 31.5799 40.2625C30.8774 40.841 29.9956 41.1574 29.0855 41.1574C28.1754 41.1574 27.2937 40.841 26.5911 40.2625C25.6018 39.4579 24.3604 39.028 23.0853 39.0486V40.8075C23.9981 40.7909 24.8853 41.1093 25.5792 41.7024C26.5782 42.4892 27.8129 42.917 29.0845 42.917C30.3561 42.917 31.5908 42.4892 32.5898 41.7024C33.2924 41.1241 34.1742 40.8078 35.0842 40.8078C35.9942 40.8078 36.876 41.1241 37.5786 41.7024C38.5776 42.4892 39.8123 42.917 41.0839 42.917C42.3555 42.917 43.5902 42.4892 44.5892 41.7024C45.2918 41.1241 46.1735 40.8078 47.0836 40.8078C47.9936 40.8078 48.8753 41.1241 49.5779 41.7024C50.5671 42.5075 51.8086 42.9377 53.0838 42.9174V41.1574C52.1707 41.1742 51.2831 40.8558 50.5889 40.2625C49.6001 39.4583 48.3594 39.0285 47.0851 39.0486Z" fill="black"/>
<path d="M50.5899 29.8943C49.5908 29.1076 48.3562 28.6798 47.0846 28.6798C45.8129 28.6798 44.5783 29.1076 43.5793 29.8943C42.8766 30.4727 41.9949 30.7889 41.0849 30.7889C40.1749 30.7889 39.2931 30.4727 38.5905 29.8943C37.5915 29.1076 36.3568 28.6798 35.0852 28.6798C33.8136 28.6798 32.5789 29.1076 31.5799 29.8943C30.8774 30.4729 29.9956 30.7892 29.0855 30.7892C28.1754 30.7892 27.2937 30.4729 26.5911 29.8943C25.602 29.0893 24.3605 28.659 23.0853 28.6794V30.4373C23.9981 30.4207 24.8853 30.7391 25.5792 31.3323C26.5782 32.119 27.8129 32.5468 29.0845 32.5468C30.3561 32.5468 31.5908 32.119 32.5898 31.3323C33.2924 30.7539 34.1742 30.4377 35.0842 30.4377C35.9942 30.4377 36.876 30.7539 37.5786 31.3323C38.5776 32.119 39.8123 32.5468 41.0839 32.5468C42.3555 32.5468 43.5902 32.119 44.5892 31.3323C45.2918 30.7539 46.1735 30.4377 47.0836 30.4377C47.9936 30.4377 48.8753 30.7539 49.5779 31.3323C50.567 32.1374 51.8085 32.5677 53.0838 32.5472V30.7893C52.171 30.8058 51.2839 30.4874 50.5899 29.8943Z" fill="black"/>
</g>
</g>
<defs>
<clipPath id="clip0_15_1510">
<rect width="76.17" height="76.16" fill="white" transform="translate(0 0.30957)"/>
</clipPath>
<clipPath id="clip1_15_1510">
<rect width="76.163" height="76.16" fill="white" transform="translate(0.00354004 0.30957)"/>
</clipPath>
</defs>
</svg>
