<svg width="77" height="77" viewBox="0 0 77 77" fill="none" xmlns="http://www.w3.org/2000/svg">
<g clip-path="url(#clip0_15_1550)">
<g clip-path="url(#clip1_15_1550)">
<g clip-path="url(#clip2_15_1550)">
<mask id="mask0_15_1550" style="mask-type:luminance" maskUnits="userSpaceOnUse" x="8" y="9" width="60" height="60">
<path d="M38.0856 68.6907C54.5665 68.6907 67.927 55.3302 67.927 38.8492C67.927 22.3683 54.5665 9.00781 38.0856 9.00781C21.6046 9.00781 8.24414 22.3683 8.24414 38.8492C8.24414 55.3302 21.6046 68.6907 38.0856 68.6907Z" fill="white"/>
</mask>
<g mask="url(#mask0_15_1550)">
<path d="M38.0856 68.6907C54.5665 68.6907 67.927 55.3302 67.927 38.8492C67.927 22.3683 54.5665 9.00781 38.0856 9.00781C21.6046 9.00781 8.24414 22.3683 8.24414 38.8492C8.24414 55.3302 21.6046 68.6907 38.0856 68.6907Z" fill="white"/>
<path d="M-6.64462 33.9747L-7.0625 34.3926L42.4006 83.8556L42.8184 83.4378L-6.64462 33.9747Z" fill="white"/>
<path d="M-5.05234 32.3966L-5.47021 32.8145L43.9928 82.2775L44.4107 81.8596L-5.05234 32.3966Z" fill="white"/>
<path d="M-3.46091 30.8204L-3.87878 31.2383L45.5843 80.7013L46.0021 80.2835L-3.46091 30.8204Z" fill="white"/>
<path d="M-1.86789 29.2433L-2.28577 29.6611L47.1773 79.1242L47.5952 78.7063L-1.86789 29.2433Z" fill="white"/>
<path d="M-0.276457 27.6681L-0.694336 28.0859L48.7687 77.549L49.1866 77.1311L-0.276457 27.6681Z" fill="white"/>
<path d="M1.3168 26.0919L0.898926 26.5098L50.362 75.9728L50.7799 75.5549L1.3168 26.0919Z" fill="white"/>
<path d="M2.90909 24.5138L2.49121 24.9316L51.9543 74.3947L52.3721 73.9768L2.90909 24.5138Z" fill="white"/>
<path d="M4.50125 22.9386L4.08337 23.3564L53.5464 72.8195L53.9643 72.4016L4.50125 22.9386Z" fill="white"/>
<path d="M6.0928 21.3614L5.67493 21.7793L55.138 71.2424L55.5559 70.8245L6.0928 21.3614Z" fill="white"/>
<path d="M7.68607 19.7852L7.26819 20.2031L56.7312 69.6662L57.1491 69.2483L7.68607 19.7852Z" fill="white"/>
<path d="M9.27823 18.2091L8.86035 18.627L58.3234 68.09L58.7413 67.6721L9.27823 18.2091Z" fill="white"/>
<path d="M10.8698 16.6319L10.4519 17.0498L59.915 66.5129L60.3328 66.095L10.8698 16.6319Z" fill="white"/>
<path d="M12.4621 15.0548L12.0442 15.4727L61.5072 64.9357L61.9251 64.5178L12.4621 15.0548Z" fill="white"/>
<path d="M14.0542 13.4786L13.6364 13.8965L63.0994 63.3595L63.5173 62.9417L14.0542 13.4786Z" fill="white"/>
<path d="M15.6475 11.9015L15.2296 12.3193L64.6927 61.7824L65.1105 61.3645L15.6475 11.9015Z" fill="white"/>
<path d="M17.2397 10.3263L16.8218 10.7441L66.2848 60.2072L66.7027 59.7893L17.2397 10.3263Z" fill="white"/>
<path d="M18.8312 8.74911L18.4133 9.16699L67.8764 58.63L68.2943 58.2122L18.8312 8.74911Z" fill="white"/>
<path d="M20.4228 7.17294L20.0049 7.59082L69.4679 57.0539L69.8858 56.636L20.4228 7.17294Z" fill="white"/>
<path d="M22.0157 5.59579L21.5978 6.01367L71.0608 55.4767L71.4787 55.0588L22.0157 5.59579Z" fill="white"/>
<path d="M23.6082 4.01962L23.1903 4.4375L72.6534 53.9006L73.0712 53.4827L23.6082 4.01962Z" fill="white"/>
<path d="M25.2012 2.44247L24.7833 2.86035L74.2464 52.3234L74.6643 51.9055L25.2012 2.44247Z" fill="white"/>
<path d="M26.7926 0.867278L26.3748 1.28516L75.8378 50.7482L76.2557 50.3303L26.7926 0.867278Z" fill="white"/>
<path d="M28.3849 -0.708893L27.967 -0.291016L77.4301 49.172L77.848 48.7542L28.3849 -0.708893Z" fill="white"/>
<path d="M29.9771 -2.28702L29.5592 -1.86914L79.0223 47.5939L79.4401 47.176L29.9771 -2.28702Z" fill="white"/>
<path d="M31.5696 -3.86319L31.1517 -3.44531L80.6148 46.0177L81.0327 45.5999L31.5696 -3.86319Z" fill="white"/>
<path d="M33.1623 -5.83292L32.7444 -5.41504L82.2074 44.048L82.6253 43.6301L33.1623 -5.83292Z" fill="white"/>
</g>
<path d="M38.6365 76.9295L38.6215 75.9296C39.9486 75.9106 41.2737 75.8211 42.5913 75.6616L42.7113 76.6545C41.3588 76.8181 39.9987 76.9099 38.6365 76.9295ZM36.5936 76.9045C35.232 76.852 33.8741 76.7268 32.5258 76.5296L32.6708 75.5406C33.9837 75.7323 35.3058 75.8541 36.6316 75.9056L36.5936 76.9045ZM44.7332 76.3556L44.5602 75.3656C45.867 75.1355 47.1605 74.8351 48.435 74.4657L48.713 75.4256C47.4038 75.8071 46.0759 76.1176 44.7332 76.3556ZM30.5119 76.1806C29.1753 75.9104 27.8541 75.5686 26.5541 75.1566L26.8541 74.2037C28.1196 74.6058 29.4057 74.9396 30.7069 75.2036L30.5119 76.1806ZM50.6609 74.8076L50.3309 73.8657C51.5835 73.4276 52.8116 72.9222 54.0097 72.3518L54.4397 73.2517C53.2089 73.8379 51.9475 74.3572 50.6609 74.8076ZM24.6202 74.4837C23.3449 74.0012 22.0965 73.4505 20.8804 72.8337L21.3324 71.9418C22.5162 72.5423 23.7316 73.0783 24.9732 73.5477L24.6202 74.4837ZM56.2586 72.3258L55.7796 71.4478C56.9452 70.8147 58.076 70.1197 59.1674 69.3659L59.7364 70.1879C58.6156 70.9621 57.4543 71.6761 56.2576 72.3268L56.2586 72.3258ZM19.0805 71.8588C17.8998 71.1772 16.7563 70.4332 15.6547 69.6299L16.2447 68.822C17.3171 69.6046 18.4307 70.3292 19.5805 70.9928L19.0805 71.8588ZM61.3843 68.977L60.7723 68.187C61.8212 67.3742 62.8262 66.5064 63.7832 65.5871L64.4762 66.3081C63.4933 67.2519 62.4618 68.1428 61.3843 68.977ZM14.0368 68.377C12.9807 67.5151 11.971 66.5979 11.012 65.6291L11.7229 64.9292C12.6568 65.8727 13.6401 66.7659 14.6688 67.605L14.0368 68.377ZM65.9111 64.8472L65.1801 64.1662C66.0865 63.1963 66.9406 62.1789 67.739 61.1184L68.5389 61.7183C67.7193 62.8083 66.8421 63.8537 65.9111 64.8502V64.8472ZM9.61404 64.1392C8.70851 63.1207 7.85801 62.0546 7.06617 60.9454L7.88013 60.3664C8.65093 61.4466 9.47872 62.4851 10.36 63.4772L9.61404 64.1392ZM69.7239 60.0514L68.8939 59.4935C69.6339 58.3915 70.3141 57.2505 70.9318 56.0756L71.8178 56.5406C71.1832 57.7485 70.4842 58.9214 69.7239 60.0544V60.0514ZM5.92723 59.2515C5.19741 58.1015 4.52982 56.9132 3.92733 55.6916L4.82729 55.2497C5.41544 56.4388 6.06667 57.5958 6.77818 58.7155L5.92723 59.2515ZM72.7237 54.7037L71.8148 54.2877C72.3673 53.0814 72.855 51.8463 73.2757 50.5879L74.2236 50.9039C73.791 52.1976 73.289 53.467 72.7197 54.7067L72.7237 54.7037ZM3.06738 53.8427C2.53173 52.5897 2.0644 51.3086 1.66745 50.0049L2.6234 49.713C3.01174 50.9815 3.46805 52.2282 3.99033 53.4478L3.06738 53.8427ZM74.8136 48.95L73.8487 48.686C74.1992 47.4057 74.4809 46.1076 74.6926 44.7972L75.6796 44.9562C75.4623 46.302 75.1732 47.6351 74.8136 48.95ZM1.11748 48.035C0.789847 46.7119 0.533822 45.372 0.350522 44.0213L1.34147 43.8873C1.51978 45.2023 1.7688 46.5068 2.08743 47.7951L1.11748 48.035ZM75.9495 42.9353L74.9556 42.8293C75.0956 41.5097 75.1657 40.1836 75.1656 38.8565V38.7065H76.1655V38.8565C76.1658 40.2176 76.094 41.5778 75.9505 42.9313L75.9495 42.9353ZM0.130533 41.9894C0.0465378 40.9534 0.00354004 39.8975 0.00354004 38.8515C0.00354004 38.5355 0.00720651 38.2206 0.0145395 37.9066L1.01449 37.9296C1.00715 38.2369 1.00349 38.5442 1.00349 38.8515C1.00349 39.8705 1.04549 40.8984 1.12848 41.9084L0.130533 41.9894ZM75.1056 36.7136C75.0304 35.3889 74.8845 34.0691 74.6686 32.7599L75.6546 32.5969C75.8767 33.9415 76.0266 35.297 76.1035 36.6576L75.1056 36.7136ZM1.11548 35.9427L0.115534 35.8657C0.220927 34.5069 0.398838 33.1547 0.648506 31.8149L1.63145 31.9989C1.38922 33.3033 1.21698 34.6198 1.11548 35.9427ZM74.2916 30.806C74.0049 29.5101 73.6483 28.2306 73.2237 26.9732L74.1706 26.6532C74.6077 27.9448 74.9748 29.2589 75.2706 30.59L74.2916 30.806ZM2.05343 30.054L1.08148 29.818C1.40415 28.4931 1.79803 27.1866 2.26142 25.9042L3.20137 26.2442C2.75066 27.4926 2.36746 28.7644 2.05343 30.054ZM72.5357 25.1063C72.0433 23.8738 71.4848 22.6688 70.8628 21.4964L71.7468 21.0275C72.3853 22.2318 72.9587 23.4695 73.4647 24.7353L72.5357 25.1063ZM3.93033 24.3873L3.00938 23.9963C3.5431 22.7413 4.14394 21.5159 4.80929 20.3255L5.68224 20.8125C5.03452 21.9718 4.44971 23.1651 3.93033 24.3873ZM69.8849 19.7685C69.2011 18.6315 68.4567 17.5319 67.655 16.4747L68.4549 15.8747C69.2782 16.9608 70.0429 18.09 70.7458 19.2576L69.8849 19.7685ZM6.69619 19.0996L5.85023 18.5686C6.57743 17.4156 7.36585 16.3024 8.21211 15.2338L8.99607 15.8547C8.17224 16.8946 7.40452 17.9778 6.69619 19.0996ZM66.4111 14.9188C65.5536 13.9046 64.6431 12.9367 63.6832 12.0189L64.3732 11.295C65.3586 12.2362 66.2932 13.2292 67.173 14.2698L66.4111 14.9188ZM10.274 14.3248L9.52404 13.6629C10.4262 12.6414 11.3818 11.6684 12.3869 10.748L13.0619 11.486C12.0827 12.382 11.1521 13.3296 10.274 14.3248ZM62.2073 10.686C61.1986 9.82246 60.1449 9.01304 59.0504 8.26114L59.6164 7.43718C60.7395 8.2094 61.821 9.04052 62.8562 9.92705L62.2073 10.686ZM14.5658 10.186L13.9308 9.41408C14.9838 8.54739 16.0827 7.73793 17.2226 6.9892L17.7706 7.82516C16.6611 8.5531 15.5913 9.33985 14.5658 10.182V10.186ZM57.3795 7.18619C56.2476 6.49465 55.0793 5.86444 53.8797 5.29829L54.3067 4.39834C55.5404 4.97988 56.7421 5.62711 57.9065 6.33724L57.3795 7.18619ZM19.4615 6.78622L18.9615 5.92226C20.1395 5.23742 21.3532 4.6159 22.5974 4.06036L23.0023 4.96931C21.7907 5.50909 20.6087 6.11326 19.4615 6.77922V6.78622ZM52.0518 4.49634C50.8222 3.99554 49.5665 3.5616 48.29 3.1964L48.564 2.23445C49.8752 2.6091 51.1654 3.05406 52.4288 3.56738L52.0518 4.49634ZM24.8362 4.20735L24.4793 3.2694C25.7527 2.78234 27.0515 2.36442 28.3701 2.01747L28.624 2.98441C27.3404 3.32388 26.076 3.73211 24.8362 4.20735ZM46.3611 2.69643C45.0671 2.40199 43.7583 2.17701 42.4403 2.02247L42.5563 1.02952C43.91 1.18814 45.2541 1.41912 46.5831 1.72148L46.3611 2.69643ZM30.5619 2.53344L30.3619 1.55449C31.6967 1.27969 33.0452 1.07675 34.4017 0.946522L34.5017 1.94647C33.1786 2.07164 31.8641 2.26757 30.5619 2.53344ZM40.4614 1.84447C39.6645 1.79448 38.8635 1.76948 38.0535 1.76948C37.5262 1.76948 37.0019 1.78081 36.4806 1.80348L36.4376 0.803529C36.9836 0.781531 37.4956 0.769531 38.0855 0.769531C38.8975 0.769531 39.7175 0.79553 40.5214 0.846527L40.4614 1.84447Z" fill="white"/>
<path d="M38.0858 72.766C31.378 72.7662 24.8208 70.7773 19.2433 67.0508C13.6659 63.3243 9.31874 58.0276 6.7516 51.8305C4.18445 45.6334 3.51262 38.8142 4.82105 32.2352C6.12948 25.6563 9.35941 19.6131 14.1024 14.8698C18.8454 10.1265 24.8884 6.89625 31.4673 5.58743C38.0461 4.27861 44.8654 4.95004 51.0627 7.51682C57.2599 10.0836 62.5569 14.4304 66.2837 20.0077C70.0105 25.5849 71.9998 32.142 72 38.8498C71.99 47.8415 68.4137 56.4621 62.0558 62.8204C55.6979 69.1786 47.0775 72.7554 38.0858 72.766ZM38.0858 5.93551C31.5757 5.93531 25.2117 7.86562 19.7987 11.4823C14.3856 15.099 10.1666 20.2397 7.67524 26.2542C5.18383 32.2687 4.53192 38.887 5.80193 45.272C7.07194 51.657 10.2068 57.522 14.8102 62.1254C19.4135 66.7287 25.2786 69.8636 31.6636 71.1336C38.0486 72.4037 44.6669 71.7517 50.6814 69.2603C56.6959 66.7689 61.8366 62.5499 65.4533 57.1369C69.07 51.7239 71.0003 45.3599 71.0001 38.8498C70.99 30.1234 67.5191 21.7572 61.3486 15.5866C55.1782 9.41603 46.8122 5.94583 38.0858 5.93551Z" fill="white"/>
<path d="M52.2097 40.787C52.209 40.0419 51.9129 39.3275 51.3864 38.8003C50.8599 38.273 50.146 37.976 49.4009 37.9741H45.2201C45.7018 36.571 46.0454 35.1242 46.2461 33.6543C46.3402 33.0287 46.2984 32.3902 46.1234 31.7822C45.9484 31.1743 45.6443 30.6112 45.2319 30.1314C44.8195 29.6516 44.3085 29.2665 43.7337 29.0021C43.159 28.7378 42.5339 28.6005 41.9013 28.5996C41.6525 28.5996 41.414 28.6984 41.2381 28.8743C41.0622 29.0502 40.9633 29.2888 40.9633 29.5376C40.9633 31.8024 39.6634 35.2213 38.1425 35.9822C36.2808 36.7871 34.362 37.4529 32.4018 37.9741H23.0233C22.7745 37.9741 22.5359 38.0729 22.36 38.2488C22.1841 38.4247 22.0853 38.6633 22.0853 38.9121V52.0364C22.0852 52.1595 22.1093 52.2815 22.1564 52.3952C22.2034 52.509 22.2724 52.6124 22.3594 52.6995C22.4464 52.7867 22.5497 52.8558 22.6635 52.9029C22.7772 52.9501 22.8992 52.9743 23.0223 52.9743H25.8351V53.9123C25.8351 54.161 25.934 54.3996 26.1099 54.5755C26.2858 54.7514 26.5243 54.8502 26.7731 54.8502H30.6479C31.192 54.8496 31.7242 54.6914 32.1803 54.3947C32.6364 54.098 32.9967 53.6755 33.2177 53.1783L39.7954 54.8222C39.8696 54.8408 39.9459 54.8502 40.0224 54.8502H45.6471C46.1059 54.8502 46.5578 54.7379 46.9633 54.5231C47.3688 54.3084 47.7156 53.9977 47.9735 53.6181C48.2313 53.2386 48.3924 52.8017 48.4427 52.3456C48.493 51.8895 48.4309 51.428 48.262 51.0014C48.6437 50.8973 48.9991 50.7138 49.3051 50.463C49.6111 50.2121 49.8607 49.8996 50.0377 49.5457C50.2146 49.1918 50.3149 48.8045 50.332 48.4092C50.3491 48.0139 50.2826 47.6195 50.1369 47.2516C50.5996 47.1258 51.0224 46.8836 51.3651 46.5482C51.7078 46.2128 51.959 45.7952 52.0948 45.3353C52.2306 44.8754 52.2465 44.3884 52.1409 43.9207C52.0354 43.4529 51.8119 43.0199 51.4918 42.6629C51.9549 42.1479 52.2107 41.4795 52.2097 40.787ZM25.8361 51.0984H23.9612V39.849H25.8361V51.0984ZM31.5858 52.0364C31.5856 52.2851 31.4867 52.5235 31.3108 52.6993C31.135 52.8752 30.8966 52.9741 30.6479 52.9743H27.711V39.849H31.5858V52.0364ZM43.7732 43.5988H49.4009C49.5266 43.5947 49.6518 43.6159 49.7691 43.6612C49.8864 43.7065 49.9935 43.7748 50.0838 43.8623C50.1742 43.9498 50.246 44.0545 50.2951 44.1703C50.3442 44.2861 50.3695 44.4105 50.3695 44.5363C50.3695 44.662 50.3442 44.7865 50.2951 44.9023C50.246 45.0181 50.1742 45.1228 50.0838 45.2102C49.9935 45.2977 49.8864 45.3661 49.7691 45.4114C49.6518 45.4566 49.5266 45.4778 49.4009 45.4737H43.7722C43.6465 45.4696 43.5213 45.4908 43.404 45.5361C43.2866 45.5814 43.1796 45.6497 43.0893 45.7372C42.9989 45.8247 42.927 45.9294 42.878 46.0452C42.8289 46.161 42.8036 46.2854 42.8036 46.4112C42.8036 46.5369 42.8289 46.6614 42.878 46.7772C42.927 46.893 42.9989 46.9977 43.0893 47.0851C43.1796 47.1726 43.2866 47.241 43.404 47.2863C43.5213 47.3315 43.6465 47.3527 43.7722 47.3486H47.522C47.7653 47.3566 47.996 47.4588 48.1653 47.6338C48.3347 47.8087 48.4293 48.0426 48.4293 48.2861C48.4293 48.5295 48.3347 48.7635 48.1653 48.9384C47.996 49.1133 47.7653 49.2156 47.522 49.2235H43.7722C43.6465 49.2194 43.5213 49.2406 43.404 49.2859C43.2866 49.3312 43.1796 49.3995 43.0893 49.487C42.9989 49.5745 42.927 49.6792 42.878 49.795C42.8289 49.9108 42.8036 50.0352 42.8036 50.161C42.8036 50.2867 42.8289 50.4112 42.878 50.527C42.927 50.6428 42.9989 50.7475 43.0893 50.8349C43.1796 50.9224 43.2866 50.9908 43.404 51.0361C43.5213 51.0813 43.6465 51.1025 43.7722 51.0984H45.6471C45.8904 51.1064 46.1211 51.2086 46.2904 51.3836C46.4598 51.5585 46.5544 51.7924 46.5544 52.0359C46.5544 52.2793 46.4598 52.5133 46.2904 52.6882C46.1211 52.8631 45.8904 52.9654 45.6471 52.9733H40.1374L33.4597 51.3044V39.623C35.3469 39.1098 37.1922 38.4533 38.9794 37.6591C41.1323 36.5802 42.4513 33.1654 42.7622 30.6285C43.309 30.8291 43.7696 31.2123 44.0664 31.7133C44.3632 32.2144 44.4779 32.8025 44.3912 33.3784C44.2105 35.1559 43.7169 36.8874 42.9332 38.4931C42.8618 38.6361 42.8282 38.7949 42.8354 38.9546C42.8427 39.1142 42.8906 39.2694 42.9746 39.4053C43.0587 39.5412 43.176 39.6535 43.3156 39.7313C43.4552 39.8091 43.6124 39.85 43.7722 39.85H49.4009C49.6442 39.858 49.8749 39.9602 50.0442 40.1352C50.2136 40.3101 50.3082 40.544 50.3082 40.7875C50.3082 41.0309 50.2136 41.2648 50.0442 41.4398C49.8749 41.6147 49.6442 41.717 49.4009 41.7249H43.7722C43.6455 41.7191 43.5189 41.739 43.4002 41.7834C43.2814 41.8279 43.1729 41.8959 43.0811 41.9835C42.9894 42.0711 42.9164 42.1764 42.8665 42.293C42.8167 42.4095 42.7909 42.5351 42.7909 42.6619C42.7909 42.7887 42.8167 42.9142 42.8665 43.0308C42.9164 43.1474 42.9894 43.2527 43.0811 43.3402C43.1729 43.4278 43.2814 43.4959 43.4002 43.5403C43.5189 43.5848 43.6465 43.6047 43.7732 43.5988Z" fill="black"/>
<path d="M42.8353 22.8506C42.5866 22.8506 42.348 22.9494 42.1721 23.1253C41.9962 23.3012 41.8973 23.5398 41.8973 23.7886V25.7886C41.9053 26.0319 42.0075 26.2626 42.1825 26.432C42.3574 26.6013 42.5914 26.696 42.8348 26.696C43.0783 26.696 43.3122 26.6013 43.4872 26.432C43.6621 26.2626 43.7644 26.0319 43.7723 25.7886V23.7886C43.7723 23.54 43.6737 23.3016 43.498 23.1257C43.3223 22.9498 43.0839 22.8509 42.8353 22.8506Z" fill="black"/>
<path d="M37.5317 27.5958L36.2017 26.2678C36.0259 26.0919 35.7874 25.9932 35.5387 25.9932C35.29 25.9932 35.0515 26.0919 34.8757 26.2678C34.6999 26.4436 34.6011 26.6821 34.6011 26.9308C34.6011 27.1795 34.6999 27.4179 34.8757 27.5938L36.2017 28.9218C36.3775 29.0982 36.6162 29.1975 36.8653 29.1978C37.1143 29.1982 37.3533 29.0996 37.5297 28.9238C37.7061 28.7479 37.8054 28.5093 37.8057 28.2602C37.8061 28.0112 37.7075 27.7722 37.5317 27.5958Z" fill="black"/>
<path d="M34.4018 33.2876H32.5228C32.3971 33.2835 32.2719 33.3047 32.1546 33.35C32.0372 33.3952 31.9302 33.4636 31.8398 33.5511C31.7495 33.6386 31.6776 33.7433 31.6286 33.8591C31.5795 33.9749 31.5542 34.0994 31.5542 34.2251C31.5542 34.3509 31.5795 34.4753 31.6286 34.5911C31.6776 34.7069 31.7495 34.8117 31.8398 34.8991C31.9302 34.9866 32.0372 35.055 32.1546 35.1002C32.2719 35.1455 32.3971 35.1667 32.5228 35.1626H34.4018C34.5275 35.1667 34.6527 35.1455 34.7701 35.1002C34.8874 35.055 34.9944 34.9866 35.0848 34.8991C35.1752 34.8117 35.247 34.7069 35.2961 34.5911C35.3452 34.4753 35.3704 34.3509 35.3704 34.2251C35.3704 34.0994 35.3452 33.9749 35.2961 33.8591C35.247 33.7433 35.1752 33.6386 35.0848 33.5511C34.9944 33.4636 34.8874 33.3952 34.7701 33.35C34.6527 33.3047 34.5275 33.2835 34.4018 33.2876Z" fill="black"/>
<path d="M53.1469 33.2881H51.2719C51.0285 33.296 50.7978 33.3983 50.6285 33.5732C50.4592 33.7482 50.3645 33.9821 50.3645 34.2256C50.3645 34.4691 50.4592 34.703 50.6285 34.8779C50.7978 35.0529 51.0285 35.1551 51.2719 35.1631H53.1469C53.3902 35.1551 53.6209 35.0529 53.7903 34.8779C53.9596 34.703 54.0543 34.4691 54.0543 34.2256C54.0543 33.9821 53.9596 33.7482 53.7903 33.5732C53.6209 33.3983 53.3902 33.296 53.1469 33.2881Z" fill="black"/>
<path d="M50.79 26.268C50.703 26.1809 50.5997 26.1118 50.4859 26.0646C50.3721 26.0174 50.2502 25.9932 50.127 25.9932C50.0039 25.9932 49.8819 26.0174 49.7682 26.0646C49.6544 26.1118 49.5511 26.1809 49.464 26.268L48.138 27.594C47.9622 27.7699 47.8634 28.0084 47.8634 28.257C47.8634 28.5057 47.9622 28.7442 48.138 28.92C48.3139 29.0959 48.5524 29.1947 48.801 29.1947C49.0497 29.1947 49.2882 29.0959 49.464 28.92L50.79 27.594C50.8772 27.507 50.9463 27.4037 50.9935 27.2899C51.0406 27.1761 51.0649 27.0542 51.0649 26.931C51.0649 26.8079 51.0406 26.6859 50.9935 26.5722C50.9463 26.4584 50.8772 26.3551 50.79 26.268Z" fill="black"/>
</g>
</g>
</g>
<defs>
<clipPath id="clip0_15_1550">
<rect width="76.17" height="76.16" fill="white" transform="translate(0 0.769531)"/>
</clipPath>
<clipPath id="clip1_15_1550">
<rect width="76.17" height="76.16" fill="white" transform="translate(0 0.769531)"/>
</clipPath>
<clipPath id="clip2_15_1550">
<rect width="76.163" height="76.16" fill="white" transform="translate(0.00354004 0.769531)"/>
</clipPath>
</defs>
</svg>
