<svg width="110" height="110" viewBox="0 0 110 110" fill="none" xmlns="http://www.w3.org/2000/svg">
<g filter="url(#filter0_d_15_420)">
<g clip-path="url(#clip0_15_420)">
<rect x="4.86755" y="1.16016" width="101" height="101" rx="50.5" fill="white" fill-opacity="0.01" shape-rendering="crispEdges"/>
<g clip-path="url(#clip1_15_420)">
<g clip-path="url(#clip2_15_420)">
<g clip-path="url(#clip3_15_420)">
<mask id="mask0_15_420" style="mask-type:luminance" maskUnits="userSpaceOnUse" x="18" y="14" width="75" height="75">
<path d="M55.3676 88.7874C75.8781 88.7874 92.5051 72.1603 92.5051 51.6498C92.5051 31.1393 75.8781 14.5122 55.3676 14.5122C34.857 14.5122 18.23 31.1393 18.23 51.6498C18.23 72.1603 34.857 88.7874 55.3676 88.7874Z" fill="white"/>
</mask>
<g mask="url(#mask0_15_420)">
<path d="M55.3676 88.7874C75.8781 88.7874 92.5051 72.1603 92.5051 51.6498C92.5051 31.1393 75.8781 14.5122 55.3676 14.5122C34.857 14.5122 18.23 31.1393 18.23 51.6498C18.23 72.1603 34.857 88.7874 55.3676 88.7874Z" fill="#FF7A00"/>
<path d="M-0.299686 45.5826L-0.81958 46.1025L60.7368 107.659L61.2567 107.139L-0.299686 45.5826Z" fill="#FF7A00"/>
<path d="M1.68237 43.6207L1.16248 44.1406L62.7188 105.697L63.2387 105.177L1.68237 43.6207Z" fill="#FF7A00"/>
<path d="M3.66381 41.6583L3.14392 42.1782L64.7003 103.735L65.2202 103.215L3.66381 41.6583Z" fill="#FF7A00"/>
<path d="M5.64587 39.6964L5.12598 40.2163L66.6823 101.773L67.2022 101.253L5.64587 39.6964Z" fill="#FF7A00"/>
<path d="M7.62707 37.735L7.10718 38.2549L68.6635 99.8112L69.1834 99.2913L7.62707 37.735Z" fill="#FF7A00"/>
<path d="M9.60852 35.7721L9.08862 36.292L70.645 97.8483L71.1649 97.3284L9.60852 35.7721Z" fill="#FF7A00"/>
<path d="M11.5906 33.8112L11.0707 34.3311L72.627 95.8874L73.1469 95.3675L11.5906 33.8112Z" fill="#FF7A00"/>
<path d="M13.572 31.8492L13.0521 32.3691L74.6085 93.9255L75.1284 93.4056L13.572 31.8492Z" fill="#FF7A00"/>
<path d="M15.5539 29.8873L15.0341 30.4072L76.5904 91.9636L77.1103 91.4437L15.5539 29.8873Z" fill="#FF7A00"/>
<path d="M17.5354 27.9249L17.0155 28.4448L78.5719 90.0012L79.0917 89.4813L17.5354 27.9249Z" fill="#FF7A00"/>
<path d="M19.5166 25.9635L18.9967 26.4834L80.5531 88.0397L81.0729 87.5199L19.5166 25.9635Z" fill="#FF7A00"/>
<path d="M21.4982 24.0011L20.9783 24.521L82.5352 86.0779L83.0551 85.558L21.4982 24.0011Z" fill="#FF7A00"/>
<path d="M23.4796 22.0397L22.9597 22.5596L84.5161 84.1159L85.036 83.596L23.4796 22.0397Z" fill="#FF7A00"/>
<path d="M25.4615 20.0773L24.9417 20.5972L86.498 82.1535L87.0179 81.6336L25.4615 20.0773Z" fill="#FF7A00"/>
<path d="M27.443 18.1154L26.9231 18.6353L88.48 80.1922L88.9999 79.6723L27.443 18.1154Z" fill="#FF7A00"/>
<path d="M29.4242 16.1534L28.9043 16.6733L90.4606 78.2297L90.9805 77.7098L29.4242 16.1534Z" fill="#FF7A00"/>
<path d="M31.4062 14.1915L30.8864 14.7114L92.4427 76.2678L92.9626 75.7479L31.4062 14.1915Z" fill="#FF7A00"/>
<path d="M33.3871 12.2291L32.8672 12.749L94.4235 74.3054L94.9434 73.7855L33.3871 12.2291Z" fill="#FF7A00"/>
<path d="M35.3697 10.2677L34.8499 10.7876L96.4062 72.3439L96.9261 71.8241L35.3697 10.2677Z" fill="#FF7A00"/>
<path d="M37.3503 8.30579L36.8304 8.82568L98.3868 70.382L98.9067 69.8621L37.3503 8.30579Z" fill="#FF7A00"/>
<path d="M39.3324 6.3429L38.8125 6.86279L100.369 68.4191L100.889 67.8993L39.3324 6.3429Z" fill="#FF7A00"/>
<path d="M41.3138 4.38196L40.7939 4.90186L102.35 66.4582L102.87 65.9383L41.3138 4.38196Z" fill="#FF7A00"/>
<path d="M43.2959 2.41907L42.776 2.93896L104.332 64.4953L104.852 63.9754L43.2959 2.41907Z" fill="#FF7A00"/>
<path d="M45.2773 0.457647L44.7574 0.977539L106.314 62.5339L106.834 62.014L45.2773 0.457647Z" fill="#FF7A00"/>
<path d="M47.2594 -1.50475L46.7395 -0.984863L108.296 60.5715L108.816 60.0516L47.2594 -1.50475Z" fill="#FF7A00"/>
<path d="M49.2402 -3.95739L48.7203 -3.4375L110.277 58.1188L110.797 57.599L49.2402 -3.95739Z" fill="#FF7A00"/>
</g>
<path d="M55.3676 102.14C55.0972 102.14 54.8268 102.137 54.5564 102.133L54.5698 101.299C55.6797 101.316 56.8089 101.296 57.923 101.241L57.9656 102.074C57.1035 102.118 56.2289 102.14 55.3676 102.14ZM52.8531 102.079C51.7148 102.024 50.5723 101.929 49.4565 101.799L49.5533 100.969C50.6507 101.098 51.7749 101.191 52.894 101.246L52.8531 102.079ZM59.6656 101.959L59.5963 101.128C60.7004 101.035 61.8204 100.902 62.9253 100.735L63.0505 101.559C61.9272 101.73 60.7889 101.865 59.6656 101.959ZM47.7673 101.572C46.6449 101.402 45.5174 101.193 44.4158 100.949L44.596 100.134C45.6793 100.373 46.7876 100.579 47.8917 100.746L47.7673 101.572ZM64.7321 101.272L64.5777 100.453C65.6743 100.247 66.7751 100.002 67.8492 99.7231L68.0587 100.532C66.9654 100.815 65.8463 101.064 64.7313 101.273L64.7321 101.272ZM42.7575 100.553C41.6634 100.271 40.5635 99.9476 39.4869 99.5929L39.7481 98.8009C40.8072 99.1506 41.8888 99.4686 42.9645 99.7448L42.7567 100.553L42.7575 100.553ZM69.701 100.077L69.4649 99.2766C70.5339 98.9612 71.6038 98.6048 72.6454 98.2176L72.9366 99.0004C71.8776 99.3943 70.7885 99.7557 69.701 100.077ZM37.8721 99.0263C36.808 98.6332 35.7448 98.1992 34.7116 97.7352L35.0538 96.9741C36.0694 97.4306 37.1143 97.8579 38.1608 98.2435L37.8721 99.0263ZM74.5231 98.3795L74.206 97.6067C75.2316 97.1861 76.259 96.7229 77.2596 96.2322L77.6276 96.9799C76.6103 97.4807 75.5655 97.9514 74.5231 98.3795ZM33.1652 97.0092C32.1512 96.5109 31.1389 95.9718 30.155 95.4035L30.5722 94.6816C31.5395 95.2399 32.5359 95.7707 33.5332 96.2597L33.1652 97.0092ZM79.1415 96.2038L78.7476 95.4686C79.7282 94.9436 80.7038 94.3786 81.6468 93.7895L82.0891 94.4972C81.1302 95.0964 80.1388 95.6705 79.1415 96.2038ZM28.6903 94.5255C27.7306 93.9272 26.7784 93.2879 25.8587 92.6244L26.3469 91.9476C27.2507 92.5994 28.1879 93.2286 29.1318 93.8162L28.6903 94.5255ZM83.5179 93.5708L83.0514 92.8781C83.9777 92.2547 84.8916 91.5946 85.7679 90.9144L86.2786 91.5745C85.3881 92.2647 84.4593 92.9365 83.5179 93.5708ZM24.4917 91.6029C23.5945 90.9086 22.7116 90.1767 21.8662 89.4272L22.4203 88.803C23.2507 89.5407 24.1195 90.2601 25.0024 90.9428L24.4917 91.6029ZM87.6072 90.508L87.0739 89.8654C87.9318 89.1527 88.7747 88.4033 89.5793 87.638L90.1543 88.243C89.3364 89.0217 88.4801 89.7836 87.6072 90.508ZM20.611 88.2731C19.7906 87.4944 18.9853 86.6774 18.2192 85.8445L18.8326 85.2787C19.587 86.0974 20.3782 86.9019 21.1852 87.668L20.611 88.2731ZM91.3702 87.0479L90.7752 86.4629C91.5546 85.6701 92.3183 84.8397 93.0443 83.9935L93.6777 84.5376C92.9392 85.3972 92.163 86.2418 91.3702 87.0479ZM17.0859 84.571C16.3464 83.7122 15.6279 82.8184 14.9502 81.9146L15.6179 81.4139C16.2839 82.3018 16.9907 83.1815 17.7185 84.026L17.0859 84.571ZM94.7685 83.2249L94.1175 82.7033C94.8144 81.8345 95.4912 80.9307 96.1272 80.0177L96.8115 80.495C96.1647 81.4231 95.477 82.3419 94.7685 83.2249ZM13.9513 80.5359C13.3012 79.6046 12.6769 78.6432 12.0952 77.6784L12.8096 77.2478C13.3813 78.1967 13.9947 79.1422 14.6356 80.0577L13.9513 80.5359ZM97.7645 79.078L97.0644 78.6231C97.6711 77.6884 98.2519 76.7212 98.7927 75.7489L99.5221 76.1545C98.9721 77.1435 98.3804 78.1266 97.7645 79.078ZM11.2415 76.2063C10.689 75.2165 10.1649 74.1983 9.68338 73.1777L10.4378 72.8205C10.911 73.8245 11.4268 74.8259 11.9692 75.7998L11.2407 76.2054L11.2415 76.2063ZM100.327 74.649L99.5839 74.2676C100.092 73.2762 100.574 72.2538 101.013 71.2315L101.78 71.5612C101.332 72.601 100.844 73.6392 100.327 74.649ZM8.98486 71.6288C8.53754 70.5922 8.11943 69.5257 7.74305 68.4583L8.53003 68.1812C8.90057 69.2302 9.31117 70.2793 9.75098 71.2974L8.98486 71.6288ZM102.427 69.9788L101.649 69.6759C102.053 68.6411 102.428 67.5745 102.762 66.5079L103.558 66.7575C103.218 67.8424 102.838 68.9273 102.427 69.9788ZM7.20309 66.8426C6.86343 65.7652 6.55632 64.6602 6.29009 63.5578L7.10128 63.3625C7.36333 64.4458 7.66544 65.5323 8.00009 66.5914L7.20393 66.8426H7.20309ZM104.04 65.1217L103.236 64.8998C103.531 63.8299 103.795 62.7333 104.019 61.6408L104.836 61.8069C104.609 62.9185 104.341 64.0343 104.04 65.1217ZM5.91705 61.8937C5.68922 60.7871 5.4956 59.6563 5.34288 58.5346L6.16992 58.422C6.32014 59.5252 6.51042 60.6369 6.73491 61.726L5.91705 61.8937ZM105.149 60.132L104.326 59.9926C104.511 58.8977 104.662 57.7802 104.773 56.6711L105.603 56.7545C105.49 57.8828 105.337 59.0187 105.149 60.132ZM5.14092 56.8413C5.02575 55.7147 4.94813 54.5705 4.90891 53.4405L5.74263 53.4113C5.78102 54.5238 5.85863 55.6496 5.9713 56.757L5.14092 56.8413ZM105.745 55.0554L104.912 55.0003C104.986 53.8895 105.023 52.7612 105.023 51.6487V51.4751H105.857V51.6429C105.857 52.7796 105.82 53.9254 105.745 55.0554ZM5.71175 51.7372H4.8772V51.6496C4.8772 50.5455 4.91308 49.4288 4.98402 48.3306L5.8169 48.384C5.7468 49.4647 5.71175 50.5621 5.71175 51.6487V51.7372ZM104.99 49.8019C104.949 48.6852 104.87 47.5594 104.756 46.457L105.586 46.3702C105.703 47.4918 105.783 48.6352 105.825 49.7702L104.991 49.801L104.99 49.8019ZM5.9546 46.714L5.12422 46.6322C5.23522 45.5023 5.38627 44.3648 5.57321 43.2531L6.39608 43.3917C6.21248 44.4849 6.06393 45.6024 5.9546 46.714ZM104.554 44.7912C104.402 43.6896 104.21 42.5788 103.984 41.4889L104.801 41.3195C105.031 42.4269 105.226 43.5578 105.381 44.6769L104.554 44.7912ZM6.69986 41.7426L5.882 41.5765C6.10649 40.4691 6.37188 39.3533 6.67148 38.2608L7.47683 38.4812C7.1814 39.5561 6.91935 40.6535 6.69986 41.7426ZM103.614 39.8523C103.351 38.7724 103.046 37.6858 102.71 36.6251L103.505 36.3723C103.848 37.4522 104.157 38.5563 104.425 39.6554L103.614 39.8523ZM7.94752 36.873L7.15052 36.6251C7.48768 35.5419 7.86656 34.457 8.27633 33.4021L9.05497 33.7034C8.65188 34.7415 8.27967 35.8081 7.94835 36.873H7.94752ZM102.177 35.037C101.806 33.9921 101.393 32.9439 100.95 31.9233L101.716 31.5911C102.167 32.6301 102.586 33.6958 102.963 34.7591L102.177 35.0378V35.037ZM9.68839 32.1452L8.9206 31.8173C9.36709 30.7732 9.85447 29.7334 10.3686 28.7269L11.1121 29.1066C10.6064 30.0964 10.1274 31.1187 9.68839 32.1452ZM100.26 30.3985C99.7833 29.3954 99.2667 28.3948 98.7226 27.4233L99.4512 27.0161C100.004 28.0034 100.529 29.0207 101.013 30.0422L100.26 30.3985ZM11.9008 27.6245L11.1706 27.2206C11.7214 26.2274 12.3106 25.2427 12.924 24.2938L13.625 24.7469C13.0224 25.6791 12.4416 26.6472 11.9008 27.6245ZM97.8805 25.9771C97.3064 25.0273 96.6905 24.0826 96.0504 23.1705L96.733 22.6914C97.384 23.6195 98.0099 24.58 98.5941 25.5456L97.8805 25.9779V25.9771ZM14.5588 23.3507L13.8737 22.875C14.5196 21.9453 15.2065 21.0257 15.9125 20.1419L16.5643 20.6635C15.8691 21.5331 15.1939 22.4369 14.5588 23.3507ZM95.0648 21.8135C94.3921 20.9205 93.6836 20.0434 92.96 19.2055L93.5918 18.6597C94.327 19.5118 95.0472 20.4039 95.7316 21.3119L95.0648 21.8143V21.8135ZM17.6342 19.3699L16.9999 18.8275C17.7335 17.9712 18.5079 17.1258 19.3024 16.3138L19.8991 16.8971C19.1172 17.6958 18.3552 18.5279 17.6342 19.3699ZM91.8442 17.9579C91.089 17.14 90.2961 16.338 89.4866 15.5727L90.0608 14.966C90.8828 15.7446 91.689 16.56 92.4576 17.3904L91.8442 17.9579ZM21.0926 15.7196L20.5167 15.1162C21.3346 14.3351 22.19 13.5723 23.0596 12.8471L23.5945 13.488C22.7391 14.2015 21.8971 14.9526 21.0926 15.7196ZM88.2498 14.4394C87.4136 13.7 86.5432 12.9814 85.6644 12.3038L86.1734 11.642C87.0673 12.3313 87.9519 13.0615 88.8023 13.8151L88.2498 14.4394ZM24.8989 12.4373L24.3865 11.7788C25.2762 11.087 26.2042 10.4135 27.1447 9.77841L27.6121 10.4694C26.6874 11.0945 25.7744 11.7571 24.8998 12.4373H24.8989ZM84.3182 11.3006C83.4094 10.648 82.4714 10.0204 81.53 9.43624L81.9698 8.72687C82.927 9.32191 83.8809 9.95951 84.8048 10.6221L84.3182 11.2998V11.3006ZM29.015 9.55642L28.5718 8.84872C29.5307 8.247 30.5222 7.67116 31.5169 7.13705L31.9117 7.87229C30.9336 8.39806 29.9588 8.96472 29.015 9.55642ZM80.0887 8.57498C79.119 8.0175 78.1217 7.4884 77.1244 7.00102L77.4908 6.25159C78.5039 6.74731 79.5179 7.28477 80.5035 7.85143L80.0887 8.57498ZM33.3989 7.10534L33.0292 6.35758C34.0423 5.85685 35.0863 5.38449 36.1312 4.95303L36.45 5.72499C35.4218 6.14894 34.3953 6.61295 33.3989 7.10534ZM75.603 6.28914C74.5849 5.83431 73.5383 5.40869 72.4935 5.0248L72.7814 4.24199C73.8446 4.63256 74.9087 5.06486 75.9443 5.52803L75.6038 6.28998L75.603 6.28914ZM38.0098 5.11076L37.7177 4.32878C38.7767 3.9332 39.8641 3.56934 40.9507 3.24637L41.1886 4.04587C40.1203 4.36383 39.0504 4.72269 38.0098 5.11076ZM70.9053 4.47232C69.8488 4.12432 68.7664 3.80802 67.6873 3.53262L67.8934 2.72394C68.9909 3.00351 70.0925 3.32565 71.1657 3.6795L70.9053 4.47232ZM42.8026 3.59604L42.5923 2.7882C43.683 2.50362 44.8013 2.25241 45.918 2.04044L46.074 2.85997C44.9758 3.06861 43.8758 3.31563 42.8034 3.59521L42.8026 3.59604ZM66.0566 3.14539C64.9666 2.9067 63.8575 2.70307 62.7592 2.53867L62.8819 1.71329C63.9986 1.8802 65.126 2.08717 66.2343 2.33003L66.0566 3.14539ZM47.7256 2.57706L47.5988 1.75252C48.7171 1.57977 49.8562 1.4429 50.9829 1.34609L51.0546 2.17731C49.9464 2.27244 48.8264 2.40681 47.7265 2.57706H47.7256ZM61.096 2.31918C59.9927 2.19316 58.8686 2.1022 57.7544 2.04878L57.7945 1.21507C58.9261 1.26848 60.0695 1.36111 61.1911 1.49047L61.096 2.31918ZM52.7263 2.0613L52.6829 1.22758C53.8062 1.16917 54.9579 1.1483 56.0903 1.16249L56.0787 1.99704C54.9637 1.98119 53.832 2.00372 52.7263 2.0613Z" fill="#FF7A00"/>
<path d="M55.8325 92.9584L55.8225 92.1238C56.9325 92.1105 58.0483 92.0537 59.1407 91.9527L59.2175 92.784C58.1033 92.8866 56.965 92.945 55.8325 92.9584ZM54.1367 92.9417C53.0159 92.9091 51.8776 92.829 50.7551 92.7055L50.8469 91.876C51.9468 91.9978 53.0618 92.0754 54.1609 92.1071L54.1367 92.9417ZM60.9016 92.5912L60.7906 91.765C61.883 91.6181 62.983 91.4253 64.0612 91.1891L64.2398 92.0045C63.1399 92.2457 62.0165 92.4426 60.9016 92.5912ZM49.0743 92.4827C47.9619 92.3124 46.8427 92.0938 45.7478 91.8334L45.9406 91.0214C47.0138 91.2776 48.1104 91.4904 49.2003 91.6581L49.0743 92.4827ZM65.888 91.6081L65.6761 90.8011C66.7443 90.5198 67.8134 90.1918 68.8507 89.8246L69.1286 90.6116C68.0687 90.9855 66.9788 91.3218 65.888 91.6081ZM44.1071 91.4061C43.0163 91.0982 41.9322 90.7418 40.8849 90.3479L41.1786 89.5667C42.2043 89.9515 43.2658 90.3003 44.3341 90.6016L44.1079 91.4053L44.1071 91.4061ZM70.7159 90.0132L70.4063 89.2388C71.4245 88.8315 72.4435 88.3742 73.4341 87.8793L73.8071 88.6262C72.7956 89.1311 71.7558 89.5985 70.7159 90.0132ZM39.3067 89.7211C38.2702 89.2838 37.2379 88.7965 36.2389 88.274L36.6261 87.5338C37.6051 88.0462 38.6157 88.5236 39.6314 88.9517L39.3067 89.7211ZM75.3043 87.8384L74.9012 87.1082C75.8651 86.5757 76.8207 85.9957 77.7404 85.3856L78.2027 86.08C77.2638 86.7042 76.2882 87.2959 75.3043 87.8384ZM34.7501 87.4545C33.7745 86.8912 32.8097 86.2811 31.8842 85.641L32.3591 84.955C33.2654 85.5826 34.2101 86.1801 35.1665 86.7326L34.7501 87.4545ZM79.5931 85.1127L79.1032 84.4359C79.9961 83.7891 80.8733 83.0965 81.7103 82.3779L82.2536 83.0122C81.3999 83.7449 80.5044 84.4518 79.5931 85.1127ZM30.5097 84.6462C29.6151 83.9702 28.7338 83.2475 27.8884 82.4964L28.4433 81.8722C29.2712 82.6099 30.1358 83.3185 31.0121 83.9794L30.5097 84.6462ZM83.5163 81.8822L82.948 81.2713C83.7525 80.5227 84.5386 79.7282 85.2847 78.9104L85.9014 79.4728C85.1403 80.3074 84.3375 81.1177 83.5163 81.8822ZM26.6457 81.3406C25.8404 80.5603 25.0534 79.7349 24.3073 78.887L24.9341 78.3362C25.6651 79.1674 26.4362 79.9769 27.2257 80.7414L26.6457 81.3414V81.3406ZM87.0181 78.1951L86.3788 77.6585C87.0865 76.8156 87.77 75.931 88.4093 75.0288L89.0903 75.5112C88.4376 76.4326 87.7408 77.3355 87.0181 78.1951ZM23.2157 77.5893C22.5097 76.7155 21.8304 75.7991 21.1953 74.8678L21.8846 74.3988C22.5072 75.3118 23.1731 76.2089 23.865 77.0643L23.2157 77.5893ZM90.0442 74.1075L89.344 73.6527C89.9457 72.7263 90.5148 71.7641 91.0373 70.7935L91.7725 71.1899C91.2392 72.1805 90.6584 73.1611 90.0442 74.1075ZM20.2714 73.449C19.6764 72.4926 19.1139 71.502 18.5998 70.5014L19.3426 70.12C19.8466 71.0998 20.3974 72.072 20.9799 73.0076L20.2714 73.449ZM92.5453 69.6769L91.7951 69.3113C92.2774 68.3207 92.7239 67.2959 93.1228 66.2652L93.9015 66.5665C93.4942 67.6189 93.0377 68.6654 92.5453 69.6769ZM17.8579 68.9792C17.3855 67.9585 16.9499 66.9062 16.5627 65.8488L17.3463 65.5617C17.7252 66.5965 18.1516 67.6289 18.6148 68.6287L17.8579 68.9792ZM94.4815 64.9692L93.692 64.7004C94.0475 63.6564 94.3638 62.5848 94.6317 61.5149L95.4412 61.7169C95.1675 62.8102 94.8453 63.9034 94.4823 64.9692H94.4815ZM16.0127 64.2439C15.6697 63.1715 15.3676 62.0716 15.1139 60.975L15.9276 60.7872C16.1754 61.8613 16.4717 62.9387 16.8072 63.9894L16.0127 64.2439ZM95.8193 60.0653L95.0022 59.8959C95.2259 58.8143 95.407 57.7119 95.5414 56.6186L96.3692 56.7196C96.2324 57.8354 96.0471 58.9612 95.8193 60.0653ZM14.7667 59.3159C14.5581 58.2076 14.3945 57.0793 14.2793 55.9618L15.1097 55.875C15.2224 56.97 15.3834 58.0758 15.5871 59.1615L14.7675 59.3151L14.7667 59.3159ZM96.5395 55.0338L95.7074 54.9654C95.7967 53.8704 95.8418 52.7546 95.8418 51.6464V51.482L96.6763 51.4753V51.6464C96.6763 52.7763 96.6304 53.9163 96.5395 55.0338ZM14.1383 54.2727C14.084 53.4064 14.0565 52.5226 14.0557 51.6472C14.0557 51.3918 14.0582 51.1381 14.0623 50.8836L14.8969 50.8986C14.8927 51.1481 14.8902 51.3977 14.8902 51.6472C14.8902 52.5051 14.9178 53.3714 14.9712 54.221L14.1383 54.2727ZM95.8026 49.8204C95.7525 48.7154 95.6582 47.6021 95.5197 46.5105L96.3475 46.4062C96.4886 47.5195 96.5854 48.6553 96.6363 49.7828L95.8026 49.8204ZM14.9612 49.2387L14.1283 49.1894C14.1942 48.0653 14.3069 46.9311 14.4646 45.8162L15.2908 45.9339C15.1364 47.0254 15.0262 48.1379 14.9612 49.2387ZM95.2776 44.869C95.094 43.779 94.8629 42.6858 94.5908 41.6184L95.3995 41.4131C95.6774 42.5022 95.9127 43.618 96.1005 44.7304L95.2776 44.869ZM15.557 44.2948L14.7367 44.1429C14.9395 43.038 15.1915 41.9255 15.4853 40.8372L16.2914 41.0542C16.0035 42.1208 15.7565 43.2107 15.5579 44.2948H15.557ZM94.1468 40.0194C93.8305 38.962 93.4658 37.9063 93.0636 36.879L93.8405 36.5743C94.252 37.6225 94.6234 38.7016 94.9472 39.7799L94.1468 40.0194ZM16.7571 39.4611L15.9609 39.2099C16.2998 38.1366 16.6878 37.0634 17.1143 36.0185L17.8871 36.3348C17.469 37.358 17.0884 38.4095 16.7571 39.4611ZM92.4268 35.3492C91.9812 34.3377 91.4888 33.3346 90.9647 32.3682L91.6982 31.9701C92.234 32.9566 92.7356 33.9797 93.1913 35.0121L92.4268 35.3492ZM18.5489 34.8068L17.7903 34.4596C18.2593 33.4348 18.7776 32.4183 19.3292 31.4368L20.0569 31.8458C19.5161 32.8072 19.0096 33.8036 18.5489 34.8068ZM90.1443 30.9286C89.5785 29.9814 88.9668 29.0458 88.3258 28.1495L89.0043 27.6638C89.6586 28.5802 90.2828 29.5341 90.8604 30.4996L90.1443 30.9286ZM20.9007 30.4137L20.1905 29.9755C20.7838 29.0141 21.4231 28.0686 22.0891 27.1656L22.7609 27.6613C22.1083 28.546 21.4823 29.4715 20.9007 30.4137ZM87.3335 26.8184C86.655 25.9463 85.9332 25.0934 85.1887 24.2814L85.803 23.7172C86.5632 24.5443 87.2993 25.4155 87.992 26.3052L87.3335 26.8184ZM23.774 26.3427L23.1231 25.8211C23.8283 24.9415 24.5785 24.0819 25.3513 23.2649L25.958 23.8391C25.2003 24.6394 24.4659 25.4823 23.7749 26.3436L23.774 26.3427ZM84.0404 23.0813C83.2592 22.2985 82.4389 21.5391 81.601 20.8255L82.1418 20.1896C82.9964 20.9181 83.8343 21.6926 84.6304 22.4913L84.0404 23.0813ZM27.1231 22.6548L26.5406 22.0565C27.3492 21.2695 28.198 20.5075 29.0634 19.7923L29.595 20.4358C28.7463 21.136 27.9151 21.8821 27.1231 22.654V22.6548ZM80.3141 19.7731C79.4428 19.0913 78.5357 18.4379 77.6168 17.832L78.0767 17.136C79.0139 17.7535 79.9402 18.4203 80.8282 19.1163L80.3141 19.7731ZM30.8961 19.4051L30.3912 18.74C31.2892 18.0581 32.2247 17.4047 33.1719 16.8013L33.6209 17.5057C32.6929 18.0974 31.7757 18.7366 30.8961 19.4051ZM76.2098 16.9457C75.2626 16.3757 74.2811 15.8399 73.2947 15.3508L73.6644 14.6031C74.6717 15.1021 75.6732 15.6496 76.6396 16.2305L76.2098 16.9457ZM35.0363 16.6402L34.6165 15.92C35.5938 15.3508 36.6019 14.8184 37.6134 14.3377L37.9723 15.0905C36.9816 15.562 35.9935 16.0836 35.0363 16.6402ZM71.7875 14.644C70.7835 14.1967 69.7445 13.7852 68.698 13.4197L68.9725 12.6327C70.0408 13.0041 71.1023 13.4247 72.1272 13.8812L71.7875 14.644ZM39.4828 14.4078L39.1548 13.64C40.188 13.1994 41.2537 12.7946 42.3228 12.4391L42.5857 13.2311C41.5383 13.5799 40.4951 13.9755 39.4828 14.4078ZM67.114 12.9039C66.06 12.5843 64.9775 12.3047 63.8985 12.0736L64.0737 11.2565C65.1753 11.4935 66.2803 11.779 67.356 12.1053L67.114 12.9039ZM44.1738 12.7404L43.9435 11.9384C45.0234 11.6279 46.1325 11.3583 47.2375 11.1372L47.401 11.9551C46.3178 12.172 45.232 12.4358 44.1738 12.7395V12.7404ZM62.2669 11.7589C61.1862 11.572 60.0779 11.4284 58.9738 11.3308L59.0472 10.4996C60.1739 10.5989 61.3047 10.7466 62.4088 10.9352L62.2669 11.7589ZM49.0359 11.6655L48.9066 10.8409C50.019 10.6665 51.1523 10.5363 52.2748 10.4529L52.3357 11.2857C51.2366 11.3667 50.1267 11.4944 49.0359 11.6655ZM57.3155 11.2198C56.2164 11.1681 55.1006 11.1589 53.994 11.1973L53.9665 10.3627C55.0923 10.3252 56.2339 10.331 57.3564 10.3869L57.3155 11.2198Z" fill="#FF7A00"/>
<path d="M55.3676 38.6299C48.188 38.6299 42.3469 44.4709 42.3469 51.6506C42.3469 58.8302 48.188 64.6721 55.3676 64.6721C62.5473 64.6721 68.3883 58.8311 68.3883 51.6506C68.3883 44.4701 62.5473 38.6299 55.3676 38.6299ZM55.3676 63.0021C49.1085 63.0021 44.016 57.9089 44.016 51.6497C44.016 45.3906 49.1085 40.2982 55.3676 40.2982C61.6268 40.2982 66.7192 45.3906 66.7192 51.6497C66.7192 57.9089 61.6268 63.0021 55.3676 63.0021Z" fill="white"/>
<path d="M55.3676 34.8C55.8283 34.8 56.2022 34.4269 56.2022 33.9654V27.8648C56.2022 27.4033 55.8283 27.0303 55.3676 27.0303C54.907 27.0303 54.5331 27.4033 54.5331 27.8648V33.9654C54.5331 34.4269 54.907 34.8 55.3676 34.8Z" fill="white"/>
<path d="M45.8028 36.7519C45.9581 37.0198 46.2376 37.1692 46.5264 37.1692C46.6674 37.1692 46.8118 37.1333 46.9428 37.0574C47.3426 36.827 47.4786 36.3163 47.2483 35.9174L44.198 30.6346C43.9676 30.2349 43.4561 30.098 43.058 30.3292C42.6582 30.5595 42.5222 31.0703 42.7525 31.4692L45.8028 36.7519Z" fill="white"/>
<path d="M40.4691 42.0839L35.1864 39.0344C34.7867 38.8032 34.2768 38.9418 34.0464 39.3398C33.8161 39.7396 33.9529 40.2495 34.3519 40.4798L39.6346 43.5293C39.7664 43.6052 39.91 43.6411 40.051 43.6411C40.3398 43.6411 40.6202 43.4909 40.7746 43.2239C41.0049 42.8241 40.868 42.3142 40.4691 42.0839Z" fill="white"/>
<path d="M38.518 51.6495C38.518 51.188 38.1441 50.8149 37.6834 50.8149H31.5828C31.1222 50.8149 30.7483 51.188 30.7483 51.6495C30.7483 52.111 31.1222 52.484 31.5828 52.484H37.6834C38.1441 52.484 38.518 52.111 38.518 51.6495Z" fill="white"/>
<path d="M39.6346 59.7699L34.3519 62.8194C33.9529 63.0497 33.8161 63.5605 34.0464 63.9594C34.2016 64.2264 34.4812 64.3767 34.77 64.3767C34.911 64.3767 35.0546 64.3408 35.1864 64.2648L40.4691 61.2154C40.868 60.985 41.0049 60.4743 40.7746 60.0754C40.5434 59.6765 40.0343 59.5388 39.6346 59.7699Z" fill="white"/>
<path d="M46.9428 66.2426C46.5413 66.0114 46.0331 66.1491 45.8028 66.548L42.7525 71.8308C42.5221 72.2305 42.659 72.7404 43.0579 72.9707C43.1898 73.0467 43.3333 73.0826 43.4744 73.0826C43.7631 73.0826 44.0435 72.9332 44.1979 72.6653L47.2482 67.3826C47.4785 66.9828 47.3417 66.4729 46.9428 66.2426Z" fill="white"/>
<path d="M55.3676 68.5C54.907 68.5 54.5331 68.873 54.5331 69.3346V75.4351C54.5331 75.8966 54.907 76.2697 55.3676 76.2697C55.8283 76.2697 56.2022 75.8966 56.2022 75.4351V69.3346C56.2022 68.873 55.8283 68.5 55.3676 68.5Z" fill="white"/>
<path d="M64.9324 66.5481C64.7012 66.1483 64.1904 66.0106 63.7924 66.2427C63.3926 66.473 63.2566 66.9837 63.4869 67.3827L66.5372 72.6654C66.6924 72.9333 66.972 73.0826 67.2608 73.0826C67.4018 73.0826 67.5462 73.0468 67.6772 72.9708C68.0769 72.7405 68.213 72.2297 67.9826 71.8308L64.9324 66.5481Z" fill="white"/>
<path d="M76.3833 62.8193L71.1006 59.7699C70.7 59.5395 70.1909 59.6772 69.9606 60.0753C69.7303 60.4751 69.8671 60.985 70.266 61.2153L75.5488 64.2648C75.6806 64.3407 75.8242 64.3766 75.9652 64.3766C76.254 64.3766 76.5344 64.2264 76.6888 63.9593C76.9191 63.5596 76.7822 63.0497 76.3833 62.8193Z" fill="white"/>
<path d="M79.1523 50.8149H73.0517C72.591 50.8149 72.2172 51.188 72.2172 51.6495C72.2172 52.111 72.591 52.484 73.0517 52.484H79.1523C79.613 52.484 79.9868 52.111 79.9868 51.6495C79.9868 51.188 79.613 50.8149 79.1523 50.8149Z" fill="white"/>
<path d="M70.6842 43.6422C70.8252 43.6422 70.9687 43.6063 71.1006 43.5303L76.3833 40.4809C76.7822 40.2506 76.9191 39.7398 76.6888 39.3409C76.4576 38.942 75.9485 38.8034 75.5488 39.0354L70.266 42.0849C69.8671 42.3152 69.7303 42.826 69.9606 43.2249C70.1158 43.492 70.3954 43.6422 70.6842 43.6422Z" fill="white"/>
<path d="M63.7924 37.0575C63.9243 37.1334 64.0678 37.1693 64.2089 37.1693C64.4976 37.1693 64.778 37.0199 64.9324 36.752L67.9827 31.4693C68.213 31.0696 68.0762 30.5597 67.6773 30.3293C67.2767 30.099 66.7676 30.235 66.5373 30.6348L63.487 35.9175C63.2566 36.3172 63.3935 36.8271 63.7924 37.0575Z" fill="white"/>
<path d="M55.3651 43.5879C50.9211 43.5879 47.3058 47.2032 47.3058 51.6463C47.3058 52.1078 47.6797 52.4809 48.1403 52.4809C48.601 52.4809 48.9749 52.1078 48.9749 51.6463C48.9749 48.1228 51.8416 45.257 55.3651 45.257C55.8257 45.257 56.1996 44.884 56.1996 44.4224C56.1996 43.9609 55.8257 43.5879 55.3651 43.5879Z" fill="white"/>
</g>
</g>
</g>
</g>
</g>
<defs>
<filter id="filter0_d_15_420" x="0.867554" y="0.160156" width="109" height="109" filterUnits="userSpaceOnUse" color-interpolation-filters="sRGB">
<feFlood flood-opacity="0" result="BackgroundImageFix"/>
<feColorMatrix in="SourceAlpha" type="matrix" values="0 0 0 0 0 0 0 0 0 0 0 0 0 0 0 0 0 0 127 0" result="hardAlpha"/>
<feMorphology radius="0.12" operator="dilate" in="SourceAlpha" result="effect1_dropShadow_15_420"/>
<feOffset dy="3"/>
<feGaussianBlur stdDeviation="1.94"/>
<feComposite in2="hardAlpha" operator="out"/>
<feColorMatrix type="matrix" values="0 0 0 0 0 0 0 0 0 0.427451 0 0 0 0 0.882353 0 0 0 0.22 0"/>
<feBlend mode="normal" in2="BackgroundImageFix" result="effect1_dropShadow_15_420"/>
<feBlend mode="normal" in="SourceGraphic" in2="effect1_dropShadow_15_420" result="shape"/>
</filter>
<clipPath id="clip0_15_420">
<rect x="4.86755" y="1.16016" width="101" height="101" rx="50.5" fill="white"/>
</clipPath>
<clipPath id="clip1_15_420">
<rect width="101" height="100.98" fill="white" transform="translate(4.86755 1.16016)"/>
</clipPath>
<clipPath id="clip2_15_420">
<rect width="101" height="100.98" fill="white" transform="translate(4.86755 1.16016)"/>
</clipPath>
<clipPath id="clip3_15_420">
<rect width="100.981" height="100.98" fill="white" transform="translate(4.8772 1.16016)"/>
</clipPath>
</defs>
</svg>
