<svg width="102" height="102" viewBox="0 0 102 102" fill="none" xmlns="http://www.w3.org/2000/svg">
<g clip-path="url(#clip0_15_2082)">
<g clip-path="url(#clip1_15_2082)">
<path d="M50.6575 101.699C78.5475 101.699 101.157 79.0892 101.157 51.1992C101.157 23.3092 78.5475 0.699219 50.6575 0.699219C22.7675 0.699219 0.157471 23.3092 0.157471 51.1992C0.157471 79.0892 22.7675 101.699 50.6575 101.699Z" fill="#FF7A00"/>
<path d="M50.6575 101.699C78.5475 101.699 101.157 79.0892 101.157 51.1992C101.157 23.3092 78.5475 0.699219 50.6575 0.699219C22.7675 0.699219 0.157471 23.3092 0.157471 51.1992C0.157471 79.0892 22.7675 101.699 50.6575 101.699Z" fill="#FF7A00"/>
<path d="M0.757471 43.2992C0.557471 44.4992 0.457471 45.5992 0.357471 46.7992L54.9575 101.399C56.1575 101.299 57.3575 101.199 58.4575 100.999L0.757471 43.2992ZM2.85747 34.7992C2.55747 35.7992 2.15747 36.7992 1.95747 37.7992L64.0575 99.8992L67.0575 98.9992L2.85747 34.7992ZM1.65747 38.8992C1.35747 39.9992 1.15747 41.0992 0.957471 42.1992L59.6575 100.899C60.7575 100.699 61.8575 100.499 62.9575 100.199L1.65747 38.8992ZM8.15747 23.8992C7.65747 24.6992 7.15747 25.4992 6.65747 26.3992L75.4575 95.1992C76.2575 94.6992 77.1575 94.1992 77.9575 93.6992L8.15747 23.8992ZM10.3575 20.7992C9.75747 21.5992 9.25747 22.2992 8.75747 23.0992L78.7575 93.0992C79.5575 92.5992 80.2575 91.9992 81.0575 91.4992L10.3575 20.7992ZM6.15747 27.2992C5.65747 28.1992 5.25747 28.9992 4.85747 29.8992L71.8575 96.8992C72.7575 96.4992 73.6575 96.0992 74.4575 95.5992L6.15747 27.2992ZM4.45747 30.8992C4.05747 31.7992 3.65747 32.7992 3.35747 33.6992L68.1575 98.4992C69.0575 98.0992 70.0575 97.7992 70.9575 97.3992L4.45747 30.8992ZM15.3575 15.0992C14.6575 15.6992 14.0575 16.3992 13.4575 17.0992L84.7575 88.3992C85.4575 87.7992 86.0575 87.0992 86.7575 86.4992L15.3575 15.0992ZM96.2575 29.4992C91.2575 18.9992 82.7575 10.4992 72.2575 5.49922L96.2575 29.4992ZM0.257471 48.1992C0.157471 49.1992 0.157471 50.1992 0.157471 51.1992V52.0992L49.7575 101.699H50.6575C51.6575 101.699 52.6575 101.699 53.6575 101.599L0.257471 48.1992ZM28.6575 96.5992C30.7575 97.5992 32.9575 98.4992 35.2575 99.1992L2.55747 66.5992C3.25747 68.7992 4.15747 70.9992 5.15747 73.0992L28.6575 96.5992ZM0.857471 59.4992C1.15747 61.1992 1.55747 62.8992 1.95747 64.5992L37.2575 99.8992C38.9575 100.399 40.5575 100.699 42.3575 100.999L0.857471 59.4992ZM0.257471 53.4992C0.357471 54.9992 0.457471 56.3992 0.657471 57.7992L44.0575 101.199C45.4575 101.399 46.9575 101.499 48.3575 101.599L0.257471 53.4992ZM44.2575 1.09922C43.1575 1.19922 41.9575 1.39922 40.8575 1.59922L100.157 60.8992C100.357 59.7992 100.557 58.5992 100.657 57.4992L44.2575 1.09922ZM54.7575 0.899219C53.4575 0.799219 52.0575 0.699219 50.6575 0.699219L101.157 51.0992C101.157 49.6992 101.057 48.2992 100.957 46.9992L54.7575 0.899219ZM61.0575 1.79922C59.5575 1.49922 57.9575 1.19922 56.3575 0.999219L100.757 45.3992C100.557 43.7992 100.357 42.1992 99.9575 40.6992L61.0575 1.79922ZM12.7575 17.7992C12.1575 18.4992 11.5575 19.1992 10.9575 19.9992L81.8575 90.8992C82.5575 90.2992 83.3575 89.6992 84.0575 89.0992L12.7575 17.7992ZM69.7575 4.49922C67.5575 3.59922 65.2575 2.79922 62.8575 2.19922L99.5575 38.8992C98.9575 36.4992 98.2575 34.1992 97.2575 31.9992L69.7575 4.49922ZM39.7575 1.89922C38.6575 2.09922 37.6575 2.39922 36.6575 2.69922L99.1575 65.1992C99.4575 64.1992 99.7575 63.0992 99.9575 62.0992L39.7575 1.89922ZM6.75747 76.0992C11.2575 83.9992 17.7575 90.4992 25.6575 94.9992L6.75747 76.0992ZM49.2575 0.699219C47.9575 0.699219 46.7575 0.799219 45.5575 0.899219L100.857 56.1992C100.957 54.9992 101.057 53.6992 101.057 52.4992L49.2575 0.699219ZM21.1575 10.1992C20.3575 10.6992 19.6575 11.2992 18.9575 11.8992L89.9575 82.8992C90.5575 82.1992 91.1575 81.3992 91.6575 80.6992L21.1575 10.1992ZM18.1575 12.4992C17.4575 13.0992 16.7575 13.6992 16.0575 14.3992L87.4575 85.6992C88.0575 84.9992 88.7575 84.2992 89.3575 83.5992L18.1575 12.4992ZM35.4575 2.99922C34.4575 3.29922 33.4575 3.69922 32.5575 3.99922L97.7575 69.1992C98.1575 68.1992 98.4575 67.2992 98.7575 66.2992L35.4575 2.99922ZM24.4575 7.99922C23.6575 8.49922 22.8575 8.99922 22.0575 9.59922L92.2575 79.7992C92.7575 78.9992 93.3575 78.1992 93.8575 77.3992L24.4575 7.99922ZM31.5575 4.39922L28.8575 5.59922L96.1575 72.9992L97.3575 70.2992L31.5575 4.39922ZM27.8575 6.09922C26.9575 6.49922 26.1575 6.99922 25.2575 7.49922L94.2575 76.4992C94.7575 75.6992 95.1575 74.7992 95.6575 73.8992L27.8575 6.09922Z" fill="#FF7A00"/>
</g>
</g>
<g clip-path="url(#clip2_15_2082)">
<g clip-path="url(#clip3_15_2082)">
<g clip-path="url(#clip4_15_2082)">
<path d="M50.7154 21.873C50.7154 21.873 42.5454 31.727 24.8154 36.009C25.8594 53.136 29.7414 71.201 50.7154 80.527C69.8354 68.972 74.1814 58.297 76.4984 36.126C60.7384 30.906 54.8874 25.216 50.7154 21.873Z" stroke="white" stroke-width="2" stroke-miterlimit="10" stroke-linecap="round" stroke-linejoin="round"/>
<path d="M44.0525 49.6735L50.6575 56.0665L65.6635 40.2305" stroke="white" stroke-width="2" stroke-miterlimit="10" stroke-linecap="round" stroke-linejoin="round"/>
<path d="M50.4835 65.6287C58.3235 65.6287 64.6795 59.1947 64.6795 51.2587C64.6795 43.3217 58.3235 36.8887 50.4835 36.8887C42.6435 36.8887 36.2885 43.3217 36.2885 51.2587C36.2885 59.1947 42.6435 65.6287 50.4835 65.6287Z" stroke="white" stroke-width="2" stroke-miterlimit="10" stroke-linecap="round" stroke-linejoin="round"/>
</g>
</g>
</g>
<defs>
<clipPath id="clip0_15_2082">
<rect width="101" height="101" fill="white" transform="translate(0.157471 0.699219)"/>
</clipPath>
<clipPath id="clip1_15_2082">
<rect width="101" height="101" fill="white" transform="translate(0.157471 0.699219)"/>
</clipPath>
<clipPath id="clip2_15_2082">
<rect width="54" height="61" fill="white" transform="translate(23.6575 20.6992)"/>
</clipPath>
<clipPath id="clip3_15_2082">
<rect width="54" height="61" fill="white" transform="translate(23.6575 20.6992)"/>
</clipPath>
<clipPath id="clip4_15_2082">
<rect width="54" height="61" fill="white" transform="translate(23.6575 20.6992)"/>
</clipPath>
</defs>
</svg>
