<svg width="102" height="102" viewBox="0 0 102 102" fill="none" xmlns="http://www.w3.org/2000/svg">
<g clip-path="url(#clip0_15_2051)">
<g clip-path="url(#clip1_15_2051)">
<path d="M50.6875 101.699C78.5775 101.699 101.188 79.0892 101.188 51.1992C101.188 23.3092 78.5775 0.699219 50.6875 0.699219C22.7975 0.699219 0.1875 23.3092 0.1875 51.1992C0.1875 79.0892 22.7975 101.699 50.6875 101.699Z" fill="#FF7A00"/>
<path d="M50.6875 101.699C78.5775 101.699 101.188 79.0892 101.188 51.1992C101.188 23.3092 78.5775 0.699219 50.6875 0.699219C22.7975 0.699219 0.1875 23.3092 0.1875 51.1992C0.1875 79.0892 22.7975 101.699 50.6875 101.699Z" fill="#FF7A00"/>
<path d="M0.7875 43.2992C0.5875 44.4992 0.4875 45.5992 0.3875 46.7992L54.9875 101.399C56.1875 101.299 57.3875 101.199 58.4875 100.999L0.7875 43.2992ZM2.8875 34.7992C2.5875 35.7992 2.1875 36.7992 1.9875 37.7992L64.0875 99.8992L67.0875 98.9992L2.8875 34.7992ZM1.6875 38.8992C1.3875 39.9992 1.1875 41.0992 0.9875 42.1992L59.6875 100.899C60.7875 100.699 61.8875 100.499 62.9875 100.199L1.6875 38.8992ZM8.1875 23.8992C7.6875 24.6992 7.1875 25.4992 6.6875 26.3992L75.4875 95.1992C76.2875 94.6992 77.1875 94.1992 77.9875 93.6992L8.1875 23.8992ZM10.3875 20.7992C9.7875 21.5992 9.2875 22.2992 8.7875 23.0992L78.7875 93.0992C79.5875 92.5992 80.2875 91.9992 81.0875 91.4992L10.3875 20.7992ZM6.1875 27.2992C5.6875 28.1992 5.2875 28.9992 4.8875 29.8992L71.8875 96.8992C72.7875 96.4992 73.6875 96.0992 74.4875 95.5992L6.1875 27.2992ZM4.4875 30.8992C4.0875 31.7992 3.6875 32.7992 3.3875 33.6992L68.1875 98.4992C69.0875 98.0992 70.0875 97.7992 70.9875 97.3992L4.4875 30.8992ZM15.3875 15.0992C14.6875 15.6992 14.0875 16.3992 13.4875 17.0992L84.7875 88.3992C85.4875 87.7992 86.0875 87.0992 86.7875 86.4992L15.3875 15.0992ZM96.2875 29.4992C91.2875 18.9992 82.7875 10.4992 72.2875 5.49922L96.2875 29.4992ZM0.2875 48.1992C0.1875 49.1992 0.1875 50.1992 0.1875 51.1992V52.0992L49.7875 101.699H50.6875C51.6875 101.699 52.6875 101.699 53.6875 101.599L0.2875 48.1992ZM28.6875 96.5992C30.7875 97.5992 32.9875 98.4992 35.2875 99.1992L2.5875 66.5992C3.2875 68.7992 4.1875 70.9992 5.1875 73.0992L28.6875 96.5992ZM0.8875 59.4992C1.1875 61.1992 1.5875 62.8992 1.9875 64.5992L37.2875 99.8992C38.9875 100.399 40.5875 100.699 42.3875 100.999L0.8875 59.4992ZM0.2875 53.4992C0.3875 54.9992 0.4875 56.3992 0.6875 57.7992L44.0875 101.199C45.4875 101.399 46.9875 101.499 48.3875 101.599L0.2875 53.4992ZM44.2875 1.09922C43.1875 1.19922 41.9875 1.39922 40.8875 1.59922L100.188 60.8992C100.387 59.7992 100.588 58.5992 100.688 57.4992L44.2875 1.09922ZM54.7875 0.899219C53.4875 0.799219 52.0875 0.699219 50.6875 0.699219L101.188 51.0992C101.188 49.6992 101.088 48.2992 100.988 46.9992L54.7875 0.899219ZM61.0875 1.79922C59.5875 1.49922 57.9875 1.19922 56.3875 0.999219L100.787 45.3992C100.588 43.7992 100.388 42.1992 99.9875 40.6992L61.0875 1.79922ZM12.7875 17.7992C12.1875 18.4992 11.5875 19.1992 10.9875 19.9992L81.8875 90.8992C82.5875 90.2992 83.3875 89.6992 84.0875 89.0992L12.7875 17.7992ZM69.7875 4.49922C67.5875 3.59922 65.2875 2.79922 62.8875 2.19922L99.5875 38.8992C98.9875 36.4992 98.2875 34.1992 97.2875 31.9992L69.7875 4.49922ZM39.7875 1.89922C38.6875 2.09922 37.6875 2.39922 36.6875 2.69922L99.1875 65.1992C99.4875 64.1992 99.7875 63.0992 99.9875 62.0992L39.7875 1.89922ZM6.7875 76.0992C11.2875 83.9992 17.7875 90.4992 25.6875 94.9992L6.7875 76.0992ZM49.2875 0.699219C47.9875 0.699219 46.7875 0.799219 45.5875 0.899219L100.887 56.1992C100.987 54.9992 101.088 53.6992 101.088 52.4992L49.2875 0.699219ZM21.1875 10.1992C20.3875 10.6992 19.6875 11.2992 18.9875 11.8992L89.9875 82.8992C90.5875 82.1992 91.1875 81.3992 91.6875 80.6992L21.1875 10.1992ZM18.1875 12.4992C17.4875 13.0992 16.7875 13.6992 16.0875 14.3992L87.4875 85.6992C88.0875 84.9992 88.7875 84.2992 89.3875 83.5992L18.1875 12.4992ZM35.4875 2.99922C34.4875 3.29922 33.4875 3.69922 32.5875 3.99922L97.7875 69.1992C98.1875 68.1992 98.4875 67.2992 98.7875 66.2992L35.4875 2.99922ZM24.4875 7.99922C23.6875 8.49922 22.8875 8.99922 22.0875 9.59922L92.2875 79.7992C92.7875 78.9992 93.3875 78.1992 93.8875 77.3992L24.4875 7.99922ZM31.5875 4.39922L28.8875 5.59922L96.1875 72.9992L97.3875 70.2992L31.5875 4.39922ZM27.8875 6.09922C26.9875 6.49922 26.1875 6.99922 25.2875 7.49922L94.2875 76.4992C94.7875 75.6992 95.1875 74.7992 95.6875 73.8992L27.8875 6.09922Z" fill="#FF7A00"/>
</g>
</g>
<g clip-path="url(#clip2_15_2051)">
<g clip-path="url(#clip3_15_2051)">
<g clip-path="url(#clip4_15_2051)">
<mask id="mask0_15_2051" style="mask-type:luminance" maskUnits="userSpaceOnUse" x="24" y="20" width="54" height="63">
<path d="M24.1875 20.1992H77.1875V82.1992H24.1875V20.1992Z" fill="white"/>
</mask>
<g mask="url(#mask0_15_2051)">
<path d="M50.8775 80.6094C64.9675 80.6094 76.3875 69.3044 76.3875 55.3594C76.3875 41.4144 64.9675 30.1094 50.8775 30.1094C36.7895 30.1094 25.3685 41.4144 25.3685 55.3594C25.3685 69.3044 36.7885 80.6094 50.8775 80.6094Z" stroke="white" stroke-width="2" stroke-miterlimit="10" stroke-linecap="round" stroke-linejoin="round"/>
<path d="M50.8775 44.0891V55.3591H67.0555M67.0555 35.2821L74.0235 29.0621M34.6395 35.2821L27.6705 29.0621M41.5455 20.9941H60.1485M50.8775 20.9941V30.1091" stroke="white" stroke-width="2" stroke-miterlimit="10" stroke-linecap="round" stroke-linejoin="round"/>
</g>
</g>
</g>
</g>
<defs>
<clipPath id="clip0_15_2051">
<rect width="101" height="101" fill="white" transform="translate(0.1875 0.699219)"/>
</clipPath>
<clipPath id="clip1_15_2051">
<rect width="101" height="101" fill="white" transform="translate(0.1875 0.699219)"/>
</clipPath>
<clipPath id="clip2_15_2051">
<rect width="53" height="62" fill="white" transform="translate(24.1875 20.1992)"/>
</clipPath>
<clipPath id="clip3_15_2051">
<rect width="53" height="62" fill="white" transform="translate(24.1875 20.1992)"/>
</clipPath>
<clipPath id="clip4_15_2051">
<rect width="53" height="62" fill="white" transform="translate(24.1875 20.1992)"/>
</clipPath>
</defs>
</svg>
