<svg width="14" height="14" viewBox="0 0 14 14" fill="none" xmlns="http://www.w3.org/2000/svg">
<g clip-path="url(#clip0_43_5236)">
<path d="M7.00003 13.6109C3.34447 13.6109 0.388916 10.6553 0.388916 6.99978C0.388916 3.34423 3.34447 0.388672 7.00003 0.388672C10.6556 0.388672 13.6111 3.34423 13.6111 6.99978C13.6111 10.6553 10.6556 13.6109 7.00003 13.6109ZM7.00003 1.16645C3.77225 1.16645 1.16669 3.77201 1.16669 6.99978C1.16669 10.2276 3.77225 12.8331 7.00003 12.8331C10.2278 12.8331 12.8334 10.2276 12.8334 6.99978C12.8334 3.77201 10.2278 1.16645 7.00003 1.16645Z" fill="#FF7A00"/>
<path d="M6.61108 9.72222H7.38886V10.5H6.61108V9.72222ZM7.23331 8.94444H6.76664L6.61108 5.83333V3.5H7.38886V5.83333L7.23331 8.94444Z" fill="#FF7A00"/>
</g>
<defs>
<clipPath id="clip0_43_5236">
<rect width="14" height="14" fill="white"/>
</clipPath>
</defs>
</svg>
