<svg width="129" height="129" viewBox="0 0 129 129" fill="none" xmlns="http://www.w3.org/2000/svg">
<g clip-path="url(#clip0_15_901)">
<g clip-path="url(#clip1_15_901)">
<mask id="mask0_15_901" style="mask-type:luminance" maskUnits="userSpaceOnUse" x="14" y="14" width="101" height="101">
<path d="M64.7083 114.866C92.4031 114.866 114.854 92.4148 114.854 64.7201C114.854 37.0253 92.4031 14.5742 64.7083 14.5742C37.0135 14.5742 14.5625 37.0253 14.5625 64.7201C14.5625 92.4148 37.0135 114.866 64.7083 114.866Z" fill="white"/>
</mask>
<g mask="url(#mask0_15_901)">
<path d="M64.7083 114.866C92.4031 114.866 114.854 92.4148 114.854 64.7201C114.854 37.0253 92.4031 14.5742 64.7083 14.5742C37.0135 14.5742 14.5625 37.0253 14.5625 64.7201C14.5625 92.4148 37.0135 114.866 64.7083 114.866Z" fill="white"/>
<path d="M-10.4566 56.5292L-11.1588 57.2314L71.9594 140.35L72.6616 139.647L-10.4566 56.5292Z" fill="white"/>
<path d="M-7.78095 53.8788L-8.48315 54.5811L74.635 137.699L75.3373 136.997L-7.78095 53.8788Z" fill="white"/>
<path d="M-5.10663 51.2294L-5.80884 51.9316L77.3094 135.05L78.0116 134.348L-5.10663 51.2294Z" fill="white"/>
<path d="M-2.42975 48.579L-3.13196 49.2812L79.9862 132.399L80.6884 131.697L-2.42975 48.579Z" fill="white"/>
<path d="M0.244567 45.9316L-0.457642 46.6338L82.6606 129.752L83.3628 129.05L0.244567 45.9316Z" fill="white"/>
<path d="M2.92193 43.2831L2.21973 43.9854L85.3379 127.104L86.0401 126.401L2.92193 43.2831Z" fill="white"/>
<path d="M5.59747 40.6328L4.89526 41.335L88.0135 124.453L88.7157 123.751L5.59747 40.6328Z" fill="white"/>
<path d="M8.27313 37.9843L7.57092 38.6865L90.6891 121.805L91.3913 121.103L8.27313 37.9843Z" fill="white"/>
<path d="M10.9474 35.3349L10.2452 36.0371L93.3634 119.155L94.0656 118.453L10.9474 35.3349Z" fill="white"/>
<path d="M13.6248 32.6855L12.9226 33.3877L96.0408 116.506L96.743 115.804L13.6248 32.6855Z" fill="white"/>
<path d="M16.3004 30.037L15.5981 30.7393L98.7163 113.857L99.4186 113.155L16.3004 30.037Z" fill="white"/>
<path d="M18.9748 27.3876L18.2726 28.0898L101.391 111.208L102.093 110.506L18.9748 27.3876Z" fill="white"/>
<path d="M21.6503 24.7363L20.9481 25.4385L104.066 108.557L104.769 107.854L21.6503 24.7363Z" fill="white"/>
<path d="M24.326 22.0888L23.6238 22.791L106.742 105.909L107.444 105.207L24.326 22.0888Z" fill="white"/>
<path d="M27.0032 19.4374L26.301 20.1396L109.419 103.258L110.121 102.556L27.0032 19.4374Z" fill="white"/>
<path d="M29.6789 16.791L28.9767 17.4932L112.095 100.611L112.797 99.9091L29.6789 16.791Z" fill="white"/>
<path d="M32.3532 14.1415L31.651 14.8438L114.769 97.962L115.471 97.2597L32.3532 14.1415Z" fill="white"/>
<path d="M35.0277 11.4921L34.3254 12.1943L117.444 95.3125L118.146 94.6103L35.0277 11.4921Z" fill="white"/>
<path d="M37.7044 8.84174L37.0022 9.54395L120.12 92.6621L120.823 91.9599L37.7044 8.84174Z" fill="white"/>
<path d="M40.3806 6.19233L39.6783 6.89453L122.797 90.0127L123.499 89.3105L40.3806 6.19233Z" fill="white"/>
<path d="M43.0573 3.54291L42.3551 4.24512L125.473 87.3633L126.176 86.6611L43.0573 3.54291Z" fill="white"/>
<path d="M45.7317 0.89545L45.0295 1.59766L128.148 84.7159L128.85 84.0137L45.7317 0.89545Z" fill="white"/>
<path d="M48.4073 -1.75299L47.7051 -1.05078L130.823 82.0674L131.525 81.3652L48.4073 -1.75299Z" fill="white"/>
<path d="M51.0829 -4.40435L50.3807 -3.70215L133.499 79.4161L134.201 78.7138L51.0829 -4.40435Z" fill="white"/>
<path d="M53.7591 -7.05377L53.0569 -6.35156L136.175 76.7666L136.877 76.0644L53.7591 -7.05377Z" fill="white"/>
<path d="M56.4354 -10.3633L55.7332 -9.66113L138.851 73.4571L139.554 72.7549L56.4354 -10.3633Z" fill="white"/>
</g>
<path d="M65.6342 128.71L65.609 127.03C67.839 126.998 70.0658 126.848 72.2799 126.58L72.4815 128.248C70.2088 128.523 67.9232 128.677 65.6342 128.71ZM62.2013 128.668C59.9132 128.58 57.6314 128.37 55.3657 128.038L55.6094 126.377C57.8156 126.699 60.0373 126.903 62.2651 126.99L62.2013 128.668ZM75.8791 127.746L75.5884 126.082C77.7844 125.696 79.958 125.191 82.0997 124.57L82.5668 126.183C80.3668 126.824 78.1354 127.346 75.8791 127.746ZM51.9816 127.452C49.7355 126.998 47.5154 126.423 45.3309 125.731L45.835 124.13C47.9614 124.806 50.1226 125.367 52.3092 125.81L51.9816 127.452ZM85.84 125.145L85.2855 123.562C87.3904 122.826 89.4541 121.977 91.4674 121.018L92.19 122.53C90.1218 123.515 88.0021 124.388 85.84 125.145ZM42.0811 124.6C39.9381 123.79 37.8402 122.864 35.7967 121.828L36.5562 120.329C38.5455 121.338 40.5878 122.239 42.6743 123.028L42.0811 124.6ZM95.2465 120.974L94.4416 119.499C96.4002 118.435 98.3006 117.267 100.135 116.001L101.091 117.382C99.2072 118.683 97.2558 119.882 95.2448 120.976L95.2465 120.974ZM32.7721 120.19C30.788 119.044 28.8664 117.794 27.0154 116.444L28.0067 115.086C29.8089 116.402 31.6801 117.619 33.6123 118.734L32.7721 120.19ZM103.86 115.347L102.831 114.019C104.594 112.654 106.283 111.195 107.891 109.651L109.055 110.862C107.404 112.448 105.671 113.945 103.86 115.347ZM24.2966 114.339C22.5219 112.89 20.8252 111.349 19.2136 109.721L20.4083 108.545C21.9776 110.13 23.63 111.631 25.3586 113.041L24.2966 114.339ZM111.467 108.407L110.238 107.263C111.761 105.633 113.197 103.923 114.538 102.141L115.883 103.149C114.505 104.981 113.031 106.738 111.467 108.412V108.407ZM16.8645 107.217C15.3429 105.506 13.9137 103.714 12.5831 101.851L13.9509 100.878C15.2461 102.693 16.6372 104.438 18.1181 106.105L16.8645 107.217ZM117.874 100.348L116.479 99.4107C117.722 97.5589 118.866 95.6417 119.904 93.6674L121.392 94.4487C120.326 96.4785 119.151 98.4495 117.874 100.353V100.348ZM10.6692 99.0041C9.44279 97.0716 8.32097 95.0748 7.30855 93.0221L8.82084 92.2794C9.80917 94.2777 10.9035 96.2218 12.0991 98.1034L10.6692 99.0041ZM122.915 91.362L121.387 90.663C122.316 88.6358 123.135 86.5604 123.842 84.4458L125.435 84.9767C124.708 87.1507 123.865 89.2839 122.908 91.367L122.915 91.362ZM5.86347 89.9152C4.96335 87.8096 4.17805 85.6568 3.51102 83.4661L5.11741 82.9755C5.76998 85.1072 6.53676 87.2022 7.41441 89.2515L5.86347 89.9152ZM126.427 81.6934L124.805 81.2498C125.394 79.0984 125.867 76.917 126.223 74.715L127.882 74.9822C127.517 77.2436 127.031 79.4839 126.427 81.6934ZM2.58684 80.1559C2.03628 77.9324 1.60606 75.6809 1.29804 73.4111L2.96324 73.1859C3.26287 75.3957 3.68132 77.5878 4.21676 79.7526L2.58684 80.1559ZM128.335 71.5863L126.665 71.4081C126.9 69.1906 127.018 66.9622 127.018 64.7322V64.4802H128.698V64.7322C128.699 67.0194 128.578 69.3051 128.337 71.5795L128.335 71.5863ZM0.928367 69.9967C0.78722 68.2559 0.714966 66.4814 0.714966 64.7238C0.714966 64.1928 0.721127 63.6635 0.733449 63.1359L2.41377 63.1746C2.40145 63.691 2.39529 64.2074 2.39529 64.7238C2.39529 66.4361 2.46586 68.1634 2.60533 69.8606L0.928367 69.9967ZM126.917 61.1313C126.791 58.9051 126.546 56.6873 126.183 54.4873L127.84 54.2134C128.213 56.4729 128.465 58.7508 128.594 61.0372L126.917 61.1313ZM2.58348 59.8358L0.903162 59.7064C1.08026 57.4231 1.37923 55.1508 1.79877 52.8994L3.45053 53.2086C3.04348 55.4006 2.75405 57.6128 2.58348 59.8358ZM125.549 51.204C125.067 49.0264 124.468 46.8763 123.755 44.7633L125.346 44.2256C126.08 46.396 126.697 48.6043 127.194 50.841L125.549 51.204ZM4.15962 49.9404L2.52635 49.5438C3.06856 47.3175 3.73045 45.122 4.50913 42.967L6.08863 43.5383C5.33126 45.6362 4.68733 47.7733 4.15962 49.9404ZM122.599 41.6261C121.771 39.5551 120.833 37.5302 119.788 35.5602L121.273 34.7721C122.346 36.7959 123.31 38.8757 124.16 41.0027L122.599 41.6261ZM7.31359 40.418L5.76601 39.761C6.66288 37.6521 7.67253 35.593 8.79059 33.5925L10.2575 34.4108C9.16908 36.3589 8.18635 38.3642 7.31359 40.418ZM118.144 32.6566C116.995 30.7458 115.744 28.8982 114.397 27.1216L115.741 26.1134C117.125 27.9385 118.41 29.836 119.591 31.7979L118.144 32.6566ZM11.9614 31.5324L10.5398 30.6402C11.7618 28.7027 13.0867 26.8321 14.5087 25.0363L15.8261 26.0798C14.4417 27.8273 13.1516 29.6474 11.9614 31.5324ZM112.307 24.507C110.866 22.8028 109.336 21.1763 107.723 19.6341L108.882 18.4175C110.538 19.9992 112.109 21.6679 113.587 23.4165L112.307 24.507ZM17.9735 23.5089L16.7133 22.3965C18.2293 20.68 19.8351 19.045 21.5241 17.4984L22.6583 18.7385C21.013 20.2442 19.4492 21.8366 17.9735 23.5089ZM105.243 17.3942C103.548 15.9431 101.777 14.5829 99.938 13.3194L100.889 11.9349C102.776 13.2325 104.594 14.6291 106.333 16.1189L105.243 17.3942ZM25.1855 16.5541L24.1185 15.2568C25.888 13.8005 27.7346 12.4402 29.6501 11.1821L30.5709 12.5868C28.7065 13.8101 26.9088 15.1321 25.1855 16.5473V16.5541ZM97.1301 11.5131C95.228 10.351 93.2648 9.29201 91.249 8.34064L91.9665 6.82836C94.0396 7.80559 96.0589 8.89319 98.0157 10.0865L97.1301 11.5131ZM33.4123 10.841L32.5722 9.38916C34.5516 8.23835 36.5911 7.19395 38.6818 6.26041L39.3624 7.78782C37.3262 8.69487 35.3401 9.71011 33.4123 10.8292V10.841ZM88.1774 6.99303C86.1112 6.15149 84.001 5.42229 81.856 4.80861L82.3164 3.19214C84.5199 3.8217 86.6878 4.56941 88.8109 5.43201L88.1774 6.99303ZM42.4441 6.50741L41.8442 4.93127C43.9841 4.11281 46.1667 3.41054 48.3823 2.82751L48.8091 4.45238C46.6521 5.02282 44.5274 5.70882 42.4441 6.50741ZM78.6147 3.96845C76.4403 3.47366 74.2409 3.09561 72.0261 2.83591L72.221 1.16735C74.4957 1.4339 76.7545 1.82205 78.9877 2.33013L78.6147 3.96845ZM52.0656 3.69456L51.7295 2.04952C53.9724 1.58775 56.2385 1.24671 58.518 1.02789L58.6861 2.70821C56.4627 2.91854 54.2538 3.24779 52.0656 3.69456ZM68.7008 2.53681C67.3616 2.4528 66.0156 2.41079 64.6546 2.41079C63.7685 2.41079 62.8874 2.42983 62.0114 2.46792L61.9392 0.7876C62.8566 0.750633 63.7169 0.730469 64.7083 0.730469C66.0727 0.730469 67.4506 0.774157 68.8016 0.859854L68.7008 2.53681Z" fill="white"/>
<path d="M64.7084 121.713C53.4365 121.714 42.4177 118.372 33.0453 112.11C23.673 105.848 16.368 96.9469 12.0541 86.5332C7.74024 76.1195 6.61128 64.6604 8.80998 53.6051C11.0087 42.5498 16.4363 32.3947 24.4065 24.4241C32.3766 16.4535 42.5314 11.0253 53.5866 8.8259C64.6418 6.62654 76.1009 7.75483 86.5148 12.0681C96.9288 16.3813 105.83 23.6858 112.092 33.0578C118.355 42.4298 121.698 53.4484 121.698 64.7203C121.681 79.83 115.672 94.3161 104.988 105.001C94.3039 115.685 79.8181 121.696 64.7084 121.713ZM64.7084 9.41082C53.7687 9.41048 43.0746 12.6542 33.9785 18.7317C24.8824 24.8093 17.7928 33.4477 13.6062 43.5545C9.41961 53.6614 8.32412 64.7827 10.4583 75.5122C12.5924 86.2417 17.8603 96.0973 25.5958 103.833C33.3313 111.568 43.187 116.836 53.9164 118.97C64.6459 121.105 75.7673 120.009 85.8741 115.822C95.981 111.636 104.619 104.546 110.697 95.4501C116.774 86.354 120.018 75.6599 120.018 64.7203C120.001 50.0563 114.168 35.9978 103.8 25.6287C93.4307 15.2595 79.3723 9.42816 64.7084 9.41082Z" fill="white"/>
<path d="M92.032 85.8332H90.7902V34.9195C90.7893 34.5904 90.6582 34.2751 90.4256 34.0424C90.1929 33.8097 89.8775 33.6786 89.5485 33.6777H39.8664C39.5374 33.6786 39.222 33.8097 38.9893 34.0424C38.7567 34.2751 38.6255 34.5904 38.6247 34.9195V85.8332H37.3846C37.0555 85.8341 36.7402 85.9652 36.5075 86.1979C36.2748 86.4306 36.1437 86.7459 36.1428 87.075V92.0437C36.1437 92.3728 36.2748 92.6881 36.5075 92.9208C36.7402 93.1535 37.0555 93.2846 37.3846 93.2854H92.032C92.3611 93.2846 92.6764 93.1535 92.9091 92.9208C93.1418 92.6881 93.2729 92.3728 93.2738 92.0437V87.075C93.2729 86.7459 93.1418 86.4306 92.9091 86.1979C92.6764 85.9652 92.3611 85.8341 92.032 85.8332ZM41.1099 36.1545H88.305V85.8332H85.8215V39.8815C85.8206 39.5524 85.6895 39.2371 85.4568 39.0044C85.2242 38.7717 84.9088 38.6406 84.5798 38.6397H44.8368C44.5077 38.6406 44.1924 38.7717 43.9597 39.0044C43.727 39.2371 43.5959 39.5524 43.595 39.8815V85.8332H41.1099V36.1545ZM65.95 62.2298V41.1232H83.338V62.2298H65.95ZM83.338 64.7133V85.8332H65.95V64.72H83.338V64.7133ZM46.0836 62.2298V41.1232H63.4665V62.2298H46.0836ZM63.4716 64.7133V85.8332H46.0836V64.72H63.4665L63.4716 64.7133ZM90.7902 90.7952H38.6263V88.3167H90.7902V90.7952Z" fill="black"/>
</g>
</g>
<defs>
<clipPath id="clip0_15_901">
<rect width="128" height="127.98" fill="white" transform="translate(0.70752 0.730469)"/>
</clipPath>
<clipPath id="clip1_15_901">
<rect width="127.985" height="127.98" fill="white" transform="translate(0.714966 0.730469)"/>
</clipPath>
</defs>
</svg>
