<svg width="101" height="101" fill="none" xmlns="http://www.w3.org/2000/svg"><path d="M50.5 101c27.89 0 50.5-22.61 50.5-50.5S78.39 0 50.5 0 0 22.61 0 50.5 22.61 101 50.5 101z" fill="#3875BB"/><path d="M50.5 101c27.89 0 50.5-22.61 50.5-50.5S78.39 0 50.5 0 0 22.61 0 50.5 22.61 101 50.5 101z" fill="#3875BB"/><path d="M.6 42.6c-.2 1.2-.3 2.3-.4 3.5l54.6 54.6c1.2-.1 2.4-.2 3.5-.4L.6 42.6zm2.1-8.5c-.3 1-.7 2-.9 3l62.1 62.1 3-.9L2.7 34.1zm-1.2 4.1c-.3 1.1-.5 2.2-.7 3.3l58.7 58.7c1.1-.2 2.2-.4 3.3-.7L1.5 38.2zm6.5-15c-.5.8-1 1.6-1.5 2.5l68.8 68.8c.8-.5 1.7-1 2.5-1.5L8 23.2zm2.2-3.1c-.6.8-1.1 1.5-1.6 2.3l70 70c.8-.5 1.5-1.1 2.3-1.6L10.2 20.1zM6 26.6c-.5.9-.9 1.7-1.3 2.6l67 67c.9-.4 1.8-.8 2.6-1.3L6 26.6zm-1.7 3.6c-.4.9-.8 1.9-1.1 2.8L68 97.8c.9-.4 1.9-.7 2.8-1.1L4.3 30.2zm10.9-15.8c-.7.6-1.3 1.3-1.9 2l71.3 71.3c.7-.6 1.3-1.3 2-1.9L15.2 14.4zm80.9 14.4c-5-10.5-13.5-19-24-24l24 24zM.1 47.5c-.1 1-.1 2-.1 3v.9L49.6 101h.9c1 0 2 0 3-.1L.1 47.5zm28.4 48.4c2.1 1 4.3 1.9 6.6 2.6L2.4 65.9c.7 2.2 1.6 4.4 2.6 6.5l23.5 23.5zM.7 58.8c.3 1.7.7 3.4 1.1 5.1l35.3 35.3c1.7.5 3.3.8 5.1 1.1L.7 58.8zm-.6-6c.1 1.5.2 2.9.4 4.3l43.4 43.4c1.4.2 2.9.3 4.3.4L.1 52.8zM44.1.4c-1.1.1-2.3.3-3.4.5L100 60.2c.2-1.1.4-2.3.5-3.4L44.1.4zM54.6.2C53.3.1 51.9 0 50.5 0L101 50.4c0-1.4-.1-2.8-.2-4.1L54.6.2zm6.3.9C59.4.8 57.8.5 56.2.3l44.4 44.4c-.2-1.6-.4-3.2-.8-4.7L60.9 1.1zm-48.3 16c-.6.7-1.2 1.4-1.8 2.2l70.9 70.9c.7-.6 1.5-1.2 2.2-1.8L12.6 17.1zm57-13.3c-2.2-.9-4.5-1.7-6.9-2.3l36.7 36.7c-.6-2.4-1.3-4.7-2.3-6.9L69.6 3.8zm-30-2.6c-1.1.2-2.1.5-3.1.8L99 64.5c.3-1 .6-2.1.8-3.1L39.6 1.2zm-33 74.2c4.5 7.9 11 14.4 18.9 18.9L6.6 75.4zM49.1 0c-1.3 0-2.5.1-3.7.2l55.3 55.3c.1-1.2.2-2.5.2-3.7L49.1 0zM21 9.5c-.8.5-1.5 1.1-2.2 1.7l71 71c.6-.7 1.2-1.5 1.7-2.2L21 9.5zm-3 2.3c-.7.6-1.4 1.2-2.1 1.9L87.3 85c.6-.7 1.3-1.4 1.9-2.1L18 11.8zm17.3-9.5c-1 .3-2 .7-2.9 1l65.2 65.2c.4-1 .7-1.9 1-2.9L35.3 2.3zm-11 5c-.8.5-1.6 1-2.4 1.6l70.2 70.2c.5-.8 1.1-1.6 1.6-2.4L24.3 7.3zm7.1-3.6l-2.7 1.2L96 72.3l1.2-2.7L31.4 3.7zm-3.7 1.7c-.9.4-1.7.9-2.6 1.4l69 69c.5-.8.9-1.7 1.4-2.6L27.7 5.4z" fill="#1F64AE"/></svg>