<svg width="68" height="60" fill="none" xmlns="http://www.w3.org/2000/svg"><path d="M38.97 19.692h-9.94c-1.176 0-2.091-.925-2.091-2.115V3.437c0-1.19.915-2.115 2.092-2.115h9.938c1.177 0 2.093.925 2.093 2.114v14.141c0 1.19-.916 2.115-2.093 2.115z" stroke="#fff" stroke-width="2" stroke-miterlimit="10" stroke-linecap="round" stroke-linejoin="round"/><path d="M61.854 12.687H41.062v4.89c0 1.19-.916 2.115-2.093 2.115h-9.938c-1.177 0-2.093-.925-2.093-2.115v-4.89H6.146c-2.68 0-4.838 2.18-4.838 4.89V53.79c0 2.709 2.157 4.89 4.838 4.89h55.708c2.68 0 4.838-2.181 4.838-4.89V17.576c0-2.71-2.157-4.89-4.838-4.89zM34 11.63c1.806 0 3.27-1.48 3.27-3.304 0-1.825-1.464-3.304-3.27-3.304s-3.27 1.48-3.27 3.304c0 1.825 1.464 3.304 3.27 3.304z" stroke="#fff" stroke-width="2" stroke-miterlimit="10" stroke-linecap="round" stroke-linejoin="round"/><path d="M18.373 39.251c3.756 0 6.8-3.077 6.8-6.872 0-3.796-3.044-6.872-6.8-6.872s-6.8 3.076-6.8 6.872c0 3.795 3.044 6.872 6.8 6.872zm1.047 3.238h-2.224c-5.296 0-9.546 4.295-9.546 9.648h21.315c0-5.287-4.315-9.648-9.546-9.648zM34.915 27.82h11.77m-11.77 6.806h25.762m-25.762 6.872h25.762m-25.762 5.55h25.762" stroke="#fff" stroke-width="2" stroke-miterlimit="10" stroke-linecap="round" stroke-linejoin="round"/></svg>