<svg data-name="Layer 1" xmlns="http://www.w3.org/2000/svg" width="15.012" height="14.976"><path d="M2.2 2.2A7.235 7.235 0 017.506 0a7.235 7.235 0 015.309 2.2 7.213 7.213 0 012.2 5.291 7.212 7.212 0 01-2.2 5.291 7.234 7.234 0 01-5.309 2.2 7.234 7.234 0 01-5.309-2.2A7.212 7.212 0 010 7.488 7.214 7.214 0 012.2 2.2zm1.07 9.542A5.772 5.772 0 007.506 13.5a5.772 5.772 0 004.236-1.758A5.794 5.794 0 0013.5 7.488a5.8 5.8 0 00-1.758-4.254 5.774 5.774 0 00-4.236-1.757A5.774 5.774 0 003.27 3.234a5.8 5.8 0 00-1.758 4.254 5.794 5.794 0 001.758 4.254zm4.605-8.015v3.937l3.375 2-.562.949L6.75 8.227v-4.5h1.125z" fill="#fff"/></svg>