<svg id="Layer_1" data-name="Layer 1" xmlns="http://www.w3.org/2000/svg" xmlns:xlink="http://www.w3.org/1999/xlink" width="100.954" height="100.954" viewBox="0 0 100.954 100.954"><defs><style>.cls-1{fill:none;}.cls-2{clip-path:url(#clip-path);}.cls-3{fill:#fff;}.cls-4{fill:#e0ecf8;}.cls-5{fill:#33373b;}.cls-6{clip-path:url(#clip-path-2);}.cls-7{fill:#3575bb;}.cls-8{clip-path:url(#clip-path-3);}</style><clipPath id="clip-path"><circle class="cls-1" cx="50.477" cy="50.477" r="50.477"/></clipPath><clipPath id="clip-path-2"><circle class="cls-1" cx="50.477" cy="165.914" r="50.477"/></clipPath><clipPath id="clip-path-3"><circle class="cls-1" cx="156.623" cy="50.477" r="50.477"/></clipPath></defs><title>ico mobile back</title><g class="cls-2"><circle class="cls-3" cx="50.477" cy="50.477" r="50.477"/><rect class="cls-4" x="15.796" y="25.256" width="1" height="118.323" transform="translate(-54.919 36.248) rotate(-45)"/><rect class="cls-4" x="18.489" y="22.589" width="1" height="118.322" transform="translate(-52.244 37.371) rotate(-45)"/><rect class="cls-4" x="21.182" y="19.922" width="1" height="118.322" transform="translate(-49.57 38.495) rotate(-45)"/><rect class="cls-4" x="23.876" y="17.256" width="1" height="118.323" transform="translate(-46.895 39.618) rotate(-45)"/><rect class="cls-4" x="26.569" y="14.589" width="1" height="118.322" transform="translate(-44.221 40.742) rotate(-45)"/><rect class="cls-4" x="29.262" y="11.922" width="1" height="118.323" transform="translate(-41.546 41.865) rotate(-45)"/><rect class="cls-4" x="31.956" y="9.255" width="1" height="118.322" transform="translate(-38.872 42.988) rotate(-45)"/><rect class="cls-4" x="34.649" y="6.589" width="1" height="118.322" transform="translate(-36.197 44.112) rotate(-45)"/><rect class="cls-4" x="37.342" y="3.922" width="1" height="118.323" transform="translate(-33.523 45.235) rotate(-45)"/><rect class="cls-4" x="40.036" y="1.255" width="1" height="118.322" transform="translate(-30.848 46.359) rotate(-45)"/><rect class="cls-4" x="42.729" y="-1.411" width="1" height="118.323" transform="translate(-28.174 47.482) rotate(-45)"/><rect class="cls-4" x="45.422" y="-4.078" width="1" height="118.323" transform="translate(-25.499 48.605) rotate(-45)"/><rect class="cls-4" x="48.116" y="-6.745" width="1" height="118.323" transform="translate(-22.825 49.729) rotate(-45)"/><rect class="cls-4" x="50.809" y="-9.411" width="1" height="118.323" transform="translate(-20.151 50.853) rotate(-45)"/><rect class="cls-4" x="53.502" y="-12.078" width="1" height="118.323" transform="translate(-17.476 51.976) rotate(-45)"/><rect class="cls-4" x="56.196" y="-14.745" width="1" height="118.323" transform="translate(-14.801 53.099) rotate(-45)"/><rect class="cls-4" x="58.889" y="-17.411" width="1" height="118.322" transform="translate(-12.127 54.223) rotate(-45)"/><rect class="cls-4" x="61.582" y="-20.078" width="1" height="118.323" transform="translate(-9.453 55.346) rotate(-45)"/><rect class="cls-4" x="64.276" y="-22.745" width="1" height="118.322" transform="translate(-6.778 56.469) rotate(-45)"/><rect class="cls-4" x="66.969" y="-25.411" width="1" height="118.322" transform="translate(-4.104 57.593) rotate(-45)"/><rect class="cls-4" x="69.662" y="-28.078" width="1" height="118.323" transform="translate(-1.429 58.716) rotate(-45)"/><rect class="cls-4" x="72.356" y="-30.745" width="1" height="118.322" transform="translate(1.245 59.84) rotate(-45)"/><rect class="cls-4" x="75.049" y="-33.411" width="1" height="118.322" transform="translate(3.92 60.963) rotate(-45)"/><rect class="cls-4" x="77.742" y="-36.078" width="1" height="118.323" transform="translate(6.594 62.086) rotate(-45)"/><rect class="cls-4" x="80.436" y="-38.745" width="1" height="118.322" transform="translate(9.269 63.21) rotate(-45)"/><rect class="cls-4" x="83.129" y="-42.078" width="1" height="118.323" transform="translate(12.415 64.138) rotate(-45)"/></g><path class="cls-5" d="M79.6,78.719H76.719V66.638A2.756,2.756,0,0,0,74.9,61.81h-5.75L68.263,47.6a0.879,0.879,0,0,0-.877-0.824H63.628a0.879,0.879,0,0,0-.877.824L61.863,61.81H59.757L58.869,47.6a0.879,0.879,0,0,0-.877-0.824H54.234a0.879,0.879,0,0,0-.877.824L52.469,61.81H50.363L49.475,47.6A0.879,0.879,0,0,0,48.6,46.78H44.841a0.879,0.879,0,0,0-.877.824L43.076,61.81H40.627l-0.544-24.5a0.879,0.879,0,0,0-.879-0.859H33.568a0.879,0.879,0,0,0-.879.859L32.061,65.568H25.113A2.756,2.756,0,0,0,23.295,70.4v8.323H21.356a0.879,0.879,0,1,0,0,1.758H79.6A0.879,0.879,0,0,0,79.6,78.719Zm-47.62-9.394H28.871a0.879,0.879,0,0,0,0,1.758h3.067l-0.17,7.636H25.053V71.081l0.06,0a0.879,0.879,0,1,0,0-1.758,1,1,0,0,1,0-2h6.909ZM64.454,48.538H66.56L67.39,61.81H63.624Zm-9.394,0h2.106L58,61.81H54.231Zm-9.394,0h2.106L48.6,61.81H44.837ZM35.507,78.719h-1.98l0.9-40.515h3.917L38.869,61.81H37.325a2.756,2.756,0,0,0-1.818,4.828V78.719ZM74.9,65.568H73.022a0.879,0.879,0,0,0,0,1.758H74.9l0.06,0v11.4h-37.7v-11.4l0.06,0h31.94a0.879,0.879,0,0,0,0-1.758H37.325a1,1,0,1,1,0-2H74.9A1,1,0,1,1,74.9,65.568Z"/><path class="cls-5" d="M69.265,20.477a11.141,11.141,0,0,0-7.19,2.617,8.365,8.365,0,0,0-10.9.734,6.5,6.5,0,0,0-8.54,3.373,3.994,3.994,0,0,0-1.081-.149,4.163,4.163,0,0,0-3.935,2.835,2.654,2.654,0,0,0-.293-0.016,2.761,2.761,0,0,0-2.758,2.758,0.879,0.879,0,0,0,1.758,0,1,1,0,0,1,1-1,0.98,0.98,0,0,1,.508.147,0.879,0.879,0,0,0,1.329-.7,2.4,2.4,0,0,1,2.391-2.264,2.37,2.37,0,0,1,1.172.321,0.879,0.879,0,0,0,1.281-.541,4.746,4.746,0,0,1,6.929-2.921,0.879,0.879,0,0,0,1.1-.19,6.612,6.612,0,0,1,9.476-.575,0.879,0.879,0,0,0,1.2-.018,9.448,9.448,0,1,1-1.748,11.325,0.879,0.879,0,0,0-1.139-.377,6.6,6.6,0,0,1-7.789-1.693,0.879,0.879,0,0,0-1.1-.19A4.74,4.74,0,0,1,44.828,32.7a0.879,0.879,0,0,0-.693-0.343h0a0.879,0.879,0,0,0-.692.337,2.39,2.39,0,0,1-1.886.933,0.879,0.879,0,0,0,0,1.758,4.107,4.107,0,0,0,2.539-.876,6.5,6.5,0,0,0,7.081,1.282,8.382,8.382,0,0,0,5.88,2.412,8.284,8.284,0,0,0,2.766-.473A11.212,11.212,0,1,0,69.265,20.477Z"/><path class="cls-5" d="M42.962,69.325a0.879,0.879,0,0,0-.879.879v1.879a0.879,0.879,0,0,0,1.758,0V70.2A0.879,0.879,0,0,0,42.962,69.325Z"/><path class="cls-5" d="M46.719,69.325a0.879,0.879,0,0,0-.879.879v1.879a0.879,0.879,0,0,0,1.758,0V70.2A0.879,0.879,0,0,0,46.719,69.325Z"/><path class="cls-5" d="M50.477,69.325a0.879,0.879,0,0,0-.879.879v1.879a0.879,0.879,0,0,0,1.758,0V70.2A0.879,0.879,0,0,0,50.477,69.325Z"/><path class="cls-5" d="M54.234,69.325a0.879,0.879,0,0,0-.879.879v1.879a0.879,0.879,0,0,0,1.758,0V70.2A0.879,0.879,0,0,0,54.234,69.325Z"/><path class="cls-5" d="M57.992,69.325a0.879,0.879,0,0,0-.879.879v1.879a0.879,0.879,0,0,0,1.758,0V70.2A0.879,0.879,0,0,0,57.992,69.325Z"/><path class="cls-5" d="M61.749,69.325a0.879,0.879,0,0,0-.879.879v1.879a0.879,0.879,0,0,0,1.758,0V70.2A0.879,0.879,0,0,0,61.749,69.325Z"/><path class="cls-5" d="M65.507,69.325a0.879,0.879,0,0,0-.879.879v1.879a0.879,0.879,0,0,0,1.758,0V70.2A0.879,0.879,0,0,0,65.507,69.325Z"/><path class="cls-5" d="M69.265,69.325a0.879,0.879,0,0,0-.879.879v1.879a0.879,0.879,0,0,0,1.758,0V70.2A0.879,0.879,0,0,0,69.265,69.325Z"/><g class="cls-6"><rect class="cls-7" x="75.049" y="82.026" width="1" height="118.322" transform="translate(-77.707 94.774) rotate(-45)"/><rect class="cls-7" x="77.742" y="79.359" width="1" height="118.323" transform="translate(-75.032 95.897) rotate(-45)"/><rect class="cls-7" x="80.436" y="76.692" width="1" height="118.322" transform="translate(-72.357 97.021) rotate(-45)"/><rect class="cls-7" x="83.129" y="73.359" width="1" height="118.323" transform="translate(-69.212 97.949) rotate(-45)"/></g><g class="cls-8"><rect class="cls-4" x="121.942" y="25.256" width="1" height="118.323" transform="translate(-23.829 111.304) rotate(-45)"/><rect class="cls-4" x="124.635" y="22.589" width="1" height="118.322" transform="translate(-21.155 112.428) rotate(-45)"/><rect class="cls-4" x="127.329" y="19.922" width="1" height="118.322" transform="translate(-18.48 113.551) rotate(-45)"/><rect class="cls-4" x="130.022" y="17.256" width="1" height="118.323" transform="translate(-15.806 114.675) rotate(-45)"/><rect class="cls-4" x="132.715" y="14.589" width="1" height="118.322" transform="translate(-13.131 115.798) rotate(-45)"/><rect class="cls-4" x="135.409" y="11.922" width="1" height="118.323" transform="translate(-10.457 116.921) rotate(-45)"/><rect class="cls-4" x="138.102" y="9.255" width="1" height="118.322" transform="translate(-7.782 118.045) rotate(-45)"/><rect class="cls-4" x="140.795" y="6.589" width="1" height="118.322" transform="translate(-5.108 119.169) rotate(-45)"/></g></svg>