<svg id="Layer_1" data-name="Layer 1" xmlns="http://www.w3.org/2000/svg" xmlns:xlink="http://www.w3.org/1999/xlink" width="100.954" height="100.954" viewBox="0 0 100.954 100.954"><defs><style>.cls-1{fill:none;}.cls-2{clip-path:url(#clip-path);}.cls-3{fill:#3575bb;}.cls-4{clip-path:url(#clip-path-2);}.cls-5{fill:#1b63af;}.cls-6{clip-path:url(#clip-path-3);}.cls-7{clip-path:url(#clip-path-4);}.cls-8{fill:#e0ecf8;}.cls-9{fill:#fff;}.cls-10{clip-path:url(#clip-path-5);}</style><clipPath id="clip-path"><circle class="cls-1" cx="155.529" cy="50.477" r="50.477"/></clipPath><clipPath id="clip-path-2"><circle class="cls-1" cx="50.477" cy="50.477" r="50.477"/></clipPath><clipPath id="clip-path-3"><circle class="cls-1" cx="-55.669" cy="50.477" r="50.477"/></clipPath><clipPath id="clip-path-4"><circle class="cls-1" cx="50.477" cy="-64.96" r="50.477"/></clipPath><clipPath id="clip-path-5"><circle class="cls-1" cx="155.529" cy="-64.96" r="50.477"/></clipPath></defs><title>ico mobile back</title><g class="cls-2"><rect class="cls-3" x="120.847" y="25.256" width="1" height="118.323" transform="translate(-24.15 110.53) rotate(-45)"/><rect class="cls-3" x="123.541" y="22.589" width="1" height="118.322" transform="translate(-21.475 111.654) rotate(-45)"/><rect class="cls-3" x="126.234" y="19.922" width="1" height="118.322" transform="translate(-18.801 112.777) rotate(-45)"/><rect class="cls-3" x="128.927" y="17.256" width="1" height="118.323" transform="translate(-16.127 113.901) rotate(-45)"/><rect class="cls-3" x="131.621" y="14.589" width="1" height="118.322" transform="translate(-13.452 115.024) rotate(-45)"/><rect class="cls-3" x="134.314" y="11.922" width="1" height="118.323" transform="translate(-10.777 116.147) rotate(-45)"/><rect class="cls-3" x="137.008" y="9.255" width="1" height="118.322" transform="translate(-8.103 117.271) rotate(-45)"/><rect class="cls-3" x="139.701" y="6.589" width="1" height="118.322" transform="translate(-5.428 118.395) rotate(-45)"/><rect class="cls-3" x="142.394" y="3.922" width="1" height="118.323" transform="translate(-2.754 119.518) rotate(-45)"/></g><g class="cls-4"><circle class="cls-5" cx="50.477" cy="50.477" r="50.477"/><rect class="cls-3" x="15.796" y="25.256" width="1" height="118.323" transform="translate(-54.919 36.248) rotate(-45)"/><rect class="cls-3" x="18.489" y="22.589" width="1" height="118.322" transform="translate(-52.244 37.371) rotate(-45)"/><rect class="cls-3" x="21.182" y="19.922" width="1" height="118.322" transform="translate(-49.57 38.495) rotate(-45)"/><rect class="cls-3" x="23.876" y="17.256" width="1" height="118.323" transform="translate(-46.895 39.618) rotate(-45)"/><rect class="cls-3" x="26.569" y="14.589" width="1" height="118.322" transform="translate(-44.221 40.742) rotate(-45)"/><rect class="cls-3" x="29.262" y="11.922" width="1" height="118.323" transform="translate(-41.546 41.865) rotate(-45)"/><rect class="cls-3" x="31.956" y="9.255" width="1" height="118.322" transform="translate(-38.872 42.988) rotate(-45)"/><rect class="cls-3" x="34.649" y="6.589" width="1" height="118.322" transform="translate(-36.197 44.112) rotate(-45)"/><rect class="cls-3" x="37.342" y="3.922" width="1" height="118.323" transform="translate(-33.523 45.235) rotate(-45)"/><rect class="cls-3" x="40.036" y="1.255" width="1" height="118.322" transform="translate(-30.848 46.359) rotate(-45)"/><rect class="cls-3" x="42.729" y="-1.411" width="1" height="118.323" transform="translate(-28.174 47.482) rotate(-45)"/><rect class="cls-3" x="45.422" y="-4.078" width="1" height="118.323" transform="translate(-25.499 48.605) rotate(-45)"/><rect class="cls-3" x="48.116" y="-6.745" width="1" height="118.323" transform="translate(-22.825 49.729) rotate(-45)"/><rect class="cls-3" x="50.809" y="-9.411" width="1" height="118.323" transform="translate(-20.151 50.853) rotate(-45)"/><rect class="cls-3" x="53.502" y="-12.078" width="1" height="118.323" transform="translate(-17.476 51.976) rotate(-45)"/><rect class="cls-3" x="56.196" y="-14.745" width="1" height="118.323" transform="translate(-14.801 53.099) rotate(-45)"/><rect class="cls-3" x="58.889" y="-17.411" width="1" height="118.322" transform="translate(-12.127 54.223) rotate(-45)"/><rect class="cls-3" x="61.582" y="-20.078" width="1" height="118.323" transform="translate(-9.453 55.346) rotate(-45)"/><rect class="cls-3" x="64.276" y="-22.745" width="1" height="118.322" transform="translate(-6.778 56.469) rotate(-45)"/><rect class="cls-3" x="66.969" y="-25.411" width="1" height="118.322" transform="translate(-4.104 57.593) rotate(-45)"/><rect class="cls-3" x="69.662" y="-28.078" width="1" height="118.323" transform="translate(-1.429 58.716) rotate(-45)"/><rect class="cls-3" x="72.356" y="-30.745" width="1" height="118.322" transform="translate(1.245 59.84) rotate(-45)"/><rect class="cls-3" x="75.049" y="-33.411" width="1" height="118.322" transform="translate(3.92 60.963) rotate(-45)"/><rect class="cls-3" x="77.742" y="-36.078" width="1" height="118.323" transform="translate(6.594 62.086) rotate(-45)"/><rect class="cls-3" x="80.436" y="-38.745" width="1" height="118.322" transform="translate(9.269 63.21) rotate(-45)"/><rect class="cls-3" x="83.129" y="-42.078" width="1" height="118.323" transform="translate(12.415 64.138) rotate(-45)"/></g><g class="cls-6"><rect class="cls-3" x="-41.871" y="-22.745" width="1" height="118.322" transform="translate(-37.868 -18.587) rotate(-45)"/><rect class="cls-3" x="-39.177" y="-25.411" width="1" height="118.322" transform="translate(-35.193 -17.464) rotate(-45)"/><rect class="cls-3" x="-36.484" y="-28.078" width="1" height="118.323" transform="translate(-32.519 -16.34) rotate(-45)"/><rect class="cls-3" x="-33.791" y="-30.745" width="1" height="118.322" transform="translate(-29.844 -15.217) rotate(-45)"/><rect class="cls-3" x="-31.097" y="-33.411" width="1" height="118.322" transform="translate(-27.17 -14.094) rotate(-45)"/><rect class="cls-3" x="-28.404" y="-36.078" width="1" height="118.323" transform="translate(-24.495 -12.97) rotate(-45)"/><rect class="cls-3" x="-25.711" y="-38.745" width="1" height="118.322" transform="translate(-21.821 -11.847) rotate(-45)"/><rect class="cls-3" x="-23.017" y="-42.078" width="1" height="118.323" transform="translate(-18.675 -10.919) rotate(-45)"/></g><g class="cls-7"><rect class="cls-8" x="15.796" y="-90.182" width="1" height="118.323" transform="translate(26.707 2.437) rotate(-45)"/><rect class="cls-8" x="18.489" y="-92.848" width="1" height="118.322" transform="translate(29.382 3.561) rotate(-45)"/><rect class="cls-8" x="21.182" y="-95.515" width="1" height="118.322" transform="translate(32.057 4.684) rotate(-45)"/><rect class="cls-8" x="23.876" y="-98.182" width="1" height="118.323" transform="translate(34.731 5.807) rotate(-45)"/><rect class="cls-8" x="26.569" y="-100.848" width="1" height="118.322" transform="translate(37.405 6.931) rotate(-45)"/></g><path class="cls-9" d="M79.891,26.481H21.062a3.583,3.583,0,0,0-3.579,3.579V43.018a0.976,0.976,0,0,0,1.952,0V30.06a1.629,1.629,0,0,1,1.627-1.627H79.891a1.629,1.629,0,0,1,1.627,1.627V69.105a1.629,1.629,0,0,1-1.627,1.627H59.682a9.324,9.324,0,0,0,0-2.733H72.342a0.976,0.976,0,0,0,.976-0.976,4.5,4.5,0,0,1,4.49-4.49,0.976,0.976,0,0,0,.976-0.976v-16.6a0.976,0.976,0,1,0-1.952,0v15.7a6.458,6.458,0,0,0-5.392,5.392H59.169a9.3,9.3,0,0,0-17.384,0H29.514a6.458,6.458,0,0,0-5.392-5.392V38.511a6.458,6.458,0,0,0,5.392-5.392H71.44a6.458,6.458,0,0,0,5.392,5.392V40.4a0.976,0.976,0,0,0,1.952,0v-2.79a0.976,0.976,0,0,0-.976-0.976,4.5,4.5,0,0,1-4.49-4.49,0.976,0.976,0,0,0-.976-0.976H28.611a0.976,0.976,0,0,0-.976.976,4.5,4.5,0,0,1-4.49,4.49,0.976,0.976,0,0,0-.976.976V61.556a0.976,0.976,0,0,0,.976.976,4.5,4.5,0,0,1,4.49,4.49,0.976,0.976,0,0,0,.976.976H41.272a9.328,9.328,0,0,0,0,2.734H21.062a1.629,1.629,0,0,1-1.627-1.627V47.557a0.976,0.976,0,0,0-1.952,0V69.105a3.583,3.583,0,0,0,3.579,3.579H41.785a9.3,9.3,0,0,0,1.338,2.374V85.5a0.976,0.976,0,0,0,1.345.9l6.009-2.453,6.009,2.453a0.976,0.976,0,0,0,1.345-.9V82.712a0.976,0.976,0,1,0-1.952,0v1.339L50.846,82a0.98,0.98,0,0,0-.738,0l-5.032,2.054V76.936a9.276,9.276,0,0,0,10.8,0v1.214a0.976,0.976,0,0,0,1.952,0V75.059a9.3,9.3,0,0,0,1.338-2.374H79.891a3.583,3.583,0,0,0,3.579-3.579V30.06A3.583,3.583,0,0,0,79.891,26.481ZM50.477,76.719a7.353,7.353,0,1,1,7.354-7.353A7.362,7.362,0,0,1,50.477,76.719Z"/><path class="cls-9" d="M59.067,39.366a0.976,0.976,0,0,0,0-1.952H41.887a0.976,0.976,0,1,0,0,1.952h17.18Z"/><path class="cls-9" d="M65.575,42.619h-30.2a0.976,0.976,0,1,0,0,1.952h30.2A0.976,0.976,0,1,0,65.575,42.619Z"/><path class="cls-9" d="M65.575,47.825h-30.2a0.976,0.976,0,0,0,0,1.952h30.2A0.976,0.976,0,1,0,65.575,47.825Z"/><path class="cls-9" d="M65.575,53.812H60.889a0.976,0.976,0,0,0,0,1.952h4.686A0.976,0.976,0,1,0,65.575,53.812Z"/><path class="cls-9" d="M35.379,53.812a0.976,0.976,0,1,0,0,1.952h4.686a0.976,0.976,0,0,0,0-1.952H35.379Z"/><path class="cls-9" d="M50.477,64.225a5.141,5.141,0,1,0,5.141,5.141A5.147,5.147,0,0,0,50.477,64.225Zm0,8.33a3.189,3.189,0,1,1,3.189-3.189A3.192,3.192,0,0,1,50.477,72.554Z"/><path class="cls-9" d="M47.158,54.789a3.319,3.319,0,1,0,3.319-3.319A3.322,3.322,0,0,0,47.158,54.789Zm4.686,0a1.367,1.367,0,1,1-1.367-1.367A1.368,1.368,0,0,1,51.844,54.789Z"/><g class="cls-10"><rect class="cls-8" x="120.847" y="-90.182" width="1" height="118.323" transform="translate(57.476 76.72) rotate(-45)"/><rect class="cls-8" x="123.541" y="-92.848" width="1" height="118.322" transform="translate(60.151 77.843) rotate(-45)"/><rect class="cls-8" x="126.234" y="-95.515" width="1" height="118.322" transform="translate(62.826 78.967) rotate(-45)"/><rect class="cls-8" x="128.927" y="-98.182" width="1" height="118.323" transform="translate(65.5 80.09) rotate(-45)"/><rect class="cls-8" x="131.621" y="-100.848" width="1" height="118.322" transform="translate(68.174 81.214) rotate(-45)"/></g></svg>