<svg id="Layer_1" data-name="Layer 1" xmlns="http://www.w3.org/2000/svg" xmlns:xlink="http://www.w3.org/1999/xlink" width="100.954" height="100.954" viewBox="0 0 100.954 100.954"><defs><style>.cls-1{fill:none;}.cls-2{clip-path:url(#clip-path);}.cls-3{fill:#3575bb;}.cls-4{clip-path:url(#clip-path-2);}.cls-5{clip-path:url(#clip-path-3);}.cls-6{fill:#e0ecf8;}.cls-7{clip-path:url(#clip-path-4);}.cls-8{fill:#fff;}.cls-9{fill:#33373b;}</style><clipPath id="clip-path"><circle class="cls-1" cx="50.477" cy="165.914" r="50.477"/></clipPath><clipPath id="clip-path-2"><circle class="cls-1" cx="-54.575" cy="165.914" r="50.477"/></clipPath><clipPath id="clip-path-3"><circle class="cls-1" cx="-54.575" cy="50.477" r="50.477"/></clipPath><clipPath id="clip-path-4"><circle class="cls-1" cx="50.477" cy="50.477" r="50.477"/></clipPath></defs><title>ico mobile back</title><g class="cls-2"><rect class="cls-3" x="75.049" y="82.026" width="1" height="118.322" transform="translate(-77.707 94.774) rotate(-45)"/><rect class="cls-3" x="77.742" y="79.359" width="1" height="118.323" transform="translate(-75.032 95.897) rotate(-45)"/><rect class="cls-3" x="80.436" y="76.692" width="1" height="118.322" transform="translate(-72.357 97.021) rotate(-45)"/><rect class="cls-3" x="83.129" y="73.359" width="1" height="118.323" transform="translate(-69.212 97.949) rotate(-45)"/></g><g class="cls-4"><rect class="cls-3" x="-30.003" y="82.026" width="1" height="118.322" transform="translate(-108.476 20.491) rotate(-45)"/><rect class="cls-3" x="-27.309" y="79.359" width="1" height="118.323" transform="translate(-105.801 21.614) rotate(-45)"/><rect class="cls-3" x="-24.616" y="76.692" width="1" height="118.322" transform="translate(-103.126 22.738) rotate(-45)"/><rect class="cls-3" x="-21.923" y="73.359" width="1" height="118.323" transform="translate(-99.98 23.666) rotate(-45)"/></g><g class="cls-5"><rect class="cls-6" x="-40.776" y="-22.745" width="1" height="118.322" transform="translate(-37.547 -17.813) rotate(-45)"/><rect class="cls-6" x="-38.083" y="-25.411" width="1" height="118.322" transform="translate(-34.873 -16.69) rotate(-45)"/><rect class="cls-6" x="-35.389" y="-28.078" width="1" height="118.323" transform="translate(-32.198 -15.567) rotate(-45)"/><rect class="cls-6" x="-32.696" y="-30.745" width="1" height="118.322" transform="translate(-29.524 -14.443) rotate(-45)"/><rect class="cls-6" x="-30.003" y="-33.411" width="1" height="118.322" transform="translate(-26.849 -13.32) rotate(-45)"/><rect class="cls-6" x="-27.309" y="-36.078" width="1" height="118.323" transform="translate(-24.175 -12.196) rotate(-45)"/><rect class="cls-6" x="-24.616" y="-38.745" width="1" height="118.322" transform="translate(-21.5 -11.073) rotate(-45)"/><rect class="cls-6" x="-21.923" y="-42.078" width="1" height="118.323" transform="translate(-18.354 -10.145) rotate(-45)"/></g><g class="cls-7"><circle class="cls-8" cx="50.477" cy="50.477" r="50.477"/><rect class="cls-6" x="15.796" y="25.256" width="1" height="118.323" transform="translate(-54.919 36.248) rotate(-45)"/><rect class="cls-6" x="18.489" y="22.589" width="1" height="118.322" transform="translate(-52.244 37.371) rotate(-45)"/><rect class="cls-6" x="21.182" y="19.922" width="1" height="118.322" transform="translate(-49.57 38.495) rotate(-45)"/><rect class="cls-6" x="23.876" y="17.256" width="1" height="118.323" transform="translate(-46.895 39.618) rotate(-45)"/><rect class="cls-6" x="26.569" y="14.589" width="1" height="118.322" transform="translate(-44.221 40.742) rotate(-45)"/><rect class="cls-6" x="29.262" y="11.922" width="1" height="118.323" transform="translate(-41.546 41.865) rotate(-45)"/><rect class="cls-6" x="31.956" y="9.255" width="1" height="118.322" transform="translate(-38.872 42.988) rotate(-45)"/><rect class="cls-6" x="34.649" y="6.589" width="1" height="118.322" transform="translate(-36.197 44.112) rotate(-45)"/><rect class="cls-6" x="37.342" y="3.922" width="1" height="118.323" transform="translate(-33.523 45.235) rotate(-45)"/><rect class="cls-6" x="40.036" y="1.255" width="1" height="118.322" transform="translate(-30.848 46.359) rotate(-45)"/><rect class="cls-6" x="42.729" y="-1.411" width="1" height="118.323" transform="translate(-28.174 47.482) rotate(-45)"/><rect class="cls-6" x="45.422" y="-4.078" width="1" height="118.323" transform="translate(-25.499 48.605) rotate(-45)"/><rect class="cls-6" x="48.116" y="-6.745" width="1" height="118.323" transform="translate(-22.825 49.729) rotate(-45)"/><rect class="cls-6" x="50.809" y="-9.411" width="1" height="118.323" transform="translate(-20.151 50.853) rotate(-45)"/><rect class="cls-6" x="53.502" y="-12.078" width="1" height="118.323" transform="translate(-17.476 51.976) rotate(-45)"/><rect class="cls-6" x="56.196" y="-14.745" width="1" height="118.323" transform="translate(-14.801 53.099) rotate(-45)"/><rect class="cls-6" x="58.889" y="-17.411" width="1" height="118.322" transform="translate(-12.127 54.223) rotate(-45)"/><rect class="cls-6" x="61.582" y="-20.078" width="1" height="118.323" transform="translate(-9.453 55.346) rotate(-45)"/><rect class="cls-6" x="64.276" y="-22.745" width="1" height="118.322" transform="translate(-6.778 56.469) rotate(-45)"/><rect class="cls-6" x="66.969" y="-25.411" width="1" height="118.322" transform="translate(-4.104 57.593) rotate(-45)"/><rect class="cls-6" x="69.662" y="-28.078" width="1" height="118.323" transform="translate(-1.429 58.716) rotate(-45)"/><rect class="cls-6" x="72.356" y="-30.745" width="1" height="118.322" transform="translate(1.245 59.84) rotate(-45)"/><rect class="cls-6" x="75.049" y="-33.411" width="1" height="118.322" transform="translate(3.92 60.963) rotate(-45)"/><rect class="cls-6" x="77.742" y="-36.078" width="1" height="118.323" transform="translate(6.594 62.086) rotate(-45)"/><rect class="cls-6" x="80.436" y="-38.745" width="1" height="118.322" transform="translate(9.269 63.21) rotate(-45)"/><rect class="cls-6" x="83.129" y="-42.078" width="1" height="118.323" transform="translate(12.415 64.138) rotate(-45)"/></g><path class="cls-9" d="M38.743,62.276l-0.034-.034A1.172,1.172,0,1,0,37.055,63.9l0.038,0.038A1.172,1.172,0,1,0,38.743,62.276Z"/><path class="cls-9" d="M63.9,37.053a18.987,18.987,0,0,0-29.885,22.89,1.172,1.172,0,1,0,2.031-1.17,16.641,16.641,0,1,1,6.05,6.085,1.172,1.172,0,0,0-1.181,2.024A18.987,18.987,0,0,0,63.9,37.053Z"/><path class="cls-9" d="M80.473,45.328a1.172,1.172,0,0,0-.988-1.157l-4.326-.685-2.295-5.534,2.571-3.545a1.172,1.172,0,0,0-.12-1.517l-7.268-7.263a1.172,1.172,0,0,0-1.517-.119L62.988,28.08l-5.538-2.292-0.688-4.324a1.172,1.172,0,0,0-1.157-.988h0l-10.275,0a1.172,1.172,0,0,0-1.157.988L43.486,25.8,37.951,28.09l-3.545-2.571a1.172,1.172,0,0,0-1.517.12l-7.263,7.268a1.172,1.172,0,0,0-.119,1.517l2.573,3.542L25.788,43.5l-4.324.688a1.172,1.172,0,0,0-.988,1.158l0,10.275a1.172,1.172,0,0,0,.988,1.157L25.8,57.468,28.09,63l-2.571,3.545a1.172,1.172,0,0,0,.12,1.517l7.268,7.263a1.172,1.172,0,0,0,1.517.119l3.542-2.573L43.5,75.166l0.688,4.324a1.172,1.172,0,0,0,1.157.988h0l10.275,0a1.172,1.172,0,0,0,1.157-.988l0.685-4.326L63,72.863l3.545,2.571a1.172,1.172,0,0,0,1.517-.12l7.263-7.268a1.172,1.172,0,0,0,.119-1.517l-2.573-3.542,2.292-5.538,4.324-.688a1.172,1.172,0,0,0,.988-1.158Zm-6.323,9.91a1.172,1.172,0,0,0-.9.709L70.458,62.7a1.172,1.172,0,0,0,.135,1.137L72.963,67.1,67.114,72.95l-3.267-2.369a1.172,1.172,0,0,0-1.137-.134l-6.746,2.8a1.172,1.172,0,0,0-.709.9l-0.632,3.985-8.274,0-0.634-3.983a1.172,1.172,0,0,0-.709-0.9l-6.75-2.793a1.171,1.171,0,0,0-1.137.135l-3.263,2.371L28,67.114l2.369-3.267a1.172,1.172,0,0,0,.134-1.137l-2.8-6.746a1.172,1.172,0,0,0-.9-0.709l-3.986-.632,0-8.274,3.983-.634a1.172,1.172,0,0,0,.9-0.709l2.793-6.75a1.172,1.172,0,0,0-.135-1.137l-2.371-3.263L33.84,28l3.267,2.369a1.172,1.172,0,0,0,1.137.134l6.746-2.8a1.172,1.172,0,0,0,.709-0.9l0.631-3.986,8.274,0L55.238,26.8a1.172,1.172,0,0,0,.709.9L62.7,30.5a1.172,1.172,0,0,0,1.137-.135L67.1,27.991l5.853,5.849-2.369,3.267a1.172,1.172,0,0,0-.134,1.137l2.8,6.746a1.172,1.172,0,0,0,.9.709l3.986,0.632,0,8.274Z"/><path class="cls-9" d="M61.153,51.937a6.49,6.49,0,0,0-5.38-1.607l-5.147-5.147a6.521,6.521,0,0,0-8.87-7.052,1.172,1.172,0,0,0-.393,1.917l1.7,1.7a0.923,0.923,0,0,1-1.3,1.3l-1.705-1.705a1.172,1.172,0,0,0-1.915.389,6.516,6.516,0,0,0,7.048,8.889l5.142,5.142a6.519,6.519,0,0,0,8.889,7.05,1.172,1.172,0,0,0,.39-1.915l-1.691-1.692a0.923,0.923,0,0,1,1.3-1.3l1.688,1.688a1.172,1.172,0,0,0,1.916-.392A6.556,6.556,0,0,0,61.153,51.937Zm-0.276,4.31a3.266,3.266,0,1,0-4.619,4.619l0.057,0.057a4.18,4.18,0,0,1-3.579-5.237,1.172,1.172,0,0,0-.3-1.131L46.4,48.519a1.172,1.172,0,0,0-1.129-.3,4.164,4.164,0,0,1-5.234-3.574L40.1,44.709a3.266,3.266,0,0,0,4.619-4.619l-0.055-.055a4.179,4.179,0,0,1,3.555,5.23,1.172,1.172,0,0,0,.3,1.13l6.04,6.04a1.172,1.172,0,0,0,1.128.3,4.163,4.163,0,0,1,5.227,3.549Z"/><path class="cls-9" d="M61.181,42.108a13.621,13.621,0,0,0-7.71-4.887,1.172,1.172,0,0,0-.514,2.287,11.27,11.27,0,0,1,6.379,4.045A1.172,1.172,0,1,0,61.181,42.108Z"/><path class="cls-9" d="M63.42,46.334L63.4,46.281a1.172,1.172,0,1,0-2.23.72l0.015,0.046A1.172,1.172,0,1,0,63.42,46.334Z"/></svg>