<svg id="Layer_1" data-name="Layer 1" xmlns="http://www.w3.org/2000/svg" width="13.5" height="13.5" viewBox="0 0 13.5 13.5"><defs><style>.cls-1{fill:#1d63af;}</style></defs><title>ico mobile</title><path class="cls-1" d="M2.708,5.836a11.03,11.03,0,0,0,4.957,4.957L9.317,9.141a0.646,0.646,0,0,1,.773-0.176,8.394,8.394,0,0,0,2.672.422,0.734,0.734,0,0,1,.51.211,0.688,0.688,0,0,1,.229.527v2.637a0.785,0.785,0,0,1-.738.738,12.544,12.544,0,0,1-6.416-1.705A12.593,12.593,0,0,1,1.706,7.154,12.538,12.538,0,0,1,0,.738,0.7,0.7,0,0,1,.229.229,0.7,0.7,0,0,1,.739,0H3.375A0.688,0.688,0,0,1,3.9.229a0.735,0.735,0,0,1,.211.51A8.394,8.394,0,0,0,4.536,3.41a0.719,0.719,0,0,1-.176.773Z"/></svg>