<svg id="Layer_1" data-name="Layer 1" xmlns="http://www.w3.org/2000/svg" xmlns:xlink="http://www.w3.org/1999/xlink" width="76.167" height="76.164" viewBox="0 0 76.167 76.164"><defs><style>.cls-1{fill:none;}.cls-2{clip-path:url(#clip-path);}.cls-3{fill:#1b63af;}.cls-4{fill:#3575bb;}.cls-5{fill:#82b4e1;}.cls-6{fill:#fff;}</style><clipPath id="clip-path"><circle class="cls-1" cx="38.084" cy="38.082" r="29.843"/></clipPath></defs><title>ico mobile back</title><g class="cls-2"><circle class="cls-3" cx="38.084" cy="38.082" r="29.843"/><rect class="cls-4" x="17.579" y="23.171" width="0.591" height="69.955" transform="translate(-35.881 29.671) rotate(-45)"/><rect class="cls-4" x="19.172" y="21.594" width="0.591" height="69.955" transform="translate(-34.3 30.335) rotate(-45)"/><rect class="cls-4" x="20.764" y="20.017" width="0.591" height="69.955" transform="translate(-32.719 30.999) rotate(-45)"/><rect class="cls-4" x="22.357" y="18.441" width="0.591" height="69.955" transform="translate(-31.138 31.663) rotate(-45)"/><rect class="cls-4" x="23.949" y="16.864" width="0.591" height="69.955" transform="translate(-29.557 32.328) rotate(-45)"/><rect class="cls-4" x="25.541" y="15.288" width="0.591" height="69.955" transform="translate(-27.975 32.992) rotate(-45)"/><rect class="cls-4" x="27.134" y="13.711" width="0.591" height="69.955" transform="translate(-26.394 33.656) rotate(-45)"/><rect class="cls-4" x="28.726" y="12.135" width="0.591" height="69.955" transform="translate(-24.813 34.32) rotate(-45)"/><rect class="cls-4" x="30.318" y="10.558" width="0.591" height="69.955" transform="translate(-23.232 34.984) rotate(-45)"/><rect class="cls-4" x="31.911" y="8.981" width="0.591" height="69.955" transform="translate(-21.65 35.649) rotate(-45)"/><rect class="cls-4" x="33.503" y="7.405" width="0.591" height="69.955" transform="translate(-20.069 36.313) rotate(-45)"/><rect class="cls-4" x="35.095" y="5.828" width="0.591" height="69.955" transform="translate(-18.488 36.977) rotate(-45)"/><rect class="cls-4" x="36.688" y="4.251" width="0.591" height="69.955" transform="translate(-16.907 37.641) rotate(-45)"/><rect class="cls-4" x="38.28" y="2.675" width="0.591" height="69.955" transform="translate(-15.326 38.305) rotate(-45)"/><rect class="cls-4" x="39.873" y="1.098" width="0.591" height="69.955" transform="translate(-13.744 38.969) rotate(-45)"/><rect class="cls-4" x="41.465" y="-0.478" width="0.591" height="69.955" transform="translate(-12.163 39.634) rotate(-45)"/><rect class="cls-4" x="43.057" y="-2.055" width="0.591" height="69.955" transform="translate(-10.582 40.298) rotate(-45)"/><rect class="cls-4" x="44.649" y="-3.632" width="0.591" height="69.955" transform="translate(-9.001 40.962) rotate(-45)"/><rect class="cls-4" x="46.242" y="-5.208" width="0.591" height="69.955" transform="translate(-7.42 41.626) rotate(-45)"/><rect class="cls-4" x="47.834" y="-6.785" width="0.591" height="69.955" transform="translate(-5.838 42.29) rotate(-45)"/><rect class="cls-4" x="49.427" y="-8.361" width="0.591" height="69.955" transform="translate(-4.257 42.954) rotate(-45)"/><rect class="cls-4" x="51.019" y="-9.938" width="0.591" height="69.955" transform="translate(-2.676 43.619) rotate(-45)"/><rect class="cls-4" x="52.611" y="-11.514" width="0.591" height="69.955" transform="translate(-1.095 44.283) rotate(-45)"/><rect class="cls-4" x="54.204" y="-13.091" width="0.591" height="69.955" transform="translate(0.486 44.947) rotate(-45)"/><rect class="cls-4" x="55.796" y="-14.668" width="0.591" height="69.955" transform="translate(2.068 45.611) rotate(-45)"/><rect class="cls-4" x="57.388" y="-16.638" width="0.591" height="69.955" transform="translate(3.928 46.16) rotate(-45)"/></g><path class="cls-5" d="M38.635,76.164l-0.015-1a37.5,37.5,0,0,0,3.97-.268l0.12,0.993A38.585,38.585,0,0,1,38.635,76.164Zm-2.043-.025a38.306,38.306,0,0,1-4.068-.375l0.145-.989a37.491,37.491,0,0,0,3.961.365Zm8.14-.549L44.559,74.6a36.9,36.9,0,0,0,3.875-.9l0.278,0.96A37.817,37.817,0,0,1,44.731,75.59ZM30.51,75.415a38.088,38.088,0,0,1-3.958-1.024l0.3-.953a37.059,37.059,0,0,0,3.853,1Zm20.15-1.373L50.33,73.1a36.892,36.892,0,0,0,3.679-1.514l0.43,0.9A37.952,37.952,0,0,1,50.66,74.042Zm-26.042-.324a37.971,37.971,0,0,1-3.74-1.65l0.452-.892a36.863,36.863,0,0,0,3.641,1.606Zm31.64-2.158-0.479-.878A37.236,37.236,0,0,0,59.167,68.6l0.569,0.822A38.374,38.374,0,0,1,56.257,71.561Zm-37.18-.467a38.377,38.377,0,0,1-3.426-2.229l0.59-.808a37.224,37.224,0,0,0,3.336,2.171Zm42.306-2.882-0.612-.79a37.535,37.535,0,0,0,3.011-2.6l0.693,0.721A38.432,38.432,0,0,1,61.383,68.211Zm-47.35-.6a38.576,38.576,0,0,1-3.025-2.748l0.711-.7a37.475,37.475,0,0,0,2.946,2.676Zm51.877-3.53L65.18,63.4a37.461,37.461,0,0,0,2.559-3.048l0.8,0.6A38.346,38.346,0,0,1,65.911,64.084Zm-56.3-.708a38.289,38.289,0,0,1-2.548-3.194L7.877,59.6a37.37,37.37,0,0,0,2.48,3.111Zm60.113-4.088-0.83-.558a37.1,37.1,0,0,0,2.038-3.418l0.886,0.465A38.137,38.137,0,0,1,69.724,59.288Zm-63.8-.8a38.079,38.079,0,0,1-2-3.56l0.9-.442a37.273,37.273,0,0,0,1.951,3.466Zm66.8-4.548-0.909-.416a37.228,37.228,0,0,0,1.461-3.7l0.948,0.316A37.972,37.972,0,0,1,72.72,53.94ZM3.064,53.076a37.706,37.706,0,0,1-1.4-3.838l0.956-.292a36.994,36.994,0,0,0,1.367,3.735Zm71.75-4.893-0.965-.264a37.205,37.205,0,0,0,.844-3.889l0.987,0.159A38.247,38.247,0,0,1,74.814,48.183Zm-73.7-.915a37.909,37.909,0,0,1-.767-4.014l0.991-.134a36.959,36.959,0,0,0,.746,3.908Zm74.836-5.1-0.994-.106a37.621,37.621,0,0,0,.21-3.973v-0.15h1v0.15A38.585,38.585,0,0,1,75.951,42.164ZM0.127,41.222C0.043,40.186,0,39.13,0,38.084q0-.474.011-0.945l1,0.023Q1,37.623,1,38.084c0,1.019.042,2.047,0.125,3.057Zm74.979-5.276a37.283,37.283,0,0,0-.437-3.954l0.986-.163a38.127,38.127,0,0,1,.449,4.061ZM1.112,35.175l-1-.077a38.267,38.267,0,0,1,.533-4.051l0.983,0.184A37.182,37.182,0,0,0,1.112,35.175Zm73.18-5.137a36.9,36.9,0,0,0-1.068-3.833l0.947-.32a38,38,0,0,1,1.1,3.937ZM2.05,29.286l-0.972-.236a37.927,37.927,0,0,1,1.18-3.914l0.94,0.34A37,37,0,0,0,2.05,29.286Zm70.486-4.948a36.97,36.97,0,0,0-1.673-3.61l0.884-.469a38.121,38.121,0,0,1,1.718,3.708ZM3.927,23.619l-0.921-.391a38.034,38.034,0,0,1,1.8-3.671l0.873,0.487A36.991,36.991,0,0,0,3.927,23.619ZM69.885,19a37.062,37.062,0,0,0-2.23-3.294l0.8-.6a38.327,38.327,0,0,1,2.291,3.383ZM6.693,18.331L5.847,17.8a38.181,38.181,0,0,1,2.362-3.335l0.784,0.621A37.275,37.275,0,0,0,6.693,18.331ZM66.411,14.15a37.578,37.578,0,0,0-2.728-2.9l0.69-.724a38.405,38.405,0,0,1,2.8,2.975Zm-56.14-.594-0.75-.662a38.587,38.587,0,0,1,2.863-2.915l0.675,0.738A37.308,37.308,0,0,0,10.271,13.556ZM62.207,9.917A37.546,37.546,0,0,0,59.05,7.492l0.566-.824a38.63,38.63,0,0,1,3.24,2.49Zm-47.644-.5-0.635-.772A38.062,38.062,0,0,1,17.22,6.22l0.548,0.836A37.226,37.226,0,0,0,14.563,9.413Zm42.816-3a37.026,37.026,0,0,0-3.5-1.888l0.427-.9a38.185,38.185,0,0,1,3.6,1.939Zm-37.92-.4-0.5-.864a38.318,38.318,0,0,1,3.636-1.862L23,4.2A37.225,37.225,0,0,0,19.459,6.01Zm32.592-2.29a36.834,36.834,0,0,0-3.762-1.3l0.274-.962a38.007,38.007,0,0,1,3.865,1.333ZM24.834,3.438L24.477,2.5a37.865,37.865,0,0,1,3.891-1.252l0.254,0.967A37.043,37.043,0,0,0,24.834,3.438ZM46.36,1.927a37.194,37.194,0,0,0-3.921-.674l0.116-.993a38.184,38.184,0,0,1,4.027.692Zm-15.8-.163-0.2-.979A38.081,38.081,0,0,1,34.4.177l0.1,1A37.227,37.227,0,0,0,30.559,1.764Zm9.9-.689C39.663,1.025,38.862,1,38.052,1q-0.791,0-1.573.034l-0.043-1C36.982,0.012,37.494,0,38.084,0c0.812,0,1.632.026,2.436,0.077Z"/><path class="cls-5" d="M38.084,72A33.917,33.917,0,1,1,72,38.082,33.956,33.956,0,0,1,38.084,72Zm0-66.834A32.917,32.917,0,1,0,71,38.082,32.955,32.955,0,0,0,38.084,5.165Z"/><path class="cls-6" d="M54.345,50.647H53.606v-30.3a0.741,0.741,0,0,0-.739-0.739H23.3a0.741,0.741,0,0,0-.739.739v30.3H21.823a0.741,0.741,0,0,0-.739.739v2.957a0.741,0.741,0,0,0,.739.739H54.345a0.741,0.741,0,0,0,.739-0.739V51.386A0.741,0.741,0,0,0,54.345,50.647ZM24.04,21.082H52.127V50.647H50.649V23.3a0.741,0.741,0,0,0-.739-0.739H26.258a0.741,0.741,0,0,0-.739.739V50.647H24.04V21.082ZM38.823,36.6V24.039H49.171V36.6H38.823Zm10.348,1.478V50.647H38.823V38.082H49.171ZM27,36.6V24.039H37.345V36.6H27Zm10.348,1.478V50.647H27V38.082H37.345ZM53.606,53.6H22.562V52.125H53.606V53.6Z"/></svg>