<svg id="Layer_1" data-name="Layer 1" xmlns="http://www.w3.org/2000/svg" xmlns:xlink="http://www.w3.org/1999/xlink" width="121" height="120.999" viewBox="0 0 121 120.999"><defs><style>.cls-1{fill:#edf3fb;}.cls-2{clip-path:url(#clip-path);}.cls-3{fill:#ccdef3;}.cls-4{fill:#1b63af;}.cls-5{fill:#82b4e1;}.cls-6{fill:#34383c;}</style><clipPath id="clip-path"><circle class="cls-1" cx="60.5" cy="60.499" r="44.5"/></clipPath></defs><title>ico mobile back</title><circle class="cls-1" cx="60.5" cy="60.499" r="44.5"/><g class="cls-2"><circle class="cls-1" cx="60.5" cy="60.499" r="44.5"/><rect class="cls-3" x="29.925" y="38.264" width="0.881" height="104.312" transform="translate(-55.043 47.955) rotate(-45)"/><rect class="cls-3" x="32.3" y="35.913" width="0.881" height="104.312" transform="translate(-52.685 48.946) rotate(-45)"/><rect class="cls-3" x="34.674" y="33.562" width="0.881" height="104.312" transform="translate(-50.327 49.936) rotate(-45)"/><rect class="cls-3" x="37.049" y="31.211" width="0.881" height="104.312" transform="translate(-47.969 50.927) rotate(-45)"/><rect class="cls-3" x="39.423" y="28.861" width="0.881" height="104.312" transform="translate(-45.612 51.917) rotate(-45)"/><rect class="cls-3" x="41.798" y="26.509" width="0.881" height="104.312" transform="translate(-43.254 52.907) rotate(-45)"/><rect class="cls-3" x="44.172" y="24.159" width="0.881" height="104.312" transform="translate(-40.896 53.898) rotate(-45)"/><rect class="cls-3" x="46.546" y="21.808" width="0.881" height="104.312" transform="translate(-38.538 54.888) rotate(-45)"/><rect class="cls-3" x="48.921" y="19.457" width="0.881" height="104.312" transform="translate(-36.18 55.879) rotate(-45)"/><rect class="cls-3" x="51.295" y="17.106" width="0.881" height="104.312" transform="translate(-33.822 56.869) rotate(-45)"/><rect class="cls-3" x="53.67" y="14.755" width="0.881" height="104.312" transform="translate(-31.465 57.86) rotate(-45)"/><rect class="cls-3" x="56.044" y="12.404" width="0.881" height="104.313" transform="translate(-29.107 58.85) rotate(-45)"/><rect class="cls-3" x="58.418" y="10.053" width="0.881" height="104.312" transform="translate(-26.749 59.841) rotate(-45)"/><rect class="cls-3" x="60.793" y="7.702" width="0.881" height="104.312" transform="translate(-24.391 60.831) rotate(-45)"/><rect class="cls-3" x="63.167" y="5.351" width="0.881" height="104.313" transform="translate(-22.033 61.821) rotate(-45)"/><rect class="cls-3" x="65.542" y="3" width="0.881" height="104.312" transform="translate(-19.676 62.812) rotate(-45)"/><rect class="cls-3" x="67.916" y="0.65" width="0.881" height="104.312" transform="translate(-17.318 63.802) rotate(-45)"/><rect class="cls-3" x="70.29" y="-1.702" width="0.881" height="104.312" transform="translate(-14.96 64.792) rotate(-45)"/><rect class="cls-3" x="72.665" y="-4.052" width="0.881" height="104.312" transform="translate(-12.602 65.783) rotate(-45)"/><rect class="cls-3" x="75.039" y="-6.403" width="0.881" height="104.312" transform="translate(-10.245 66.773) rotate(-45)"/><rect class="cls-3" x="77.414" y="-8.754" width="0.881" height="104.312" transform="translate(-7.887 67.763) rotate(-45)"/><rect class="cls-3" x="79.788" y="-11.105" width="0.881" height="104.312" transform="translate(-5.529 68.754) rotate(-45)"/><rect class="cls-3" x="82.163" y="-13.456" width="0.881" height="104.312" transform="translate(-3.171 69.744) rotate(-45)"/><rect class="cls-3" x="84.537" y="-15.807" width="0.881" height="104.312" transform="translate(-0.813 70.735) rotate(-45)"/><rect class="cls-3" x="86.912" y="-18.158" width="0.881" height="104.312" transform="translate(1.545 71.725) rotate(-45)"/><rect class="cls-3" x="89.286" y="-21.097" width="0.881" height="104.312" transform="translate(4.318 72.543) rotate(-45)"/></g><path class="cls-4" d="M60.5,121q-0.486,0-.972-0.008l0.016-1c1.33,0.021,2.683,0,4.018-.069l0.051,1C62.58,120.972,61.533,121,60.5,121Zm-3.013-.073c-1.364-.066-2.733-0.18-4.07-0.336l0.116-.994c1.315,0.154,2.662.266,4,.332Zm8.163-.144-0.083-1c1.323-.111,2.665-0.27,3.989-0.471l0.15,0.988C68.36,120.508,67,120.67,65.649,120.782Zm-14.257-.464c-1.345-.2-2.7-0.454-4.016-0.746l0.216-.977c1.3,0.287,2.626.534,3.949,0.734Zm20.328-.359-0.185-.982c1.314-.246,2.633-0.54,3.92-0.874l0.251,0.969C74.4,119.41,73.056,119.709,71.72,119.959ZM45.39,119.1c-1.311-.337-2.629-0.725-3.919-1.15L41.784,117c1.269,0.419,2.565.8,3.854,1.131Zm32.285-.57-0.283-.959c1.281-.378,2.563-0.8,3.811-1.269l0.349,0.938C80.282,117.708,78.978,118.141,77.675,118.526Zm-38.139-1.259c-1.275-.471-2.549-0.991-3.787-1.547l0.41-.912c1.217,0.547,2.469,1.059,3.723,1.521Zm43.917-.775-0.38-.926c1.229-.5,2.46-1.059,3.659-1.647l0.441,0.9C85.955,115.415,84.7,115.979,83.454,116.492ZM33.9,114.85c-1.215-.6-2.428-1.243-3.607-1.924l0.5-.865c1.159,0.669,2.353,1.3,3.548,1.891Zm55.091-.965L88.516,113c1.175-.629,2.344-1.306,3.474-2.012l0.53,0.848C91.37,112.558,90.182,113.247,88.987,113.885Zm-60.453-2.011c-1.15-.717-2.291-1.483-3.393-2.278l0.585-.811c1.083,0.781,2.206,1.535,3.337,2.239Zm65.7-1.144-0.559-.83c1.11-.747,2.2-1.538,3.255-2.353l0.612,0.791C96.473,109.167,95.359,109.971,94.231,110.731ZM23.5,108.373c-1.075-.832-2.133-1.709-3.146-2.607l0.664-.748c1,0.884,2.036,1.746,3.094,2.564Zm75.628-1.312-0.639-.77c1.028-.854,2.038-1.752,3-2.669l0.689,0.725C101.2,105.28,100.177,106.193,99.132,107.061Zm-80.278-2.678c-0.983-.933-1.948-1.912-2.866-2.91l0.735-.678c0.9,0.981,1.852,1.945,2.819,2.863Zm84.787-1.468-0.713-.7c0.934-.95,1.849-1.945,2.719-2.959l0.759,0.652C105.521,100.938,104.59,101.95,103.641,102.916ZM14.629,99.948c-0.886-1.029-1.747-2.1-2.559-3.183l0.8-.6c0.8,1.064,1.645,2.118,2.517,3.13Zm93.083-1.613-0.78-.625c0.835-1.041,1.646-2.124,2.408-3.218l0.82,0.572C109.385,96.176,108.562,97.277,107.712,98.335ZM10.873,95.113C10.094,94,9.346,92.845,8.649,91.689l0.856-.516c0.685,1.137,1.42,2.27,2.188,3.367ZM111.3,93.366l-0.839-.545c0.727-1.12,1.423-2.279,2.071-3.444l0.874,0.486C112.75,91.047,112.041,92.226,111.3,93.366ZM7.626,89.924c-0.662-1.186-1.29-2.406-1.867-3.629l0.9-.428c0.567,1.2,1.185,2.4,1.835,3.57Zm106.746-1.866-0.89-.457c0.609-1.188,1.186-2.413,1.712-3.638l0.919,0.395C115.578,85.6,114.992,86.848,114.372,88.058ZM4.922,84.439c-0.536-1.242-1.037-2.52-1.488-3.8l0.943-.332c0.444,1.257.936,2.514,1.463,3.734Zm111.967-1.977-0.932-.363c0.484-1.24.933-2.518,1.333-3.8l0.954,0.3C117.837,79.9,117.381,81.2,116.889,82.462ZM2.787,78.7c-0.407-1.291-.775-2.615-1.094-3.936l0.972-.234c0.314,1.3.676,2.6,1.077,3.869Zm116.035-2.062-0.964-.266c0.354-1.282.67-2.6,0.938-3.905l0.979,0.2C119.5,74,119.182,75.339,118.822,76.642ZM1.246,72.774c-0.273-1.326-.5-2.681-0.688-4.025l0.991-.135c0.18,1.322.408,2.654,0.677,3.959Zm118.9-2.111-0.986-.167c0.222-1.312.4-2.651,0.536-3.98l1,0.1C120.559,67.966,120.375,69.329,120.15,70.663ZM0.316,66.72C0.178,65.371.084,64,.038,62.645l1-.035c0.046,1.333.139,2.682,0.274,4.009Zm120.549-2.14-1-.066c0.088-1.331.133-2.683,0.133-4.016V60.291h1v0.2C121,61.854,120.955,63.227,120.865,64.581ZM1,60.6H0V60.5c0-1.323.043-2.661,0.128-3.977l1,0.064C1.042,57.881,1,59.2,1,60.5V60.6Zm118.96-2.319c-0.049-1.338-.144-2.687-0.281-4.008l0.995-.1c0.14,1.344.236,2.714,0.286,4.074ZM1.291,54.585l-1-.1c0.133-1.354.314-2.717,0.538-4.049L1.82,50.6C1.6,51.914,1.422,53.253,1.291,54.585Zm118.147-2.3c-0.183-1.32-.413-2.651-0.684-3.957l0.979-.2c0.276,1.327.51,2.682,0.695,4.023ZM2.184,48.628l-0.98-.2c0.269-1.327.587-2.664,0.946-3.973L3.114,44.72C2.761,46.008,2.448,47.323,2.184,48.628Zm116.127-2.265c-0.315-1.294-.68-2.6-1.083-3.867l0.953-.3c0.411,1.294.781,2.617,1.1,3.934ZM3.679,42.793l-0.955-.3c0.4-1.3.858-2.6,1.349-3.862L5,38.995C4.522,40.239,4.076,41.517,3.679,42.793Zm112.91-2.2c-0.444-1.252-.939-2.508-1.47-3.731l0.918-.4c0.54,1.245,1.042,2.522,1.494,3.8ZM5.765,37.128l-0.92-.393c0.535-1.251,1.119-2.5,1.735-3.7l0.891,0.455C6.865,34.672,6.291,35.9,5.765,37.128Zm108.527-2.093c-0.571-1.2-1.19-2.4-1.842-3.565l0.873-.488c0.662,1.183,1.292,2.4,1.872,3.626ZM8.416,31.711l-0.875-.484c0.66-1.19,1.366-2.37,2.1-3.507l0.84,0.543C9.759,29.379,9.064,30.54,8.416,31.711Zm103.025-1.974c-0.688-1.138-1.426-2.27-2.193-3.363l0.818-.574c0.78,1.112,1.53,2.263,2.23,3.42ZM11.6,26.59l-0.821-.57c0.774-1.114,1.6-2.216,2.443-3.275L14,23.37C13.171,24.412,12.363,25.5,11.6,26.59Zm96.466-1.842c-0.806-1.07-1.655-2.121-2.522-3.125l0.757-.654c0.881,1.021,1.744,2.09,2.564,3.178ZM15.286,21.82l-0.76-.65c0.879-1.026,1.807-2.039,2.759-3.012L18,18.857C17.063,19.814,16.15,20.811,15.286,21.82Zm88.922-1.692c-0.905-.98-1.855-1.941-2.825-2.858l0.688-.727c0.985,0.933,1.951,1.91,2.872,2.905ZM19.43,17.446l-0.69-.723c0.98-.936,2.005-1.85,3.047-2.719l0.641,0.768C21.4,15.628,20.394,16.527,19.43,17.446ZM99.9,15.912c-1-.886-2.045-1.747-3.1-2.559l0.61-.793c1.071,0.826,2.131,1.7,3.15,2.6Zm-75.909-2.4-0.614-.789c1.066-.829,2.178-1.636,3.3-2.4l0.56,0.828C26.133,11.9,25.04,12.7,23.991,13.513Zm71.2-1.362c-1.089-.782-2.213-1.534-3.341-2.234l0.527-.85c1.147,0.713,2.29,1.477,3.4,2.271Zm-66.267-2.09-0.531-.848c1.149-.721,2.337-1.411,3.529-2.051l0.473,0.881C31.221,8.673,30.054,9.352,28.923,10.061Zm61.2-1.176C88.959,8.217,87.765,7.584,86.57,7l0.439-.9c1.214,0.594,2.429,1.238,3.61,1.917ZM34.175,7.125l-0.443-.9c1.214-.6,2.465-1.166,3.717-1.683L37.831,5.47C36.6,5.978,35.369,6.535,34.175,7.125Zm50.571-.978c-1.22-.545-2.474-1.055-3.726-1.515l0.345-.938c1.274,0.468,2.549.986,3.79,1.541ZM39.7,4.735L39.351,3.8c1.269-.474,2.572-0.91,3.874-1.3L43.509,3.46C42.229,3.841,40.948,4.27,39.7,4.735ZM79.118,3.97c-1.266-.417-2.563-0.8-3.856-1.126l0.247-.969c1.315,0.335,2.635.721,3.921,1.145ZM45.444,2.92l-0.252-.968c1.307-.341,2.647-0.642,3.985-0.9l0.187,0.982C48.047,2.289,46.729,2.585,45.444,2.92Zm27.864-.54C72,2.094,70.673,1.85,69.357,1.654L69.5,0.665c1.338,0.2,2.689.448,4.017,0.739ZM51.343,1.7L51.19,0.711C52.531,0.5,53.9.34,55.245,0.224l0.086,1C54,1.335,52.661,1.5,51.343,1.7Zm16.021-.309c-1.322-.151-2.669-0.26-4-0.324l0.048-1c1.356,0.064,2.726.175,4.07,0.33ZM57.335,1.082l-0.052-1C58.629,0.013,60.009-.012,61.367,0L61.353,1C60.017,0.986,58.66,1.013,57.335,1.082Z"/><path class="cls-5" d="M61.057,110l-0.012-1c1.33-.016,2.667-0.084,3.976-0.205l0.092,1C63.777,109.911,62.413,109.981,61.057,110Zm-2.032-.02c-1.343-.039-2.707-0.135-4.052-0.283l0.11-.994c1.318,0.146,2.654.239,3.971,0.277Zm8.106-.42L67,108.567c1.309-.176,2.627-0.407,3.919-0.69l0.214,0.977C69.813,109.142,68.467,109.379,67.131,109.557Zm-14.172-.13c-1.333-.2-2.674-0.466-3.986-0.778l0.231-.973c1.286,0.307,2.6.563,3.906,0.763Zm20.147-1.048-0.254-.967c1.28-.337,2.561-0.73,3.8-1.17l0.333,0.943C75.72,107.634,74.414,108.036,73.106,108.379Zm-26.1-.242c-1.307-.369-2.606-0.8-3.861-1.268l0.352-.936c1.229,0.461,2.5.879,3.781,1.24Zm31.884-1.669-0.371-.928c1.22-.488,2.441-1.036,3.628-1.629l0.447,0.895C81.383,105.412,80.137,105.971,78.891,106.468Zm-37.636-.35c-1.242-.524-2.479-1.108-3.676-1.734l0.464-.887c1.173,0.614,2.384,1.186,3.6,1.7Zm43.134-2.256-0.483-.875c1.155-.638,2.3-1.333,3.4-2.064l0.554,0.832C86.736,102.5,85.568,103.212,84.389,103.863ZM35.8,103.4c-1.169-.675-2.325-1.406-3.434-2.173l0.569-.822c1.086,0.752,2.218,1.468,3.364,2.13ZM89.528,100.6l-0.587-.811c1.07-.775,2.121-1.605,3.124-2.466l0.651,0.76C91.693,98.959,90.621,99.805,89.528,100.6Zm-58.814-.559c-1.072-.81-2.128-1.676-3.141-2.576l0.665-.748c0.992,0.884,2.028,1.733,3.078,2.525Zm63.515-3.312-0.681-.732c0.964-.9,1.906-1.849,2.8-2.829l0.739,0.674C96.176,94.839,95.214,95.811,94.229,96.727Zm-68.145-.649c-0.965-.935-1.908-1.924-2.8-2.94l0.751-.66c0.876,1,1.8,1.966,2.746,2.882Zm72.341-3.769-0.766-.643c0.848-1.01,1.667-2.07,2.433-3.151l0.816,0.578C100.127,90.2,99.292,91.279,98.426,92.309Zm-76.451-.726c-0.846-1.047-1.66-2.145-2.421-3.261l0.826-.562c0.746,1.094,1.544,2.169,2.373,3.194Zm80.077-4.172-0.839-.545c0.721-1.11,1.4-2.263,2.029-3.426l0.881,0.475C103.483,85.1,102.787,86.278,102.051,87.412Zm-83.6-.789c-0.713-1.146-1.387-2.333-2-3.532l0.89-.457c0.6,1.174,1.264,2.339,1.962,3.46Zm86.6-4.52-0.9-.437c0.578-1.187,1.113-2.415,1.591-3.65l0.933,0.361C106.185,79.637,105.638,80.891,105.048,82.1Zm-89.494-.836c-0.566-1.223-1.088-2.484-1.552-3.751l0.939-.344c0.454,1.24.965,2.477,1.52,3.675Zm91.814-4.8-0.946-.322c0.426-1.251.8-2.535,1.126-3.817l0.97,0.242C108.191,73.875,107.8,75.185,107.369,76.462Zm-94.025-.869c-0.411-1.285-.773-2.6-1.077-3.917l0.975-.225c0.3,1.287.652,2.578,1.054,3.837Zm95.628-5.007-0.979-.2c0.268-1.3.485-2.617,0.646-3.927l0.992,0.121C109.467,67.915,109.245,69.263,108.972,70.586Zm-97.121-.9c-0.25-1.328-.446-2.68-0.584-4.019l1-.1c0.135,1.312.328,2.637,0.572,3.938Zm97.984-5.131-1-.082c0.107-1.312.161-2.649,0.161-3.977V60.3l1-.008V60.5C110,61.853,109.945,63.218,109.836,64.557ZM11.1,63.645c-0.065-1.038-.1-2.1-0.1-3.146q0-.458.008-0.915l1,0.018Q12,60.049,12,60.5c0,1.028.033,2.066,0.1,3.084Zm97.854-5.335c-0.06-1.324-.173-2.658-0.339-3.966l0.992-.125c0.169,1.334.285,2.7,0.346,4.046Zm-96.868-.7-1-.059c0.079-1.347.214-2.706,0.4-4.042l0.99,0.141C12.294,54.961,12.162,56.294,12.084,57.613Zm96.239-5.236c-0.22-1.306-.5-2.616-0.823-3.895l0.969-.246c0.333,1.3.615,2.642,0.84,3.975ZM12.8,51.688l-0.983-.182c0.243-1.324.545-2.657,0.9-3.961l0.966,0.26C13.333,49.084,13.037,50.389,12.8,51.688Zm94.17-5.123c-0.379-1.267-.816-2.532-1.3-3.763l0.931-.365c0.493,1.256.938,2.549,1.326,3.841ZM14.237,45.9l-0.954-.3c0.406-1.286.871-2.572,1.382-3.824l0.926,0.379C15.089,43.376,14.634,44.636,14.237,45.9Zm90.671-4.927c-0.534-1.212-1.124-2.414-1.752-3.572l0.879-.477c0.642,1.182,1.243,2.408,1.789,3.645Zm-88.524-.65L15.475,39.9c0.563-1.228,1.183-2.446,1.844-3.622l0.872,0.49C17.542,37.923,16.935,39.117,16.384,40.319Zm85.789-4.647c-0.678-1.135-1.411-2.256-2.179-3.33l0.813-.582c0.784,1.1,1.532,2.241,2.224,3.4ZM19.2,35.054l-0.851-.525c0.711-1.152,1.477-2.285,2.275-3.367l0.8,0.594C20.649,32.815,19.9,33.925,19.2,35.054Zm79.6-4.308c-0.813-1.045-1.678-2.067-2.57-3.04l0.736-.676c0.911,0.991,1.793,2.035,2.623,3.1Zm-76.16-.57-0.78-.625c0.845-1.054,1.744-2.084,2.67-3.063l0.727,0.688C24.354,28.134,23.474,29.144,22.646,30.176Zm72.214-3.908c-0.936-.938-1.919-1.848-2.923-2.7l0.648-.762c1.024,0.873,2.028,1.8,2.982,2.758Zm-68.2-.511-0.7-.717c0.969-.943,1.986-1.856,3.023-2.713L29.621,23.1C28.6,23.938,27.607,24.833,26.659,25.757ZM90.395,22.3c-1.044-.817-2.131-1.6-3.232-2.326l0.551-.834c1.123,0.74,2.233,1.539,3.3,2.373ZM31.18,21.863l-0.605-.8c1.076-.817,2.2-1.6,3.332-2.323l0.538,0.844C33.332,20.3,32.233,21.061,31.18,21.863Zm54.3-2.947c-1.135-.683-2.311-1.325-3.493-1.911l0.443-.9c1.207,0.6,2.407,1.254,3.565,1.95Zm-49.336-.366-0.5-.863c1.171-.682,2.379-1.32,3.591-1.9l0.43,0.9C38.472,17.257,37.288,17.882,36.141,18.549Zm44.037-2.392c-1.2-.536-2.448-1.029-3.7-1.467l0.329-.943c1.28,0.445,2.552.949,3.78,1.5Zm-38.709-.283-0.393-.92c1.238-.528,2.515-1.013,3.8-1.439l0.315,0.949C43.932,14.882,42.681,15.356,41.468,15.875Zm33.109-1.8c-1.263-.383-2.56-0.718-3.853-1l0.21-.979c1.32,0.284,2.644.626,3.933,1.017Zm-27.488-.2-0.276-.961c1.294-.372,2.623-0.7,3.947-0.96l0.2,0.98C49.658,13.2,48.357,13.512,47.089,13.877ZM68.769,12.7c-1.3-.224-2.623-0.4-3.946-0.513l0.088-1c1.35,0.119,2.705.3,4.028,0.522Zm-15.854-.112L52.76,11.6c1.333-.209,2.691-0.365,4.036-0.465l0.073,1C55.552,12.23,54.222,12.383,52.915,12.588Zm9.921-.534c-1.317-.062-2.654-0.073-3.98-0.027l-0.033-1c1.349-.045,2.717-0.038,4.062.029Z"/><path class="cls-6" d="M60.5,33A20.189,20.189,0,0,0,40.333,53.166c0,10.836,18.665,33.54,19.46,34.5a0.917,0.917,0,0,0,1.413,0C62,86.706,80.667,64,80.667,53.166A20.189,20.189,0,0,0,60.5,33Zm0,52.626c-3.449-4.306-18.333-23.413-18.333-32.459a18.333,18.333,0,1,1,36.667,0C78.833,62.213,63.95,81.319,60.5,85.625Z"/><path class="cls-6" d="M60.5,37.583A15.583,15.583,0,1,0,76.083,53.166,15.584,15.584,0,0,0,60.5,37.583Zm0,29.333a13.75,13.75,0,1,1,13.75-13.75A13.75,13.75,0,0,1,60.5,66.916Z"/><path class="cls-6" d="M72.087,51.544l-11-9.167a0.918,0.918,0,0,0-1.174,0l-11,9.167a0.917,0.917,0,0,0,.587,1.622h2.75v8.25a0.917,0.917,0,0,0,.917.917h5.454a0.917,0.917,0,0,0,.917-0.91l0.039-5.506h1.84v5.5a0.917,0.917,0,0,0,.917.917h5.5a0.917,0.917,0,0,0,.917-0.917v-8.25H71.5A0.917,0.917,0,0,0,72.087,51.544Zm-4.253-.212a0.917,0.917,0,0,0-.917.917V60.5H63.25V55a0.917,0.917,0,0,0-.917-0.917H58.667a0.917,0.917,0,0,0-.917.91L57.712,60.5H54.083v-8.25a0.917,0.917,0,0,0-.917-0.917H52.032L60.5,44.274l8.468,7.059H67.833Z"/></svg>