<svg id="Layer_1" data-name="Layer 1" xmlns="http://www.w3.org/2000/svg" xmlns:xlink="http://www.w3.org/1999/xlink" width="128.248" height="128.25" viewBox="0 0 128.248 128.25"><defs><style>.cls-1{fill:none;}.cls-2{clip-path:url(#clip-path);}.cls-3{fill:#1b63af;}.cls-4{fill:#3575bb;}.cls-5{fill:#5792cd;}.cls-6{fill:#fff;}</style><clipPath id="clip-path"><circle class="cls-1" cx="64.123" cy="64.125" r="50.477"/></clipPath></defs><title>ico mobile back</title><g class="cls-2"><circle class="cls-3" cx="64.123" cy="64.125" r="50.477"/><rect class="cls-4" x="29.441" y="38.904" width="1" height="118.323" transform="translate(-60.573 49.894) rotate(-45)"/><rect class="cls-4" x="32.135" y="36.237" width="1" height="118.322" transform="translate(-57.898 51.018) rotate(-45)"/><rect class="cls-4" x="34.828" y="33.57" width="1" height="118.322" transform="translate(-55.224 52.141) rotate(-45)"/><rect class="cls-4" x="37.521" y="30.904" width="1" height="118.323" transform="translate(-52.549 53.264) rotate(-45)"/><rect class="cls-4" x="40.215" y="28.237" width="1" height="118.322" transform="translate(-49.875 54.388) rotate(-45)"/><rect class="cls-4" x="42.908" y="25.57" width="1" height="118.323" transform="translate(-47.2 55.511) rotate(-45)"/><rect class="cls-4" x="45.601" y="22.904" width="1" height="118.322" transform="translate(-44.526 56.635) rotate(-45)"/><rect class="cls-4" x="48.295" y="20.237" width="1" height="118.322" transform="translate(-41.852 57.758) rotate(-45)"/><rect class="cls-4" x="50.988" y="17.57" width="1" height="118.323" transform="translate(-39.177 58.882) rotate(-45)"/><rect class="cls-4" x="53.682" y="14.904" width="1" height="118.322" transform="translate(-36.502 60.005) rotate(-45)"/><rect class="cls-4" x="56.375" y="12.237" width="1" height="118.323" transform="translate(-33.828 61.129) rotate(-45)"/><rect class="cls-4" x="59.068" y="9.57" width="1" height="118.323" transform="translate(-31.154 62.252) rotate(-45)"/><rect class="cls-4" x="61.761" y="6.904" width="1" height="118.323" transform="translate(-28.479 63.376) rotate(-45)"/><rect class="cls-4" x="64.455" y="4.237" width="1" height="118.323" transform="translate(-25.805 64.499) rotate(-45)"/><rect class="cls-4" x="67.148" y="1.57" width="1" height="118.323" transform="translate(-23.13 65.622) rotate(-45)"/><rect class="cls-4" x="69.841" y="-1.096" width="1" height="118.323" transform="translate(-20.456 66.746) rotate(-45)"/><rect class="cls-4" x="72.535" y="-3.763" width="1" height="118.322" transform="translate(-17.781 67.869) rotate(-45)"/><rect class="cls-4" x="75.228" y="-6.43" width="1" height="118.323" transform="translate(-15.107 68.992) rotate(-45)"/><rect class="cls-4" x="77.921" y="-9.096" width="1" height="118.322" transform="translate(-12.432 70.116) rotate(-45)"/><rect class="cls-4" x="80.615" y="-11.763" width="1" height="118.322" transform="translate(-9.758 71.239) rotate(-45)"/><rect class="cls-4" x="83.308" y="-14.43" width="1" height="118.323" transform="translate(-7.083 72.363) rotate(-45)"/><rect class="cls-4" x="86.001" y="-17.096" width="1" height="118.322" transform="translate(-4.409 73.486) rotate(-45)"/><rect class="cls-4" x="88.695" y="-19.763" width="1" height="118.322" transform="translate(-1.734 74.61) rotate(-45)"/><rect class="cls-4" x="91.388" y="-22.43" width="1" height="118.323" transform="translate(0.94 75.733) rotate(-45)"/><rect class="cls-4" x="94.081" y="-25.096" width="1" height="118.322" transform="translate(3.615 76.857) rotate(-45)"/><rect class="cls-4" x="96.775" y="-28.43" width="1" height="118.323" transform="translate(6.76 77.784) rotate(-45)"/></g><path class="cls-5" d="M64.079,128.25q-1.356,0-2.7-.057l-0.5-.021,0.042-1,0.5,0.021q1.326,0.055,2.665.056l0.81,0,0,1Zm2.839-.059-0.051-1,0.5-.026c1-.051,1.994-0.125,2.968-0.221l0.5-.049,0.1,1-0.5.049c-0.99.1-2,.173-3.014,0.225Zm-8.062-.15-0.5-.044c-1-.089-2.011-0.2-3-0.339l-0.5-.068L55,126.6l0.5,0.068c0.977,0.134,1.971.246,2.957,0.333l0.5,0.044Zm14.08-.393-0.144-.99,0.5-.072c0.975-.142,1.962-0.31,2.933-0.5l0.491-.1,0.19,0.981-0.491.1c-0.986.191-1.989,0.361-2.98,0.505Zm-20.074-.38-0.491-.091c-0.987-.183-1.982-0.392-2.958-0.621l-0.487-.114,0.229-.974,0.487,0.114c0.961,0.226,1.94.432,2.912,0.611l0.492,0.091Zm26.015-.725-0.236-.972,0.486-.118c0.956-.233,1.922-0.493,2.873-0.772l0.479-.141,0.282,0.959-0.479.141c-0.965.284-1.948,0.548-2.919,0.785Zm-31.909-.611-0.48-.137c-0.968-.277-1.941-0.58-2.893-0.9l-0.474-.16,0.32-.947,0.474,0.16c0.937,0.317,1.895.615,2.847,0.887l0.481,0.138Zm37.72-1.051-0.328-.945,0.472-.164c0.933-.324,1.871-0.674,2.788-1.042l0.464-.186,0.372,0.928-0.464.186c-0.932.374-1.884,0.729-2.832,1.058Zm-43.473-.843-0.466-.183c-0.935-.366-1.874-0.76-2.792-1.171l-0.457-.2,0.409-.913,0.456,0.2c0.9,0.4,1.828.792,2.749,1.153l0.465,0.182ZM90.31,122.68l-0.416-.909,0.455-.208c0.9-.413,1.8-0.85,2.671-1.3l0.444-.229,0.458,0.889-0.444.229c-0.884.456-1.8,0.9-2.713,1.319Zm-54.638-1.072-0.446-.226c-0.9-.454-1.795-0.935-2.668-1.429l-0.435-.247,0.493-.87,0.435,0.247c0.859,0.487,1.743.96,2.626,1.407l0.446,0.226Zm60.021-1.65-0.5-.866,0.433-.25c0.853-.492,1.707-1.012,2.538-1.545l0.421-.27,0.54,0.842-0.421.27c-0.844.542-1.711,1.07-2.578,1.57Zm-65.307-1.292-0.423-.267c-0.846-.534-1.694-1.1-2.52-1.673l-0.41-.286,0.572-.82,0.41,0.286c0.813,0.568,1.647,1.122,2.48,1.647l0.423,0.267Zm70.413-1.929-0.579-.816,0.408-.289c0.8-.569,1.6-1.167,2.383-1.778l0.394-.309,0.617,0.787-0.394.309c-0.791.62-1.605,1.228-2.421,1.806Zm-75.4-1.5-0.4-.305c-0.8-.615-1.589-1.255-2.351-1.9l-0.381-.324,0.647-.762,0.381,0.323c0.75,0.636,1.528,1.266,2.314,1.872l0.4,0.305Zm80.181-2.191-0.653-.757,0.378-.327c0.748-.645,1.49-1.315,2.207-1.994l0.363-.344,0.688,0.726-0.363.344c-0.728.69-1.482,1.372-2.241,2.026Zm-84.821-1.683-0.366-.341c-0.735-.686-1.462-1.4-2.162-2.112l-0.349-.358,0.715-.7,0.35,0.357c0.688,0.705,1.4,1.4,2.128,2.08l0.366,0.341ZM110,108.931l-0.721-.693,0.347-.361c0.685-.712,1.361-1.45,2.011-2.193l0.329-.376,0.753,0.658-0.329.376c-0.661.755-1.348,1.5-2.043,2.228Zm-93.494-1.852-0.332-.374c-0.668-.751-1.325-1.526-1.954-2.3l-0.314-.389,0.778-.628L15,103.772c0.619,0.766,1.266,1.529,1.923,2.269l0.333,0.374Zm97.51-2.666-0.783-.622,0.311-.392c0.619-.778,1.224-1.577,1.8-2.373l0.292-.406,0.811,0.585-0.293.405c-0.583.809-1.2,1.62-1.826,2.41Zm-101.343-2-0.3-.4c-0.59-.805-1.172-1.638-1.728-2.476l-0.276-.417,0.833-.553,0.276,0.417c0.548,0.825,1.12,1.645,1.7,2.437l0.3,0.4ZM117.59,99.537l-0.837-.546,0.273-.419c0.537-.822,1.064-1.674,1.568-2.532l0.253-.431,0.862,0.507-0.253.431c-0.512.871-1.048,1.736-1.593,2.572ZM9.3,97.408l-0.256-.429c-0.51-.854-1.011-1.737-1.487-2.625l-0.236-.44L8.2,93.44l0.236,0.44C8.9,94.755,9.4,95.625,9.9,96.466L10.154,96.9Zm111.4-3.064-0.886-.465,0.232-.443c0.462-.88.907-1.778,1.323-2.67l0.211-.453,0.906,0.423-0.211.453c-0.422.906-.875,1.818-1.344,2.712ZM6.407,92.112l-0.215-.452c-0.428-.9-0.843-1.827-1.231-2.753l-0.193-.461,0.922-.387,0.193,0.461c0.383,0.912.791,1.823,1.212,2.71L7.31,91.683ZM123.3,88.879L122.37,88.5l0.19-.462c0.375-.917.734-1.854,1.064-2.785l0.167-.471,0.942,0.335-0.167.471c-0.336.946-.7,1.9-1.082,2.829ZM4.031,86.563l-0.171-.47c-0.342-.939-0.667-1.9-0.967-2.864l-0.148-.478,0.955-.3,0.149,0.477c0.295,0.947.615,1.9,0.952,2.819l0.171,0.47Zm121.337-3.375-0.958-.29,0.145-.479c0.287-.949.554-1.914,0.794-2.868l0.122-.485,0.97,0.244-0.122.485c-0.244.969-.515,1.949-0.807,2.913ZM2.188,80.807l-0.125-.484c-0.251-.966-0.483-1.956-0.691-2.942l-0.1-.489,0.979-.206,0.1,0.489c0.2,0.971.433,1.945,0.68,2.9l0.126,0.484Zm124.7-3.468-0.98-.2,0.1-.49c0.195-.968.37-1.954,0.519-2.93l0.075-.494,0.989,0.151-0.076.495c-0.151.991-.329,1.993-0.526,2.976ZM0.9,74.9l-0.08-.494c-0.16-.992-0.3-2-0.411-2.994l-0.057-.5,0.994-.113L1.4,71.3c0.111,0.979.248,1.97,0.4,2.947l0.08,0.494Zm126.948-3.53-0.995-.1,0.052-.5c0.1-.981.183-1.979,0.239-2.966l0.028-.5,1,0.057-0.029.5c-0.057,1-.139,2.016-0.243,3.013ZM0.173,68.9L0.14,68.4q-0.064-.982-0.1-1.973Q0.02,65.907.01,65.385L0,64.885l1-.02,0.01,0.5q0.01,0.515.028,1.031,0.036,0.975.1,1.942l0.033,0.5Zm126.995-7.958c-0.049-.991-0.123-1.99-0.218-2.968l-0.048-.5,1-.1,0.048,0.5c0.1,0.993.171,2.008,0.222,3.015Zm1.039,0.874q0.042,1.178.042,2.347l-0.009,1.175-1-.011,0.009-1.165q0-1.151-.041-2.311ZM1.006,62.889l-1-.027,0.013-.5c0.027-1,.078-2.016.151-3.018l0.037-.5,1,0.073-0.037.5C1.1,60.4,1.046,61.4,1.02,62.389ZM1.4,56.952L0.4,56.832l0.06-.5c0.12-.989.266-2,0.434-2.991l0.083-.493,0.986,0.167-0.083.493c-0.166.98-.31,1.971-0.427,2.944Zm125.27-1.433-0.071-.5c-0.141-.975-0.308-1.962-0.495-2.934L126,51.6l0.982-.189,0.094,0.491c0.19,0.987.359,1.99,0.5,2.98l0.072,0.495ZM2.343,51.08l-0.977-.214,0.107-.488c0.214-.979.455-1.967,0.715-2.937l0.13-.483,0.966,0.26-0.13.483c-0.256.954-.494,1.927-0.7,2.891Zm123.241-1.41-0.118-.486c-0.232-.958-0.491-1.924-0.77-2.874l-0.141-.48,0.96-.281,0.141,0.48c0.283,0.965.545,1.947,0.781,2.92l0.118,0.486ZM3.845,45.316L2.893,45.01l0.153-.476c0.309-.962.643-1.925,0.994-2.861L4.215,41.2l0.936,0.351-0.175.468C4.63,42.945,4.3,43.893,4,44.84Zm120.112-1.368-0.164-.473c-0.325-.938-0.674-1.876-1.039-2.788l-0.186-.464,0.929-.371,0.186,0.464c0.37,0.927.726,1.879,1.056,2.832l0.164,0.472ZM5.889,39.717L4.97,39.323l0.2-.459c0.4-.921.819-1.848,1.26-2.752l0.219-.45,0.9,0.438-0.219.45c-0.434.891-.851,1.8-1.24,2.709Zm115.905-1.3-0.208-.455c-0.408-.9-0.844-1.794-1.3-2.672l-0.229-.444,0.889-.458,0.229,0.445c0.458,0.892.9,1.8,1.316,2.714L122.7,38ZM8.453,34.339l-0.877-.48,0.24-.438c0.482-.883.992-1.765,1.513-2.62l0.26-.427,0.854,0.521-0.26.427c-0.513.842-1.014,1.709-1.49,2.579Zm110.669-1.228-0.25-.433c-0.493-.856-1.013-1.71-1.543-2.54l-0.27-.421,0.842-.539,0.27,0.421c0.539,0.842,1.066,1.71,1.567,2.58l0.25,0.433ZM11.512,29.23l-0.829-.56,0.28-.415c0.562-.831,1.151-1.66,1.751-2.465l0.3-.4,0.8,0.6-0.3.4c-0.591.792-1.172,1.608-1.725,2.427Zm104.445-1.147-0.289-.408c-0.569-.8-1.167-1.606-1.775-2.385l-0.308-.394,0.788-.616,0.308,0.394c0.618,0.792,1.225,1.606,1.8,2.423l0.289,0.408ZM15.035,24.433L14.263,23.8l0.317-.386c0.635-.773,1.3-1.543,1.974-2.29l0.335-.371,0.742,0.67-0.335.371c-0.665.735-1.318,1.493-1.944,2.253Zm97.3-1.063-0.326-.379c-0.643-.747-1.313-1.49-1.992-2.209l-0.344-.363,0.727-.687,0.343,0.364c0.69,0.73,1.371,1.485,2.023,2.244l0.326,0.379ZM18.991,19.987l-0.709-.7,0.352-.355c0.713-.718,1.447-1.422,2.18-2.093l0.369-.338,0.675,0.738-0.369.337c-0.721.661-1.443,1.354-2.145,2.061Zm89.291-.972-0.36-.347c-0.712-.685-1.449-1.363-2.191-2.014l-0.376-.33,0.659-.752,0.376,0.33c0.754,0.661,1.5,1.35,2.226,2.046l0.36,0.347ZM23.344,15.934L22.7,15.167l0.384-.32c0.765-.639,1.561-1.271,2.365-1.88l0.4-.3,0.6,0.8-0.4.3c-0.791.6-1.574,1.222-2.328,1.851Zm80.5-.877-0.391-.312c-0.771-.615-1.569-1.22-2.371-1.8l-0.405-.293,0.586-.811,0.405,0.293c0.815,0.589,1.625,1.2,2.408,1.829l0.391,0.312ZM28.054,12.309l-0.565-.825L27.9,11.2c0.825-.565,1.676-1.12,2.529-1.648l0.425-.263,0.526,0.851-0.425.263c-0.84.52-1.678,1.066-2.49,1.623Zm70.988-.778-0.418-.273c-0.829-.542-1.68-1.07-2.53-1.57l-0.431-.254,0.507-.862L96.6,8.824c0.864,0.508,1.729,1.045,2.571,1.6l0.418,0.274ZM33.082,9.143L32.6,8.268l0.437-.242c0.878-.487,1.777-0.959,2.672-1.4L36.154,6.4,36.6,7.3l-0.448.222c-0.881.436-1.766,0.9-2.63,1.379Zm60.853-.673-0.442-.233c-0.884-.464-1.782-0.911-2.669-1.325L90.37,6.7l0.423-.906L91.247,6c0.9,0.422,1.813.875,2.71,1.347L94.4,7.584Zm-55.553-2-0.4-.917,0.458-.2c0.918-.4,1.86-0.788,2.8-1.146L41.7,4.027,42.06,4.961l-0.467.179c-0.922.352-1.849,0.731-2.753,1.127ZM88.556,5.9l-0.462-.19c-0.912-.375-1.849-0.735-2.783-1.067L84.84,4.478l0.335-.942L85.647,3.7c0.949,0.338,1.9.7,2.828,1.085l0.462,0.19ZM43.922,4.3l-0.312-.95,0.475-.156c0.956-.314,1.929-0.608,2.894-0.875l0.482-.133L47.727,3.15l-0.482.133c-0.95.262-1.908,0.552-2.848,0.861Zm39.036-.444L82.48,3.711c-0.948-.288-1.913-0.556-2.867-0.8l-0.485-.123,0.245-.97,0.485,0.123c0.97,0.245,1.95.518,2.912,0.81L83.249,2.9ZM49.642,2.669l-0.221-.976,0.488-.11c0.974-.22,1.971-0.421,2.963-0.6L53.365,0.9l0.174,0.985-0.493.087c-0.976.173-1.958,0.37-2.917,0.587ZM77.2,2.354l-0.49-.1c-0.967-.2-1.953-0.372-2.929-0.521l-0.495-.076,0.152-.989,0.494,0.076c0.992,0.152,1.994.331,2.976,0.529l0.49,0.1ZM55.492,1.586l-0.127-.992,0.5-.064c0.99-.127,2-0.233,3-0.316l0.5-.041,0.082,1-0.5.041c-0.989.081-1.985,0.186-2.959,0.311ZM71.33,1.4l-0.5-.053c-0.977-.1-1.975-0.185-2.965-0.243l-0.5-.029,0.058-1,0.5,0.029c1.006,0.059,2.02.142,3.012,0.247l0.5,0.052Zm-9.912-.347-0.035-1,0.5-.017Q63.028,0,64.164,0l1.242,0.01-0.012,1L64.164,1q-1.118,0-2.246.039Z"/><path class="cls-5" d="M64.1,119.81a55.7,55.7,0,1,1,2.029-.037C65.447,119.8,64.769,119.81,64.1,119.81ZM64.148,9.441c-0.663,0-1.325.012-1.992,0.036a54.684,54.684,0,1,0,56.615,52.682h0A54.753,54.753,0,0,0,64.148,9.441Z"/><path class="cls-6" d="M75.936,58.281H73.968a0.923,0.923,0,0,0,0,1.846h1.968A0.923,0.923,0,1,0,75.936,58.281Z"/><path class="cls-6" d="M76.179,65.9a1.9,1.9,0,0,0-1.5-.733h-21.1a1.907,1.907,0,0,0-1.85,2.37l0.492,1.969a1.9,1.9,0,0,0,1.85,1.445H74.183a1.9,1.9,0,0,0,1.85-1.445l0.492-1.969A1.9,1.9,0,0,0,76.179,65.9Zm-1.444,1.189-0.492,1.969a0.061,0.061,0,0,1-.06.047H54.065a0.062,0.062,0,0,1-.06-0.047l-0.492-1.969a0.061,0.061,0,0,1,.06-0.076h21.1A0.062,0.062,0,0,1,74.735,67.093Z"/><path class="cls-6" d="M88.733,60.126a2.891,2.891,0,0,0,0-5.783H87.748a2.9,2.9,0,0,0-2.855,2.431L82.432,50a3.887,3.887,0,0,0-3.642-2.551H71.771l-0.519-2.6a2.9,2.9,0,0,0-2.835-2.325H59.832A2.9,2.9,0,0,0,57,44.856l-0.519,2.6H49.458A3.888,3.888,0,0,0,45.816,50l-2.462,6.77A2.9,2.9,0,0,0,40.5,54.343H39.516a2.891,2.891,0,1,0,0,5.783H40.5a2.873,2.873,0,0,0,1.268-.293l-2.11,2.637a4.877,4.877,0,0,0-1.065,3.036V83.812A1.909,1.909,0,0,0,40.5,85.719h2.953a1.909,1.909,0,0,0,1.907-1.907v-4H82.888v4A1.909,1.909,0,0,0,84.8,85.719h2.953a1.909,1.909,0,0,0,1.907-1.907V65.506A4.877,4.877,0,0,0,88.59,62.47l-2.11-2.637a2.873,2.873,0,0,0,1.268.293h0.984ZM40.5,58.281H39.516a1.046,1.046,0,0,1,0-2.092H40.5A1.046,1.046,0,0,1,40.5,58.281ZM58.806,45.218a1.049,1.049,0,0,1,1.025-.841h8.584a1.049,1.049,0,0,1,1.025.841l0.447,2.235H58.359ZM43.514,83.812a0.062,0.062,0,0,1-.062.062H40.5a0.062,0.062,0,0,1-.062-0.062V79.237a3.852,3.852,0,0,0,2.03.576h1.046v4h0Zm31.5-5.845H53.235v-2.03a0.062,0.062,0,0,1,.062-0.062H74.952a0.062,0.062,0,0,1,.062.062v2.03h0Zm12.8,5.845a0.062,0.062,0,0,1-.062.062H84.8a0.062,0.062,0,0,1-.062-0.062v-4h1.046a3.852,3.852,0,0,0,2.03-.576v4.575h0Zm-0.66-20.189a3.027,3.027,0,0,1,.661,1.883V75.937a2.032,2.032,0,0,1-2.03,2.03H76.859v-2.03a1.909,1.909,0,0,0-1.907-1.907H53.3a1.909,1.909,0,0,0-1.907,1.907v2.03H42.469a2.032,2.032,0,0,1-2.03-2.03V65.506a3.025,3.025,0,0,1,.661-1.883l2.8-3.5H70.03a0.923,0.923,0,0,0,0-1.846H44.77l2.78-7.646A2.036,2.036,0,0,1,49.459,49.3H78.79A2.036,2.036,0,0,1,80.7,50.635l2.78,7.646h-3.6a0.923,0.923,0,0,0,0,1.846h4.478ZM86.7,57.235a1.047,1.047,0,0,1,1.046-1.046h0.984a1.046,1.046,0,1,1,0,2.092H87.748A1.047,1.047,0,0,1,86.7,57.235Z"/><path class="cls-6" d="M46.406,72.061a1.907,1.907,0,1,0,1.907,1.907A1.909,1.909,0,0,0,46.406,72.061Z"/><path class="cls-6" d="M81.842,72.061a1.907,1.907,0,1,0,1.907,1.907A1.909,1.909,0,0,0,81.842,72.061Z"/><path class="cls-6" d="M45.914,64.187A3.384,3.384,0,1,0,49.3,67.57,3.387,3.387,0,0,0,45.914,64.187Zm0,4.922a1.538,1.538,0,1,1,1.538-1.538A1.54,1.54,0,0,1,45.914,69.108Z"/><path class="cls-6" d="M82.334,64.187a3.384,3.384,0,1,0,3.384,3.384A3.387,3.387,0,0,0,82.334,64.187Zm0,4.922a1.538,1.538,0,1,1,1.538-1.538A1.54,1.54,0,0,1,82.334,69.108Z"/></svg>